<svg xmlns="http://www.w3.org/2000/svg" width="23.325" height="16.438" viewBox="0 0 23.325 16.438">
  <g id="air-conditioner" transform="translate(0 -67.167)">
    <path id="Path_1037" data-name="Path 1037" d="M21.8,67.167H1.529A1.531,1.531,0,0,0,0,68.7v7.826a.384.384,0,0,0,.384.384H22.94a.384.384,0,0,0,.384-.384V68.7A1.531,1.531,0,0,0,21.8,67.167Zm-20.129.769H21.659v.488a.461.461,0,0,1-.461.461H2.127a.461.461,0,0,1-.461-.461v-.488Zm19.992,6.28H1.666v-.052a.461.461,0,0,1,.461-.461H21.2a.461.461,0,0,1,.461.461v.052Zm-19.992.513H21.659v.513H1.666Zm0,1.025H21.659v.384H1.666Zm20.89.384h-.384V74.164a.975.975,0,0,0-.973-.973H2.127a.975.975,0,0,0-.973.973v1.974H.769V68.7a.76.76,0,0,1,.384-.66v.387a.975.975,0,0,0,.973.973H21.2a.975.975,0,0,0,.973-.973v-.387a.76.76,0,0,1,.384.66Z" fill="#29335c"/>
    <path id="Path_1038" data-name="Path 1038" d="M202.114,164.667h-2.358a.256.256,0,1,0,0,.513h2.358a.256.256,0,1,0,0-.513Z" transform="translate(-189.273 -92.502)" fill="#29335c"/>
    <path id="Path_1039" data-name="Path 1039" d="M396.759,164.668a.256.256,0,1,0,.181.075A.258.258,0,0,0,396.759,164.668Z" transform="translate(-376.177 -92.503)" fill="#29335c"/>
    <path id="Path_1040" data-name="Path 1040" d="M373.759,164.668a.256.256,0,1,0,.181.075A.258.258,0,0,0,373.759,164.668Z" transform="translate(-354.356 -92.503)" fill="#29335c"/>
    <path id="Path_1041" data-name="Path 1041" d="M171.575,282.876a.256.256,0,0,0-.447-.251,2.771,2.771,0,0,0,0,2.694,2.256,2.256,0,0,1,0,2.193.256.256,0,1,0,.447.251,2.771,2.771,0,0,0,0-2.694A2.256,2.256,0,0,1,171.575,282.876Z" transform="translate(-162.023 -204.289)" fill="#29335c"/>
    <path id="Path_1042" data-name="Path 1042" d="M217.118,282.876a.256.256,0,0,0-.447-.251,2.771,2.771,0,0,0,0,2.694,2.256,2.256,0,0,1,0,2.193.256.256,0,1,0,.447.251,2.771,2.771,0,0,0,0-2.694A2.256,2.256,0,0,1,217.118,282.876Z" transform="translate(-205.232 -204.289)" fill="#29335c"/>
    <path id="Path_1043" data-name="Path 1043" d="M262.661,282.876a.256.256,0,0,0-.447-.251,2.771,2.771,0,0,0,0,2.694,2.256,2.256,0,0,1,0,2.193.256.256,0,1,0,.447.251,2.771,2.771,0,0,0,0-2.694A2.256,2.256,0,0,1,262.661,282.876Z" transform="translate(-248.441 -204.289)" fill="#29335c"/>
  </g>
</svg>
