<svg id="Capa_1" enable-background="new 0 0 512 512" height="512" viewBox="0 0 512 512" width="512" xmlns="http://www.w3.org/2000/svg"><g><g><path d="m188.445 512h-139.395c-17.068 0-30.905-13.837-30.905-30.905v-273.346c0-26.242 6.426-52.084 18.717-75.27l43.094-81.294h77.584l43.094 81.294c12.291 23.186 18.717 49.028 18.717 75.27v273.346c-.001 17.068-13.838 30.905-30.906 30.905z" fill="#f9f6f6"/><path d="m219.35 211.556v-3.808c0-20.969-4.115-41.679-12.035-60.986v-22.17l-21.372-40.316h-10.862l-17.541-33.092h-30l9.178 17.313c5.66 10.677 8.619 22.578 8.619 34.662v391.629c0 8.899 6.754 16.219 15.415 17.118-.762.056-1.53.095-2.306.095h4.104 34.503 10.863c12.316 0 22.3-9.984 22.3-22.3v-278.145z" fill="#f6f1f1"/><path d="m162.69 0h-87.886c-5.689 0-10.302 4.612-10.302 10.302v30.581c0 5.69 4.612 10.302 10.302 10.302h87.886c5.689 0 10.302-4.612 10.302-10.302v-30.581c0-5.69-4.612-10.302-10.302-10.302z" fill="#8b818e"/><path d="m162.69 0h-30.905c5.689 0 10.302 4.612 10.302 10.302v30.581c0 5.69-4.613 10.302-10.302 10.302h30.905c5.689 0 10.302-4.612 10.302-10.302v-30.581c0-5.69-4.612-10.302-10.302-10.302z" fill="#756e78"/><path d="m18.145 250.797h201.206v125.359h-201.206z" fill="#9dc6fb"/><path d="m145.336 250.797h74.014v125.359h-74.014z" fill="#80b4fb"/></g><path d="m431.876 92.883v110.068c0 4.753-3.853 8.606-8.606 8.606h-188.211c-4.753 0-8.606-3.853-8.606-8.606v-110.068c0-4.753-3.853-8.606-8.606-8.606h-44.767c-4.753 0-8.606 3.853-8.606 8.606v393.299c0 14.259 11.559 25.818 25.818 25.818h277.745c14.259 0 25.818-11.559 25.818-25.818v-393.299c0-4.753-3.853-8.606-8.606-8.606h-44.767c-4.753 0-8.606 3.853-8.606 8.606z" fill="#ecf5ff"/><g fill="#dceafc"><path d="m195.547 193.929c0 4.753 3.853 8.606 8.606 8.606h22.299v-109.652c0-4.753-3.853-8.606-8.606-8.606h-22.299z"/><path d="m485.249 84.277h-22.299v248.647c0 90.367-73.257 163.624-163.624 163.624h-132.681c3.993 9.097 13.075 15.453 23.647 15.453h277.745c14.259 0 25.818-11.559 25.818-25.818v-393.3c0-4.753-3.853-8.606-8.606-8.606z"/></g><g fill="#b3e59f"><path d="m453.644 324.854c-3.359-2.628-8.216-2.036-10.846 1.327l-15.295 19.559c-7.681-46.646-48.281-82.344-97.068-82.344-29.444 0-57.099 13.03-75.873 35.751-2.718 3.289-2.256 8.159 1.034 10.877 3.289 2.716 8.159 2.256 10.877-1.034 15.829-19.155 39.143-30.141 63.962-30.141 41.816 0 76.484 31.117 82.111 71.408l-22.531-17.62c-3.359-2.628-8.216-2.036-10.846 1.327-2.629 3.361-2.034 8.217 1.327 10.846l35.706 27.922c2.843 2.316 8.326 2.264 10.846-1.327l27.922-35.706c2.63-3.36 2.035-8.216-1.326-10.845z"/><path d="m417.498 388.291c-3.959-1.587-8.459.339-10.045 4.301-12.678 31.66-42.909 52.117-77.018 52.117-45.727 0-82.93-37.202-82.93-82.93 0-4.66.393-9.273 1.153-13.811l18.329 23.438c2.644 3.38 7.508 3.937 10.846 1.327 3.361-2.629 3.956-7.485 1.327-10.846l-27.757-35.494c-3.161-2.874-5.244-4.924-11.012-1.539l-35.706 27.923c-3.361 2.629-3.956 7.485-1.327 10.846 2.63 3.362 7.486 3.955 10.846 1.327l18.511-14.476c-.428 3.737-.663 7.507-.663 11.305 0 54.249 44.134 98.382 98.382 98.382 40.462 0 76.324-24.268 91.364-61.825 1.586-3.962-.338-8.459-4.3-10.045z"/></g></g></svg>