<svg xmlns="http://www.w3.org/2000/svg" width="25.484" height="10.201" viewBox="0 0 25.484 10.201">
  <g id="noun_Car_931840" transform="translate(-4.87 -32.277)">
    <g id="Group_5101" data-name="Group 5101" transform="translate(5 32.602)">
      <path id="Path_1044" data-name="Path 1044" d="M7.812,44.882c-.018-.1-.113-.178-.261-.219a3.084,3.084,0,0,0-1.216.132c-.038.375-.079.813-.112,1.248.419-.255,1.284-.783,1.476-.924A.248.248,0,0,0,7.812,44.882Z" transform="translate(-5.88 -41.265)" fill="none" stroke="#29335c" stroke-width="0.25"/>
      <path id="Path_1045" data-name="Path 1045" d="M74.6,53.681a1.783,1.783,0,1,0,1.783,1.783A1.785,1.785,0,0,0,74.6,53.681Zm0,2.878a1.094,1.094,0,1,1,1.094-1.094A1.1,1.1,0,0,1,74.6,56.559Z" transform="translate(-53.813 -47.775)" fill="none" stroke="#29335c" stroke-width="0.25"/>
      <circle id="Ellipse_20" data-name="Ellipse 20" cx="0.817" cy="0.817" r="0.817" transform="translate(19.968 6.873)" fill="none" stroke="#29335c" stroke-width="0.25"/>
      <circle id="Ellipse_21" data-name="Ellipse 21" cx="0.817" cy="0.817" r="0.817" transform="translate(4.109 6.732)" fill="none" stroke="#29335c" stroke-width="0.25"/>
      <path id="Path_1046" data-name="Path 1046" d="M83.845,47.713a4.747,4.747,0,0,0,1.428.949.778.778,0,0,0,.721-.123c.006-.006.037-.04.03-.059-.089-.233-.648-.483-1.708-.765A1.574,1.574,0,0,0,83.845,47.713Z" transform="translate(-61.753 -43.467)" fill="none" stroke="#29335c" stroke-width="0.25"/>
      <path id="Path_1047" data-name="Path 1047" d="M18,53.181a1.783,1.783,0,1,0,1.783,1.783A1.785,1.785,0,0,0,18,53.181Zm0,2.877a1.094,1.094,0,1,1,1.094-1.094A1.1,1.1,0,0,1,18,56.058Z" transform="translate(-13.073 -47.415)" fill="none" stroke="#29335c" stroke-width="0.25"/>
      <path id="Path_1048" data-name="Path 1048" d="M45.412,45.683a.4.4,0,0,0-.522-.009c.113,0,.234,0,.353,0Z" transform="translate(-33.713 -41.946)" fill="none" stroke="#29335c" stroke-width="0.25"/>
      <path id="Path_1049" data-name="Path 1049" d="M30.154,38.567a.97.97,0,0,1-.677.248,1.071,1.071,0,0,1-.331-.052c-.428-.139-1.6-.9-1.637-1.215a.219.219,0,0,1,.066-.184c.153-.149.571-.11.745-.085l.017,0c.113.03.217.059.317.088a26.832,26.832,0,0,0-3.855-.892.138.138,0,0,1-.052-.019,37.05,37.05,0,0,0-4.358-2.333,19.992,19.992,0,0,0-7.734-.313A15.891,15.891,0,0,0,8.548,35.93a.14.14,0,0,1-.08.025H6.261c-.014.122-.038.33-.064.586a3,3,0,0,1,1.26-.1.585.585,0,0,1,.459.437.522.522,0,0,1-.222.51c-.237.174-1.385.871-1.664,1.04A9.413,9.413,0,0,0,6.01,39.9c.053.41.948.77,2.349.95v-.022a2.278,2.278,0,0,1,4.555,0c0,.061,0,.121-.007.182l3.168.084h.055l-.353-4.535-.044,0-.007,0-3.585-.284a.128.128,0,0,1-.042-.01c-.1-.04-.954-.41-.832-.931a.136.136,0,0,1,.051-.078,6.393,6.393,0,0,1,2.687-1.113,22.018,22.018,0,0,1,5.909.214A26.273,26.273,0,0,1,24.652,37a.139.139,0,0,1-.078.253h-.011l-8.507-.672.352,4.523,7.859.21a2.278,2.278,0,1,1,4.48.109l1.9-.06a7.838,7.838,0,0,0-.392-2.975A.372.372,0,0,1,30.154,38.567Zm-12.367-.978a.684.684,0,0,1-1.284,0,.273.273,0,0,1-.157-.239.258.258,0,0,1,.08-.189.323.323,0,0,1,.079-.054.683.683,0,0,1,1.284.011.254.254,0,0,1,0,.469Z" transform="translate(-5.712 -33.305)" fill="none" stroke="#29335c" stroke-width="0.25"/>
      <path id="Path_1050" data-name="Path 1050" d="M28.29,36.28A6.212,6.212,0,0,0,25.779,37.3c.01.215.422.459.653.558l3.728.294h0L38.3,38.8a22.457,22.457,0,0,0-4.212-2.315A21.577,21.577,0,0,0,28.29,36.28Z" transform="translate(-19.957 -35.173)" fill="none" stroke="#29335c" stroke-width="0.25"/>
      <path id="Path_1051" data-name="Path 1051" d="M45.053,46.9c-.065,0-.138,0-.214,0a3.465,3.465,0,0,0-.495.008c0,.01,0,.019,0,.029s0,.017,0,.026a2.934,2.934,0,0,0,.5.011c.13,0,.245-.008.319-.015,0-.008,0-.015,0-.022s0-.017,0-.025A.7.7,0,0,0,45.053,46.9Z" transform="translate(-33.318 -42.89)" fill="none" stroke="#29335c" stroke-width="0.25"/>
      <path id="Path_1052" data-name="Path 1052" d="M44.991,48.162l-.1,0a.4.4,0,0,0,.521-.008l-.169.005C45.16,48.16,45.074,48.162,44.991,48.162Z" transform="translate(-33.715 -43.795)" fill="none" stroke="#29335c" stroke-width="0.25"/>
      <path id="Path_1053" data-name="Path 1053" d="M19.768,55.64a1.094,1.094,0,1,0,1.094,1.094A1.1,1.1,0,0,0,19.768,55.64Zm0,1.911a.817.817,0,1,1,.817-.817A.818.818,0,0,1,19.768,57.551Z" transform="translate(-14.843 -49.185)" fill="#29335c" stroke="#29335c" stroke-width="0.25"/>
      <path id="Path_1054" data-name="Path 1054" d="M76.368,56.14a1.094,1.094,0,1,0,1.094,1.094A1.1,1.1,0,0,0,76.368,56.14Zm0,1.912a.817.817,0,1,1,.817-.817A.818.818,0,0,1,76.368,58.052Z" transform="translate(-55.583 -49.545)" fill="#29335c" stroke="#29335c" stroke-width="0.25"/>
      <path id="Path_1055" data-name="Path 1055" d="M29.656,37.316c-.672-1.025-5.067-1.741-5.5-1.809a36.666,36.666,0,0,0-4.38-2.341,20.4,20.4,0,0,0-7.9-.325,15.549,15.549,0,0,0-4.169,2.134H5.426a.139.139,0,0,0-.138.122,30.424,30.424,0,0,0-.265,4.135c.1.787,1.769,1.1,2.755,1.21a.141.141,0,0,0,.1-.034,2.059,2.059,0,0,0,4.065.131.137.137,0,0,0,.089.04l11.685.312a.133.133,0,0,0,.084-.03,2.058,2.058,0,0,0,3.936.071.143.143,0,0,0,.007.015.138.138,0,0,0,.11.054h0l2.208-.07A.139.139,0,0,0,30.2,40.8C30.21,40.7,30.34,38.358,29.656,37.316Zm-.385.3c.007.018-.024.052-.03.059a.778.778,0,0,1-.721.123,4.751,4.751,0,0,1-1.428-.949,1.574,1.574,0,0,1,.47,0C28.623,37.132,29.182,37.383,29.271,37.616ZM5.455,36.133A3.084,3.084,0,0,1,6.67,36c.148.041.243.122.261.219a.248.248,0,0,1-.113.236c-.192.141-1.057.669-1.476.924C5.376,36.945,5.417,36.507,5.455,36.133Zm4.471,5.8a1.783,1.783,0,1,1,1.783-1.783A1.785,1.785,0,0,1,9.926,41.935Zm15.859.14a1.783,1.783,0,1,1,1.783-1.783A1.785,1.785,0,0,1,25.785,42.075Zm4.148-1.418-1.9.06a2.278,2.278,0,1,0-4.508-.463,2.317,2.317,0,0,0,.028.354L15.7,40.4l-.352-4.523,8.507.672h.011a.139.139,0,0,0,.078-.253A26.273,26.273,0,0,0,19.2,33.648a22.019,22.019,0,0,0-5.909-.214,6.388,6.388,0,0,0-2.687,1.113.139.139,0,0,0-.051.078c-.123.52.734.89.832.931a.134.134,0,0,0,.042.01l3.584.283.007,0,.044,0,.353,4.535h-.055L12.2,40.306c0-.061.007-.121.007-.182a2.278,2.278,0,0,0-4.555,0v.022c-1.4-.18-2.3-.54-2.349-.95a9.413,9.413,0,0,1,.02-1.477c.279-.169,1.427-.866,1.664-1.04a.522.522,0,0,0,.222-.51.585.585,0,0,0-.459-.437,3,3,0,0,0-1.26.1c.027-.256.05-.464.064-.586H7.755a.14.14,0,0,0,.08-.025,15.891,15.891,0,0,1,4.107-2.116,20,20,0,0,1,7.734.313,37.026,37.026,0,0,1,4.358,2.333.14.14,0,0,0,.052.019,26.841,26.841,0,0,1,3.855.892c-.1-.029-.2-.058-.317-.088l-.017,0c-.173-.024-.592-.063-.745.085a.219.219,0,0,0-.066.184c.035.314,1.209,1.075,1.637,1.215a1.071,1.071,0,0,0,.331.052.97.97,0,0,0,.677-.248.376.376,0,0,0,.1-.183A7.831,7.831,0,0,1,29.933,40.658ZM15.2,35.587h0l-3.728-.294c-.231-.1-.643-.343-.653-.558a6.2,6.2,0,0,1,2.511-1.025,21.558,21.558,0,0,1,5.8.207,22.441,22.441,0,0,1,4.212,2.315Z" transform="translate(-5 -32.602)" fill="#29335c" stroke="#29335c" stroke-width="0.25"/>
      <path id="Path_1056" data-name="Path 1056" d="M44.4,45.049a.683.683,0,0,0-1.284-.011.331.331,0,0,0-.079.054.258.258,0,0,0-.08.189.272.272,0,0,0,.157.239.684.684,0,0,0,1.284,0,.285.285,0,0,0,.157-.237A.288.288,0,0,0,44.4,45.049Zm-.644-.178a.406.406,0,0,1,.266.1l-.168-.005c-.119,0-.24-.008-.353,0A.407.407,0,0,1,43.751,44.871Zm0,.82A.406.406,0,0,1,43.5,45.6l.1,0c.083,0,.17,0,.255-.005l.169-.005A.406.406,0,0,1,43.751,45.691Zm.408-.388c-.074.008-.189.011-.319.015a2.963,2.963,0,0,1-.5-.011c0-.009,0-.017,0-.026s0-.019,0-.029a3.465,3.465,0,0,1,.495-.008c.076,0,.149,0,.214,0a.689.689,0,0,1,.105.008c0,.009,0,.017,0,.026A.2.2,0,0,1,44.159,45.3Z" transform="translate(-32.318 -41.234)" fill="#29335c" stroke="#29335c" stroke-width="0.25"/>
    </g>
  </g>
</svg>
