<svg xmlns="http://www.w3.org/2000/svg" width="22.105" height="14" viewBox="0 0 22.105 14">
  <g id="Group_5137" data-name="Group 5137" transform="translate(-831 -1799)">
    <path id="Shape" d="M21,0H1.105A1.105,1.105,0,0,0,0,1.105V12.895A1.105,1.105,0,0,0,1.105,14H21a1.105,1.105,0,0,0,1.105-1.105V1.105A1.105,1.105,0,0,0,21,0ZM1.105.737H21a.368.368,0,0,1,.368.368V4.421H.737V1.105A.368.368,0,0,1,1.105.737ZM21,13.263H1.105a.368.368,0,0,1-.368-.368V5.158H21.368v7.737A.368.368,0,0,1,21,13.263Z" transform="translate(831 1799)" fill="#29335c"/>
    <path id="Shape-2" data-name="Shape" d="M22.789,16H4.368A.368.368,0,0,0,4,16.368v5.895a.368.368,0,0,0,.368.368H22.789a.368.368,0,0,0,.368-.368V16.368A.368.368,0,0,0,22.789,16ZM9.526,20.421v-.737h8.105v.737Zm8.105.737v.737H9.526v-.737Zm0-2.947v.737H9.526v-.737Zm-8.105-.737v-.737h8.105v.737Zm8.842.737h4.053v.737H18.368Zm-9.579.737H4.737v-.737H8.789Zm-4.053.737H8.789v.737H4.737Zm13.632,0h4.053v.737H18.368Zm4.053-2.211H18.368v-.737h4.053ZM8.789,16.737v.737H4.737v-.737ZM4.737,21.158H8.789v.737H4.737Zm13.632.737v-.737h4.053v.737Z" transform="translate(828.474 1788.895)" fill="#29335c"/>
    <path id="Shape-3" data-name="Shape" d="M44.737,6.211h2.947a.737.737,0,0,0,.737-.737V4.737A.737.737,0,0,0,47.684,4H44.737A.737.737,0,0,0,44,4.737v.737A.737.737,0,0,0,44.737,6.211Zm0-1.474h2.947v.737H44.737Z" transform="translate(803.211 1796.474)" fill="#29335c"/>
    <path id="Shape-4" data-name="Shape" d="M34.737,6.211h1.474a.737.737,0,0,0,.737-.737V4.737A.737.737,0,0,0,36.211,4H34.737A.737.737,0,0,0,34,4.737v.737A.737.737,0,0,0,34.737,6.211Zm0-1.474h1.474v.737H34.737Z" transform="translate(809.526 1796.474)" fill="#29335c"/>
    <path id="Shape-5" data-name="Shape" d="M22.368,4.737h2.947a.368.368,0,1,0,0-.737H22.368a.368.368,0,0,0,0,.737Z" transform="translate(817.105 1796.474)" fill="#29335c"/>
    <ellipse id="Oval" cx="0.5" rx="0.5" transform="translate(842 1802)" fill="#29335c"/>
    <circle id="Oval-2" data-name="Oval" transform="translate(841 1802)" fill="#29335c"/>
    <ellipse id="Oval-3" data-name="Oval" cx="0.5" rx="0.5" transform="translate(839 1802)" fill="#29335c"/>
  </g>
</svg>
