<svg id="Capa_1" enable-background="new 0 0 512 512" height="512" viewBox="0 0 512 512" width="512" xmlns="http://www.w3.org/2000/svg"><g><path d="m370 0h-228c-24.813 0-45 20.187-45 45v422c0 24.813 20.187 45 45 45h228c24.813 0 45-20.187 45-45v-422c0-24.813-20.187-45-45-45zm-243 45c0-8.271 6.729-15 15-15h35v59c0 8.271-6.729 15-15 15h-35zm258 422c0 8.271-6.729 15-15 15h-228c-8.271 0-15-6.729-15-15v-333h35c24.813 0 45-20.187 45-45v-59h163c8.271 0 15 6.729 15 15z"/><path d="m285.454 422h-58.908c-8.284 0-15 6.716-15 15s6.716 15 15 15h58.908c8.284 0 15-6.716 15-15s-6.716-15-15-15z"/><path d="m295.558 191.68c-2.782-4.173-7.465-6.68-12.48-6.68h-54.154c-5.016 0-9.698 2.506-12.48 6.68l-27.077 40.615c-4.176 6.264-3.063 14.652 2.603 19.609l54.154 47.385c2.826 2.474 6.351 3.711 9.876 3.711s7.05-1.237 9.878-3.711l54.154-47.385c5.665-4.957 6.778-13.346 2.603-19.609zm-39.558 76.388-34.376-30.079 15.326-22.989h38.1l15.326 22.99z"/></g></svg>