<svg xmlns="http://www.w3.org/2000/svg" width="15.067" height="15.587" viewBox="0 0 15.067 15.587">
  <g id="cityscape" transform="translate(-6.535 -4)">
    <g id="Group_5057" data-name="Group 5057" transform="translate(6.535 4)">
      <g id="Group_5056" data-name="Group 5056" transform="translate(0)">
        <path id="Path_1015" data-name="Path 1015" d="M42.927,375.468a.26.26,0,0,0-.26.26v.52a.26.26,0,0,0,.52,0v-.52A.26.26,0,0,0,42.927,375.468Z" transform="translate(-41.628 -364.038)" fill="#fff"/>
        <path id="Path_1016" data-name="Path 1016" d="M42.927,426.668a.26.26,0,0,0-.26.26v.52a.26.26,0,0,0,.52,0v-.52A.26.26,0,0,0,42.927,426.668Z" transform="translate(-41.628 -413.679)" fill="#fff"/>
        <path id="Path_1017" data-name="Path 1017" d="M42.927,324.268a.26.26,0,0,0-.26.26v.52a.26.26,0,0,0,.52,0v-.52A.26.26,0,0,0,42.927,324.268Z" transform="translate(-41.628 -314.396)" fill="#fff"/>
        <path id="Path_1018" data-name="Path 1018" d="M77.06,375.468a.26.26,0,0,0-.26.26v.52a.26.26,0,0,0,.52,0v-.52A.26.26,0,0,0,77.06,375.468Z" transform="translate(-74.722 -364.038)" fill="#fff"/>
        <path id="Path_1019" data-name="Path 1019" d="M77.06,324.268a.26.26,0,0,0-.26.26v.52a.26.26,0,0,0,.52,0v-.52A.26.26,0,0,0,77.06,324.268Z" transform="translate(-74.722 -314.396)" fill="#fff"/>
        <path id="Path_1020" data-name="Path 1020" d="M77.06,426.668a.26.26,0,0,0-.26.26v.52a.26.26,0,0,0,.52,0v-.52A.26.26,0,0,0,77.06,426.668Z" transform="translate(-74.722 -413.679)" fill="#fff"/>
        <path id="Path_1021" data-name="Path 1021" d="M23.342,2.858h-.52V2.078a.26.26,0,0,0-.26-.26H21a.26.26,0,0,0-.26.26v.779h-.52a.26.26,0,0,0-.26.26V7.274h-.26V6.494a.26.26,0,0,0-.26-.26h-.26v-.26a.26.26,0,1,0-.52,0v.26h-.26a.26.26,0,0,0-.26.26v.779h-.779v-5.2a.26.26,0,0,0-.26-.26h-.779V.26a.26.26,0,0,0-.26-.26H12.951a.26.26,0,0,0-.26.26V1.818h-.779a.26.26,0,0,0-.26.26V8.832h-.52V8.053a.26.26,0,0,0-.26-.26H9.314a.26.26,0,0,0-.26.26v.779h-.26a.26.26,0,0,0-.26.26v6.235a.26.26,0,0,0,.26.26H23.342a.26.26,0,0,0,.26-.26V3.117A.26.26,0,0,0,23.342,2.858Zm-7.534.26a.26.26,0,1,1,.52,0V7.274h-.52V3.117ZM14.77,1.3a.26.26,0,1,1,.52,0v.779a.26.26,0,1,1-.52,0Zm0,1.818a.26.26,0,0,1,.52,0V7.274h-.52V3.117ZM13.73,1.3a.26.26,0,0,1,.52,0v.779a.26.26,0,0,1-.52,0ZM12.691,3.117a.26.26,0,0,1,.52,0V8.832h-.52V3.117Zm1.039,11.43h-.779a.26.26,0,1,1,0-.52h.779Zm0-1.039h-.779a.26.26,0,1,1,0-.52h.779Zm0-1.039h-.779a.26.26,0,1,1,0-.52h.779Zm0-1.039h-.779a.26.26,0,1,1,0-.52h.779Zm0-1.559H11.912a.26.26,0,0,0-.26.26v4.936h-2.6V9.352H13.73v.52Zm0-2.338V3.117a.26.26,0,0,1,.52,0V7.274h-.26A.26.26,0,0,0,13.73,7.534Zm6.235,7.534h-.52V8.573a.26.26,0,1,0-.52,0v6.494h-.52V8.573a.26.26,0,1,0-.52,0v6.494h-.52V8.573a.26.26,0,1,0-.52,0v6.494h-.52V8.573a.26.26,0,0,0-.52,0v6.494h-.52V8.573a.26.26,0,0,0-.52,0v6.494h-.52V7.793h5.715Zm1.559-.988a.26.26,0,1,1-.52,0v-.52a.26.26,0,1,1,.52,0Zm0-1.559a.26.26,0,1,1-.52,0V12a.26.26,0,1,1,.52,0Zm0-1.559a.26.26,0,1,1-.52,0v-.52a.26.26,0,1,1,.52,0Zm0-1.559a.26.26,0,1,1-.52,0v-.52a.26.26,0,1,1,.52,0Zm0-1.559a.26.26,0,1,1-.52,0v-.52a.26.26,0,1,1,.52,0Zm0-1.559a.26.26,0,1,1-.52,0v-.52a.26.26,0,1,1,.52,0Zm0-1.559a.26.26,0,1,1-.52,0v-.52a.26.26,0,1,1,.52,0Zm1.039,9.352a.26.26,0,1,1-.52,0v-.52a.26.26,0,1,1,.52,0Zm0-1.559a.26.26,0,1,1-.52,0V12a.26.26,0,1,1,.52,0Zm0-1.559a.26.26,0,1,1-.52,0v-.52a.26.26,0,1,1,.52,0Zm0-1.559a.26.26,0,1,1-.52,0v-.52a.26.26,0,1,1,.52,0Zm0-1.559a.26.26,0,1,1-.52,0v-.52a.26.26,0,1,1,.52,0Zm0-1.559a.26.26,0,1,1-.52,0v-.52a.26.26,0,1,1,.52,0Zm0-1.559a.26.26,0,1,1-.52,0v-.52a.26.26,0,1,1,.52,0Z" transform="translate(-8.535)" fill="#fff"/>
      </g>
    </g>
  </g>
</svg>
