<svg id="noun_Computer_2902211" xmlns="http://www.w3.org/2000/svg" width="21.333" height="15.922" viewBox="0 0 21.333 15.922">
  <g id="Group_5102" data-name="Group 5102">
    <path id="Path_1057" data-name="Path 1057" d="M12.506,0H.935A.935.935,0,0,0,0,.935V8.155a.935.935,0,0,0,.935.935H5.3V10.5H3.414a.445.445,0,1,0,0,.891h6.607a.445.445,0,1,0,0-.891H8.139V9.09h4.367a.938.938,0,0,0,.935-.935V.935A.938.938,0,0,0,12.506,0Zm.045,8.155a.045.045,0,0,1-.045.045H.935a.045.045,0,0,1-.045-.045V.935A.045.045,0,0,1,.935.891h11.58a.045.045,0,0,1,.045.045Z" fill="#29335c"/>
    <path id="Path_1058" data-name="Path 1058" d="M14.364,60.138a.445.445,0,0,0-.43-.269H3.8a.445.445,0,0,0-.43.269l-.6,1.621a.4.4,0,0,0,.432.5H14.529a.4.4,0,0,0,.43-.5Zm-5,.305h.575a.223.223,0,1,1,0,.445H9.367a.223.223,0,1,1,0-.445Zm-1.708,0h.575a.223.223,0,1,1,0,.445H7.659a.223.223,0,1,1,0-.445Zm-1.71,0h.575a.223.223,0,1,1,0,.445H5.949a.223.223,0,1,1,0-.445ZM4.82,61.712h-.8a.223.223,0,0,1,0-.445h.8a.223.223,0,0,1,0,.445Zm0-.824H4.238a.223.223,0,0,1,0-.445H4.82a.223.223,0,0,1,0,.445Zm1.781.824H5.793a.223.223,0,0,1,0-.445H6.6a.223.223,0,0,1,0,.445Zm1.781,0H7.57a.223.223,0,0,1,0-.445h.8a.223.223,0,0,1,0,.445Zm1.781,0H9.345a.223.223,0,0,1,0-.445h.8a.223.223,0,0,1,0,.445Zm.933-1.269h.577a.223.223,0,1,1,0,.445h-.6a.223.223,0,1,1,0-.445Zm.844,1.269h-.819a.223.223,0,0,1,0-.445h.8a.223.223,0,0,1,0,.445Zm.644-1.113a.223.223,0,0,1,.223-.223h.577a.223.223,0,1,1,0,.445h-.6a.223.223,0,0,1-.223-.214Zm1.133,1.113H12.9a.223.223,0,0,1,0-.445h.8a.223.223,0,0,1,0,.445Z" transform="translate(-2.147 -46.536)" fill="#29335c"/>
    <rect id="Rectangle_166" data-name="Rectangle 166" width="2.997" height="0.45" transform="translate(16.92 13.936)" fill="#29335c"/>
    <path id="Path_1059" data-name="Path 1059" d="M81.067,45.216a.563.563,0,1,0-.561.561A.563.563,0,0,0,81.067,45.216Z" transform="translate(-62.138 -34.707)" fill="#29335c"/>
    <path id="Path_1060" data-name="Path 1060" d="M74.723,10.9H69.6a.4.4,0,0,0-.4.4V23.994a.4.4,0,0,0,.4.4h5.122a.4.4,0,0,0,.4-.4V11.3a.4.4,0,0,0-.4-.4ZM74.5,23.647H69.924V21.622H74.5ZM70.806,18.97a.981.981,0,1,1-.007.011Zm3.3-2.632H70.193a.394.394,0,0,1,0-.786H74.1a.394.394,0,0,1,0,.786Zm0-1.276H70.193a.394.394,0,0,1,0-.786H74.1a.394.394,0,0,1,0,.786Zm0-1.274H70.193a.394.394,0,0,1,0-.786H74.1a.394.394,0,0,1,0,.786Zm0-1.276H70.193a.394.394,0,0,1,0-.786H74.1a.394.394,0,0,1,0,.786Z" transform="translate(-53.79 -8.473)" fill="#29335c"/>
  </g>
</svg>
