<svg xmlns="http://www.w3.org/2000/svg" width="18.833" height="17.103" viewBox="0 0 18.833 17.103">
  <g id="noun_cooler_2299739" transform="translate(-2 -5.031)">
    <g id="Group_5130" data-name="Group 5130" transform="translate(2 5.031)">
      <g id="Group_5126" data-name="Group 5126">
        <g id="Group_5106" data-name="Group 5106">
          <path id="Path_1084" data-name="Path 1084" d="M19.518,20.214H3.315A1.329,1.329,0,0,1,2,18.875V6.371a1.329,1.329,0,0,1,1.315-1.34h16.2a1.329,1.329,0,0,1,1.315,1.34v12.5A1.329,1.329,0,0,1,19.518,20.214ZM3.315,5.6a.758.758,0,0,0-.744.769v12.5a.758.758,0,0,0,.744.769h16.2a.758.758,0,0,0,.744-.769V6.371a.758.758,0,0,0-.744-.769Z" transform="translate(-2 -5.031)" fill="#29335c"/>
        </g>
        <g id="Group_5125" data-name="Group 5125" transform="translate(1.712)">
          <g id="Group_5116" data-name="Group 5116" transform="translate(0 2.104)">
            <g id="Group_5113" data-name="Group 5113" transform="translate(1.709 1.709)">
              <g id="Group_5109" data-name="Group 5109" transform="translate(1.839)">
                <g id="Group_5107" data-name="Group 5107" transform="translate(0.473)">
                  <path id="Path_1085" data-name="Path 1085" d="M22.888,21.81a.285.285,0,0,1-.275-.21l-.485-1.774a1.064,1.064,0,0,1,.131-.864,1.405,1.405,0,0,1,1.128-.527c.124-.023,1.473-.229,2,.565a.684.684,0,0,1-.137.906,4.941,4.941,0,0,0-1.318,1.459.285.285,0,0,1-.522-.23,5.3,5.3,0,0,1,1.477-1.67.115.115,0,0,0,.024-.151c-.272-.413-1.139-.366-1.451-.314a.937.937,0,0,0-.724.282.5.5,0,0,0-.055.383l.488,1.784a.285.285,0,0,1-.2.351A.294.294,0,0,1,22.888,21.81Z" transform="translate(-22.088 -18.394)" fill="#29335c"/>
                </g>
                <g id="Group_5108" data-name="Group 5108" transform="translate(0 4.148)">
                  <path id="Path_1086" data-name="Path 1086" d="M22.025,36.34a1.729,1.729,0,0,1-1.48-.607.684.684,0,0,1,.135-.9A4.882,4.882,0,0,0,22,33.371a.285.285,0,0,1,.523.227,5.24,5.24,0,0,1-1.473,1.669.114.114,0,0,0-.025.149c.273.414,1.14.37,1.452.317a.944.944,0,0,0,.721-.28.51.51,0,0,0,.057-.39l-.487-1.773a.285.285,0,0,1,.55-.151l.485,1.766a1.065,1.065,0,0,1-.131.864,1.407,1.407,0,0,1-1.127.529A3.2,3.2,0,0,1,22.025,36.34Z" transform="translate(-20.432 -32.931)" fill="#29335c"/>
                </g>
              </g>
              <g id="Group_5112" data-name="Group 5112" transform="translate(0 1.839)">
                <g id="Group_5110" data-name="Group 5110" transform="translate(4.142 0.473)">
                  <path id="Path_1087" data-name="Path 1087" d="M30.936,29.9a.684.684,0,0,1-.53-.253,4.871,4.871,0,0,0-1.458-1.312.285.285,0,1,1,.229-.523,5.3,5.3,0,0,1,1.665,1.466.116.116,0,0,0,.155.033c.414-.273.365-1.16.315-1.45a.946.946,0,0,0-.28-.723.506.506,0,0,0-.388-.057l-1.781.487a.285.285,0,0,1-.15-.551l1.774-.485a1.063,1.063,0,0,1,.862.13,1.407,1.407,0,0,1,.529,1.128c.023.125.229,1.471-.567,2A.68.68,0,0,1,30.936,29.9Z" transform="translate(-28.502 -26.495)" fill="#29335c"/>
                </g>
                <g id="Group_5111" data-name="Group 5111">
                  <path id="Path_1088" data-name="Path 1088" d="M15.126,28.245a1.007,1.007,0,0,1-.57-.17,1.407,1.407,0,0,1-.529-1.128c-.023-.125-.229-1.473.567-2a.684.684,0,0,1,.9.139A4.879,4.879,0,0,0,16.957,26.4a.285.285,0,0,1-.228.523,5.292,5.292,0,0,1-1.661-1.464.12.12,0,0,0-.159-.037c-.414.273-.368,1.141-.315,1.452a.938.938,0,0,0,.283.725.5.5,0,0,0,.381.055l1.783-.49a.285.285,0,1,1,.151.55l-1.773.487A1.035,1.035,0,0,1,15.126,28.245Z" transform="translate(-13.987 -24.837)" fill="#29335c"/>
                </g>
              </g>
            </g>
            <g id="Group_5114" data-name="Group 5114" transform="translate(4.272 4.272)">
              <path id="Path_1089" data-name="Path 1089" d="M24.185,29.807A1.216,1.216,0,1,1,25.4,28.592,1.217,1.217,0,0,1,24.185,29.807Zm0-1.86a.645.645,0,1,0,.645.645A.646.646,0,0,0,24.185,27.947Z" transform="translate(-22.97 -27.376)" fill="#29335c"/>
            </g>
            <g id="Group_5115" data-name="Group 5115">
              <path id="Path_1090" data-name="Path 1090" d="M13.487,23.38a5.487,5.487,0,1,1,5.487-5.487A5.493,5.493,0,0,1,13.487,23.38Zm0-10.4A4.916,4.916,0,1,0,18.4,17.893,4.922,4.922,0,0,0,13.487,12.977Z" transform="translate(-8 -12.406)" fill="#29335c"/>
            </g>
          </g>
          <g id="Group_5117" data-name="Group 5117" transform="translate(11.904)">
            <path id="Path_1091" data-name="Path 1091" d="M50,20.215a.285.285,0,0,1-.285-.285V5.317a.285.285,0,1,1,.571,0V19.929A.285.285,0,0,1,50,20.215Z" transform="translate(-49.716 -5.031)" fill="#29335c"/>
          </g>
          <g id="Group_5124" data-name="Group 5124" transform="translate(12.931 2.678)">
            <g id="Group_5118" data-name="Group 5118">
              <path id="Path_1092" data-name="Path 1092" d="M54.9,17.58A1.581,1.581,0,1,1,56.479,16,1.583,1.583,0,0,1,54.9,17.58Zm0-2.592A1.011,1.011,0,1,0,55.908,16,1.012,1.012,0,0,0,54.9,14.988Z" transform="translate(-53.316 -14.417)" fill="#29335c"/>
            </g>
            <g id="Group_5123" data-name="Group 5123" transform="translate(0.171 4.524)">
              <g id="Group_5119" data-name="Group 5119">
                <path id="Path_1093" data-name="Path 1093" d="M56.451,30.841H54.2a.285.285,0,1,1,0-.571h2.249a.285.285,0,1,1,0,.571Z" transform="translate(-53.916 -30.271)" fill="#29335c"/>
              </g>
              <g id="Group_5120" data-name="Group 5120" transform="translate(0 1.578)">
                <path id="Path_1094" data-name="Path 1094" d="M56.451,36.37H54.2a.285.285,0,1,1,0-.571h2.249a.285.285,0,1,1,0,.571Z" transform="translate(-53.916 -35.799)" fill="#29335c"/>
              </g>
              <g id="Group_5121" data-name="Group 5121" transform="translate(0 3.155)">
                <path id="Path_1095" data-name="Path 1095" d="M56.451,41.9H54.2a.285.285,0,0,1,0-.571h2.249a.285.285,0,0,1,0,.571Z" transform="translate(-53.916 -41.326)" fill="#29335c"/>
              </g>
              <g id="Group_5122" data-name="Group 5122" transform="translate(0 4.732)">
                <path id="Path_1096" data-name="Path 1096" d="M56.451,47.425H54.2a.285.285,0,1,1,0-.571h2.249a.285.285,0,0,1,0,.571Z" transform="translate(-53.916 -46.854)" fill="#29335c"/>
              </g>
            </g>
          </g>
        </g>
      </g>
      <g id="Group_5129" data-name="Group 5129" transform="translate(2.675 14.612)">
        <g id="Group_5127" data-name="Group 5127" transform="translate(10.951)">
          <path id="Path_1097" data-name="Path 1097" d="M51.631,58.73H50.4a.654.654,0,0,1-.653-.653V56.525a.285.285,0,0,1,.285-.285H52a.285.285,0,0,1,.285.285v1.552A.654.654,0,0,1,51.631,58.73Zm-1.309-1.92v1.267a.083.083,0,0,0,.082.082h1.226a.083.083,0,0,0,.082-.082V56.81Z" transform="translate(-49.751 -56.239)" fill="#29335c"/>
        </g>
        <g id="Group_5128" data-name="Group 5128">
          <path id="Path_1098" data-name="Path 1098" d="M13.253,58.73H12.027a.654.654,0,0,1-.653-.653V56.525a.285.285,0,0,1,.285-.285h1.962a.285.285,0,0,1,.285.285v1.552A.654.654,0,0,1,13.253,58.73Zm-1.309-1.92v1.267a.083.083,0,0,0,.082.082h1.226a.083.083,0,0,0,.082-.082V56.81Z" transform="translate(-11.374 -56.239)" fill="#29335c"/>
        </g>
      </g>
    </g>
  </g>
</svg>
