<?xml version="1.0" encoding="iso-8859-1"?>
<!-- Generator: Adobe Illustrator 19.0.0, SVG Export Plug-In . SVG Version: 6.00 Build 0)  -->
<svg version="1.1" id="Capa_1" xmlns="http://www.w3.org/2000/svg" xmlns:xlink="http://www.w3.org/1999/xlink" x="0px" y="0px"
	 viewBox="0 0 472 472" style="enable-background:new 0 0 472 472;" xml:space="preserve">
<g>
	<path style="fill:#D1E3EE;" d="M59.2,472c-4.418,0-8-3.582-8-8L52,232c0-4.418,3.582-8,8-8s8,3.582,8,8l-0.8,232
		C67.2,468.418,63.618,472,59.2,472z"/>
	<path style="fill:#D1E3EE;" d="M220,472c-4.418,0-8-3.582-8-8V224c0-4.418,3.582-8,8-8s8,3.582,8,8v240
		C228,468.418,224.418,472,220,472z"/>
	<path style="fill:#D1E3EE;" d="M26.264,215.072L59.2,248l32.928-32.928c9.61-9.609,14.767-22.797,14.224-36.376L99.2,0h-80
		l-7.16,178.696C11.493,192.276,16.65,205.465,26.264,215.072L26.264,215.072z"/>
	<path style="fill:#D1E3EE;" d="M276.568,216.568c-31.242,31.241-81.894,31.241-113.136,0C148.429,201.565,140,181.217,140,160l8-96
		h144l8,96C299.999,181.217,291.571,201.565,276.568,216.568z"/>
</g>
<g>
	<path style="fill:#FFFFFF;" d="M260,168c-4.031-0.005-7.428-3.008-7.928-7.008l-8-64c-0.652-4.37,2.363-8.441,6.733-9.092
		c4.37-0.652,8.441,2.363,9.092,6.733c0.019,0.125,0.034,0.25,0.047,0.375l8,64c0.547,4.383-2.562,8.379-6.944,8.928
		C260.668,167.977,260.334,167.998,260,168L260,168z"/>
	<path style="fill:#FFFFFF;" d="M228,144c-3.799-0.003-7.072-2.678-7.832-6.4l-8-40c-0.717-4.36,2.236-8.475,6.596-9.192
		c4.149-0.682,8.118,1.964,9.084,6.056l8,40c0.845,4.311-1.944,8.496-6.248,9.376C229.074,143.949,228.537,144.003,228,144L228,144z
		"/>
</g>
<path style="fill:#A9BFD1;" d="M452,40H324c-4.418,0-8-3.582-8-8s3.582-8,8-8h128c4.418,0,8,3.582,8,8S456.418,40,452,40z"/>
<g>
	<path style="fill:#D1E3EE;" d="M332,64l18.4,67.464c3.718,13.628,5.601,27.69,5.6,41.816v9.536c0.002,27.01-6.882,53.574-20,77.184
		c-13.118,23.61-20.002,50.174-20,77.184V472h144V337.184c0.002-27.01-6.882-53.574-20-77.184
		c-13.118-23.61-20.002-50.174-20-77.184v-9.536c-0.001-14.126,1.882-28.188,5.6-41.816L444,64L332,64z"/>
	<path style="fill:#D1E3EE;" d="M276,472H164c-4.418,0-8-3.582-8-8s3.582-8,8-8h112c4.418,0,8,3.582,8,8S280.418,472,276,472z"/>
	<path style="fill:#D1E3EE;" d="M91.2,472h-64c-4.418,0-8-3.582-8-8s3.582-8,8-8h64c4.418,0,8,3.582,8,8S95.618,472,91.2,472z"/>
</g>
<path style="fill:#A9BFD1;" d="M356,424c-4.418,0-8,3.582-8,8s3.582,8,8,8h104v-16H356z"/>
<g>
	<path style="fill:#FFFFFF;" d="M388,376c-3.2,0-6.091-1.907-7.352-4.848l-24-56c-1.799-4.036,0.015-8.765,4.051-10.564
		s8.765,0.015,10.564,4.05c0.031,0.069,0.061,0.139,0.09,0.209l24,56c1.74,4.06-0.14,8.763-4.2,10.504
		C390.157,375.784,389.084,376.005,388,376L388,376z"/>
	<path style="fill:#FFFFFF;" d="M356,384c-3.047,0.017-5.838-1.699-7.2-4.424l-8-16c-1.975-3.954-0.37-8.761,3.584-10.736
		c3.954-1.975,8.761-0.37,10.736,3.584l8,16c1.975,3.952,0.372,8.757-3.58,10.732C358.44,383.706,357.229,383.994,356,384L356,384z"
		/>
	<path style="fill:#FFFFFF;" d="M67.2,128c-4.418,0-8-3.582-8-8V40c0-4.418,3.582-8,8-8s8,3.582,8,8v80
		C75.2,124.418,71.618,128,67.2,128z"/>
	<path style="fill:#FFFFFF;" d="M67.2,168c-4.418,0-8-3.582-8-8v-8c0-4.418,3.582-8,8-8s8,3.582,8,8v8
		C75.2,164.418,71.618,168,67.2,168z"/>
</g>
<g>
</g>
<g>
</g>
<g>
</g>
<g>
</g>
<g>
</g>
<g>
</g>
<g>
</g>
<g>
</g>
<g>
</g>
<g>
</g>
<g>
</g>
<g>
</g>
<g>
</g>
<g>
</g>
<g>
</g>
</svg>
