<svg xmlns="http://www.w3.org/2000/svg" width="13.466" height="13.393" viewBox="0 0 13.466 13.393">
  <g id="edit" transform="translate(0 -0.269)">
    <path id="Path_5875" data-name="Path 5875" d="M13.079,26.643a.353.353,0,0,0-.353.353V30.13a1.06,1.06,0,0,1-1.059,1.059h-9.9A1.06,1.06,0,0,1,.706,30.13v-9.2a1.06,1.06,0,0,1,1.059-1.059H4.9a.353.353,0,1,0,0-.706H1.765A1.767,1.767,0,0,0,0,20.933v9.2a1.767,1.767,0,0,0,1.765,1.765h9.9a1.767,1.767,0,0,0,1.765-1.765V27A.353.353,0,0,0,13.079,26.643Zm0,0" transform="translate(0 -18.232)" fill="#29335c"/>
    <path id="Path_5876" data-name="Path 5876" d="M156.367,37.481l5.153-5.153,1.662,1.662-5.153,5.153Zm0,0" transform="translate(-150.848 -30.928)" fill="#29335c"/>
    <path id="Path_5877" data-name="Path 5877" d="M132.543,199.056l1.837-.509-1.328-1.328Zm0,0" transform="translate(-127.865 -189.999)" fill="#29335c"/>
    <path id="Path_5878" data-name="Path 5878" d="M318.149.527a.883.883,0,0,0-1.248,0L316.527.9l1.662,1.662.374-.374a.883.883,0,0,0,0-1.248Zm0,0" transform="translate(-305.356)" fill="#29335c"/>
  </g>
</svg>
