<svg xmlns="http://www.w3.org/2000/svg" width="10.952" height="18.656" viewBox="0 0 10.952 18.656">
  <g id="Group_5103" data-name="Group 5103" transform="translate(-888 -1469)">
    <path id="Path_1067" data-name="Path 1067" d="M110.975,0h-8.441a1.253,1.253,0,0,0-1.253,1.249V17.406a1.248,1.248,0,0,0,1.253,1.249h8.441a1.257,1.257,0,0,0,1.258-1.249V1.249A1.254,1.254,0,0,0,110.975,0Zm.446,17.41a.441.441,0,0,1-.446.438h-8.441a.44.44,0,0,1-.442-.438v-9.7h9.33v9.7Zm0-10.514h-9.33V1.249a.44.44,0,0,1,.442-.438h8.441a.446.446,0,0,1,.446.438Z" transform="translate(786.72 1469)" fill="#29335c"/>
    <path id="Path_1068" data-name="Path 1068" d="M325.686,85.333a.407.407,0,0,0-.406.406v1.623a.406.406,0,1,0,.811,0V85.739A.407.407,0,0,0,325.686,85.333Z" transform="translate(564.279 1386.912)" fill="#29335c"/>
    <path id="Path_1069" data-name="Path 1069" d="M325.686,226.84a.407.407,0,0,0,.406-.406v-2.028a.406.406,0,0,0-.811,0v2.028A.407.407,0,0,0,325.686,226.84Z" transform="translate(564.279 1253.519)" fill="#29335c"/>
  </g>
</svg>
