<svg id="Group_5058" data-name="Group 5058" xmlns="http://www.w3.org/2000/svg" width="12.483" height="14.299" viewBox="0 0 12.483 14.299">
  <path id="Path_1027" data-name="Path 1027" d="M13.167,19.3c.51,0,1.075-.027,1.669-.027H19.08c.594,0,1.159.027,1.67.027,1.032,0,1.839-.116,2.217-.795A2.261,2.261,0,0,0,23.2,17.4a4.139,4.139,0,0,0-2.881-3.929c.707.079,1.327.2,1.327.2-1.411-.775-1.374-3.559-1.374-3.559C20.5,5.231,17.6,5,17.05,5c-.057,0-.089,0-.089,0l0,.008,0-.008s-.032,0-.09,0c-.55,0-3.445.231-3.222,5.112,0,0,.036,2.784-1.374,3.559,0,0,.38-.026.888-.035a4.135,4.135,0,0,0-2.44,3.762,2.252,2.252,0,0,0,.234,1.106C11.328,19.184,12.135,19.3,13.167,19.3Zm7.294-5.14a.954.954,0,1,1-.64-.093,1.43,1.43,0,0,0-.863-1.1l-.075-.024.025-.076.086-.263.025-.076.076.025a1.72,1.72,0,0,1,1,.94,2.051,2.051,0,0,1,.175.59A.968.968,0,0,1,20.462,14.16ZM15.989,9.244A11.031,11.031,0,0,0,18.635,7.8l.021-.016s.026.037.064.1c.126.216.4.861-.115,1.157l.931.118h.017l.171.032a3.12,3.12,0,0,1-.031.4,5.206,5.206,0,0,1-.51,1.922,2.623,2.623,0,0,1-2.225,1.655c-1.395,0-2.547-1.515-2.728-3.48A10.923,10.923,0,0,0,15.989,9.244Zm-4.045,6.242a2.89,2.89,0,0,1,.595-.876,1.574,1.574,0,0,1,.422-.3.532.532,0,0,1,.266-.3,1.834,1.834,0,0,1,.5-.961,1.721,1.721,0,0,1,1.243-.581V12.9a1.487,1.487,0,0,0-1.3,1.121.531.531,0,0,1,.232.273,2.217,2.217,0,0,1,1.019,1.131.308.308,0,0,1,0,.263,3.56,3.56,0,0,1,.264,1.267c0,.612-.026,1-.54,1.1a.261.261,0,0,1-.183.075h-.394a.265.265,0,0,1-.264-.264v-.005h0a.265.265,0,0,1,.264-.258h.394a.263.263,0,0,1,.11.024c.093-.02.109-.046.118-.061a1.63,1.63,0,0,0,.059-.608,3.117,3.117,0,0,0-.236-1.113.309.309,0,0,1-.154-.149c-.259-.541-.609-.877-.913-.877s-.678.363-.935.924a.312.312,0,0,1-.179.163,3.043,3.043,0,0,0-.213,1.051,1.638,1.638,0,0,0,.064.609c.009.015.027.044.133.063a.264.264,0,0,1,.119-.028h.394a.265.265,0,0,1,.264.248v.016a.265.265,0,0,1-.264.264h-.394a.261.261,0,0,1-.176-.068.611.611,0,0,1-.446-.265,1.62,1.62,0,0,1-.13-.839,3.506,3.506,0,0,1,.255-1.24A.307.307,0,0,1,11.944,15.486Z" transform="translate(-10.717 -5)" fill="#fff"/>
  <circle id="Ellipse_19" data-name="Ellipse 19" cx="0.477" cy="0.477" r="0.477" transform="translate(8.818 9.524)" fill="#fff"/>
</svg>
