<svg xmlns="http://www.w3.org/2000/svg" width="18.667" height="18.667" viewBox="0 0 18.667 18.667">
  <g id="noun_History_2129889" transform="translate(-5 -5)">
    <path id="Path_5887" data-name="Path 5887" d="M14.333,5A9.278,9.278,0,0,0,7.246,8.264L5,6.837l1.033,4.632,4.632-1.033L8.13,8.825a8.3,8.3,0,1,1-2.093,5.508H5A9.333,9.333,0,1,0,14.333,5Z" transform="translate(0 0)" fill="#fff"/>
    <path id="Path_5888" data-name="Path 5888" d="M24.573,29.263a7.229,7.229,0,1,0-6.861-12.405l3.137,1.993-5.3,1.183a7.225,7.225,0,0,0,9.027,9.229Zm-2.707-6.921c0-.017,0-.034,0-.05s.007-.032.011-.048.009-.033.014-.049.013-.031.021-.046.015-.03.024-.045a.514.514,0,0,1,.031-.043c.007-.01.013-.02.021-.029L22,22.02l.01-.013.048-5.552c0-.171.226-.362.51-.362s.566.136.566.362V22.35l3.2,2.821a.519.519,0,1,1-.685.778l-3.618-3.186-.012-.013-.012-.01c-.008-.008-.014-.018-.022-.026a.516.516,0,0,1-.035-.043c-.009-.013-.017-.027-.025-.041a.517.517,0,0,1-.025-.047c-.007-.015-.012-.031-.017-.046a.5.5,0,0,1-.014-.049c0-.016-.006-.032-.008-.049s0-.033,0-.05S21.865,22.358,21.866,22.342Z" transform="translate(-8.048 -8.041)" fill="#fff"/>
  </g>
</svg>
