<svg xmlns="http://www.w3.org/2000/svg" width="20.503" height="15.944" viewBox="0 0 20.503 15.944">
  <path id="Icon_awesome-home" data-name="Icon awesome-home" d="M9.979,6.39l-6.562,5.4v5.833a.569.569,0,0,0,.569.569l3.989-.01a.569.569,0,0,0,.567-.569V14.211a.569.569,0,0,1,.569-.569h2.278a.569.569,0,0,1,.569.569v3.4a.569.569,0,0,0,.569.571l3.987.011a.569.569,0,0,0,.569-.569V11.791l-6.561-5.4A.434.434,0,0,0,9.979,6.39Zm10.366,3.674L17.369,7.611V2.681a.427.427,0,0,0-.427-.427H14.949a.427.427,0,0,0-.427.427V5.265L11.335,2.643a1.708,1.708,0,0,0-2.171,0l-9.01,7.42a.427.427,0,0,0-.057.6L1,11.768a.427.427,0,0,0,.6.058l8.372-6.9a.434.434,0,0,1,.545,0l8.373,6.9a.427.427,0,0,0,.6-.057l.908-1.1a.427.427,0,0,0-.061-.6Z" transform="translate(0.001 -2.254)"/>
</svg>
