<svg xmlns="http://www.w3.org/2000/svg" width="22" height="13.286" viewBox="0 0 22 13.286">
  <g id="noun_Laptop_2558414" transform="translate(0 -19.8)">
    <path id="Path_1061" data-name="Path 1061" d="M0,72.68c0,.909,1.056,1.652,2.347,1.652H19.653c1.291,0,2.347-.744,2.347-1.652Zm11.95,1.065h-1.9a.239.239,0,1,1,0-.477h1.9a.239.239,0,1,1,0,.477Z" transform="translate(0 -41.246)" fill="#29335c"/>
    <path id="Path_1062" data-name="Path 1062" d="M24.816,21.078V29.5H8.572V21.078H24.816m.238-1.276H8.334A1.036,1.036,0,0,0,7.3,20.836v8.908a1.036,1.036,0,0,0,1.034,1.034h16.72a1.036,1.036,0,0,0,1.034-1.034v-8.91A1.036,1.036,0,0,0,25.054,19.8h0Z" transform="translate(-5.694)" fill="#29335c"/>
  </g>
</svg>
