<svg xmlns="http://www.w3.org/2000/svg" width="10.306" height="18.666" viewBox="0 0 10.306 18.666">
  <g id="noun_Mobile_1896017" transform="translate(-25.41 -3.46)">
    <rect id="Rectangle_167" data-name="Rectangle 167" width="9.23" height="15.214" transform="translate(25.951 6.825)" fill="none"/>
    <path id="Path_1063" data-name="Path 1063" d="M35.177,5.46H25.953a.539.539,0,0,0-.543.532V23.581a.539.539,0,0,0,.543.545h9.224a.539.539,0,0,0,.539-.539V5.992A.539.539,0,0,0,35.177,5.46ZM30.565,23.7a.6.6,0,1,1,.6-.6A.6.6,0,0,1,30.565,23.7Zm4.612-1.658H25.953V6.831h9.224Z" transform="translate(0 -2)" fill="#29335c"/>
  </g>
</svg>
