<svg xmlns="http://www.w3.org/2000/svg" width="21.826" height="15.888" viewBox="0 0 21.826 15.888">
  <g id="noun_Motorcycle_2751586" transform="translate(0.125 0.129)">
    <path id="Path_1064" data-name="Path 1064" d="M7.446,102.691A5.4,5.4,0,0,1,8,101.936a1.223,1.223,0,0,1,.259-1.208c.054-.064.112-.131.172-.2a1.279,1.279,0,0,1,1.332-.378l.012,0,.4.154q.226-.113.466-.217a1.536,1.536,0,0,1-.415-.867,1.048,1.048,0,0,1,.3-.8,1.489,1.489,0,0,1,1.1-.465h.006l4.589.172a.906.906,0,0,1,.97.888,1.265,1.265,0,0,1-.884,1.3,3.412,3.412,0,0,0-.605,2.026,5.133,5.133,0,0,0,.15,1.2.4.4,0,0,0,.393.309h4.443a8.321,8.321,0,0,0,1.513-1.936c.031-.069.067-.458-.751-2.576a10.675,10.675,0,0,1-.942-4.3l-.633-.519a.593.593,0,0,1-.323.314.4.4,0,0,1-.129.022.428.428,0,0,1-.271-.1,1.223,1.223,0,0,1-.268-1.165h0a.728.728,0,0,1,.411-.562.41.41,0,0,1,.4.08,1.183,1.183,0,0,1,.289,1.057l.6.488.008-.029a2.032,2.032,0,0,1,1.885-1.458,2.195,2.195,0,0,1,.384.029h.006c.447.075.926.77.926,1.686,0,.876-.331,1.558-.807,1.658l-.058.01-.012,0a1.544,1.544,0,0,1-.466-.019,3.35,3.35,0,0,1-.479-.124c.467,1.053,1.8,4.078,2.309,5.453a.683.683,0,0,1,.039.173,3.847,3.847,0,0,1,3.939,1.677.392.392,0,0,1,.037.355.382.382,0,0,1-.265.234l-.775.2a2.639,2.639,0,1,1-4.839,1.457c0-.078,0-.156.011-.234l-.738.187a.387.387,0,0,1-.482-.372H13.546a2.639,2.639,0,1,1-5.209,0H7.26a.517.517,0,0,1-.516-.532A4.791,4.791,0,0,1,7.446,102.691Zm12.03-9.313a.09.09,0,0,0-.055-.025.051.051,0,0,0-.017,0c-.061.021-.142.126-.187.315h0a.923.923,0,0,0,.15.818c.04.033.062.025.072.022.061-.021.142-.126.187-.315A.924.924,0,0,0,19.477,93.378Zm-9.822,7.1a.935.935,0,0,0-.967.279c-.056.063-.112.128-.167.194a.924.924,0,0,0-.239.684,6.96,6.96,0,0,1,1.488-1.112Zm7.191-1.461a.569.569,0,0,0-.629-.544H16.21L11.622,98.3a1.143,1.143,0,0,0-.845.353.709.709,0,0,0-.213.545,1.341,1.341,0,0,0,.442.78h5.205A.916.916,0,0,0,16.846,99.017Zm6.6-4.132a1.7,1.7,0,0,0-.467-1.258,10.845,10.845,0,0,0,.049,2.525A1.659,1.659,0,0,0,23.443,94.885Zm-.687,11.072a2.294,2.294,0,1,0,4.138-1.366l-1.4.355a1.1,1.1,0,1,1-1.311.332l-1.4.355A2.3,2.3,0,0,0,22.756,105.957Zm1.535,0a.76.76,0,1,0,.76-.76.76.76,0,0,0-.76.76Zm-2.73-.39a.043.043,0,0,0,.039.009l.985-.249h0l4.333-1.1h0l1.02-.258a.041.041,0,0,0,.029-.025.045.045,0,0,0,0-.042,3.5,3.5,0,0,0-3.72-1.5.677.677,0,0,1-.11.157,17.593,17.593,0,0,0-1.839,2.481,1.051,1.051,0,0,1-.749.485s0,0,0,0a.04.04,0,0,0,.015.034Zm-12.914.39a2.294,2.294,0,1,0,4.55-.419H11.961a1.1,1.1,0,1,1-2.041,0H8.685a2.315,2.315,0,0,0-.038.419Zm1.661-.419a.76.76,0,1,0,1.266,0Zm-3.171-.4a.17.17,0,0,0,.123.052H21.4a.71.71,0,0,0,.6-.334,17.934,17.934,0,0,1,1.88-2.534.331.331,0,0,0,.068-.34c-.617-1.661-2.447-5.761-2.465-5.8a.172.172,0,0,1,.214-.233l.1.037a3.969,3.969,0,0,0,.7.21,1.619,1.619,0,0,0,.184.022,11.136,11.136,0,0,1-.046-2.7c-.056,0-.112-.006-.166-.006a1.688,1.688,0,0,0-1.561,1.217c-.246.786.074,2.463.855,4.485.844,2.186.847,2.674.725,2.875a13.26,13.26,0,0,1-.965,1.377c-.587.728-.748.728-.826.728h-4.46a.746.746,0,0,1-.728-.573,5.476,5.476,0,0,1-.159-1.281,3.813,3.813,0,0,1,.531-2.018H10.975a7.185,7.185,0,0,0-2.634,1.744.17.17,0,0,1-.035.038,4.546,4.546,0,0,0-1.218,2.909.173.173,0,0,0,.049.127Z" transform="translate(-6.743 -93.009)" fill="#29335c" stroke="#29335c" stroke-width="0.25"/>
    <path id="Path_1065" data-name="Path 1065" d="M338.313,283.1h2.708a.172.172,0,1,1,0,.344h-2.708a.172.172,0,0,1,0-.344Z" transform="translate(-333.884 -274.919)" fill="#29335c" stroke="#29335c" stroke-width="0.25"/>
    <path id="Path_1066" data-name="Path 1066" d="M338.313,303.093h2.708a.172.172,0,1,1,0,.344h-2.708a.172.172,0,0,1,0-.344Z" transform="translate(-333.884 -294.051)" fill="#29335c" stroke="#29335c" stroke-width="0.25"/>
  </g>
</svg>
