<svg xmlns="http://www.w3.org/2000/svg" width="17" height="19.429" viewBox="0 0 17 19.429">
  <path id="Icon_awesome-bell" data-name="Icon awesome-bell" d="M8.5,19.429A2.428,2.428,0,0,0,10.927,17H6.073A2.428,2.428,0,0,0,8.5,19.429Zm8.173-5.681c-.733-.788-2.1-1.973-2.1-5.855A5.992,5.992,0,0,0,9.714,2.005V1.214a1.214,1.214,0,1,0-2.427,0v.791A5.992,5.992,0,0,0,2.432,7.893c0,3.882-1.372,5.067-2.1,5.855A1.186,1.186,0,0,0,0,14.571a1.215,1.215,0,0,0,1.218,1.214H15.782A1.215,1.215,0,0,0,17,14.571a1.185,1.185,0,0,0-.327-.824Z" transform="translate(0)" fill="#fff"/>
</svg>
