<svg xmlns="http://www.w3.org/2000/svg" width="13.878" height="18.149" viewBox="0 0 13.878 18.149">
  <g id="padlock" transform="translate(-60.25)">
    <path id="Path_29" data-name="Path 29" d="M101.585,7.471H99.459a.532.532,0,0,1-.532-.532V5.871a2.681,2.681,0,0,0-5.362,0V6.939a.532.532,0,0,1-.532.532H90.907a.532.532,0,0,1-.532-.532V5.871a5.871,5.871,0,1,1,11.742,0V6.939A.532.532,0,0,1,101.585,7.471Z" transform="translate(-29.057 0)" fill="#2d4051"/>
    <path id="Path_31" data-name="Path 31" d="M73.6,192.492H60.782a.532.532,0,0,1-.532-.532V181.282a.532.532,0,0,1,.532-.532H73.6a.532.532,0,0,1,.532.532V191.96A.532.532,0,0,1,73.6,192.492Z" transform="translate(0 -174.343)" fill="#7a57d1"/>
    <path id="Path_33" data-name="Path 33" d="M214.074,272.725a1.6,1.6,0,1,0-2.131,1.508v1.7a.532.532,0,0,0,1.063,0v-1.7A1.6,1.6,0,0,0,214.074,272.725Z" transform="translate(-145.286 -261.514)" fill="#2d4051"/>
    <path id="Path_34" data-name="Path 34" d="M256,271.125v5.335a.532.532,0,0,0,.532-.532v-1.7a1.6,1.6,0,0,0-.532-3.108Z" transform="translate(-188.811 -261.514)" fill="#1a252f"/>
  </g>
</svg>
