<svg xmlns="http://www.w3.org/2000/svg" width="14.9" height="15.676" viewBox="0 0 14.9 15.676">
  <g id="printer" transform="translate(-11.95)">
    <g id="Group_5138" data-name="Group 5138" transform="translate(11.95)">
      <path id="Path_1102" data-name="Path 1102" d="M24.533,3.213h-.4v-.9A2.32,2.32,0,0,0,21.814,0H16.95a2.32,2.32,0,0,0-2.317,2.317v.9h-.367A2.32,2.32,0,0,0,11.95,5.53V9.266a2.32,2.32,0,0,0,2.317,2.317h.364V14.52a1.159,1.159,0,0,0,1.157,1.157h7.184a1.159,1.159,0,0,0,1.157-1.157V11.583h.406A2.32,2.32,0,0,0,26.85,9.266V5.53A2.32,2.32,0,0,0,24.533,3.213Zm-9.026-.9A1.442,1.442,0,0,1,16.947.877h4.861a1.442,1.442,0,0,1,1.439,1.439v.9H15.508Zm7.742,12.21a.282.282,0,0,1-.279.279H15.787a.282.282,0,0,1-.279-.279V9.682H23.25Zm2.723-5.257a1.442,1.442,0,0,1-1.439,1.439h-.4V9.682h.578a.439.439,0,1,0,0-.877H13.987a.439.439,0,0,0,0,.877h.647v1.027h-.367a1.442,1.442,0,0,1-1.439-1.439V5.533a1.442,1.442,0,0,1,1.439-1.439H24.533a1.442,1.442,0,0,1,1.439,1.439Z" transform="translate(-11.95)" fill="#29335c"/>
      <path id="Path_1103" data-name="Path 1103" d="M141.089,338.277h5.585a.439.439,0,1,0,0-.877h-5.585a.439.439,0,1,0,0,.877Z" transform="translate(-136.469 -326.438)" fill="#29335c"/>
      <path id="Path_1104" data-name="Path 1104" d="M147.677,392.6h-5.588a.439.439,0,1,0,0,.877h5.585a.439.439,0,0,0,0-.877Z" transform="translate(-137.436 -379.844)" fill="#29335c"/>
      <path id="Path_1105" data-name="Path 1105" d="M359.379,151.9h-.89a.439.439,0,1,0,0,.877h.89a.439.439,0,1,0,0-.877Z" transform="translate(-346.805 -146.965)" fill="#29335c"/>
    </g>
  </g>
</svg>
