<svg id="Capa_1" enable-background="new 0 0 512 512" height="512" viewBox="0 0 512 512" width="512" xmlns="http://www.w3.org/2000/svg"><g><path d="m417.916 370.683c1.319-.362 2.841-1.028 4.123-2.658l27.104-34.66c2.552-3.263 1.975-7.977-1.288-10.528-3.261-2.551-7.976-1.977-10.528 1.288l-14.847 18.986c-7.456-45.279-46.866-79.931-94.224-79.931-28.581 0-55.426 12.648-73.65 34.703-2.639 3.192-2.189 7.92 1.004 10.559 3.192 2.637 7.92 2.189 10.559-1.004 15.365-18.594 37.996-29.258 62.088-29.258 40.591 0 74.243 30.205 79.706 69.316l-21.871-17.103c-3.261-2.551-7.976-1.977-10.528 1.288-2.552 3.263-1.975 7.977 1.288 10.528l34.66 27.104c1.174.901 3.846 2.141 6.404 1.37zm68.972-69.654c4.143 0 7.5-3.357 7.5-7.5v-195.868c0-8.741-7.112-15.854-15.854-15.854h-43.456c-8.741 0-15.854 7.112-15.854 15.854v106.844c0 .471-.383.854-.854.854h-182.696c-.471 0-.854-.383-.854-.854v-106.844c0-8.741-7.112-15.854-15.854-15.854h-37.002l-9.794-18.478c6.31-2.646 10.755-8.885 10.755-16.145v-29.684c0-9.649-7.851-17.5-17.5-17.5h-85.31c-9.649 0-17.5 7.851-17.5 17.5v29.685c0 7.258 4.442 13.495 10.75 16.143l-36.709 69.259c-12.459 23.496-19.044 49.975-19.044 76.574v265.339c0 20.678 16.822 37.5 37.5 37.5h406.715c17.954 0 32.562-14.607 32.562-32.562v-150.909c0-4.143-3.357-7.5-7.5-7.5s-7.5 3.357-7.5 7.5v150.909c0 9.684-7.878 17.562-17.562 17.562h-269.609c-9.684 0-17.562-7.878-17.562-17.562v-106.702c0-.032.005-.064.005-.097s-.004-.064-.005-.097v-274.881c0-.471.383-.854.854-.854h43.456c.471 0 .854.383.854.854v106.844c0 8.741 7.112 15.854 15.854 15.854h182.696c8.742 0 15.854-7.112 15.854-15.854v-106.844c0-.471.383-.854.854-.854h43.456c.471 0 .854.383.854.854v195.868c0 4.143 3.358 7.5 7.5 7.5zm-431.776 195.971c-12.406 0-22.5-10.094-22.5-22.5v-94.36h127.045v99.299c0 6.465 1.902 12.49 5.164 17.562h-109.709zm104.545-399.339v267.479h-127.045v-106.69h99.55c4.143 0 7.5-3.357 7.5-7.5s-3.357-7.5-7.5-7.5h-99.55v-34.29c0-24.159 5.98-48.208 17.297-69.548l39.714-74.928h66.288l10.578 19.957c-4.123 2.867-6.832 7.63-6.832 13.02zm8.268-50.476c-.089 3.028-5.196 2.548-7.343 2.5-.076-.002-.153-.001-.229 0h-75.17c-.079-.001-.158-.002-.237 0-2.273.053-7.296 1.091-7.332-2.5v-29.685c0-1.379 1.121-2.5 2.5-2.5h85.311c1.379 0 2.5 1.121 2.5 2.5zm160.33 406.995c39.276 0 74.088-23.557 88.688-60.014 1.539-3.846-.329-8.211-4.175-9.751-3.843-1.54-8.211.329-9.751 4.175-12.307 30.732-41.652 50.59-74.762 50.59-44.388 0-80.5-36.112-80.5-80.5 0-4.524.381-9.001 1.119-13.406l17.792 22.752c2.567 3.281 7.288 3.822 10.528 1.288 3.263-2.552 3.84-7.266 1.288-10.528l-26.944-34.455c-3.068-2.79-5.091-4.779-10.689-1.494l-34.66 27.104c-3.263 2.552-3.84 7.266-1.288 10.528 2.553 3.264 7.267 3.839 10.528 1.288l17.969-14.052c-.415 3.627-.644 7.287-.644 10.974.001 52.66 42.842 95.501 95.501 95.501z"/></g></svg>