<svg xmlns="http://www.w3.org/2000/svg" width="11.094" height="14.152" viewBox="0 0 11.094 14.152">
  <path id="Icon_map-car-rental" data-name="Icon map-car-rental" d="M14.276,1.246H8.893A2.512,2.512,0,0,0,6.973.179,2.325,2.325,0,0,0,4.615,2.5,2.3,2.3,0,0,0,6.973,4.784,2.442,2.442,0,0,0,9.159,3.237h.784l.568-.568.568.568h.354L12,2.669l.568.568h.354l.568-.568.568.568h.217v.08l-.049.012,1.121-1.1ZM6.21,3.126a.683.683,0,1,1,.683-.682A.683.683,0,0,1,6.21,3.126Zm8.635,5.516h-.157L12.94,5.477a.533.533,0,0,0-.422-.249h-5.3a.533.533,0,0,0-.422.249L5.046,8.642H4.889a.571.571,0,0,0-.569.569v2.845a.571.571,0,0,0,.569.569h.569v.853a.856.856,0,0,0,.853.853H6.6a.856.856,0,0,0,.853-.853v-.853h4.836v.853a.856.856,0,0,0,.853.853h.284a.856.856,0,0,0,.853-.853v-.853h.569a.571.571,0,0,0,.569-.569V9.211a.571.571,0,0,0-.569-.569Zm-8.96,2.276a.711.711,0,1,1,.711-.711A.711.711,0,0,1,5.884,10.917Zm.569-2.276L7.606,6.336a.5.5,0,0,1,.412-.255h3.7a.5.5,0,0,1,.412.255L13.28,8.642Zm7.4,2.276a.711.711,0,1,1,.711-.711A.711.711,0,0,1,13.849,10.917Z" transform="translate(-4.32 -0.179)" fill="#fff"/>
</svg>
