<svg id="search-engine" xmlns="http://www.w3.org/2000/svg" width="15" height="15" viewBox="0 0 15 15">
  <rect id="Rectangle_155" data-name="Rectangle 155" width="0.5" height="3.113" transform="translate(7.323 7.677) rotate(-45)" fill="#ece7ea"/>
  <ellipse id="Ellipse_14" data-name="Ellipse 14" cx="4.623" cy="4.623" rx="4.623" ry="4.623" transform="translate(0 0)" fill="#b5b5b5"/>
  <circle id="Ellipse_15" data-name="Ellipse 15" cx="3.633" cy="3.633" r="3.633" transform="translate(0.99 0.99)" fill="#ece7ea"/>
  <path id="Path_996" data-name="Path 996" d="M286.3,61a.25.25,0,0,0,.177-.427,2.873,2.873,0,0,0-4.063,0,.25.25,0,1,0,.354.353,2.373,2.373,0,0,1,3.356,0A.249.249,0,0,0,286.3,61Z" transform="translate(-279.825 -57.985)" fill="#fff"/>
  <path id="Path_997" data-name="Path 997" d="M0,325.053l3.857,3.857c.4.4.818.167,1.22-.235s.636-.818.235-1.22L1.455,323.6l-1.2.256Z" transform="translate(9.48 -314.118)" fill="#29335c"/>
  <path id="Path_998" data-name="Path 998" d="M139.046,299.037l.47.47,1.455-1.455-.47-.47a1.029,1.029,0,1,0-1.455,1.455Z" transform="translate(-130.036 -288.572)" fill="#c2b8b9"/>
</svg>
