<svg xmlns="http://www.w3.org/2000/svg" width="18.4" height="8.67" viewBox="0 0 18.4 8.67">
  <path id="Path_1022" data-name="Path 1022" d="M110.993,426.86c-.234.025-.427.059-.621.062-.764.006-1.528,0-2.291,0-.574,0-.829-.343-.678-.9q.6-2.231,1.2-4.463a.792.792,0,0,1,.921-.706H111.7c.672,0,.817.124.905.824a3.465,3.465,0,0,0,.6-.067c.6-.169,1.208-.345,1.8-.554a.791.791,0,0,1,.849.121.331.331,0,0,0,.494.016c.517-.484,1.1-.265,1.674-.16.818.151,1.638.292,2.467.439a1.31,1.31,0,0,0,.067-.137.617.617,0,0,1,.657-.481q1.253,0,2.506,0a.754.754,0,0,1,.778.612q.617,2.282,1.228,4.567a.64.64,0,0,1-.692.894c-.79,0-1.58,0-2.372,0a.894.894,0,0,1-.682-.262.251.251,0,0,0-.22-.045c-.357.146-.708.3-1.057.469a.412.412,0,0,0-.171.155,1.407,1.407,0,0,1-1.169.725,1.428,1.428,0,0,1-1.425.959.257.257,0,0,0-.174.092,1.4,1.4,0,0,1-1.4.48,1.733,1.733,0,0,1-.442-.112,1.116,1.116,0,0,0-1.018-.073c-.318.155-.644-.067-.871-.332-.109-.126-.2-.248-.387-.236-.057,0-.116-.043-.179-.057-.346-.071-.387-.525-.755-.587a1.124,1.124,0,0,1-.75-.568.264.264,0,0,0-.12-.1A1.483,1.483,0,0,1,110.993,426.86Zm4.619-5.238c0-.04,0-.081,0-.123a2.292,2.292,0,0,0-.424-.017c-.149.02-.29.09-.438.124a7.692,7.692,0,0,1-2.183.523c-.057,0-.157.1-.177.177q-.433,1.579-.841,3.165a.315.315,0,0,0,.093.253c.3.27.623.515.922.786a14.087,14.087,0,0,0,2.9,2.172,4.33,4.33,0,0,0,1.138.373.729.729,0,0,0,.8-.343c-.279-.177-.545-.343-.809-.509-.132-.084-.236-.186-.135-.351s.242-.113.374-.033c.261.16.514.331.781.478a.866.866,0,0,0,1.146-.166c.174-.2.163-.311-.059-.456-.317-.2-.638-.4-.956-.6-.143-.089-.219-.228-.1-.352a.363.363,0,0,1,.343-.023c.36.2.7.433,1.054.651a.7.7,0,0,0,1.029-.213.311.311,0,0,0-.09-.518c-.346-.225-.7-.439-1.048-.66-.126-.081-.25-.172-.151-.345s.25-.129.391-.04c.3.192.607.383.913.571a.6.6,0,0,0,.859-.273c.16-.253.081-.492-.239-.692-.8-.5-1.6-1.009-2.413-1.5a.69.69,0,0,0-.446-.073c-.556.1-1.107.224-1.655.356a1.4,1.4,0,0,0-.477.216c-.172.124-.3.3-.47.435a1.921,1.921,0,0,1-1.493.5.742.742,0,0,1-.6-1.119c.238-.411.483-.818.747-1.214a1.269,1.269,0,0,1,.383-.36C114.715,422.144,115.166,421.886,115.612,421.622Zm5.774,3.342.043-.056c-.245-.914-.5-1.829-.734-2.745a.3.3,0,0,0-.286-.256c-1.059-.182-2.114-.382-3.175-.564a.61.61,0,0,0-.374.075c-.694.4-1.366.829-2.069,1.2a3.614,3.614,0,0,0-1.259,1.594.284.284,0,0,0,.267.45,1.461,1.461,0,0,0,.7-.118,8.407,8.407,0,0,0,.871-.7,1.127,1.127,0,0,1,.39-.242c.722-.175,1.452-.326,2.175-.492a.581.581,0,0,1,.478.073c.765.48,1.539.947,2.313,1.413C120.939,424.73,121.165,424.844,121.386,424.965Zm-10,1.132a.584.584,0,0,0,.236.773.477.477,0,0,0,.655-.012C111.982,426.6,111.7,426.362,111.389,426.1Zm9.818.267.55-.251c-.071-.245-.135-.461-.194-.666C121.437,425.769,121.322,426.065,121.207,426.363Zm-8.8.992c.234.324.478.4.672.21l-.446-.377Zm1.574.93c-.171-.129-.3-.233-.433-.323-.029-.02-.1,0-.137.022-.012.006-.008.087.014.113A.51.51,0,0,0,113.979,428.285Z" transform="translate(-107.36 -420.85)" fill="#fff" fill-rule="evenodd"/>
</svg>
