<svg xmlns="http://www.w3.org/2000/svg" width="290.838" height="185.05" viewBox="0 0 290.838 185.05">
  <g id="Group_5661" data-name="Group 5661" transform="translate(-42 -289.626)">
    <g id="Group_5371" data-name="Group 5371" transform="translate(42 289.626)">
      <path id="Path_1111" data-name="Path 1111" d="M44.206,217.1c-30.469,18.426-7.181,45.611-9.255,77.024s22.342,38,22.342,38l243.777-.716c13.851-24.59,12.308-53.473,1.72-84.95-8.855-26.324-41.711-66.6-94.548-39.631-19.147,9.774-49.45,4.328-60.115-19.421,0,0-8.073-34.027-35.928-39.257-22.738-4.269-44.827,11.606-48.222,29.306s-.216,29.8-19.77,39.644" transform="translate(-28.382 -147.452)" fill="#c6cbdf"/>
      <path id="Path_1112" data-name="Path 1112" d="M456.824,290.888c3.115,4.352,8.8,3.775,10.728-1.184a10.4,10.4,0,0,0,.194-6.338c-2.429-9.985-9.741-13.059-14.524-6.93C450.27,280.219,453.737,286.576,456.824,290.888Z" transform="translate(-177.3 -191.676)" fill="#c6cbdf"/>
      <g id="Group_5158" data-name="Group 5158" transform="translate(257.805 22.89)">
        <path id="Path_1113" data-name="Path 1113" d="M450.86,234.946l.049-4.048-3.793-.046a9.1,9.1,0,0,0-1.01-2.771l2.645-2.581-2.828-2.9-2.531,2.47a9.068,9.068,0,0,0-3.33-1.45l.047-3.794-4.049-.049-.047,3.91a9.013,9.013,0,0,0-2.293.9l-2.581-2.645-2.9,2.828,2.47,2.531a9.075,9.075,0,0,0-1.449,3.331l-3.316-.041-.05,4.049,3.433.042a9.031,9.031,0,0,0,1.258,2.886l-2.532,2.47,2.828,2.9,2.645-2.581a9.061,9.061,0,0,0,3.221,1.156l-.047,3.817,4.049.049.051-4.138a9.018,9.018,0,0,0,2.407-1.132l2.47,2.532,2.9-2.828-2.581-2.644a9.019,9.019,0,0,0,.955-2.271Zm-10.1.238a3.711,3.711,0,1,1,.064-5.248A3.715,3.715,0,0,1,440.758,235.184Z" transform="translate(-425.894 -195.762)" fill="#c6cbdf"/>
        <path id="Path_1114" data-name="Path 1114" d="M451.914,191.034l.027-2.213-2.073-.025a4.957,4.957,0,0,0-.552-1.514l1.445-1.411-1.545-1.584-1.383,1.35a4.954,4.954,0,0,0-1.82-.792l.025-2.073-2.213-.027-.025,2.136a4.914,4.914,0,0,0-1.253.492l-1.411-1.446-1.584,1.545,1.35,1.383a4.948,4.948,0,0,0-.793,1.82l-1.812-.022-.027,2.213,1.876.023a4.929,4.929,0,0,0,.687,1.577l-1.384,1.35L441,195.4l1.446-1.411a4.959,4.959,0,0,0,1.761.632l-.025,2.086,2.212.027.028-2.261a4.91,4.91,0,0,0,1.315-.619l1.35,1.384,1.583-1.545-1.41-1.446a4.968,4.968,0,0,0,.522-1.241Zm-5.521.13a2.028,2.028,0,1,1,.035-2.868A2.029,2.029,0,0,1,446.393,191.164Z" transform="translate(-430.244 -182.746)" fill="#c6cbdf"/>
      </g>
      <g id="Group_5159" data-name="Group 5159" transform="translate(3.303 2.291)">
        <path id="Path_1115" data-name="Path 1115" d="M57.976,202.485l.78-3.974-3.723-.73a9.1,9.1,0,0,0-.492-2.908l3.067-2.061-2.258-3.361-2.935,1.972A9.073,9.073,0,0,0,49.4,189.4l.731-3.723-3.973-.78-.753,3.837a9.026,9.026,0,0,0-2.418.47l-2.06-3.068-3.361,2.258,1.973,2.935a9.075,9.075,0,0,0-2.028,3.014l-3.254-.639-.78,3.973,3.369.661a9.04,9.04,0,0,0,.715,3.066l-2.936,1.972,2.258,3.361,3.068-2.06a9.069,9.069,0,0,0,2.959,1.719l-.735,3.745,3.973.78.8-4.06a9.015,9.015,0,0,0,2.571-.679l1.972,2.937,3.361-2.258-2.061-3.068a9.04,9.04,0,0,0,1.35-2.06ZM48,200.893a3.711,3.711,0,1,1,1.011-5.15A3.714,3.714,0,0,1,48,200.893Z" transform="translate(-33.476 -162.901)" fill="#c6cbdf"/>
        <path id="Path_1116" data-name="Path 1116" d="M70.553,160.6l.425-2.171-2.034-.4a4.97,4.97,0,0,0-.269-1.589l1.676-1.127-1.234-1.837-1.6,1.078a4.956,4.956,0,0,0-1.647-1.108l.4-2.035-2.171-.426-.411,2.1a4.944,4.944,0,0,0-1.322.257l-1.126-1.676L59.4,152.9l1.078,1.6a4.958,4.958,0,0,0-1.108,1.647L57.59,155.8l-.426,2.171,1.841.361a4.947,4.947,0,0,0,.39,1.675l-1.6,1.078,1.234,1.837,1.676-1.126a4.942,4.942,0,0,0,1.617.94l-.4,2.047,2.171.426.436-2.219a4.926,4.926,0,0,0,1.405-.371l1.078,1.6,1.837-1.234-1.126-1.676a4.948,4.948,0,0,0,.737-1.126Zm-5.454-.87a2.028,2.028,0,1,1,.553-2.815A2.03,2.03,0,0,1,65.1,159.728Z" transform="translate(-41.801 -150.984)" fill="#c6cbdf"/>
      </g>
    </g>
    <g id="Group_5433" data-name="Group 5433" transform="translate(-2692.752 710.792)">
      <circle id="Ellipse_49" data-name="Ellipse 49" cx="26.321" cy="26.321" r="26.321" transform="translate(2848.321 -409.188)" fill="#6c63ff" opacity="0.3"/>
      <circle id="Ellipse_50" data-name="Ellipse 50" cx="15.553" cy="15.553" r="15.553" transform="translate(2808.122 -325.202)" fill="#6c63ff" opacity="0.3"/>
      <circle id="Ellipse_51" data-name="Ellipse 51" cx="31.824" cy="31.824" r="31.824" transform="translate(2891.63 -341.473)" fill="#6c63ff" opacity="0.3"/>
      <path id="Path_1339" data-name="Path 1339" d="M145.793,552.356a2.871,2.871,0,1,1,2.871-2.871A2.871,2.871,0,0,1,145.793,552.356Zm0-5.264a2.393,2.393,0,1,0,2.393,2.393A2.393,2.393,0,0,0,145.793,547.092Z" transform="translate(2672.061 -852.64)" fill="#f0f0f0"/>
      <path id="Path_1340" data-name="Path 1340" d="M398.793,283.356a2.871,2.871,0,1,1,2.871-2.871A2.871,2.871,0,0,1,398.793,283.356Zm0-5.264a2.393,2.393,0,1,0,2.393,2.393,2.393,2.393,0,0,0-2.393-2.393Z" transform="translate(2479.598 -648.005)" fill="#f0f0f0"/>
      <path id="Path_1341" data-name="Path 1341" d="M621.151,609.757l-3.222-3.454,3.454-3.222,3.222,3.454Zm-2.708-3.436,2.726,2.923,2.923-2.726-2.726-2.923Z" transform="translate(2310.713 -895.596)" fill="#f0f0f0"/>
    </g>
    <g id="Group_5427" data-name="Group 5427" transform="translate(284 384.17)">
      <g id="Group_5178" data-name="Group 5178">
        <path id="Path_1137" data-name="Path 1137" d="M51.686,411.645H40.207a3.723,3.723,0,0,1-3.427-2.958l-4.868-17.8a1.183,1.183,0,0,1,.871-1.544,141.926,141.926,0,0,1,26.33,0,1.182,1.182,0,0,1,.869,1.544l-4.868,17.805A3.723,3.723,0,0,1,51.686,411.645Z" transform="translate(-29.447 -321.929)" fill="#fd4059"/>
        <path id="Path_1138" data-name="Path 1138" d="M60.274,391.755c0,.473-5.793.857-12.938.857s-12.937-.384-12.937-.857,5.793-.858,12.937-.858S60.274,391.281,60.274,391.755Z" transform="translate(-30.758 -323.052)" fill="#29245d"/>
        <path id="Path_1139" data-name="Path 1139" d="M58.09,295.038c-4.655-1.226-11.769,8.437-13.93,17.858V299.17a28.317,28.317,0,0,1,6.916-7.885c5.846-4.761,11.227-10.872,6.563-12.1-4.371-1.151-10.908,7.3-13.479,16.13V277.686a18.689,18.689,0,0,1,3.96-4.31c3.684-3,7.076-6.852,4.136-7.626-2.551-.672-6.273,3.843-8.1,8.936v-5.713a27.127,27.127,0,0,1,1.9-6.872c2.709-5.979,4.174-12.141.6-11.682s-5.894,11.109-3.939,19.284v2.94c-1.321-5.983-5.853-12.18-8.811-11.4-2.939.774.452,4.625,4.136,7.626a16.968,16.968,0,0,1,4.675,5.572v13.887c-2.119-9.469-9.282-19.242-13.963-18.009-4.664,1.228.718,7.338,6.563,12.1a26.994,26.994,0,0,1,7.4,8.8v16.652c-2.264-9.3-9.245-18.676-13.836-17.467-4.664,1.228-.664,5.694,5.906,11.095a31.013,31.013,0,0,1,7.931,9.649v7.844a2.428,2.428,0,0,0,1.441,0v-3.121a27.112,27.112,0,0,1,7.366-8.735C57.372,302.377,62.754,296.267,58.09,295.038Z" transform="translate(-26.86 -250.395)" fill="#7c36d5"/>
      </g>
    </g>
    <g id="Group_5424" data-name="Group 5424" transform="translate(31.646 226.78)">
      <path id="Path_1343" data-name="Path 1343" d="M248.885,417.329c0,3.33-18.5,6.029-41.327,6.029s-41.327-2.7-41.327-6.029,18.5-6.029,41.327-6.029S248.885,414,248.885,417.329Z" transform="translate(0 -175.463)" fill="#29335c"/>
      <g id="Group_5423" data-name="Group 5423" transform="translate(166.231 74.824)">
        <g id="Group_5372" data-name="Group 5372" transform="translate(22.015 103.235)">
          <path id="Path_1344" data-name="Path 1344" d="M213.661,324.06l22.052-12.673-.522-20.83-22.955,7.707Z" transform="translate(-212.236 -290.558)" fill="#6b6966"/>
        </g>
        <g id="Group_5373" data-name="Group 5373" transform="translate(1.723 110.942)">
          <rect id="Rectangle_1054" data-name="Rectangle 1054" width="22.798" height="26.245" rx="5.239" fill="#6b6966"/>
        </g>
        <g id="Group_5374" data-name="Group 5374" transform="translate(1.723 105.249)">
          <path id="Path_1345" data-name="Path 1345" d="M169.832,305.055h22.8l22.015-10.133-22.271-.157-22.463,7.678Z" transform="translate(-169.832 -294.766)" fill="#5c5a58"/>
        </g>
        <g id="Group_5375" data-name="Group 5375" transform="translate(15.527 86.564)">
          <path id="Path_1346" data-name="Path 1346" d="M199.533,255.719l.475,8.127a6.077,6.077,0,0,0-1.3,2.7c-.235,1.489.9,5.348,2,5.426a39.161,39.161,0,0,0,6.708-.716c.392-.235-.261-2.63-.261-2.63s-.554-3.686-1.416-4.547,0-8.355,0-8.355Z" transform="translate(-198.679 -255.719)" fill="#ffb189"/>
        </g>
        <g id="Group_5376" data-name="Group 5376" transform="translate(0.501 110.414)">
          <path id="Path_1347" data-name="Path 1347" d="M188.346,305.56H169.712a2.431,2.431,0,0,0-2.435,2.434h23.5A2.435,2.435,0,0,0,188.346,305.56Z" transform="translate(-167.277 -305.56)" fill="#fd4059"/>
        </g>
        <g id="Group_5377" data-name="Group 5377" transform="translate(2.228 102.481)">
          <path id="Path_1348" data-name="Path 1348" d="M195.766,288.981l-24.879,8.037,22.293,3.271,21.78-9.951Z" transform="translate(-170.888 -288.981)" fill="#fd4059"/>
        </g>
        <g id="Group_5378" data-name="Group 5378" transform="translate(0 112.483)">
          <path id="Path_1349" data-name="Path 1349" d="M191.2,310.536a.653.653,0,0,1-.653.653h-23.66a.653.653,0,0,1-.653-.653h0a.652.652,0,0,1,.653-.653h23.66a.653.653,0,0,1,.653.653Z" transform="translate(-166.231 -309.883)" fill="#fd4059"/>
        </g>
        <g id="Group_5379" data-name="Group 5379" transform="translate(13.748 95.408)">
          <path id="Path_1350" data-name="Path 1350" d="M197.467,288.347H194.96v-6.114a4.769,4.769,0,0,1,3.325-4.395l12.866-3.637v9.126h-2.507v-5.812l-9.677,2.736a2.243,2.243,0,0,0-1.5,1.982Z" transform="translate(-194.96 -274.201)" fill="#6b6966"/>
        </g>
        <g id="Group_5380" data-name="Group 5380" transform="translate(13.095 37.474)">
          <path id="Path_1351" data-name="Path 1351" d="M200.273,157.555c-2.629,3.72-7.5,23.555-6.558,29.353s2.532,17.079,2.532,17.079l7.656-.015s-1.435-19.839.6-22.347a39.3,39.3,0,0,0,2.923-3.978l7.625,25.243,16.3,2.351s3.709-25.958,13.318-34.523c0,0,.94-16.244-6.581-16.87S204.556,151.5,200.273,157.555Z" transform="translate(-193.597 -153.134)" fill="#7a57d1"/>
        </g>
        <g id="Group_5381" data-name="Group 5381" transform="translate(24.004 51.818)">
          <path id="Path_1352" data-name="Path 1352" d="M247.781,297.074s-2.088-60.795-2.507-75.628,8.147-30.659,8.147-30.659-1.88-2.664-10.341-7.678l-26.1.348-.584,13.8s3.184,13.952,2.558,34.844-2.3,63.929-2.3,63.929l5.432-.626s6.05-68.107,10.228-64.346,10.873,66.018,10.873,66.018h4.6Z" transform="translate(-216.393 -183.109)" fill="#29335c"/>
        </g>
        <g id="Group_5382" data-name="Group 5382" transform="translate(24.539 36.769)">
          <path id="Path_1353" data-name="Path 1353" d="M225.616,152.366c.529-1.216-6-.735-6.946.5-1.91,2.507-.881,20-.881,20l6.028-3.552S222.69,159.085,225.616,152.366Z" transform="translate(-217.512 -151.661)" fill="#3f4b7d"/>
        </g>
        <g id="Group_5383" data-name="Group 5383" transform="translate(34.083 28.553)">
          <path id="Path_1354" data-name="Path 1354" d="M249.526,143.705s-6.7,4.156-12.071.238l.508-5.722.069-.821.257-2.908h10.4l.445,4.9Z" transform="translate(-237.455 -134.492)" fill="#ffb189"/>
        </g>
        <g id="Group_5384" data-name="Group 5384" transform="translate(32.901 36.074)">
          <path id="Path_1355" data-name="Path 1355" d="M240,153.818l-3.7-3.611-1.314,1.706S235.2,153.349,240,153.818Z" transform="translate(-234.986 -150.208)" fill="#b51b1c"/>
        </g>
        <g id="Group_5385" data-name="Group 5385" transform="translate(37.918 36.074)">
          <path id="Path_1356" data-name="Path 1356" d="M253.552,150.208l-8.082,3.611a13.028,13.028,0,0,0,9.453-2.1Z" transform="translate(-245.47 -150.208)" fill="#b51b1c"/>
        </g>
        <g id="Group_5386" data-name="Group 5386" transform="translate(34.083 28.553)">
          <path id="Path_1357" data-name="Path 1357" d="M249.137,139.393l-2.832.188c-5.139.188-7.44-.783-8.342-1.36a2.2,2.2,0,0,1-.508-.414l.577-.407c.846-.608,2.538-1.78,4.331-2.908h6.33Z" transform="translate(-237.455 -134.492)" fill="#e09c79"/>
        </g>
        <g id="Group_5387" data-name="Group 5387" transform="translate(30.596 5.558)">
          <path id="Path_1358" data-name="Path 1358" d="M230.168,91.709s.864,9.026.864,11.619-1.92,6.242,0,8.259,15.42,3,17.285-1.033c1.352-2.926,2.017-11.164,0-20.382S230.168,91.709,230.168,91.709Z" transform="translate(-230.168 -86.439)" fill="#ffb189"/>
        </g>
        <g id="Group_5388" data-name="Group 5388" transform="translate(47.492 16.424)">
          <path id="Path_1359" data-name="Path 1359" d="M270.7,113.124c-.436,1.831-1.933,3.043-3.343,2.708s-2.2-2.092-1.763-3.923,1.932-3.043,3.343-2.708S271.139,111.293,270.7,113.124Z" transform="translate(-265.477 -109.145)" fill="#ffb189"/>
        </g>
        <g id="Group_5389" data-name="Group 5389" transform="translate(43.403 9.398)">
          <path id="Path_1360" data-name="Path 1360" d="M256.932,94.655s2.872,2.3,3.733,4.544c.6,1.564.691,6.155.691,6.155h.863s.069-3.723,1.33-3.815a34.515,34.515,0,0,0,.472-5.826C263.864,93.794,256.932,94.655,256.932,94.655Z" transform="translate(-256.932 -94.462)" fill="#5d4837"/>
        </g>
        <g id="Group_5390" data-name="Group 5390" transform="translate(30.293 1.317)">
          <path id="Path_1361" data-name="Path 1361" d="M249.735,89.123s1.894-8.29-2.232-9.8-15.7-3.131-16.688.264a53.876,53.876,0,0,0-1.28,9.541S235.74,78.214,249.735,89.123Z" transform="translate(-229.535 -77.576)" fill="#bf1c1d"/>
        </g>
        <g id="Group_5391" data-name="Group 5391" transform="translate(20.29)">
          <path id="Path_1362" data-name="Path 1362" d="M237.677,87.228v0c-4.021-1.529-17.177-5.95-18.488,1.195l-.076-.031-.086-.035a.026.026,0,0,1-.02-.01c-.025-.011-.051-.021-.081-.031s-.031-.015-.051-.02c-.041-.021-.091-.041-.142-.061a.189.189,0,0,1-.051-.02c-1.894-.8-8.563-3.777-9.839-6.294v-.005a1.414,1.414,0,0,1,.025-1.529c2.086-3.043,14-6.4,17.47-5.368,5.61,1.671,12.31,12.37,12.492,12.67C238.781,87.664,238.36,87.486,237.677,87.228Z" transform="translate(-208.633 -74.824)" fill="#d21f20"/>
        </g>
        <g id="Group_5392" data-name="Group 5392" transform="translate(39.524 13.624)">
          <path id="Path_1363" data-name="Path 1363" d="M249.419,105.484a7.069,7.069,0,0,1,4.408.522s.8-.4.887-.634c.156-.426-1.988-2.491-4.909-2C248.121,103.649,249.037,105.563,249.419,105.484Z" transform="translate(-248.825 -103.295)" fill="#5d4837"/>
        </g>
        <g id="Group_5393" data-name="Group 5393" transform="translate(30.369 13.979)">
          <path id="Path_1364" data-name="Path 1364" d="M234.405,106.091a6.327,6.327,0,0,0-3.954.641s-.676-.4-.75-.635c-.132-.425,1.66-2.426,4.148-2C235.344,104.349,234.592,106,234.405,106.091Z" transform="translate(-229.695 -104.036)" fill="#5d4837"/>
        </g>
        <g id="Group_5394" data-name="Group 5394" transform="translate(35.856 16.299)">
          <path id="Path_1365" data-name="Path 1365" d="M242.751,109.535a28.024,28.024,0,0,1-.339,4.283s-1.671.627-1.149,2.168,2.658.6,2.716.548c.47-.424.617-4.29-.156-7C243.4,108.072,242.751,109.535,242.751,109.535Z" transform="translate(-241.162 -108.885)" fill="#ff9d6b"/>
        </g>
        <g id="Group_5395" data-name="Group 5395" transform="translate(35.857 24.203)">
          <path id="Path_1366" data-name="Path 1366" d="M248.15,126.5v.007a3.735,3.735,0,0,1-.214,1.09c-.006.019-.012.038-.018.056a.738.738,0,0,1-.05.125,2.62,2.62,0,0,1-1.962,1.7,4.5,4.5,0,0,1-3.541-.877,5.488,5.488,0,0,1-1.2-1.216s.313.006.814-.025c.1-.007.207-.013.32-.025a11.131,11.131,0,0,0,5.71-1.93S248.2,125.471,248.15,126.5Z" transform="translate(-241.162 -125.402)" fill="#5d4837"/>
        </g>
        <g id="Group_5396" data-name="Group 5396" transform="translate(42.16 17.585)">
          <path id="Path_1367" data-name="Path 1367" d="M255.966,112.577a.834.834,0,1,1-.816-1A.925.925,0,0,1,255.966,112.577Z" transform="translate(-254.334 -111.572)" fill="#ad795e"/>
        </g>
        <g id="Group_5397" data-name="Group 5397" transform="translate(33.758 17.585)">
          <path id="Path_1368" data-name="Path 1368" d="M238.409,112.577a.834.834,0,1,1-.816-1A.925.925,0,0,1,238.409,112.577Z" transform="translate(-236.777 -111.572)" fill="#ad795e"/>
        </g>
        <g id="Group_5398" data-name="Group 5398" transform="translate(49.964 17.664)">
          <path id="Path_1369" data-name="Path 1369" d="M270.7,115.046a.882.882,0,0,0,.364-1.165,6.15,6.15,0,0,1-.42-1.107s.695-1.645,1.439-.793a2.844,2.844,0,0,1-.294,3.281C271.171,115.682,270.62,115.81,270.7,115.046Z" transform="translate(-270.643 -111.736)" fill="#ff9d6b"/>
        </g>
        <g id="Group_5399" data-name="Group 5399" transform="translate(30.596 55.578)">
          <path id="Path_1370" data-name="Path 1370" d="M230.168,190.968h14.374S236.156,193.632,230.168,190.968Z" transform="translate(-230.168 -190.968)" fill="#7a57d1"/>
        </g>
        <g id="Group_5400" data-name="Group 5400" transform="translate(18.566 97.386)">
          <path id="Path_1371" data-name="Path 1371" d="M205.029,283.767s1.594-.7.811-3.994c-.327-1.372,4.324-1.694,5.013-1.256,1.29.822.689,4.2-.386,4.715S205.029,283.767,205.029,283.767Z" transform="translate(-205.029 -278.334)" fill="#ffb189"/>
        </g>
        <g id="Group_5401" data-name="Group 5401" transform="translate(46.157 36.508)">
          <path id="Path_1372" data-name="Path 1372" d="M265.059,151.7c1.465-1.44,8.614.139,6.953.99-3.375,1.731-2.985,18.293-2.985,18.293l-6.267.836S262.048,154.657,265.059,151.7Z" transform="translate(-262.687 -151.116)" fill="#3f4b7d"/>
        </g>
        <g id="Group_5402" data-name="Group 5402" transform="translate(13.095 162.753)">
          <path id="Path_1373" data-name="Path 1373" d="M204.835,415.1s-11.877,2.712-11.211,3.913,3.016,2.506,6.516,1.613c1.509-.384,5.923-1.839,6.6-1.785l.239.25,3.29-.313s.541-3.845.2-3.839S204.835,415.1,204.835,415.1Z" transform="translate(-193.597 -414.935)" fill="#7a57d1"/>
        </g>
        <g id="Group_5403" data-name="Group 5403" transform="translate(50.221 162.753)">
          <path id="Path_1374" data-name="Path 1374" d="M276.926,415.1s11.878,2.712,11.212,3.913-3.016,2.506-6.516,1.613c-1.51-.384-5.924-1.839-6.6-1.785l-.24.25-3.291-.313s-.54-3.845-.2-3.839S276.926,415.1,276.926,415.1Z" transform="translate(-271.18 -414.935)" fill="#7a57d1"/>
        </g>
        <g id="Group_5404" data-name="Group 5404" transform="translate(7.933 136.355)">
          <path id="Path_1375" data-name="Path 1375" d="M184.414,360.574a.8.8,0,0,1-.8.8h0a.8.8,0,0,1-.8-.8h0a.8.8,0,0,1,.8-.8h0a.8.8,0,0,1,.8.8Z" transform="translate(-182.808 -359.771)" fill="#6b6966"/>
        </g>
        <g id="Group_5405" data-name="Group 5405" transform="translate(12.32 136.355)">
          <path id="Path_1376" data-name="Path 1376" d="M193.581,360.574a.8.8,0,0,1-.8.8h0a.8.8,0,0,1-.8-.8h0a.8.8,0,0,1,.8-.8h0a.8.8,0,0,1,.8.8Z" transform="translate(-191.976 -359.771)" fill="#6b6966"/>
        </g>
        <g id="Group_5406" data-name="Group 5406" transform="translate(16.707 136.355)">
          <path id="Path_1377" data-name="Path 1377" d="M202.75,360.574a.8.8,0,0,1-.8.8h0a.8.8,0,0,1-.8-.8h0a.8.8,0,0,1,.8-.8h0a.8.8,0,0,1,.8.8Z" transform="translate(-201.144 -359.771)" fill="#6b6966"/>
        </g>
        <g id="Group_5407" data-name="Group 5407" transform="translate(4.87 118.724)">
          <rect id="Rectangle_1055" data-name="Rectangle 1055" width="16.504" height="13.84" transform="translate(0 0)" fill="#5c5a58"/>
        </g>
        <g id="Group_5408" data-name="Group 5408" transform="translate(36.671 24.203)">
          <path id="Path_1378" data-name="Path 1378" d="M249.038,126.5v.007a3.736,3.736,0,0,1-.214,1.09c-.006.019-.012.038-.018.056a10.825,10.825,0,0,1-2.463.269,10.2,10.2,0,0,1-3.478-.564c.1-.007.207-.013.32-.025a11.131,11.131,0,0,0,5.71-1.93S249.088,125.471,249.038,126.5Z" transform="translate(-242.864 -125.402)" fill="#fff"/>
        </g>
        <g id="Group_5409" data-name="Group 5409" transform="translate(30.557 56.17)">
          <path id="Path_1379" data-name="Path 1379" d="M230.126,192.8s-.407,10.829,1.421,11.821,11.543,1.515,12.274.261.679-12.674.679-12.674-.568,12.257-2.086,12.518S231.212,205.054,230.126,192.8Z" transform="translate(-230.087 -192.205)" fill="#7a57d1"/>
        </g>
        <g id="Group_5410" data-name="Group 5410" transform="translate(13.945 82.042)">
          <path id="Path_1380" data-name="Path 1380" d="M197.174,253.154s8.393-.078,8.258-.653.5-6.059,0-6.059-10.059-.574-10.059.366S196.467,253.164,197.174,253.154Z" transform="translate(-195.373 -246.269)" fill="#b51b1c"/>
        </g>
        <path id="Path_1381" data-name="Path 1381" d="M203.919,274.887s2.152,3.8.9,4.705c-.627.452,3.259,1.068,2.942-1.337a26.011,26.011,0,0,0-1.012-4.515,5.353,5.353,0,0,0-1.931-2.5C204.088,270.838,203.193,273.309,203.919,274.887Z" transform="translate(-185.744 -177.228)" fill="#ffb189"/>
        <path id="Path_1382" data-name="Path 1382" d="M237.79,280.9s-3.544-2.944-3.629-2.594-7.638,65.367-7.638,65.367h1.115s7.939-58.976,9.869-62.651Z" transform="translate(-197.672 -180.917)" fill="#3f4b7d"/>
        <path id="Path_1383" data-name="Path 1383" d="M276.971,295.2s-5-67.128-4.344-70,1.489-39.882,1.489-39.882,5.092,8.677,5.821,12.629c.406,2.2-4.09,11.888-4.361,19.487s2.074,77.925,2.074,77.925Z" transform="translate(-221.683 -132.442)" fill="#3f4b7d"/>
        <g id="Group_5411" data-name="Group 5411" transform="translate(51.585 95.477)">
          <rect id="Rectangle_1056" data-name="Rectangle 1056" width="25.181" height="2.507" transform="translate(0 4.304) rotate(-9.841)" fill="#6b6966"/>
        </g>
        <g id="Group_5412" data-name="Group 5412" transform="translate(60.488 86.015)">
          <path id="Path_1384" data-name="Path 1384" d="M295.135,254.572l-.053,7.069s-2.194,3.526-2.429,5.014,1.723,5.093,2.82,5.171a28.994,28.994,0,0,0,6.089-1.173c.391-.235,1.227-3.292,1.227-3.292s-.265-3.134-1.127-4,.053-8.7.053-8.7Z" transform="translate(-292.635 -254.572)" fill="#ffb189"/>
        </g>
        <g id="Group_5413" data-name="Group 5413" transform="translate(52.311 38.389)">
          <path id="Path_1385" data-name="Path 1385" d="M275.67,169.532s6.661,10.232,8.054,20.985c1.323,10.214,1.387,12.248,1.387,12.248h8.4s1.1-7.175-.847-20.213c-1.806-12.108-4.726-24.386-9.272-26.705C273.951,151.031,275.67,169.532,275.67,169.532Z" transform="translate(-275.547 -155.047)" fill="#7a57d1"/>
        </g>
        <g id="Group_5414" data-name="Group 5414" transform="translate(44.56 96.695)">
          <path id="Path_1386" data-name="Path 1386" d="M268.4,279.622a4.738,4.738,0,0,0-4.3-2.732,4.456,4.456,0,0,0-.843.077,4.748,4.748,0,0,0-3.55,6.484.761.761,0,0,0,.057.129,2.717,2.717,0,0,0,.187.373,3.69,3.69,0,0,0,.3.469,4.738,4.738,0,0,0,3.852,1.972,4.757,4.757,0,0,0,4.728-4.3c.014-.148.024-.3.024-.455A4.74,4.74,0,0,0,268.4,279.622Zm-2.393,3.192a2.241,2.241,0,0,1-4.153-1.172,2.2,2.2,0,0,1,.225-.971A2.239,2.239,0,0,1,264.1,279.4a2.159,2.159,0,0,1,.589.081,2.2,2.2,0,0,1,1.192.8,2.225,2.225,0,0,1,.464,1.364A2.175,2.175,0,0,1,266.011,282.814Z" transform="translate(-259.35 -276.89)" fill="#6b6966"/>
        </g>
        <g id="Group_5415" data-name="Group 5415" transform="translate(74.492 91.957)">
          <path id="Path_1387" data-name="Path 1387" d="M326.657,266.99a4.76,4.76,0,0,0-4.666,3.833,4.465,4.465,0,0,0-.091.919,4.63,4.63,0,0,0,.278,1.593,4.756,4.756,0,0,0,4.479,3.158,4.7,4.7,0,0,0,1.077-.124l-1.369-2.4a2.244,2.244,0,1,1,2.536-2.225,2.218,2.218,0,0,1-.11.694L330.2,274.9a4.748,4.748,0,0,0-3.541-7.915Z" transform="translate(-321.9 -266.99)" fill="#6b6966"/>
        </g>
        <g id="Group_5416" data-name="Group 5416" transform="translate(44.417 94.015)">
          <rect id="Rectangle_1057" data-name="Rectangle 1057" width="2.86" height="6.758" transform="translate(0 1.415) rotate(-29.656)" fill="#ffbd00"/>
        </g>
        <g id="Group_5417" data-name="Group 5417" transform="translate(60.958 80.685)">
          <path id="Path_1388" data-name="Path 1388" d="M294.534,250.056s-1.226-5.568-.842-5.646,10.365-1.756,10.574-.527-.313,6.555-1.41,6.731S294.534,250.056,294.534,250.056Z" transform="translate(-293.617 -243.435)" fill="#b51b1c"/>
        </g>
        <g id="Group_5422" data-name="Group 5422" transform="translate(25.68 80.797)">
          <g id="Group_5418" data-name="Group 5418">
            <path id="Path_1389" data-name="Path 1389" d="M220.3,243.746s11.411,4.775,28.783,0c0,0,.162,6.088-.727,6.272s-11.671,4.224-28.056-.543C220.3,249.474,219.392,242.891,220.3,243.746Z" transform="translate(-219.896 -243.669)" fill="#723400"/>
          </g>
          <g id="Group_5420" data-name="Group 5420" transform="translate(8.701 1.848)">
            <g id="Group_5419" data-name="Group 5419">
              <path id="Path_1390" data-name="Path 1390" d="M246.177,247.808a1.9,1.9,0,0,0-1-.278h-5.163a1.9,1.9,0,0,0-.809.177,1.936,1.936,0,0,0-1.129,1.761v2.665a1.938,1.938,0,0,0,1.938,1.938h5.163a1.922,1.922,0,0,0,.991-.273,1.832,1.832,0,0,0,.531-.464,1.915,1.915,0,0,0,.416-1.2v-2.665A1.926,1.926,0,0,0,246.177,247.808Zm-6.159,4.972a.633.633,0,0,1-.627-.5.473.473,0,0,1-.019-.144v-2.665a.643.643,0,0,1,.646-.646h5.163a.643.643,0,0,1,.646.646v2.665a.643.643,0,0,1-.646.646Z" transform="translate(-238.08 -247.53)" fill="#aba8a3"/>
            </g>
          </g>
          <g id="Group_5421" data-name="Group 5421" transform="translate(14.951 4.741)">
            <path id="Path_1391" data-name="Path 1391" d="M253.417,254.049a.47.47,0,0,1-.47.47h-1.334a.471.471,0,0,1-.471-.47h0a.471.471,0,0,1,.471-.472h1.334a.471.471,0,0,1,.47.472Z" transform="translate(-251.141 -253.577)" fill="#aba8a3"/>
          </g>
        </g>
        <path id="Path_1392" data-name="Path 1392" d="M237.857,88.1c-4.021-1.529-17.177-5.95-18.488,1.195l-.076-.031c-.02-.01-.051-.02-.086-.035a.026.026,0,0,1-.02-.01c-.025-.011-.051-.021-.081-.031s-.031-.015-.051-.02c-.041-.021-.091-.041-.142-.061a.19.19,0,0,1-.051-.02c-1.97-.815-9.029-3.878-9.839-6.294v-.005c-.932-2.81,12.421-6.74,16.518-6.238C229.577,77.047,237.633,87.8,237.857,88.1Z" transform="translate(-188.522 -75.701)" fill="#bf1c1d"/>
      </g>
    </g>
    <g id="Group_5428" data-name="Group 5428" transform="translate(-8.123)">
      <path id="Path_1342" data-name="Path 1342" d="M39.1,0C17.507,0,0,2.889,0,6.454s17.507,6.454,39.1,6.454,39.1-2.889,39.1-6.454S60.7,0,39.1,0Z" transform="translate(91.123 461.649)" fill="#29335c"/>
      <path id="Path_1301" data-name="Path 1301" d="M941.446,628.823c.077,13.866,8.346,18.661,18.514,18.6q.354,0,.705-.012.707-.019,1.4-.072c9.173-.7,16.274-5.829,16.2-18.724-.074-13.345-17.223-30.091-18.509-31.329h0l-.074-.071S941.37,614.959,941.446,628.823Z" transform="translate(-844.295 -184.482)" fill="#5828a7"/>
      <path id="Path_1302" data-name="Path 1302" d="M990.634,645.3l-6.785-9.371,6.808,10.4.024,1.08q.707-.019,1.4-.072l-.8-13.867.005-.107-.012-.02-.076-1.31,6.71-10.5-6.735,9.522-.016.278-.606-10.477,5.733-10.848-5.815,9.006-.691-21.726,0-.072v.071l.19,17.135-5.805-6.761L990,615.9l.2,9.383-5.436-8.976,5.465,10.355.114,5.218-7.886-12.492,7.926,14.313Z" transform="translate(-874.311 -184.48)" fill="#3f3d56"/>
      <circle id="Ellipse_44" data-name="Ellipse 44" cx="12.324" cy="12.324" r="12.324" transform="translate(121.583 314.266)" fill="#2f2e41"/>
      <circle id="Ellipse_45" data-name="Ellipse 45" cx="8.369" cy="8.369" r="8.369" transform="translate(127.372 322.527)" fill="#ffb8b8"/>
      <path id="Path_1303" data-name="Path 1303" d="M928.248,289.854s-3.619,8.369-1.809,9.274,2.714,4.976,2.714,4.976l-4.75,9.953-6.559,4.072H914s-3.845-17.191-2.488-19.226,6.333-3.167,6.333-3.167a10.68,10.68,0,0,0,.679-5.2C918.069,288.044,928.248,289.854,928.248,289.854Z" transform="translate(-787.53 45.566)" fill="#ffb8b8"/>
      <path id="Path_1304" data-name="Path 1304" d="M835.481,359.706l5.881-4.75s10.631-7.464,9.274-2.036-7.464,5.881-7.464,5.881l-10.179,8.143Z" transform="translate(-689.334 -0.535)" fill="#ffb8b8"/>
      <path id="Path_1305" data-name="Path 1305" d="M900.6,480.542s2.714,11.31,0,26.691l-1.131,6.107s0,4.75-1.131,6.56c0,0-2.94,26.917-4.524,26.917s-6.56-.9-7.012-1.583,8.821-65.822,8.821-65.822Z" transform="translate(-754.006 -96.491)" fill="#2f2e41"/>
      <path id="Path_1306" data-name="Path 1306" d="M900.6,480.542s2.714,11.31,0,26.691l-1.131,6.107s0,4.75-1.131,6.56c0,0-2.94,26.917-4.524,26.917s-6.56-.9-7.012-1.583,8.821-65.822,8.821-65.822Z" transform="translate(-754.006 -96.491)" fill="#2c3764"/>
      <path id="Path_1307" data-name="Path 1307" d="M899.557,738.6l3.5,12.985s7.008,4.122,2.679,4.947a18.049,18.049,0,0,1-8.657-.824l-2.061-5.977-2.061-1.237v6.39h-.618l-1.443-8.451s.206-4.328,1.443-4.741,1.855-2.679,1.855-2.679Z" transform="translate(-760.386 -290.082)" fill="#2f2e41"/>
      <path id="Path_1308" data-name="Path 1308" d="M899.557,738.6l3.5,12.985s7.008,4.122,2.679,4.947a18.049,18.049,0,0,1-8.657-.824l-2.061-5.977-2.061-1.237v6.39h-.618l-1.443-8.451s.206-4.328,1.443-4.741,1.855-2.679,1.855-2.679Z" transform="translate(-760.386 -290.082)" fill="#7936ce"/>
      <path id="Path_1309" data-name="Path 1309" d="M910.8,463.154s-1.81,6.786-2.488,7.917c0,0-.9,19.226-3.845,25.786l-3.167,8.369s-5.2,24.655-3.845,27.37c0,0-7.012,1.583-7.464,0,0,0,.226-13.119-.452-14.929s-1.81-11.762,3.619-19V476.726s-8.6-7.238-3.619-16.512S910.8,463.154,910.8,463.154Z" transform="translate(-763.292 -79.555)" fill="#29335c"/>
      <path id="Path_1310" data-name="Path 1310" d="M919.961,751.1l3.845,14.25s7.691,4.524,2.941,5.429a19.807,19.807,0,0,1-9.5-.9l-2.262-6.56-2.262-1.357v7.012h-.679l-1.583-9.274s.226-4.75,1.583-5.2,2.036-2.94,2.036-2.94Z" transform="translate(-786.482 -299.419)" fill="#7c36d5"/>
      <path id="Path_1311" data-name="Path 1311" d="M878.164,321.7s5.695,3.273,5.695,3.5-.679,3.845-.679,3.845,7.012,7.012,2.262,13.119c0,0-1.583,1.131-1.583,4.75v3.619s13.345,8.369,9.953,11.084-7.012,2.262-8.143,3.845-7.691-1.357-9.048-1.81-1.583-.9-2.714.679-7.464-1.131-7.464-1.131a42.6,42.6,0,0,0-4.976-1.131,3.13,3.13,0,0,1-1.583-.452l9.726-9.953-4.863-12.328s14.363-8.935,14.363-11.423A32.259,32.259,0,0,0,878.164,321.7Z" transform="translate(-739.748 21.308)" fill="#7a57d1"/>
      <path id="Path_1312" data-name="Path 1312" d="M909.424,323.9a10.529,10.529,0,0,1,.679,9.726,130.988,130.988,0,0,1-5.881,12.214l5.655,1.81h5.2s10.857-1.81,9.726,2.262-8.822,2.262-8.822,2.262H911.46s-10.179,1.131-11.536-.679c0,0-3.619-.226-2.036-7.464s6.206-19.628,6.206-19.628Z" transform="translate(-779.79 19.66)" fill="#ffb8b8"/>
      <ellipse id="Ellipse_46" data-name="Ellipse 46" cx="7.893" cy="4.016" rx="7.893" ry="4.016" transform="translate(129.476 319.113)" fill="#2f2e41"/>
      <ellipse id="Ellipse_47" data-name="Ellipse 47" cx="1.131" cy="2.488" rx="1.131" ry="2.488" transform="translate(126.354 327.843)" fill="#ffb8b8"/>
      <circle id="Ellipse_48" data-name="Ellipse 48" cx="6.786" cy="6.786" r="6.786" transform="translate(121.604 308.842)" fill="#2f2e41"/>
      <g id="Group_5426" data-name="Group 5426" transform="translate(132.566 328.392)">
        <path id="Path_1242" data-name="Path 1242" d="M396.322,176.5a.2.2,0,0,1-.033-.392l.678-.114-.933-2.484a.2.2,0,1,1,.369-.139l1.1,2.933-1.15.193Z" transform="translate(-391.687 -170.963)" fill="#fd896b"/>
        <path id="Path_1244" data-name="Path 1244" d="M391.4,172.386c0,.435.224.786.5.786s.5-.352.5-.786-.224-.786-.5-.786S391.4,171.952,391.4,172.386Z" transform="translate(-384.28 -170.141)" fill="#29245d"/>
        <path id="Path_1245" data-name="Path 1245" d="M402.589,172.386c0,.435.224.786.5.786s.5-.352.5-.786-.224-.786-.5-.786S402.589,171.952,402.589,172.386Z" transform="translate(-401.049 -170.141)" fill="#29245d"/>
        <path id="Path_1246" data-name="Path 1246" d="M391,168.859a9.614,9.614,0,0,0-2.081-.177c-.228.008-.41.18-.379.361v0a.321.321,0,0,0,.363.229,10.924,10.924,0,0,1,2.852.179.373.373,0,0,0-.151-.311A1.206,1.206,0,0,0,391,168.859Z" transform="translate(-382.211 -168.677)" fill="#29245d"/>
        <path id="Path_1247" data-name="Path 1247" d="M401.983,169.023a9.588,9.588,0,0,1,2.078-.206c.228,0,.413.174.384.356v0a.32.32,0,0,1-.359.234,10.939,10.939,0,0,0-2.85.218.374.374,0,0,1,.147-.313A1.206,1.206,0,0,1,401.983,169.023Z" transform="translate(-401.232 -168.746)" fill="#29245d"/>
        <path id="Path_1248" data-name="Path 1248" d="M398.536,182.118a2.241,2.241,0,0,1-2.269,1.963,2.157,2.157,0,0,1-2.258-1.963Z" transform="translate(-391.715 -175.411)" fill="#fff"/>
        <path id="Path_1249" data-name="Path 1249" d="M397.543,187.809a1.932,1.932,0,0,0,.907-.265.193.193,0,0,0-.2-.329h0a1.556,1.556,0,0,1-.7.208,1.64,1.64,0,0,1-.743-.209.193.193,0,0,0-.2.331A2.024,2.024,0,0,0,397.543,187.809Z" transform="translate(-392.967 -177.95)" fill="#fd896b"/>
      </g>
    </g>
    <g id="Group_5429" data-name="Group 5429" transform="translate(73 297.336)">
      <g id="Group_5241" data-name="Group 5241" transform="translate(201.535 15.428)">
        <g id="Group_5224" data-name="Group 5224" transform="translate(17.917)">
          <g id="Group_5223" data-name="Group 5223">
            <g id="Group_5222" data-name="Group 5222">
              <g id="Group_5221" data-name="Group 5221">
                <path id="Path_1190" data-name="Path 1190" d="M392.364,111.183a3.61,3.61,0,1,1,3.61,3.61A3.615,3.615,0,0,1,392.364,111.183Zm1.133,0a2.477,2.477,0,1,0,2.477-2.477A2.48,2.48,0,0,0,393.5,111.183Z" transform="translate(-392.364 -107.573)" fill="#7c36d5"/>
              </g>
            </g>
          </g>
        </g>
        <g id="Group_5225" data-name="Group 5225" transform="translate(4.922 12.665)">
          <path id="Path_1191" data-name="Path 1191" d="M372.326,130.711a3.61,3.61,0,1,1,3.61,3.61A3.614,3.614,0,0,1,372.326,130.711Zm1.132,0a2.477,2.477,0,1,0,2.477-2.477A2.48,2.48,0,0,0,373.458,130.711Z" transform="translate(-372.326 -127.101)" fill="#fd4059"/>
        </g>
        <g id="Group_5232" data-name="Group 5232" transform="translate(0 27.986)">
          <g id="Group_5228" data-name="Group 5228" transform="translate(3.505)">
            <g id="Group_5226" data-name="Group 5226">
              <path id="Path_1192" data-name="Path 1192" d="M370.708,154.355a.566.566,0,0,0,.566-.566v-2.5a.566.566,0,1,0-1.132,0v2.5A.566.566,0,0,0,370.708,154.355Z" transform="translate(-370.142 -150.725)" fill="#7c36d5"/>
            </g>
            <g id="Group_5227" data-name="Group 5227" transform="translate(0 4.37)">
              <path id="Path_1193" data-name="Path 1193" d="M370.708,161.093a.566.566,0,0,0,.566-.566v-2.5a.566.566,0,1,0-1.132,0v2.5A.566.566,0,0,0,370.708,161.093Z" transform="translate(-370.142 -157.463)" fill="#7c36d5"/>
            </g>
          </g>
          <g id="Group_5231" data-name="Group 5231" transform="translate(0 3.433)">
            <g id="Group_5229" data-name="Group 5229">
              <path id="Path_1194" data-name="Path 1194" d="M365.3,157.152h2.243a.567.567,0,0,0,0-1.133H365.3a.567.567,0,0,0,0,1.133Z" transform="translate(-364.737 -156.019)" fill="#7c36d5"/>
            </g>
            <g id="Group_5230" data-name="Group 5230" transform="translate(4.767)">
              <path id="Path_1195" data-name="Path 1195" d="M372.654,157.152H374.9a.567.567,0,0,0,0-1.133h-2.243a.567.567,0,0,0,0,1.133Z" transform="translate(-372.088 -156.019)" fill="#7c36d5"/>
            </g>
          </g>
        </g>
        <g id="Group_5240" data-name="Group 5240" transform="translate(19.934 13.993)">
          <g id="Group_5239" data-name="Group 5239">
            <g id="Group_5235" data-name="Group 5235" transform="translate(3.505)">
              <g id="Group_5233" data-name="Group 5233">
                <path id="Path_1196" data-name="Path 1196" d="M401.444,132.779a.566.566,0,0,0,.566-.566v-2.5a.566.566,0,1,0-1.132,0v2.5A.566.566,0,0,0,401.444,132.779Z" transform="translate(-400.878 -129.149)" fill="#fd4059"/>
              </g>
              <g id="Group_5234" data-name="Group 5234" transform="translate(0 4.37)">
                <path id="Path_1197" data-name="Path 1197" d="M401.444,139.517a.566.566,0,0,0,.566-.566v-2.5a.566.566,0,1,0-1.132,0v2.5A.566.566,0,0,0,401.444,139.517Z" transform="translate(-400.878 -135.887)" fill="#fd4059"/>
              </g>
            </g>
            <g id="Group_5238" data-name="Group 5238" transform="translate(0 3.433)">
              <g id="Group_5236" data-name="Group 5236">
                <path id="Path_1198" data-name="Path 1198" d="M396.039,135.576h2.243a.567.567,0,0,0,0-1.133h-2.243a.567.567,0,0,0,0,1.133Z" transform="translate(-395.473 -134.443)" fill="#fd4059"/>
              </g>
              <g id="Group_5237" data-name="Group 5237" transform="translate(4.767)">
                <path id="Path_1199" data-name="Path 1199" d="M403.39,135.576h2.243a.567.567,0,1,0,0-1.133H403.39a.567.567,0,1,0,0,1.133Z" transform="translate(-402.823 -134.443)" fill="#fd4059"/>
              </g>
            </g>
          </g>
        </g>
      </g>
      <g id="Group_5261" data-name="Group 5261">
        <g id="Group_5260" data-name="Group 5260">
          <g id="Group_5242" data-name="Group 5242" transform="translate(24.477)">
            <path id="Path_1200" data-name="Path 1200" d="M91.73,87.395a3.61,3.61,0,1,1,3.61,3.61A3.614,3.614,0,0,1,91.73,87.395Zm6.087,0a2.477,2.477,0,1,0-2.477,2.478A2.48,2.48,0,0,0,97.817,87.395Z" transform="translate(-91.73 -83.785)" fill="#7c36d5"/>
          </g>
          <g id="Group_5244" data-name="Group 5244" transform="translate(15.875 14.818)">
            <g id="Group_5243" data-name="Group 5243">
              <path id="Path_1201" data-name="Path 1201" d="M78.467,110.243a3.61,3.61,0,1,1,3.61,3.61A3.614,3.614,0,0,1,78.467,110.243Zm6.088,0a2.477,2.477,0,1,0-2.477,2.477A2.481,2.481,0,0,0,84.555,110.243Z" transform="translate(-78.467 -106.633)" fill="#fd4059"/>
            </g>
          </g>
          <g id="Group_5251" data-name="Group 5251" transform="translate(0 20.523)">
            <g id="Group_5247" data-name="Group 5247" transform="translate(0 3.505)">
              <g id="Group_5245" data-name="Group 5245" transform="translate(4.371)">
                <path id="Path_1202" data-name="Path 1202" d="M60.728,121.4a.566.566,0,0,1,.566-.566h2.5a.566.566,0,1,1,0,1.132h-2.5A.566.566,0,0,1,60.728,121.4Z" transform="translate(-60.728 -120.835)" fill="#7c36d5"/>
              </g>
              <g id="Group_5246" data-name="Group 5246">
                <path id="Path_1203" data-name="Path 1203" d="M53.989,121.4a.566.566,0,0,1,.566-.566h2.5a.566.566,0,1,1,0,1.132h-2.5A.566.566,0,0,1,53.989,121.4Z" transform="translate(-53.989 -120.835)" fill="#7c36d5"/>
              </g>
            </g>
            <g id="Group_5250" data-name="Group 5250" transform="translate(3.434)">
              <g id="Group_5248" data-name="Group 5248" transform="translate(0 4.767)">
                <path id="Path_1204" data-name="Path 1204" d="M59.284,125.59v-2.243a.566.566,0,0,1,1.132,0v2.243a.566.566,0,1,1-1.132,0Z" transform="translate(-59.284 -122.781)" fill="#7c36d5"/>
              </g>
              <g id="Group_5249" data-name="Group 5249">
                <path id="Path_1205" data-name="Path 1205" d="M59.284,118.24V116a.566.566,0,1,1,1.132,0v2.243a.566.566,0,0,1-1.132,0Z" transform="translate(-59.284 -115.43)" fill="#7c36d5"/>
              </g>
            </g>
          </g>
          <g id="Group_5259" data-name="Group 5259" transform="translate(33.922 10.746)">
            <g id="Group_5258" data-name="Group 5258">
              <g id="Group_5254" data-name="Group 5254" transform="translate(0 3.505)">
                <g id="Group_5252" data-name="Group 5252" transform="translate(4.37)">
                  <path id="Path_1206" data-name="Path 1206" d="M113.032,106.326a.566.566,0,0,1,.567-.566h2.5a.566.566,0,1,1,0,1.132h-2.5A.566.566,0,0,1,113.032,106.326Z" transform="translate(-113.032 -105.76)" fill="#fd4059"/>
                </g>
                <g id="Group_5253" data-name="Group 5253">
                  <path id="Path_1207" data-name="Path 1207" d="M106.294,106.326a.566.566,0,0,1,.566-.566h2.5a.566.566,0,0,1,0,1.132h-2.5A.566.566,0,0,1,106.294,106.326Z" transform="translate(-106.294 -105.76)" fill="#fd4059"/>
                </g>
              </g>
              <g id="Group_5257" data-name="Group 5257" transform="translate(3.434)">
                <g id="Group_5255" data-name="Group 5255" transform="translate(0 4.767)">
                  <path id="Path_1208" data-name="Path 1208" d="M111.589,110.516v-2.243a.566.566,0,1,1,1.132,0v2.243a.566.566,0,0,1-1.132,0Z" transform="translate(-111.589 -107.706)" fill="#fd4059"/>
                </g>
                <g id="Group_5256" data-name="Group 5256">
                  <path id="Path_1209" data-name="Path 1209" d="M111.589,103.165v-2.243a.566.566,0,0,1,1.132,0v2.243a.566.566,0,0,1-1.132,0Z" transform="translate(-111.589 -100.355)" fill="#fd4059"/>
                </g>
              </g>
            </g>
          </g>
        </g>
      </g>
    </g>
  </g>
</svg>
