<svg xmlns="http://www.w3.org/2000/svg" width="17.995" height="18.71" viewBox="0 0 17.995 18.71">
  <g id="noun_Gear_2905814" transform="translate(-11.222 -10.5)">
    <circle id="Ellipse_66" data-name="Ellipse 66" cx="3.785" cy="3.785" r="3.785" transform="translate(16.477 16.069)" fill="#fff"/>
    <path id="Path_5883" data-name="Path 5883" d="M29.008,21.856l-1.479-1.088a6.426,6.426,0,0,0,.044-.914,6.426,6.426,0,0,0-.044-.914l1.479-1.088a.476.476,0,0,0,.174-.566l-.218-.653a.509.509,0,0,0-.479-.348H26.659a8.606,8.606,0,0,0-1.088-1.479l.566-1.74a.543.543,0,0,0-.174-.566L25.4,12.11a.457.457,0,0,0-.566,0l-1.479,1.044-.261-.131a5.79,5.79,0,0,0-1.479-.435l-.566-1.74a.509.509,0,0,0-.479-.348h-.7a.509.509,0,0,0-.479.348l-.566,1.74a8.294,8.294,0,0,0-1.479.435l-.261.131L15.607,12.11a.457.457,0,0,0-.566,0l-.566.392a.476.476,0,0,0-.174.566l.566,1.74a7.2,7.2,0,0,0-1.088,1.479H11.952a.509.509,0,0,0-.479.348l-.218.653a.476.476,0,0,0,.174.566l1.479,1.088a6.426,6.426,0,0,0-.044.914,6.426,6.426,0,0,0,.044.914L11.43,21.856a.476.476,0,0,0-.174.566l.218.653a.509.509,0,0,0,.479.348h1.827A8.606,8.606,0,0,0,14.867,24.9l-.566,1.74a.543.543,0,0,0,.174.566l.566.392a.457.457,0,0,0,.566,0l1.479-1.044.261.131a5.79,5.79,0,0,0,1.479.435l.566,1.74a.509.509,0,0,0,.479.348h.7a.509.509,0,0,0,.479-.348l.566-1.74a8.293,8.293,0,0,0,1.479-.435l.261-.131L24.831,27.6a.457.457,0,0,0,.566,0l.566-.392a.476.476,0,0,0,.174-.566l-.566-1.74a7.2,7.2,0,0,0,1.088-1.479h1.827a.509.509,0,0,0,.479-.348l.218-.653A.476.476,0,0,0,29.008,21.856Zm-8.746,3.7a5.7,5.7,0,1,1,5.7-5.7A5.72,5.72,0,0,1,20.263,25.555Z" transform="translate(0 0)" fill="#fff"/>
  </g>
</svg>
