<svg xmlns="http://www.w3.org/2000/svg" width="330.328" height="212.55" viewBox="0 0 330.328 212.55">
  <g id="Group_5660" data-name="Group 5660" transform="translate(-28 -263.336)">
    <g id="Group_5160" data-name="Group 5160" transform="translate(42 289.626)">
      <path id="Path_1111" data-name="Path 1111" d="M44.206,217.1c-30.469,18.426-7.181,45.611-9.255,77.024s22.342,38,22.342,38l243.777-.716c13.851-24.59,12.308-53.473,1.72-84.95-8.855-26.324-41.711-66.6-94.548-39.631-19.147,9.774-49.45,4.328-60.115-19.421,0,0-8.073-34.027-35.928-39.257-22.738-4.269-44.827,11.606-48.222,29.306s-.216,29.8-19.77,39.644" transform="translate(-28.382 -147.452)" fill="#c6cbdf"/>
      <path id="Path_1112" data-name="Path 1112" d="M456.824,290.888c3.115,4.352,8.8,3.775,10.728-1.184a10.4,10.4,0,0,0,.194-6.338c-2.429-9.985-9.741-13.059-14.524-6.93C450.27,280.219,453.737,286.576,456.824,290.888Z" transform="translate(-177.3 -191.676)" fill="#c6cbdf"/>
      <g id="Group_5158" data-name="Group 5158" transform="translate(257.805 22.89)">
        <path id="Path_1113" data-name="Path 1113" d="M450.86,234.946l.049-4.048-3.793-.046a9.1,9.1,0,0,0-1.01-2.771l2.645-2.581-2.828-2.9-2.531,2.47a9.068,9.068,0,0,0-3.33-1.45l.047-3.794-4.049-.049-.047,3.91a9.013,9.013,0,0,0-2.293.9l-2.581-2.645-2.9,2.828,2.47,2.531a9.075,9.075,0,0,0-1.449,3.331l-3.316-.041-.05,4.049,3.433.042a9.031,9.031,0,0,0,1.258,2.886l-2.532,2.47,2.828,2.9,2.645-2.581a9.061,9.061,0,0,0,3.221,1.156l-.047,3.817,4.049.049.051-4.138a9.018,9.018,0,0,0,2.407-1.132l2.47,2.532,2.9-2.828-2.581-2.644a9.019,9.019,0,0,0,.955-2.271Zm-10.1.238a3.711,3.711,0,1,1,.064-5.248A3.715,3.715,0,0,1,440.758,235.184Z" transform="translate(-425.894 -195.762)" fill="#c6cbdf"/>
        <path id="Path_1114" data-name="Path 1114" d="M451.914,191.034l.027-2.213-2.073-.025a4.957,4.957,0,0,0-.552-1.514l1.445-1.411-1.545-1.584-1.383,1.35a4.954,4.954,0,0,0-1.82-.792l.025-2.073-2.213-.027-.025,2.136a4.914,4.914,0,0,0-1.253.492l-1.411-1.446-1.584,1.545,1.35,1.383a4.948,4.948,0,0,0-.793,1.82l-1.812-.022-.027,2.213,1.876.023a4.929,4.929,0,0,0,.687,1.577l-1.384,1.35L441,195.4l1.446-1.411a4.959,4.959,0,0,0,1.761.632l-.025,2.086,2.212.027.028-2.261a4.91,4.91,0,0,0,1.315-.619l1.35,1.384,1.583-1.545-1.41-1.446a4.968,4.968,0,0,0,.522-1.241Zm-5.521.13a2.028,2.028,0,1,1,.035-2.868A2.029,2.029,0,0,1,446.393,191.164Z" transform="translate(-430.244 -182.746)" fill="#c6cbdf"/>
      </g>
      <g id="Group_5159" data-name="Group 5159" transform="translate(3.303 2.291)">
        <path id="Path_1115" data-name="Path 1115" d="M57.976,202.485l.78-3.974-3.723-.73a9.1,9.1,0,0,0-.492-2.908l3.067-2.061-2.258-3.361-2.935,1.972A9.073,9.073,0,0,0,49.4,189.4l.731-3.723-3.973-.78-.753,3.837a9.026,9.026,0,0,0-2.418.47l-2.06-3.068-3.361,2.258,1.973,2.935a9.075,9.075,0,0,0-2.028,3.014l-3.254-.639-.78,3.973,3.369.661a9.04,9.04,0,0,0,.715,3.066l-2.936,1.972,2.258,3.361,3.068-2.06a9.069,9.069,0,0,0,2.959,1.719l-.735,3.745,3.973.78.8-4.06a9.015,9.015,0,0,0,2.571-.679l1.972,2.937,3.361-2.258-2.061-3.068a9.04,9.04,0,0,0,1.35-2.06ZM48,200.893a3.711,3.711,0,1,1,1.011-5.15A3.714,3.714,0,0,1,48,200.893Z" transform="translate(-33.476 -162.901)" fill="#c6cbdf"/>
        <path id="Path_1116" data-name="Path 1116" d="M70.553,160.6l.425-2.171-2.034-.4a4.97,4.97,0,0,0-.269-1.589l1.676-1.127-1.234-1.837-1.6,1.078a4.956,4.956,0,0,0-1.647-1.108l.4-2.035-2.171-.426-.411,2.1a4.944,4.944,0,0,0-1.322.257l-1.126-1.676L59.4,152.9l1.078,1.6a4.958,4.958,0,0,0-1.108,1.647L57.59,155.8l-.426,2.171,1.841.361a4.947,4.947,0,0,0,.39,1.675l-1.6,1.078,1.234,1.837,1.676-1.126a4.942,4.942,0,0,0,1.617.94l-.4,2.047,2.171.426.436-2.219a4.926,4.926,0,0,0,1.405-.371l1.078,1.6,1.837-1.234-1.126-1.676a4.948,4.948,0,0,0,.737-1.126Zm-5.454-.87a2.028,2.028,0,1,1,.553-2.815A2.03,2.03,0,0,1,65.1,159.728Z" transform="translate(-41.801 -150.984)" fill="#c6cbdf"/>
      </g>
    </g>
    <g id="Group_5262" data-name="Group 5262" transform="translate(73 263.336)">
      <g id="Group_5241" data-name="Group 5241" transform="translate(201.535 15.428)">
        <g id="Group_5224" data-name="Group 5224" transform="translate(17.917)">
          <g id="Group_5223" data-name="Group 5223">
            <g id="Group_5222" data-name="Group 5222">
              <g id="Group_5221" data-name="Group 5221">
                <path id="Path_1190" data-name="Path 1190" d="M392.364,111.183a3.61,3.61,0,1,1,3.61,3.61A3.615,3.615,0,0,1,392.364,111.183Zm1.133,0a2.477,2.477,0,1,0,2.477-2.477A2.48,2.48,0,0,0,393.5,111.183Z" transform="translate(-392.364 -107.573)" fill="#7c36d5"/>
              </g>
            </g>
          </g>
        </g>
        <g id="Group_5225" data-name="Group 5225" transform="translate(4.922 12.665)">
          <path id="Path_1191" data-name="Path 1191" d="M372.326,130.711a3.61,3.61,0,1,1,3.61,3.61A3.614,3.614,0,0,1,372.326,130.711Zm1.132,0a2.477,2.477,0,1,0,2.477-2.477A2.48,2.48,0,0,0,373.458,130.711Z" transform="translate(-372.326 -127.101)" fill="#fd4059"/>
        </g>
        <g id="Group_5232" data-name="Group 5232" transform="translate(0 27.986)">
          <g id="Group_5228" data-name="Group 5228" transform="translate(3.505)">
            <g id="Group_5226" data-name="Group 5226">
              <path id="Path_1192" data-name="Path 1192" d="M370.708,154.355a.566.566,0,0,0,.566-.566v-2.5a.566.566,0,1,0-1.132,0v2.5A.566.566,0,0,0,370.708,154.355Z" transform="translate(-370.142 -150.725)" fill="#7c36d5"/>
            </g>
            <g id="Group_5227" data-name="Group 5227" transform="translate(0 4.37)">
              <path id="Path_1193" data-name="Path 1193" d="M370.708,161.093a.566.566,0,0,0,.566-.566v-2.5a.566.566,0,1,0-1.132,0v2.5A.566.566,0,0,0,370.708,161.093Z" transform="translate(-370.142 -157.463)" fill="#7c36d5"/>
            </g>
          </g>
          <g id="Group_5231" data-name="Group 5231" transform="translate(0 3.433)">
            <g id="Group_5229" data-name="Group 5229">
              <path id="Path_1194" data-name="Path 1194" d="M365.3,157.152h2.243a.567.567,0,0,0,0-1.133H365.3a.567.567,0,0,0,0,1.133Z" transform="translate(-364.737 -156.019)" fill="#7c36d5"/>
            </g>
            <g id="Group_5230" data-name="Group 5230" transform="translate(4.767)">
              <path id="Path_1195" data-name="Path 1195" d="M372.654,157.152H374.9a.567.567,0,0,0,0-1.133h-2.243a.567.567,0,0,0,0,1.133Z" transform="translate(-372.088 -156.019)" fill="#7c36d5"/>
            </g>
          </g>
        </g>
        <g id="Group_5240" data-name="Group 5240" transform="translate(19.934 13.993)">
          <g id="Group_5239" data-name="Group 5239">
            <g id="Group_5235" data-name="Group 5235" transform="translate(3.505)">
              <g id="Group_5233" data-name="Group 5233">
                <path id="Path_1196" data-name="Path 1196" d="M401.444,132.779a.566.566,0,0,0,.566-.566v-2.5a.566.566,0,1,0-1.132,0v2.5A.566.566,0,0,0,401.444,132.779Z" transform="translate(-400.878 -129.149)" fill="#fd4059"/>
              </g>
              <g id="Group_5234" data-name="Group 5234" transform="translate(0 4.37)">
                <path id="Path_1197" data-name="Path 1197" d="M401.444,139.517a.566.566,0,0,0,.566-.566v-2.5a.566.566,0,1,0-1.132,0v2.5A.566.566,0,0,0,401.444,139.517Z" transform="translate(-400.878 -135.887)" fill="#fd4059"/>
              </g>
            </g>
            <g id="Group_5238" data-name="Group 5238" transform="translate(0 3.433)">
              <g id="Group_5236" data-name="Group 5236">
                <path id="Path_1198" data-name="Path 1198" d="M396.039,135.576h2.243a.567.567,0,0,0,0-1.133h-2.243a.567.567,0,0,0,0,1.133Z" transform="translate(-395.473 -134.443)" fill="#fd4059"/>
              </g>
              <g id="Group_5237" data-name="Group 5237" transform="translate(4.767)">
                <path id="Path_1199" data-name="Path 1199" d="M403.39,135.576h2.243a.567.567,0,1,0,0-1.133H403.39a.567.567,0,1,0,0,1.133Z" transform="translate(-402.823 -134.443)" fill="#fd4059"/>
              </g>
            </g>
          </g>
        </g>
      </g>
      <g id="Group_5261" data-name="Group 5261">
        <g id="Group_5260" data-name="Group 5260">
          <g id="Group_5242" data-name="Group 5242" transform="translate(24.477)">
            <path id="Path_1200" data-name="Path 1200" d="M91.73,87.395a3.61,3.61,0,1,1,3.61,3.61A3.614,3.614,0,0,1,91.73,87.395Zm6.087,0a2.477,2.477,0,1,0-2.477,2.478A2.48,2.48,0,0,0,97.817,87.395Z" transform="translate(-91.73 -83.785)" fill="#7c36d5"/>
          </g>
          <g id="Group_5244" data-name="Group 5244" transform="translate(15.875 14.818)">
            <g id="Group_5243" data-name="Group 5243">
              <path id="Path_1201" data-name="Path 1201" d="M78.467,110.243a3.61,3.61,0,1,1,3.61,3.61A3.614,3.614,0,0,1,78.467,110.243Zm6.088,0a2.477,2.477,0,1,0-2.477,2.477A2.481,2.481,0,0,0,84.555,110.243Z" transform="translate(-78.467 -106.633)" fill="#fd4059"/>
            </g>
          </g>
          <g id="Group_5251" data-name="Group 5251" transform="translate(0 20.523)">
            <g id="Group_5247" data-name="Group 5247" transform="translate(0 3.505)">
              <g id="Group_5245" data-name="Group 5245" transform="translate(4.371)">
                <path id="Path_1202" data-name="Path 1202" d="M60.728,121.4a.566.566,0,0,1,.566-.566h2.5a.566.566,0,1,1,0,1.132h-2.5A.566.566,0,0,1,60.728,121.4Z" transform="translate(-60.728 -120.835)" fill="#7c36d5"/>
              </g>
              <g id="Group_5246" data-name="Group 5246">
                <path id="Path_1203" data-name="Path 1203" d="M53.989,121.4a.566.566,0,0,1,.566-.566h2.5a.566.566,0,1,1,0,1.132h-2.5A.566.566,0,0,1,53.989,121.4Z" transform="translate(-53.989 -120.835)" fill="#7c36d5"/>
              </g>
            </g>
            <g id="Group_5250" data-name="Group 5250" transform="translate(3.434)">
              <g id="Group_5248" data-name="Group 5248" transform="translate(0 4.767)">
                <path id="Path_1204" data-name="Path 1204" d="M59.284,125.59v-2.243a.566.566,0,0,1,1.132,0v2.243a.566.566,0,1,1-1.132,0Z" transform="translate(-59.284 -122.781)" fill="#7c36d5"/>
              </g>
              <g id="Group_5249" data-name="Group 5249">
                <path id="Path_1205" data-name="Path 1205" d="M59.284,118.24V116a.566.566,0,1,1,1.132,0v2.243a.566.566,0,0,1-1.132,0Z" transform="translate(-59.284 -115.43)" fill="#7c36d5"/>
              </g>
            </g>
          </g>
          <g id="Group_5259" data-name="Group 5259" transform="translate(33.922 10.746)">
            <g id="Group_5258" data-name="Group 5258">
              <g id="Group_5254" data-name="Group 5254" transform="translate(0 3.505)">
                <g id="Group_5252" data-name="Group 5252" transform="translate(4.37)">
                  <path id="Path_1206" data-name="Path 1206" d="M113.032,106.326a.566.566,0,0,1,.567-.566h2.5a.566.566,0,1,1,0,1.132h-2.5A.566.566,0,0,1,113.032,106.326Z" transform="translate(-113.032 -105.76)" fill="#fd4059"/>
                </g>
                <g id="Group_5253" data-name="Group 5253">
                  <path id="Path_1207" data-name="Path 1207" d="M106.294,106.326a.566.566,0,0,1,.566-.566h2.5a.566.566,0,0,1,0,1.132h-2.5A.566.566,0,0,1,106.294,106.326Z" transform="translate(-106.294 -105.76)" fill="#fd4059"/>
                </g>
              </g>
              <g id="Group_5257" data-name="Group 5257" transform="translate(3.434)">
                <g id="Group_5255" data-name="Group 5255" transform="translate(0 4.767)">
                  <path id="Path_1208" data-name="Path 1208" d="M111.589,110.516v-2.243a.566.566,0,1,1,1.132,0v2.243a.566.566,0,0,1-1.132,0Z" transform="translate(-111.589 -107.706)" fill="#fd4059"/>
                </g>
                <g id="Group_5256" data-name="Group 5256">
                  <path id="Path_1209" data-name="Path 1209" d="M111.589,103.165v-2.243a.566.566,0,0,1,1.132,0v2.243a.566.566,0,0,1-1.132,0Z" transform="translate(-111.589 -100.355)" fill="#fd4059"/>
                </g>
              </g>
            </g>
          </g>
        </g>
      </g>
    </g>
    <g id="Group_5367" data-name="Group 5367" transform="translate(-3359.456 -181.269)">
      <ellipse id="Ellipse_56" data-name="Ellipse 56" cx="39.103" cy="6.454" rx="39.103" ry="6.454" transform="translate(3387.456 640.918)" fill="#29335c"/>
      <g id="Group_5220" data-name="Group 5220" transform="translate(3402.566 482.025)">
        <g id="Group_5180" data-name="Group 5180" transform="translate(41.087 31.969)">
          <path id="Path_1140" data-name="Path 1140" d="M146.973,223.036a70.607,70.607,0,0,0,5.711,9.1,23.746,23.746,0,0,0,2.8,3.127c1.518,1.371,3,2.088,4.205,1.479,4.473-2.255,14.444-20.2,14.444-20.2l-2.456-2.913s-4.438,5.125-7.683,8.192c-2.993,2.829-5.295,4.943-5.295,4.943-.414-.631-.856-1.322-1.314-2.053-.488-.776-.995-1.6-1.51-2.443-3.738-6.136-8.238-12.848-8.238-12.848Z" transform="translate(-146.122 -205.734)" fill="#fda893"/>
          <path id="Path_1141" data-name="Path 1141" d="M188.514,212.63a4.912,4.912,0,0,1-.62-3.216c.391-1.519.771-4.953,2.4-4.86.593.034-.273,1.469.125,2.8a21.818,21.818,0,0,0,2.906-1.734c1.025-.773,3.148-2.029,4.136-2.6a.309.309,0,0,1,.426.415,6.956,6.956,0,0,1-2.3,2.007s3.556-2.033,4.152-1.586-3.9,2.906-3.9,2.906,3.628-1.5,3.925-.949c.181.334-3.377,2.467-3.377,2.467s3.534-1.114,2.878-.269c-.191.246-6.9,3.347-8.3,6.948A6.459,6.459,0,0,1,188.514,212.63Z" transform="translate(-163.61 -202.971)" fill="#fda893"/>
          <path id="Path_1142" data-name="Path 1142" d="M156.962,241.763a23.748,23.748,0,0,0,2.8,3.127l1.9-10.552c-.488-.776-.995-1.6-1.51-2.443Z" transform="translate(-150.401 -215.36)" fill="#fd896b"/>
          <path id="Path_1143" data-name="Path 1143" d="M146.863,208.6l9.453,13.915-3.009,12.4-7.417-12.078S144.5,214.751,146.863,208.6Z" transform="translate(-145.485 -205.38)" fill="#7c36d5"/>
        </g>
        <g id="Group_5190" data-name="Group 5190" transform="translate(27.413 89.859)">
          <path id="Path_1144" data-name="Path 1144" d="M136.2,416.633v4.393l-4.018-.065-.262-4.655Z" transform="translate(-126.002 -352.237)" fill="#fda893"/>
          <g id="Group_5181" data-name="Group 5181" transform="translate(0 0.037)">
            <path id="Path_1145" data-name="Path 1145" d="M121.566,304.47c.027.522.166,3.029.377,6.525.566,9.6,1.625,26.668,2.247,30.5.638,3.934.349,16.833.144,23.584a4.087,4.087,0,0,0,1.138,2.957,4.231,4.231,0,0,0,.932.727,4.093,4.093,0,0,0,2.02.533h3.062a4.09,4.09,0,0,0,4.089-4.217c-.172-5.709-.383-16.122.017-24.167.382-7.656-.172-21.2-.6-29.648h-.006c-.172-3.373-.322-5.925-.383-6.968Z" transform="translate(-121.566 -304.298)" fill="#29335c"/>
          </g>
          <path id="Path_1146" data-name="Path 1146" d="M134.6,304.3l-13.037.172c.027.522.166,3.029.377,6.525a55.007,55.007,0,0,0,13.043.271C134.814,307.893,134.664,305.341,134.6,304.3Z" transform="translate(-121.566 -304.261)" fill="#29335c"/>
          <g id="Group_5182" data-name="Group 5182" transform="translate(1.55)">
            <path id="Path_1147" data-name="Path 1147" d="M126.683,353.012c-.114,4.318-.232,8.782-.155,12.381.022,1.01.057,1.874.1,2.615a4,4,0,0,0,.935.728c-.074-.859-.133-1.959-.163-3.362-.076-3.578.042-8.031.157-12.339a114.011,114.011,0,0,0-.015-12.354c-.625-4.632-2.024-29.744-2.391-36.448l-.877.039c.366,6.7,1.77,31.863,2.4,36.526A114.908,114.908,0,0,1,126.683,353.012Z" transform="translate(-124.277 -304.234)" fill="#cb2242"/>
          </g>
          <g id="Group_5189" data-name="Group 5189" transform="translate(5.103 67.489)">
            <g id="Group_5188" data-name="Group 5188">
              <g id="Group_5187" data-name="Group 5187">
                <path id="Path_1148" data-name="Path 1148" d="M134.56,423.423s.832-1.17,1.514-1.136,6.026,4.094,7.833,4.4,1.487,1.638,1.172,2.322-14.36.061-14.36.061-.477-4.166-.047-5.453S133.16,423.757,134.56,423.423Z" transform="translate(-130.493 -422.287)" fill="#7c36d5"/>
                <g id="Group_5186" data-name="Group 5186" transform="translate(5.938 1.313)">
                  <g id="Group_5183" data-name="Group 5183" transform="translate(0.767 0.694)">
                    <path id="Path_1149" data-name="Path 1149" d="M142.551,427.777a.252.252,0,0,1-.3-.36,3.872,3.872,0,0,1,1.282-1.4,1.739,1.739,0,0,1,1.785.044.252.252,0,1,1-.292.411,1.24,1.24,0,0,0-1.257-.01,3.43,3.43,0,0,0-1.076,1.191A.253.253,0,0,1,142.551,427.777Z" transform="translate(-142.222 -425.796)" fill="#fff"/>
                  </g>
                  <g id="Group_5184" data-name="Group 5184">
                    <path id="Path_1150" data-name="Path 1150" d="M141.21,426.564a.252.252,0,0,1-.3-.36,3.883,3.883,0,0,1,1.282-1.4,1.736,1.736,0,0,1,1.785.044.252.252,0,0,1-.292.411,1.242,1.242,0,0,0-1.257-.01,3.416,3.416,0,0,0-1.075,1.191A.249.249,0,0,1,141.21,426.564Z" transform="translate(-140.88 -424.583)" fill="#fff"/>
                  </g>
                  <g id="Group_5185" data-name="Group 5185" transform="translate(1.798 1.247)">
                    <path id="Path_1151" data-name="Path 1151" d="M144.355,428.745a.252.252,0,0,1-.3-.36,3.883,3.883,0,0,1,1.282-1.4,1.736,1.736,0,0,1,1.785.044.252.252,0,1,1-.292.411,1.241,1.241,0,0,0-1.257-.01,3.41,3.41,0,0,0-1.075,1.191A.25.25,0,0,1,144.355,428.745Z" transform="translate(-144.025 -426.764)" fill="#fff"/>
                  </g>
                </g>
              </g>
            </g>
          </g>
        </g>
        <g id="Group_5199" data-name="Group 5199" transform="translate(7.176 89.852)">
          <path id="Path_1152" data-name="Path 1152" d="M101.972,416.633l-.433,4.386-3.585-.058-.262-4.655Z" transform="translate(-91.103 -352.23)" fill="#fda893"/>
          <g id="Group_5192" data-name="Group 5192" transform="translate(3.36 0.248)">
            <g id="Group_5191" data-name="Group 5191">
              <path id="Path_1153" data-name="Path 1153" d="M92.172,341.068c.4,8.045.189,18.458.017,24.167a4.094,4.094,0,0,0,4.089,4.217h3.063A4.108,4.108,0,0,0,101.22,369a3.942,3.942,0,0,0,.927-.666,4.052,4.052,0,0,0,1.281-3.1c-.205-6.752-.493-19.65.145-23.584.632-3.9,1.72-21.487,2.28-30.99.183-3.173.311-5.442.344-6l-13.06.172c-.039.677-.1,1.72-.172,3.04C92.543,315.47,91.727,332.208,92.172,341.068Z" transform="translate(-92.043 -304.657)" fill="#29335c"/>
            </g>
          </g>
          <path id="Path_1154" data-name="Path 1154" d="M93.656,307.869a126.632,126.632,0,0,0,12.887,2.791c.183-3.173.311-5.442.344-6l-13.06.172C93.789,305.506,93.728,306.549,93.656,307.869Z" transform="translate(-89.374 -304.409)" fill="#29335c"/>
          <g id="Group_5193" data-name="Group 5193" transform="translate(12.392)">
            <path id="Path_1155" data-name="Path 1155" d="M108.154,365.37c-.03,1.446-.092,2.569-.168,3.438a4.008,4.008,0,0,0,.93-.661c.053-.772.092-1.683.115-2.758.076-3.6-.043-8.063-.157-12.381a114.774,114.774,0,0,1,.007-12.213c.63-4.664,2.033-29.841,2.4-36.532l-.876-.039c-.367,6.695-1.766,31.82-2.393,36.454A114.356,114.356,0,0,0,108,353.031C108.111,357.339,108.23,361.791,108.154,365.37Z" transform="translate(-107.842 -304.223)" fill="#cb2242"/>
          </g>
          <g id="Group_5198" data-name="Group 5198" transform="translate(0 67.637)">
            <path id="Path_1156" data-name="Path 1156" d="M95.205,423.013a16.57,16.57,0,0,0-2.334-.478c-.506.01-3.893,3.8-5.033,4.02-2.068.4-2.071,3.633-.812,3.794,3.64.464,9.866-1.074,9.866-1.074a29.5,29.5,0,0,0,.325-5.443C96.968,422.532,96.222,423.395,95.205,423.013Z" transform="translate(-86.166 -422.535)" fill="#7c36d5"/>
            <g id="Group_5197" data-name="Group 5197" transform="translate(2.045 1.448)">
              <g id="Group_5194" data-name="Group 5194" transform="translate(0.974 0.764)">
                <path id="Path_1157" data-name="Path 1157" d="M94.453,428.206a.252.252,0,0,0,.264-.386,3.887,3.887,0,0,0-1.41-1.267,1.738,1.738,0,0,0-1.773.214.252.252,0,0,0,.33.381,1.239,1.239,0,0,1,1.25-.13A3.429,3.429,0,0,1,94.3,428.1.251.251,0,0,0,94.453,428.206Z" transform="translate(-91.447 -426.403)" fill="#fff"/>
              </g>
              <g id="Group_5195" data-name="Group 5195" transform="translate(1.671)">
                <path id="Path_1158" data-name="Path 1158" d="M95.672,426.871a.252.252,0,0,0,.264-.386,3.877,3.877,0,0,0-1.41-1.268,1.736,1.736,0,0,0-1.773.214.252.252,0,1,0,.329.381,1.241,1.241,0,0,1,1.25-.13,3.416,3.416,0,0,1,1.185,1.083A.248.248,0,0,0,95.672,426.871Z" transform="translate(-92.666 -425.067)" fill="#fff"/>
              </g>
              <g id="Group_5196" data-name="Group 5196" transform="translate(0 1.413)">
                <path id="Path_1159" data-name="Path 1159" d="M92.75,429.343a.252.252,0,0,0,.264-.387,3.888,3.888,0,0,0-1.41-1.267,1.737,1.737,0,0,0-1.773.214.252.252,0,1,0,.33.381,1.242,1.242,0,0,1,1.25-.13,3.41,3.41,0,0,1,1.184,1.083A.254.254,0,0,0,92.75,429.343Z" transform="translate(-89.744 -427.539)" fill="#fff"/>
              </g>
            </g>
          </g>
        </g>
        <g id="Group_5205" data-name="Group 5205" transform="translate(8.654 26.864)">
          <g id="Group_5200" data-name="Group 5200">
            <path id="Path_1160" data-name="Path 1160" d="M88.763,258.593a71.168,71.168,0,0,0,35.347,0c.062-4.4.124-21.981-.216-36.412-.006-.284-.013-.566-.02-.847,0-.139-.007-.279-.011-.416V220.9c-.005-.18-.009-.358-.014-.535-.252-9.517-.691-17.29-1.444-18.328v0c-1.756-2.413-10.582-6.267-13.024-7.988-.2.328-1.405,2.148-2.98,2.282-1.728.153-3.264-1.88-3.264-1.88v-.385c-2.453,1.72-10.449,5.286-12.2,7.693C89.014,204.39,88.682,251.1,88.763,258.593Z" transform="translate(-88.752 -194.043)" fill="#7c36d5"/>
          </g>
          <g id="Group_5201" data-name="Group 5201" transform="translate(31.494 20.928)">
            <path id="Path_1161" data-name="Path 1161" d="M143.894,231.086a44.194,44.194,0,0,1,3.156,5.9l.223.488c.075.164.117.26.12.267a.267.267,0,0,0,.1.115c-.006-.284-.013-.566-.02-.847,0-.139-.007-.279-.011-.416v-.022c-.136-.292-.3-.636-.477-1.012a35.625,35.625,0,0,0-2.648-4.8.273.273,0,0,0-.44.324Z" transform="translate(-143.841 -230.651)" fill="#5828a7"/>
          </g>
          <g id="Group_5202" data-name="Group 5202" transform="translate(8.687 3.096)">
            <path id="Path_1162" data-name="Path 1162" d="M104.221,207.1h.009a18.945,18.945,0,0,0,10.512-3.708,18.567,18.567,0,0,0,3.714-3.5.273.273,0,1,0-.438-.326c-.05.067-5.108,6.712-13.8,6.989a.273.273,0,0,0,.009.546Z" transform="translate(-103.948 -199.458)" fill="#5828a7"/>
          </g>
          <g id="Group_5203" data-name="Group 5203" transform="translate(5.839 40.165)">
            <path id="Path_1163" data-name="Path 1163" d="M117.877,279.511a.273.273,0,0,0,.018-.546,19.806,19.806,0,0,1-14.771-7.581,21.149,21.149,0,0,1-3.62-6.878.273.273,0,0,0-.529.137,21.287,21.287,0,0,0,3.705,7.06,20.339,20.339,0,0,0,15.179,7.807Z" transform="translate(-98.966 -264.301)" fill="#5828a7"/>
          </g>
          <g id="Group_5204" data-name="Group 5204" transform="translate(12.168 42.296)">
            <path id="Path_1164" data-name="Path 1164" d="M118.49,276.225a.273.273,0,0,0,.071-.537,10.891,10.891,0,0,1-7.984-7.444.273.273,0,0,0-.534.115,9.751,9.751,0,0,0,1.533,3.221,11.957,11.957,0,0,0,6.843,4.634A.257.257,0,0,0,118.49,276.225Z" transform="translate(-110.037 -268.029)" fill="#5828a7"/>
          </g>
        </g>
        <g id="Group_5206" data-name="Group 5206" transform="translate(0 35.16)">
          <path id="Path_1165" data-name="Path 1165" d="M73.623,274.217c.168,2.391,1.6,4.168,1.611,5.742s1.826.545.984-2.566.406-6.119,1.073-6.091-.212,3.5.488,4.66,1.229-1.27,1.843-2.77c.637-1.557.281-4.786-.3-7.06s2.257-16.7,1.886-20.761l1.023-5.273.6-3.076.112-3.21-5.464-2.165c-.206,1.031-.416,2.1-.625,3.173-.092.474-.183.949-.272,1.422-.731,3.845-1.387,7.629-1.654,10.058-.739,6.715.473,20.412.473,20.412S73.465,271.974,73.623,274.217Z" transform="translate(-73.614 -218.445)" fill="#fda893"/>
          <path id="Path_1166" data-name="Path 1166" d="M78.808,236.244A12.12,12.12,0,0,0,84.46,240.1l.6-3.076.112-3.21-5.464-2.165c-.206,1.031-.416,2.1-.625,3.173C78.988,235.3,78.9,235.77,78.808,236.244Z" transform="translate(-75.839 -218.445)" fill="#fd896b"/>
          <path id="Path_1167" data-name="Path 1167" d="M76.155,223.308a11.611,11.611,0,0,0,1.789,1.621,10.977,10.977,0,0,0,6.188,2.157c.3-8.9.591-16.325,1.239-18.532C84.219,209.977,78.621,216.938,76.155,223.308Z" transform="translate(-74.702 -208.554)" fill="#7c36d5"/>
        </g>
        <g id="Group_5207" data-name="Group 5207" transform="translate(9.552 46.327)">
          <path id="Path_1168" data-name="Path 1168" d="M93.3,229.523a44.192,44.192,0,0,0-3.156,5.9c-.09.2-.165.362-.222.488-.075.164-.118.26-.121.266a.271.271,0,0,1-.25.162h-.005c0-.139.006-.278.011-.417-.081,0-.161,0-.24,0,.037-.081.126-.277.253-.555.16-.349.381-.827.642-1.37a35.616,35.616,0,0,1,2.647-4.8.273.273,0,0,1,.44.324Z" transform="translate(-89.322 -229.088)" fill="#5828a7"/>
        </g>
        <g id="Group_5219" data-name="Group 5219" transform="translate(15.636)">
          <path id="Path_1169" data-name="Path 1169" d="M104.927,162.512c0,4.82,2.968,8.141,7.787,8.141s8.179-3.571,8.179-8.391-2.854-8.471-7.674-8.471C107.438,153.792,104.927,157.693,104.927,162.512Z" transform="translate(-102.662 -149.938)" fill="#29245d"/>
          <path id="Path_1170" data-name="Path 1170" d="M103.516,156.966s-3.592-3.552-2.25-5.228,3.094-.076,3.627-1.676.743-3.655,2.922-2.817,2.28,2.208,4.363.99,1.625.838,3.453,1.752,3.1.761,2.809,2.513,1.753,2.114.915,4.05-1.82.959-1.82.959Z" transform="translate(-100.966 -147.051)" fill="#29245d"/>
          <g id="Group_5212" data-name="Group 5212" transform="translate(0.69 13.756)">
            <path id="Path_1171" data-name="Path 1171" d="M104.83,172.007s-1.339-1.785-2.335-.309.412,5.837,2.85,4.772Z" transform="translate(-102.173 -171.113)" fill="#fd896b"/>
            <path id="Path_1172" data-name="Path 1172" d="M104.323,179.467a.455.455,0,1,0,.455-.456A.455.455,0,0,0,104.323,179.467Z" transform="translate(-103.094 -174.496)" fill="#fff"/>
            <g id="Group_5208" data-name="Group 5208" transform="translate(0.523 1.563)">
              <path id="Path_1173" data-name="Path 1173" d="M105.2,176.294a.207.207,0,0,1-.2-.151,3.184,3.184,0,0,0-1.787-1.9.206.206,0,0,1,.146-.385,3.547,3.547,0,0,1,2.037,2.171.206.206,0,0,1-.142.254A.213.213,0,0,1,105.2,176.294Z" transform="translate(-103.087 -173.847)" fill="#d65c48"/>
            </g>
            <g id="Group_5211" data-name="Group 5211" transform="translate(1.027 2.373)">
              <g id="Group_5210" data-name="Group 5210">
                <g id="Group_5209" data-name="Group 5209">
                  <path id="Path_1174" data-name="Path 1174" d="M104.174,176.222a.2.2,0,0,1-.111-.033A.206.206,0,0,1,104,175.9a1.877,1.877,0,0,1,.773-.623.206.206,0,1,1,.169.376,1.489,1.489,0,0,0-.6.47A.206.206,0,0,1,104.174,176.222Z" transform="translate(-103.968 -175.263)" fill="#d65c48"/>
                </g>
              </g>
            </g>
          </g>
          <g id="Group_5217" data-name="Group 5217" transform="translate(16.632 13.756)">
            <path id="Path_1175" data-name="Path 1175" d="M130.574,172.007s1.339-1.785,2.335-.309-.412,5.837-2.85,4.772Z" transform="translate(-130.059 -171.113)" fill="#fd896b"/>
            <path id="Path_1176" data-name="Path 1176" d="M132.22,179.467a.455.455,0,1,0,.456-.456A.456.456,0,0,0,132.22,179.467Z" transform="translate(-130.985 -174.496)" fill="#fff"/>
            <g id="Group_5213" data-name="Group 5213" transform="translate(0.326 1.563)">
              <path id="Path_1177" data-name="Path 1177" d="M130.836,176.294a.205.205,0,0,0,.2-.151,3.186,3.186,0,0,1,1.787-1.9.206.206,0,0,0-.146-.385,3.549,3.549,0,0,0-2.037,2.171.206.206,0,0,0,.143.254A.21.21,0,0,0,130.836,176.294Z" transform="translate(-130.63 -173.847)" fill="#d65c48"/>
            </g>
            <g id="Group_5216" data-name="Group 5216" transform="translate(1.05 2.373)">
              <g id="Group_5215" data-name="Group 5215">
                <g id="Group_5214" data-name="Group 5214">
                  <path id="Path_1178" data-name="Path 1178" d="M132.786,176.222a.2.2,0,0,0,.111-.033.206.206,0,0,0,.062-.285,1.881,1.881,0,0,0-.773-.623.206.206,0,1,0-.168.376,1.494,1.494,0,0,1,.6.47A.206.206,0,0,0,132.786,176.222Z" transform="translate(-131.896 -175.263)" fill="#d65c48"/>
                </g>
              </g>
            </g>
          </g>
          <path id="Path_1179" data-name="Path 1179" d="M119.905,186.953v4.337s-1.294,2.208-3.042,2.359-3.3-1.9-3.3-1.9v-4.489Z" transform="translate(-106.361 -164.142)" fill="#fda893"/>
          <path id="Path_1180" data-name="Path 1180" d="M119.905,186.953v1.924c-1.174,1.3-3.258,1.628-6.342,1.172v-2.791Z" transform="translate(-106.361 -164.142)" fill="#fd896b"/>
          <path id="Path_1181" data-name="Path 1181" d="M105.507,166.229a26.185,26.185,0,0,0,.352,2.855c.581,3.2,1.891,6.34,4.713,7.349,6.389,2.282,8.674-3.2,9.586-6.393.1-.354.19-.749.27-1.171.145-.761.258-1.61.346-2.466.1-1.037.174-2.087.217-3.01a4.511,4.511,0,0,0-2.89-4.429c-2.619-1.007-6.6-1.8-10.371.336a4.523,4.523,0,0,0-2.3,3.851C105.415,164.021,105.427,165.084,105.507,166.229Z" transform="translate(-102.876 -151.718)" fill="#fda893"/>
          <path id="Path_1182" data-name="Path 1182" d="M105.568,172.435a26.19,26.19,0,0,0,.352,2.855c.581,3.2,1.891,6.34,4.713,7.349,6.389,2.282,8.674-3.2,9.586-6.393.1-.354.19-.749.27-1.171.145-.761.258-1.61.346-2.466H119.9c-.194.6-1.234,4.22-1.572,4.736-.727-1.741-4.415-.585-4.415-.585l-.018.006a2.266,2.266,0,0,1-1.391-.006s-3.645-1.207-4.4.454c-.333-.518-1.53-4.212-1.745-4.6Zm7.634,5.112c4.171-.563,3.514,1.682,3.514,1.682a6.973,6.973,0,0,1-1.169.89,4.816,4.816,0,0,1-2.458.669c-.639-.029-.815.1-2.433-.772a4.027,4.027,0,0,1-.858-.651h0v0C109.726,178.926,109.02,176.829,113.2,177.547Z" transform="translate(-102.937 -157.923)" fill="#29245d"/>
          <path id="Path_1183" data-name="Path 1183" d="M113.3,173.038c0,.463-.239.838-.533.838s-.533-.375-.533-.838.239-.838.533-.838S113.3,172.575,113.3,173.038Z" transform="translate(-105.792 -157.823)" fill="#192c32"/>
          <path id="Path_1184" data-name="Path 1184" d="M124.286,173.008c0,.463-.238.838-.533.838s-.533-.375-.533-.838.238-.838.533-.838S124.286,172.545,124.286,173.008Z" transform="translate(-110.498 -157.81)" fill="#192c32"/>
          <path id="Path_1185" data-name="Path 1185" d="M109.4,169.226a5.49,5.49,0,0,1,3.613-.128l-.157.875a10.066,10.066,0,0,0-3.47.276A1.517,1.517,0,0,1,109.4,169.226Z" transform="translate(-104.536 -156.378)" fill="#29245d"/>
          <path id="Path_1186" data-name="Path 1186" d="M124.522,169.226a5.492,5.492,0,0,0-3.614-.128l.157.875a10.065,10.065,0,0,1,3.47.276A1.517,1.517,0,0,0,124.522,169.226Z" transform="translate(-109.507 -156.378)" fill="#29245d"/>
          <g id="Group_5218" data-name="Group 5218" transform="translate(9.553 14.429)">
            <path id="Path_1187" data-name="Path 1187" d="M118.442,176.321a2.192,2.192,0,0,0,.745-.157.206.206,0,0,0-.155-.381,1.236,1.236,0,0,1-.826.078.222.222,0,0,1-.1-.192,31.283,31.283,0,0,1,.125-3.155.206.206,0,1,0-.41-.034,30.424,30.424,0,0,0-.124,3.231.63.63,0,0,0,.3.5A.871.871,0,0,0,118.442,176.321Z" transform="translate(-117.675 -172.291)" fill="#fd896b"/>
          </g>
          <path id="Path_1188" data-name="Path 1188" d="M114.1,181.982a2.652,2.652,0,0,0,2.613,2.406,2.555,2.555,0,0,0,2.6-2.406Z" transform="translate(-106.59 -162.013)" fill="#fff"/>
          <path id="Path_1189" data-name="Path 1189" d="M120.774,166.4h-.934c.1-.937.251-2.589-.519-2.825-2.433-.747.72-2.466-.378-3.323s-3.831-.491-5.732-.553a40.746,40.746,0,0,0-5.732.138c-.748.171-.338,1.413-.063,2.375s-.917,2.023-1.117,3.018a4.4,4.4,0,0,0,0,1.17h-.778c-.093-1.211-.106-2.338-.09-3.252a4.528,4.528,0,0,1,2.3-3.853c3.772-2.138,7.752-1.341,10.373-.333a4.512,4.512,0,0,1,2.89,4.427C120.948,164.316,120.879,165.365,120.774,166.4Z" transform="translate(-102.876 -151.718)" fill="#29245d"/>
        </g>
      </g>
      <path id="Path_1342" data-name="Path 1342" d="M39.1,0c21.6,0,39.1,2.889,39.1,6.454S60.7,12.908,39.1,12.908,0,10.018,0,6.454,17.507,0,39.1,0Z" transform="translate(3639.578 640.918)" fill="#29335c"/>
      <path id="Path_1301" data-name="Path 1301" d="M978.267,628.823c-.077,13.866-8.346,18.661-18.514,18.6q-.354,0-.705-.012-.707-.019-1.4-.072c-9.173-.7-16.274-5.829-16.2-18.724.074-13.345,17.223-30.091,18.509-31.329h0l.074-.071S978.343,614.959,978.267,628.823Z" transform="translate(2733.488 -5.212)" fill="#5828a7"/>
      <path id="Path_1302" data-name="Path 1302" d="M989.727,645.3l6.785-9.371-6.808,10.4-.024,1.08q-.707-.019-1.4-.072l.8-13.867-.005-.107.012-.02.076-1.31-6.71-10.5,6.735,9.522.016.278.606-10.477-5.733-10.848,5.815,9.006.691-21.726,0-.072v.071l-.19,17.135,5.805-6.761-5.839,8.237-.2,9.383,5.436-8.976-5.465,10.355-.114,5.218,7.886-12.492L989.977,633.7Z" transform="translate(2702.857 -5.211)" fill="#3f3d56"/>
      <circle id="Ellipse_44" data-name="Ellipse 44" cx="12.324" cy="12.324" r="12.324" transform="translate(3662.675 493.536)" fill="#2f2e41"/>
      <circle id="Ellipse_45" data-name="Ellipse 45" cx="8.369" cy="8.369" r="8.369" transform="translate(3664.796 501.796)" fill="#ffb8b8"/>
      <path id="Path_1303" data-name="Path 1303" d="M912.124,289.854s3.619,8.369,1.809,9.274-2.714,4.976-2.714,4.976l4.75,9.953,6.559,4.072h3.845s3.845-17.191,2.488-19.226-6.333-3.167-6.333-3.167a10.68,10.68,0,0,1-.679-5.2C922.3,288.044,912.124,289.854,912.124,289.854Z" transform="translate(2756.065 224.835)" fill="#ffb8b8"/>
      <path id="Path_1304" data-name="Path 1304" d="M848.267,359.706l-5.881-4.75s-10.631-7.464-9.274-2.036,7.464,5.881,7.464,5.881l10.179,8.143Z" transform="translate(2814.493 178.734)" fill="#ffb8b8"/>
      <path id="Path_1305" data-name="Path 1305" d="M888,480.542s-2.714,11.31,0,26.691l1.131,6.107s0,4.75,1.131,6.56c0,0,2.94,26.917,4.524,26.917s6.56-.9,7.012-1.583-8.821-65.822-8.821-65.822Z" transform="translate(2774.311 82.779)" fill="#2f2e41"/>
      <path id="Path_1306" data-name="Path 1306" d="M888,480.542s-2.714,11.31,0,26.691l1.131,6.107s0,4.75,1.131,6.56c0,0,2.94,26.917,4.524,26.917s6.56-.9,7.012-1.583-8.821-65.822-8.821-65.822Z" transform="translate(2774.311 82.779)" fill="#2c3764"/>
      <path id="Path_1307" data-name="Path 1307" d="M898.495,738.6l-3.5,12.985s-7.008,4.122-2.679,4.947a18.049,18.049,0,0,0,8.657-.824l2.061-5.977,2.061-1.237v6.39h.618l1.443-8.451s-.206-4.328-1.443-4.741-1.855-2.679-1.855-2.679Z" transform="translate(2771.242 -110.813)" fill="#2f2e41"/>
      <path id="Path_1308" data-name="Path 1308" d="M898.495,738.6l-3.5,12.985s-7.008,4.122-2.679,4.947a18.049,18.049,0,0,0,8.657-.824l2.061-5.977,2.061-1.237v6.39h.618l1.443-8.451s-.206-4.328-1.443-4.741-1.855-2.679-1.855-2.679Z" transform="translate(2771.242 -110.813)" fill="#7936ce"/>
      <path id="Path_1309" data-name="Path 1309" d="M887.983,463.154s1.81,6.786,2.488,7.917c0,0,.9,19.226,3.845,25.786l3.167,8.369s5.2,24.655,3.845,27.37c0,0,7.012,1.583,7.464,0,0,0-.226-13.119.452-14.929s1.81-11.762-3.619-19V476.726s8.6-7.238,3.619-16.512S887.983,463.154,887.983,463.154Z" transform="translate(2773.42 99.714)" fill="#29335c"/>
      <path id="Path_1310" data-name="Path 1310" d="M918.8,751.1l-3.845,14.25s-7.691,4.524-2.941,5.429a19.807,19.807,0,0,0,9.5-.9l2.262-6.56,2.262-1.357v7.012h.679L928.3,759.7s-.226-4.75-1.583-5.2-2.036-2.94-2.036-2.94Z" transform="translate(2756.631 -120.149)" fill="#7c36d5"/>
      <path id="Path_1311" data-name="Path 1311" d="M876.081,321.7s-5.695,3.273-5.695,3.5.679,3.845.679,3.845-7.012,7.012-2.262,13.119c0,0,1.583,1.131,1.583,4.75v3.619s-13.345,8.369-9.953,11.084,7.012,2.262,8.143,3.845,7.691-1.357,9.048-1.81,1.583-.9,2.714.679S887.8,363.2,887.8,363.2a42.6,42.6,0,0,1,4.976-1.131,3.13,3.13,0,0,0,1.583-.452l-9.726-9.953,4.863-12.328s-14.363-8.935-14.363-11.423A32.259,32.259,0,0,1,876.081,321.7Z" transform="translate(2794.409 200.577)" fill="#7a57d1"/>
      <path id="Path_1312" data-name="Path 1312" d="M912.951,323.9a10.529,10.529,0,0,0-.679,9.726,130.988,130.988,0,0,0,5.881,12.214l-5.655,1.81h-5.2s-10.857-1.81-9.726,2.262,8.822,2.262,8.822,2.262h4.524s10.179,1.131,11.536-.679c0,0,3.619-.226,2.036-7.464s-6.206-19.628-6.206-19.628Z" transform="translate(2766.321 198.929)" fill="#ffb8b8"/>
      <ellipse id="Ellipse_46" data-name="Ellipse 46" cx="7.893" cy="4.016" rx="7.893" ry="4.016" transform="translate(3663.645 498.382)" fill="#2f2e41"/>
      <ellipse id="Ellipse_47" data-name="Ellipse 47" cx="1.131" cy="2.488" rx="1.131" ry="2.488" transform="translate(3680.291 507.112)" fill="#ffb8b8"/>
      <circle id="Ellipse_48" data-name="Ellipse 48" cx="6.786" cy="6.786" r="6.786" transform="translate(3673.731 488.112)" fill="#2f2e41"/>
      <circle id="Ellipse_49" data-name="Ellipse 49" cx="27.84" cy="27.84" r="27.84" transform="translate(3508.097 470.081)" fill="#6c63ff" opacity="0.3"/>
      <circle id="Ellipse_50" data-name="Ellipse 50" cx="16.451" cy="16.451" r="16.451" transform="translate(3465.578 558.916)" fill="#6c63ff" opacity="0.3"/>
      <circle id="Ellipse_51" data-name="Ellipse 51" cx="33.661" cy="33.661" r="33.661" transform="translate(3553.907 541.706)" fill="#6c63ff" opacity="0.3"/>
      <path id="Path_1313" data-name="Path 1313" d="M153.919,311.86l-.5-.106q.159-.746.332-1.487l.493.115Q154.077,311.119,153.919,311.86Z" transform="translate(3322.068 209.113)" fill="#6c63ff"/>
      <path id="Path_1314" data-name="Path 1314" d="M316.477,119.648c-.26-.964-.541-1.938-.837-2.895l.483-.15c.3.962.581,1.942.842,2.913Zm-158.318-.221-.488-.133c.265-.973.552-1.956.854-2.921l.483.151C158.707,117.483,158.422,118.459,158.159,119.427ZM314.7,113.9c-.331-.945-.684-1.894-1.047-2.821l.471-.185c.366.932.721,1.888,1.054,2.839Zm-154.736-.241-.477-.169c.337-.952.7-1.91,1.068-2.848l.471.186c-.369.932-.726,1.884-1.061,2.83ZM312.5,108.294c-.4-.915-.82-1.836-1.253-2.738l.456-.219c.436.907.86,1.834,1.261,2.755Zm-150.31-.257-.463-.2c.406-.924.835-1.852,1.275-2.76l.456.221c-.437.9-.863,1.825-1.267,2.743Zm147.7-5.171c-.467-.886-.955-1.774-1.452-2.639l.439-.252c.5.87.992,1.764,1.461,2.655ZM164.824,102.6l-.447-.238c.474-.891.97-1.785,1.475-2.657l.438.254C165.788,100.826,165.295,101.715,164.824,102.6Zm142.067-4.958c-.529-.848-1.082-1.7-1.643-2.526l.419-.284c.564.834,1.12,1.689,1.653,2.542Zm-139.039-.267-.428-.27c.537-.853,1.1-1.707,1.666-2.54l.418.285c-.565.828-1.122,1.677-1.656,2.525Zm135.661-4.724c-.587-.8-1.2-1.611-1.824-2.4l.4-.314c.627.794,1.244,1.606,1.835,2.415ZM171.255,92.39l-.407-.3c.6-.812,1.22-1.623,1.847-2.41l.4.315c-.623.783-1.241,1.589-1.836,2.4Zm128.522-4.471c-.648-.762-1.319-1.523-2-2.261l.373-.342c.68.743,1.356,1.508,2.008,2.275Zm-124.764-.252-.384-.329c.655-.764,1.334-1.527,2.018-2.268l.372.343c-.68.736-1.354,1.495-2.006,2.254Zm120.692-4.2c-.7-.714-1.429-1.424-2.156-2.11l.347-.368c.731.69,1.461,1.4,2.169,2.123Zm-116.6-.237-.359-.357c.711-.716,1.444-1.427,2.178-2.114l.346.37c-.73.683-1.458,1.389-2.164,2.1Zm112.211-3.9c-.753-.66-1.529-1.316-2.305-1.947l.319-.392c.781.636,1.562,1.295,2.319,1.959Zm-107.807-.218-.332-.382c.761-.661,1.543-1.317,2.326-1.949l.318.394c-.778.628-1.556,1.279-2.312,1.936Zm103.126-3.591c-.8-.6-1.62-1.2-2.442-1.774l.29-.415c.828.578,1.655,1.179,2.457,1.785Zm-98.434-.2-.3-.405c.807-.6,1.635-1.2,2.461-1.773l.288.416C189.826,74.133,189,74.726,188.2,75.326Zm93.486-3.261c-.842-.543-1.706-1.078-2.567-1.59l.259-.435c.867.515,1.736,1.054,2.583,1.6Zm-88.531-.171-.273-.426c.848-.543,1.717-1.076,2.584-1.587l.257.436c-.861.507-1.725,1.038-2.568,1.577ZM276.5,68.98c-.878-.479-1.779-.949-2.678-1.4l.226-.453c.9.451,1.811.924,2.695,1.406Zm-78.148-.145-.241-.445c.885-.478,1.791-.947,2.692-1.392l.224.454C200.126,67.895,199.226,68.36,198.347,68.836Zm72.742-2.55c-.911-.413-1.845-.815-2.775-1.2l.192-.469c.936.383,1.875.788,2.792,1.2Zm-67.342-.117-.207-.462c.916-.411,1.853-.811,2.786-1.189l.19.469c-.927.376-1.859.773-2.769,1.182ZM265.5,64c-.943-.345-1.9-.677-2.858-.987l.156-.481c.959.312,1.926.646,2.875.993Zm-56.17-.089-.173-.476c.945-.343,1.909-.672,2.864-.979l.155.482c-.95.305-1.907.633-2.847.973Zm50.419-1.778c-.964-.274-1.945-.533-2.916-.771l.12-.492c.977.239,1.965.5,2.935.775Zm-44.684-.065-.137-.487c.969-.272,1.957-.53,2.937-.767l.119.492C217.005,61.539,216.023,61.8,215.061,62.066ZM253.885,60.7c-.98-.2-1.978-.387-2.965-.553l.084-.5c.993.166,2,.353,2.984.556Zm-32.961-.048-.1-.5c.988-.2,1.992-.384,2.985-.547l.082.5c-.987.162-1.985.345-2.967.544Zm27.012-.948c-.995-.129-2-.241-3-.333l.047-.5c1,.093,2.016.205,3.016.335Zm-21.06-.03-.064-.5c1-.126,2.013-.236,3.017-.326l.045.5c-1,.089-2.008.2-3,.324Zm15.054-.526c-1-.056-2.012-.094-3.014-.113l.01-.506c1.009.02,2.029.058,3.033.114Zm-9.046-.013-.027-.505c1.005-.053,2.026-.089,3.033-.105l.008.506C234.9,59.046,233.883,59.081,232.884,59.134Z" transform="translate(3318.897 397.144)" fill="#6c63ff"/>
      <path id="Path_1315" data-name="Path 1315" d="M788.4,312.97q-.156-.742-.324-1.479l.493-.113q.17.741.326,1.488Z" transform="translate(2848.044 208.284)" fill="#6c63ff"/>
      <path id="Path_1316" data-name="Path 1316" d="M790.586,443.389l-.5-.1q.146-.741.28-1.488l.5.089Q790.733,442.643,790.586,443.389Z" transform="translate(2846.538 110.869)" fill="#6c63ff"/>
      <path id="Path_1317" data-name="Path 1317" d="M235.1,522.116q-.825,0-1.647-.016l.01-.506c1,.02,2.008.021,3.01,0l.008.506Q235.8,522.116,235.1,522.116Zm4.408-.115-.027-.506c1-.053,2.011-.124,3-.213l.045.5C241.536,521.876,240.52,521.948,239.512,522Zm-9.08-.015c-1-.056-2.021-.131-3.019-.223l.046-.5c.993.092,2,.167,3,.222Zm15.11-.524-.064-.5c1-.126,2-.271,2.978-.432l.082.5c-.986.161-1.994.307-3,.435Zm-21.138-.034c-1-.13-2.008-.279-3-.444l.084-.5c.981.164,1.983.312,2.977.441Zm27.113-.945-.1-.5c.982-.2,1.971-.417,2.938-.65l.118.492c-.973.234-1.968.454-2.956.654Zm-33.085-.053c-.987-.2-1.981-.426-2.954-.663l.12-.492c.967.236,1.955.458,2.936.659Zm38.972-1.363-.136-.487c.96-.269,1.93-.56,2.882-.865l.154.482c-.958.307-1.934.6-2.9.871ZM212.55,519c-.967-.274-1.945-.571-2.9-.882l.156-.482c.954.309,1.926.6,2.887.877Zm50.613-1.773-.172-.476c.935-.338,1.879-.7,2.8-1.073l.19.469c-.931.376-1.88.739-2.821,1.08Zm-56.387-.1c-.946-.346-1.9-.714-2.83-1.095l.191-.469c.926.378,1.872.744,2.813,1.088Zm61.988-2.164-.207-.462c.911-.408,1.826-.837,2.719-1.277l.223.454c-.9.442-1.819.875-2.736,1.285Zm-67.606-.129c-.917-.415-1.839-.852-2.74-1.3l.225-.453c.9.445,1.812.88,2.723,1.292Zm73.029-2.541-.24-.445c.88-.474,1.761-.97,2.619-1.474l.257.437c-.863.507-1.75,1.006-2.635,1.483Zm-78.459-.159c-.884-.481-1.771-.985-2.636-1.5l.258-.435c.86.51,1.741,1.01,2.62,1.488Zm83.674-2.9-.272-.427c.838-.534,1.681-1.094,2.5-1.663l.288.417c-.829.572-1.677,1.135-2.52,1.672Zm-88.888-.187c-.845-.544-1.692-1.111-2.518-1.686l.289-.415c.821.571,1.663,1.135,2.5,1.676Zm93.867-3.249-.3-.406c.8-.6,1.6-1.215,2.378-1.842l.317.394c-.783.63-1.589,1.254-2.392,1.853Zm-98.838-.214c-.8-.6-1.6-1.231-2.387-1.865l.319-.393c.777.631,1.576,1.254,2.372,1.854ZM289.1,502l-.331-.383c.754-.654,1.507-1.33,2.238-2.011l.345.37c-.734.685-1.492,1.366-2.251,2.023Zm-108.258-.238c-.758-.662-1.513-1.346-2.244-2.034l.347-.369c.727.683,1.477,1.363,2.23,2.022Zm112.688-3.889-.358-.357c.707-.709,1.409-1.439,2.086-2.169l.371.344C294.943,496.423,294.237,497.158,293.525,497.871Zm-117.1-.259c-.705-.713-1.408-1.451-2.089-2.191l.373-.343c.677.736,1.375,1.469,2.076,2.178Zm121.215-4.182-.384-.33c.653-.758,1.3-1.538,1.923-2.317l.4.316c-.627.784-1.278,1.568-1.935,2.33Zm-125.312-.275c-.652-.763-1.3-1.55-1.923-2.337l.4-.314c.621.783,1.263,1.564,1.911,2.323Zm129.1-4.456-.407-.3c.6-.806,1.186-1.631,1.749-2.451l.417.286c-.566.826-1.158,1.656-1.759,2.467Zm-132.854-.287c-.595-.809-1.182-1.64-1.747-2.47l.419-.285c.561.825,1.145,1.651,1.736,2.455Zm136.282-4.71-.428-.271c.534-.843,1.061-1.709,1.565-2.574l.437.255c-.508.871-1.038,1.742-1.575,2.59Zm-139.683-.293c-.533-.85-1.058-1.721-1.56-2.59l.438-.253c.5.864,1.021,1.73,1.551,2.574Zm142.737-4.943-.446-.239c.473-.885.935-1.788,1.372-2.683l.455.222C308.848,476.668,308.384,477.576,307.907,478.467Zm-145.761-.292c-.47-.887-.929-1.794-1.366-2.7l.456-.22c.434.9.89,1.8,1.357,2.68Zm148.422-5.156-.463-.205c.4-.913.8-1.848,1.171-2.779l.47.188C311.372,471.158,310.976,472.1,310.568,473.018Zm-151.053-.285c-.4-.919-.795-1.857-1.163-2.788l.471-.186c.366.925.755,1.858,1.156,2.771Zm153.305-5.349-.477-.171c.337-.944.661-1.906.963-2.859l.482.153c-.3.959-.629,1.927-.969,2.877Zm-155.527-.268c-.335-.947-.657-1.914-.956-2.873l.483-.151c.3.953.617,1.914.95,2.855ZM314.65,461.6l-.488-.135c.265-.96.516-1.94.746-2.915l.493.117C315.169,459.644,314.917,460.631,314.65,461.6Zm-159.162-.26c-.263-.968-.513-1.955-.74-2.932l.493-.115c.226.972.474,1.952.736,2.914Z" transform="translate(3321.08 98.555)" fill="#6c63ff"/>
      <path id="Path_1318" data-name="Path 1318" d="M151.393,442.152q-.145-.747-.276-1.5l.5-.087q.13.747.274,1.489Z" transform="translate(3323.792 111.792)" fill="#6c63ff"/>
      <path id="Path_1319" data-name="Path 1319" d="M634.126,444.263l-.471-.186c.184-.464.362-.94.531-1.413l.477.17C634.493,443.312,634.312,443.793,634.126,444.263Z" transform="translate(2963.379 110.226)" fill="#6c63ff"/>
      <path id="Path_1320" data-name="Path 1320" d="M353.16,483.117c-.606,0-1.218-.012-1.819-.037l.021-.506c1,.04,2.014.047,3.014.019l.014.506Q353.777,483.118,353.16,483.117Zm4.272-.2-.048-.5c1-.095,2-.226,2.988-.389l.083.5c-1,.165-2.015.3-3.023.393Zm-9.13-.06c-1.007-.109-2.022-.255-3.017-.434l.089-.5c.984.176,1.987.32,2.983.429Zm15.142-.934-.117-.492c.975-.231,1.952-.5,2.906-.8l.151.483c-.965.3-1.954.571-2.94.805Zm-21.139-.14c-.983-.247-1.969-.531-2.93-.845l.157-.482c.95.31,1.925.591,2.9.835Zm26.956-1.672-.184-.472c.932-.363,1.863-.763,2.769-1.189l.216.458c-.916.431-1.859.836-2.8,1.2Zm-32.751-.218c-.939-.38-1.876-.8-2.785-1.241l.222-.455c.9.438,1.825.851,2.753,1.226Zm38.263-2.378-.247-.442c.874-.488,1.742-1.013,2.58-1.558l.276.424C376.536,476.489,375.658,477.02,374.773,477.513Zm-43.742-.292c-.877-.505-1.748-1.047-2.588-1.611l.282-.42c.831.557,1.692,1.093,2.559,1.593Zm48.847-3.035-.3-.4c.8-.6,1.588-1.242,2.343-1.9l.332.383C381.485,472.931,380.687,473.576,379.878,474.186Zm-53.908-.361c-.8-.621-1.59-1.277-2.344-1.949l.337-.378c.745.664,1.525,1.313,2.318,1.927Zm58.511-3.632-.357-.359c.71-.706,1.4-1.445,2.063-2.2l.381.334c-.667.76-1.369,1.508-2.087,2.223Zm-63.061-.422c-.708-.723-1.4-1.48-2.057-2.25l.385-.329c.65.761,1.334,1.51,2.034,2.224Zm67.079-4.16-.4-.307c.607-.8,1.194-1.622,1.745-2.458l.423.279C389.706,463.972,389.113,464.808,388.5,465.612Zm-71.035-.474c-.6-.813-1.186-1.658-1.731-2.509l.426-.273c.539.842,1.115,1.676,1.712,2.48Zm74.39-4.612-.44-.249c.492-.871.96-1.77,1.392-2.673l.457.218c-.436.913-.91,1.823-1.408,2.7Zm-77.677-.518c-.487-.889-.948-1.8-1.371-2.722l.46-.212c.418.907.875,1.812,1.356,2.691Z" transform="translate(3203.025 99.463)" fill="#6c63ff"/>
      <path id="Path_1321" data-name="Path 1321" d="M306.589,442.017c-.179-.472-.353-.955-.517-1.437l.479-.163c.162.476.334.954.511,1.421Z" transform="translate(3208.055 111.904)" fill="#6c63ff"/>
      <path id="Path_1322" data-name="Path 1322" d="M309.819,315.093l-.47-.189c.19-.472.389-.945.594-1.407l.463.2C310.2,314.158,310.007,314.626,309.819,315.093Z" transform="translate(3205.606 206.702)" fill="#6c63ff"/>
      <path id="Path_1323" data-name="Path 1323" d="M317.461,232.933l-.447-.237c.478-.9.995-1.8,1.535-2.673l.43.267C318.444,231.151,317.934,232.04,317.461,232.933Zm77.284-.737c-.489-.884-1.017-1.763-1.567-2.613l.425-.275c.557.859,1.091,1.749,1.586,2.643Zm-74.07-4.436-.41-.3c.6-.83,1.235-1.649,1.889-2.435l.389.324C321.9,226.13,321.267,226.94,320.675,227.76Zm70.757-.675c-.607-.808-1.251-1.606-1.913-2.371l.383-.331c.67.774,1.321,1.581,1.935,2.4Zm-66.859-4.005-.366-.35c.707-.739,1.45-1.463,2.206-2.152l.341.374C326.006,221.633,325.272,222.349,324.573,223.08Zm62.875-.6c-.713-.717-1.461-1.419-2.222-2.086l.334-.381c.77.674,1.525,1.384,2.247,2.11Zm-58.37-3.5-.314-.4c.8-.635,1.638-1.25,2.482-1.828l.286.418C330.7,217.744,329.871,218.352,329.077,218.98Zm53.789-.514c-.8-.612-1.642-1.2-2.487-1.76l.278-.423c.856.562,1.7,1.161,2.516,1.78ZM334.1,215.54l-.256-.436c.882-.518,1.794-1.012,2.71-1.467l.225.453C335.876,214.541,334.975,215.029,334.1,215.54Zm43.673-.418c-.883-.5-1.794-.967-2.707-1.4l.217-.457c.924.437,1.845.913,2.738,1.415Zm-38.219-2.293-.193-.468c.946-.391,1.917-.752,2.888-1.076l.16.48c-.959.32-1.92.678-2.854,1.064Zm32.715-.313c-.943-.368-1.91-.708-2.875-1.009l.151-.483c.976.3,1.954.648,2.908,1.02ZM345.332,210.9l-.126-.49c.99-.255,2-.478,3.01-.663l.091.5c-.995.183-2,.4-2.975.655Zm21.125-.2c-.984-.233-1.989-.434-2.987-.6l.082-.5c1.01.166,2.026.369,3.022.6Zm-15.135-.9-.057-.5c1.013-.114,2.047-.2,3.072-.24l.022.506c-1.014.045-2.036.124-3.037.237Zm9.126-.086c-1-.094-2.028-.155-3.041-.18l.012-.506c1.025.025,2.06.086,3.076.182Z" transform="translate(3199.882 284.728)" fill="#6c63ff"/>
      <path id="Path_1324" data-name="Path 1324" d="M630.245,312.1c-.2-.462-.4-.927-.613-1.38l.459-.214c.213.458.422.928.621,1.4Z" transform="translate(2966.385 208.936)" fill="#6c63ff"/>
      <path id="Path_1339" data-name="Path 1339" d="M145.959,552.687A3.037,3.037,0,1,1,149,549.65,3.037,3.037,0,0,1,145.959,552.687Zm0-5.568a2.531,2.531,0,1,0,2.531,2.531A2.531,2.531,0,0,0,145.959,547.119Z" transform="translate(3329.912 32.585)" fill="#f0f0f0"/>
      <path id="Path_1340" data-name="Path 1340" d="M398.959,283.687A3.037,3.037,0,1,1,402,280.65,3.037,3.037,0,0,1,398.959,283.687Zm0-5.568a2.531,2.531,0,1,0,2.531,2.531,2.531,2.531,0,0,0-2.531-2.531Z" transform="translate(3140.945 233.504)" fill="#f0f0f0"/>
      <path id="Path_1341" data-name="Path 1341" d="M621.337,610.143l-3.408-3.654,3.654-3.408,3.408,3.654Zm-2.865-3.635,2.884,3.092,3.092-2.884-2.884-3.092Z" transform="translate(2975.126 -9.591)" fill="#f0f0f0"/>
      <g id="Group_5366" data-name="Group 5366" transform="translate(3462.003 522.305)">
        <ellipse id="Ellipse_52" data-name="Ellipse 52" cx="14" cy="14.5" rx="14" ry="14.5" transform="translate(0.453 -0.036)" fill="#29335c"/>
        <g id="plant_1_" data-name="plant (1)" transform="translate(4.334 8.827)">
          <g id="Group_5045" data-name="Group 5045" transform="translate(6.948 0)">
            <g id="Group_5044" data-name="Group 5044">
              <path id="Path_1004" data-name="Path 1004" d="M188.024,105.439s-2.647,2.254-2.647,5.035,2.647,5.035,2.647,5.035,2.647-2.254,2.647-5.035S188.024,105.439,188.024,105.439Z" transform="translate(-185.377 -105.439)" fill="#fff"/>
            </g>
          </g>
          <g id="Group_5047" data-name="Group 5047" transform="translate(3.479 1.917)">
            <g id="Group_5046" data-name="Group 5046" transform="translate(0 0)">
              <path id="Path_1005" data-name="Path 1005" d="M96.7,163.926a8.927,8.927,0,0,1-1.04-1.833,5.97,5.97,0,0,1,0-4.776l.018-.043a9.445,9.445,0,0,0-2.655-.686s-.82,3.379.812,5.63a6.25,6.25,0,0,0,3.17,2.108C96.9,164.2,96.8,164.067,96.7,163.926Z" transform="translate(-92.817 -156.588)" fill="#fff"/>
            </g>
          </g>
          <g id="Group_5049" data-name="Group 5049" transform="translate(0 5.983)">
            <g id="Group_5048" data-name="Group 5048">
              <path id="Path_1006" data-name="Path 1006" d="M7.31,269.8a8.933,8.933,0,0,1-1.918-.873,5.97,5.97,0,0,1-2.8-3.865A9.441,9.441,0,0,0,0,266.094s1.346,3.206,4,4.048a6.265,6.265,0,0,0,3.824-.193C7.656,269.9,7.485,269.855,7.31,269.8Z" transform="translate(0 -265.059)" fill="#fff"/>
            </g>
          </g>
          <g id="Group_5051" data-name="Group 5051" transform="translate(11.523 1.917)">
            <g id="Group_5050" data-name="Group 5050" transform="translate(0 0)">
              <path id="Path_1007" data-name="Path 1007" d="M311.419,156.59a9.445,9.445,0,0,0-2.655.686l.018.043a5.97,5.97,0,0,1,0,4.776,8.935,8.935,0,0,1-1.04,1.833c-.1.141-.2.274-.305.4a6.25,6.25,0,0,0,3.17-2.108C312.239,159.969,311.419,156.59,311.419,156.59Z" transform="translate(-307.436 -156.59)" fill="#fff"/>
            </g>
          </g>
          <g id="Group_5053" data-name="Group 5053" transform="translate(11.371 5.983)">
            <g id="Group_5052" data-name="Group 5052">
              <path id="Path_1008" data-name="Path 1008" d="M308.613,265.059a5.97,5.97,0,0,1-2.8,3.865,8.93,8.93,0,0,1-1.918.873c-.175.057-.346.108-.51.152a6.264,6.264,0,0,0,3.824.193c2.65-.843,4-4.048,4-4.048A9.44,9.44,0,0,0,308.613,265.059Z" transform="translate(-303.383 -265.059)" fill="#fff"/>
            </g>
          </g>
        </g>
      </g>
      <circle id="Ellipse_52-2" data-name="Ellipse 52" cx="14.5" cy="14.5" r="14.5" transform="translate(3500.456 522.269)" fill="#29335c"/>
      <ellipse id="Ellipse_53" data-name="Ellipse 53" cx="14" cy="14.5" rx="14" ry="14.5" transform="translate(3542.456 522.269)" fill="#29335c"/>
      <circle id="Ellipse_54" data-name="Ellipse 54" cx="14.5" cy="14.5" r="14.5" transform="translate(3584.456 522.269)" fill="#29335c"/>
      <ellipse id="Ellipse_55" data-name="Ellipse 55" cx="14" cy="14.5" rx="14" ry="14.5" transform="translate(3622.456 522.269)" fill="#29335c"/>
      <g id="noun_Travel_1831704" transform="translate(3548.592 531.088)">
        <g id="Group_5054" data-name="Group 5054" transform="translate(0)">
          <path id="Path_1010" data-name="Path 1010" d="M20.847,17.735a1.133,1.133,0,0,0-1.083-.111L9.616,22.1l-1.75-1.237a.567.567,0,0,0-.43.038l-1.175.518L8.915,24.3h0l.01.01h0a1.177,1.177,0,0,0,1.333.324l3.747-1.651-.8,5.6,1.106-.487a.819.819,0,0,0,.482-.492l2.451-6.05,3.559-1.568a1.235,1.235,0,0,0,.545-1.654,1.438,1.438,0,0,0-.133-.238" transform="translate(-6.26 -17.533)" fill="#fff"/>
          <path id="Path_1011" data-name="Path 1011" d="M29.166,22.149l-3.54-1.427a.567.567,0,0,0-.43.039l-1.175.518,2.652,1.969Z" transform="translate(-20.745 -20.114)" fill="#fff"/>
        </g>
      </g>
      <g id="noun_Cockroach_103992" transform="translate(3631.606 529.063)">
        <g id="Group_5055" data-name="Group 5055" transform="translate(0 0)">
          <path id="Path_1014" data-name="Path 1014" d="M20.324,11.662l-1.188-.214-.014-.012a7.453,7.453,0,0,1,.155,1.25c0,.266-.016.64-.048,1.06a7.046,7.046,0,0,1,1.07.929l-.128.593a4.1,4.1,0,0,1-.043,1.608c-.213.55-.511,1.4-.511,1.4l-.17.127a3.824,3.824,0,0,1,.426,1.439v1.4h-.3s.043-1.016.043-1.4A6.292,6.292,0,0,0,19.15,18.4a6.708,6.708,0,0,0,.383-1.651,4.5,4.5,0,0,1,.34-1.4l-.043-.55-.678-.283h0a11.3,11.3,0,0,1-.3,1.637c-.3,1.058-.723,2.412-1.192,2.539a3.613,3.613,0,0,1-.851.127,2.515,2.515,0,0,1-.6-.973L15.447,14.8s.426,2.666.6,3.047.426.889.426.889a2.315,2.315,0,0,1-.809-.889,11.567,11.567,0,0,1-.979-3.047c0-.072,0-.15,0-.233h0l-.666.187L13.9,15.3a4.5,4.5,0,0,1,.168,1.428,6.708,6.708,0,0,0,.179,1.685,6.292,6.292,0,0,0-.64,1.371c-.046.378-.128,1.391-.128,1.391l-.3-.036.17-1.386a3.823,3.823,0,0,1,.6-1.376l-.153-.147s-.193-.876-.337-1.448a4.1,4.1,0,0,1,.154-1.6l-.055-.6a7.2,7.2,0,0,1,1.1-.753c-.012-.483-.026-.956-.026-1.176,0-.381.043-.085.17-.677.032-.149.067-.327.1-.511L13.7,11.29s-.308.574-.521,1.031h0c-.075.651-.117,1.085-.117,1.085a2.777,2.777,0,0,1-.068-.72,5.14,5.14,0,0,1-.4.593h-.213l.213,3.344-.17-.169-.383-3.217L12,13.11s.633-.84,1.047-1.428c.045-.464.126-1.039.261-1.742A7.718,7.718,0,0,1,14.1,7.614L13.277,6l.255.085.685,1.337c.505-.8,1.072-1.107,1.466-.965.283.1.475.581.6,1.1a.444.444,0,0,1,.056-.033,1.412,1.412,0,0,1,.553-.127,1.625,1.625,0,0,1,.723.085l.03.024c.174-.534.415-1.037.72-1.118.433-.114,1.018.3,1.465,1.271l.807-1.575L20.895,6,19.93,7.885a8.082,8.082,0,0,1,.5,2.18c.052.509.083.95.1,1.331a.38.38,0,0,1,.185.3c.085.428.707,2.232.707,2.232l-.065.2.938,2.485-.214.108L21,13.968l-.2-.066a4.866,4.866,0,0,1-.252-1.016c-.009-.079-.02-.162-.031-.247a3.235,3.235,0,0,1-.146.9S20.363,12.73,20.324,11.662Zm-.014-.378-.02-.217a10.537,10.537,0,0,0-1.118-.141,1.007,1.007,0,0,0-.16,0h0q-.016-.066-.032-.13h0l.3-.18-.085-.254s.17-.042.34-.593a12.268,12.268,0,0,0,.3-1.312l-.17-.042.1-.2a5.227,5.227,0,0,1,.487,1.835C20.274,10.469,20.294,10.889,20.31,11.284ZM19.658,8l-.168.327-.17.127a1.812,1.812,0,0,1-.085.889,5.3,5.3,0,0,0-.255,1.016l-.129-.021a.871.871,0,0,0-.126-.275c-.17-.169-.553-.042-1.234-.042a12.2,12.2,0,0,0-2.256.212.185.185,0,0,0-.05.076,5.1,5.1,0,0,0-.247-.965,1.812,1.812,0,0,1-.085-.889l-.17-.127-.294-.574c.48-.694,1.016-1.112,1.27-.937a1.825,1.825,0,0,1,.426.953c-.14.193-.277.46-.465.727-.3.423-.468.508-.468.973s.213.423.426.55,1.064-.042,1.362-.042h1.192a.581.581,0,0,0,.6-.339,2.257,2.257,0,0,0-.3-1.1,3.162,3.162,0,0,0-.553-.635,1.18,1.18,0,0,0-.052-.138,2.024,2.024,0,0,1,.541-1.017C18.655,6.583,19.221,7.15,19.658,8ZM13.3,11.3c.023-.037.043-.07.058-.1.213-.381.468-.169.468-.169l.128-.3a10.31,10.31,0,0,1,1.057.2h0c.016-.078.033-.153.049-.224h0l-.17-.1.085-.254s-.17-.042-.34-.593a12.269,12.269,0,0,1-.3-1.312l.17-.042-.244-.477a5.337,5.337,0,0,0-.777,2c-.069.465-.131.93-.186,1.362Z" transform="translate(-12 -6)" fill="#fff" fill-rule="evenodd"/>
        </g>
      </g>
      <g id="wedding-ring" transform="translate(3591.364 529.823)">
        <path id="Path_1012" data-name="Path 1012" d="M127.931,16.534a2.444,2.444,0,0,0,1.054-.645,5.871,5.871,0,0,0,.982-.985,1.468,1.468,0,0,0,.27-.924,1.3,1.3,0,0,0-1.285-1.248,1.439,1.439,0,0,0-1.018.566,1.418,1.418,0,0,0-1.028-.566,1.3,1.3,0,0,0-1.285,1.248,1.487,1.487,0,0,0,.27.924A5.589,5.589,0,0,0,127.931,16.534Z" transform="translate(-120.685 -12.732)" fill="#fff"/>
        <path id="Path_1013" data-name="Path 1013" d="M9.9,122.271a4.568,4.568,0,0,0-2.651.845,4.593,4.593,0,1,0,0,7.5A4.592,4.592,0,1,0,9.9,122.271Zm-2.651,6.742a3.407,3.407,0,0,1,0-4.3,3.407,3.407,0,0,1,0,4.3Zm-6.066-2.149a3.413,3.413,0,0,1,5.178-2.924,4.584,4.584,0,0,0,0,5.847,3.413,3.413,0,0,1-5.178-2.923ZM9.9,130.279a3.394,3.394,0,0,1-1.763-.491,4.584,4.584,0,0,0,0-5.847A3.414,3.414,0,1,1,9.9,130.279Z" transform="translate(0 -117.968)" fill="#fff"/>
      </g>
      <g id="icon" transform="translate(3508.097 530.076)">
        <path id="Path_1009" data-name="Path 1009" d="M5.871,3.891l-.057-.05A2.961,2.961,0,0,0,2.187.185L3.864,1.863l-.44,1.644-1.644.44L.1,2.269A2.964,2.964,0,0,0,3.885,5.86l.009.009,6.9,6.9a1.4,1.4,0,1,0,1.977-1.978ZM11.9,12.536A.534.534,0,1,1,12.439,12,.534.534,0,0,1,11.9,12.536Z" transform="translate(0 -0.082)" fill="#fff"/>
      </g>
    </g>
    <g id="Group_5179" data-name="Group 5179" transform="translate(128 386.17)">
      <g id="Group_5178" data-name="Group 5178">
        <path id="Path_1137" data-name="Path 1137" d="M51.686,411.645H40.207a3.723,3.723,0,0,1-3.427-2.958l-4.868-17.8a1.183,1.183,0,0,1,.871-1.544,141.926,141.926,0,0,1,26.33,0,1.182,1.182,0,0,1,.869,1.544l-4.868,17.805A3.723,3.723,0,0,1,51.686,411.645Z" transform="translate(-29.447 -321.929)" fill="#fd4059"/>
        <path id="Path_1138" data-name="Path 1138" d="M60.274,391.755c0,.473-5.793.857-12.938.857s-12.937-.384-12.937-.857,5.793-.858,12.937-.858S60.274,391.281,60.274,391.755Z" transform="translate(-30.758 -323.052)" fill="#29245d"/>
        <path id="Path_1139" data-name="Path 1139" d="M58.09,295.038c-4.655-1.226-11.769,8.437-13.93,17.858V299.17a28.317,28.317,0,0,1,6.916-7.885c5.846-4.761,11.227-10.872,6.563-12.1-4.371-1.151-10.908,7.3-13.479,16.13V277.686a18.689,18.689,0,0,1,3.96-4.31c3.684-3,7.076-6.852,4.136-7.626-2.551-.672-6.273,3.843-8.1,8.936v-5.713a27.127,27.127,0,0,1,1.9-6.872c2.709-5.979,4.174-12.141.6-11.682s-5.894,11.109-3.939,19.284v2.94c-1.321-5.983-5.853-12.18-8.811-11.4-2.939.774.452,4.625,4.136,7.626a16.968,16.968,0,0,1,4.675,5.572v13.887c-2.119-9.469-9.282-19.242-13.963-18.009-4.664,1.228.718,7.338,6.563,12.1a26.994,26.994,0,0,1,7.4,8.8v16.652c-2.264-9.3-9.245-18.676-13.836-17.467-4.664,1.228-.664,5.694,5.906,11.095a31.013,31.013,0,0,1,7.931,9.649v7.844a2.428,2.428,0,0,0,1.441,0v-3.121a27.112,27.112,0,0,1,7.366-8.735C57.372,302.377,62.754,296.267,58.09,295.038Z" transform="translate(-26.86 -250.395)" fill="#7c36d5"/>
      </g>
    </g>
    <g id="Group_5368" data-name="Group 5368" transform="translate(221 386.17)">
      <g id="Group_5178-2" data-name="Group 5178">
        <path id="Path_1137-2" data-name="Path 1137" d="M51.686,411.645H40.207a3.723,3.723,0,0,1-3.427-2.958l-4.868-17.8a1.183,1.183,0,0,1,.871-1.544,141.926,141.926,0,0,1,26.33,0,1.182,1.182,0,0,1,.869,1.544l-4.868,17.805A3.723,3.723,0,0,1,51.686,411.645Z" transform="translate(-29.447 -321.929)" fill="#fd4059"/>
        <path id="Path_1138-2" data-name="Path 1138" d="M60.274,391.755c0,.473-5.793.857-12.938.857s-12.937-.384-12.937-.857,5.793-.858,12.937-.858S60.274,391.281,60.274,391.755Z" transform="translate(-30.758 -323.052)" fill="#29245d"/>
        <path id="Path_1139-2" data-name="Path 1139" d="M58.09,295.038c-4.655-1.226-11.769,8.437-13.93,17.858V299.17a28.317,28.317,0,0,1,6.916-7.885c5.846-4.761,11.227-10.872,6.563-12.1-4.371-1.151-10.908,7.3-13.479,16.13V277.686a18.689,18.689,0,0,1,3.96-4.31c3.684-3,7.076-6.852,4.136-7.626-2.551-.672-6.273,3.843-8.1,8.936v-5.713a27.127,27.127,0,0,1,1.9-6.872c2.709-5.979,4.174-12.141.6-11.682s-5.894,11.109-3.939,19.284v2.94c-1.321-5.983-5.853-12.18-8.811-11.4-2.939.774.452,4.625,4.136,7.626a16.968,16.968,0,0,1,4.675,5.572v13.887c-2.119-9.469-9.282-19.242-13.963-18.009-4.664,1.228.718,7.338,6.563,12.1a26.994,26.994,0,0,1,7.4,8.8v16.652c-2.264-9.3-9.245-18.676-13.836-17.467-4.664,1.228-.664,5.694,5.906,11.095a31.013,31.013,0,0,1,7.931,9.649v7.844a2.428,2.428,0,0,0,1.441,0v-3.121a27.112,27.112,0,0,1,7.366-8.735C57.372,302.377,62.754,296.267,58.09,295.038Z" transform="translate(-26.86 -250.395)" fill="#7c36d5"/>
      </g>
    </g>
    <g id="Group_5370" data-name="Group 5370" transform="translate(-2262 668)">
      <path id="Path_1242" data-name="Path 1242" d="M397.2,176.5a.2.2,0,0,0,.033-.392l-.678-.114.933-2.484a.2.2,0,1,0-.369-.139l-1.1,2.933,1.15.193Z" transform="translate(2178.278 -512.571)" fill="#fd896b"/>
      <path id="Path_1244" data-name="Path 1244" d="M392.4,172.386c0,.435-.224.786-.5.786s-.5-.352-.5-.786.224-.786.5-.786S392.4,171.952,392.4,172.386Z" transform="translate(2180.593 -511.749)" fill="#29245d"/>
      <path id="Path_1245" data-name="Path 1245" d="M403.589,172.386c0,.435-.224.786-.5.786s-.5-.352-.5-.786.224-.786.5-.786S403.589,171.952,403.589,172.386Z" transform="translate(2174.987 -511.749)" fill="#29245d"/>
      <path id="Path_1246" data-name="Path 1246" d="M389.3,168.859a9.614,9.614,0,0,1,2.081-.177c.228.008.41.18.379.361v0a.321.321,0,0,1-.363.229,10.924,10.924,0,0,0-2.852.179.373.373,0,0,1,.151-.311A1.206,1.206,0,0,1,389.3,168.859Z" transform="translate(2182.027 -510.285)" fill="#29245d"/>
      <path id="Path_1247" data-name="Path 1247" d="M403.7,169.023a9.588,9.588,0,0,0-2.078-.206c-.228,0-.413.174-.384.356v0a.32.32,0,0,0,.359.234,10.939,10.939,0,0,1,2.85.218.374.374,0,0,0-.147-.313A1.206,1.206,0,0,0,403.7,169.023Z" transform="translate(2175.667 -510.354)" fill="#29245d"/>
      <path id="Path_1248" data-name="Path 1248" d="M394.009,182.118a2.241,2.241,0,0,0,2.269,1.963,2.157,2.157,0,0,0,2.258-1.963Z" transform="translate(2179.286 -517.019)" fill="#fff"/>
      <path id="Path_1249" data-name="Path 1249" d="M397.506,187.809a1.932,1.932,0,0,1-.907-.265.193.193,0,0,1,.2-.329h0a1.556,1.556,0,0,0,.7.208,1.64,1.64,0,0,0,.743-.209.193.193,0,0,1,.2.331A2.024,2.024,0,0,1,397.506,187.809Z" transform="translate(2178.035 -519.558)" fill="#fd896b"/>
    </g>
  </g>
</svg>
