<svg xmlns="http://www.w3.org/2000/svg" width="291.826" height="257" viewBox="0 0 291.826 257">
  <g id="Group_5659" data-name="Group 5659" transform="translate(-42 -225)">
    <g id="Group_5360" data-name="Group 5360" transform="translate(15.14 177.196)">
      <g id="Group_5160" data-name="Group 5160" transform="translate(27.847 112.43)">
        <path id="Path_1111" data-name="Path 1111" d="M44.206,217.1c-30.469,18.426-7.181,45.611-9.255,77.024s22.342,38,22.342,38l243.777-.716c13.851-24.59,12.308-53.473,1.72-84.95-8.855-26.324-41.711-66.6-94.548-39.631-19.147,9.774-49.45,4.328-60.115-19.421,0,0-8.073-34.027-35.928-39.257-22.738-4.269-44.827,11.606-48.222,29.306s-.216,29.8-19.77,39.644" transform="translate(-28.382 -147.452)" fill="#c6cbdf"/>
        <path id="Path_1112" data-name="Path 1112" d="M456.824,290.888c3.115,4.352,8.8,3.775,10.728-1.184a10.4,10.4,0,0,0,.194-6.338c-2.429-9.985-9.741-13.059-14.524-6.93C450.27,280.219,453.737,286.576,456.824,290.888Z" transform="translate(-177.3 -191.676)" fill="#c6cbdf"/>
        <g id="Group_5158" data-name="Group 5158" transform="translate(257.805 22.89)">
          <path id="Path_1113" data-name="Path 1113" d="M450.86,234.946l.049-4.048-3.793-.046a9.1,9.1,0,0,0-1.01-2.771l2.645-2.581-2.828-2.9-2.531,2.47a9.068,9.068,0,0,0-3.33-1.45l.047-3.794-4.049-.049-.047,3.91a9.013,9.013,0,0,0-2.293.9l-2.581-2.645-2.9,2.828,2.47,2.531a9.075,9.075,0,0,0-1.449,3.331l-3.316-.041-.05,4.049,3.433.042a9.031,9.031,0,0,0,1.258,2.886l-2.532,2.47,2.828,2.9,2.645-2.581a9.061,9.061,0,0,0,3.221,1.156l-.047,3.817,4.049.049.051-4.138a9.018,9.018,0,0,0,2.407-1.132l2.47,2.532,2.9-2.828-2.581-2.644a9.019,9.019,0,0,0,.955-2.271Zm-10.1.238a3.711,3.711,0,1,1,.064-5.248A3.715,3.715,0,0,1,440.758,235.184Z" transform="translate(-425.894 -195.762)" fill="#c6cbdf"/>
          <path id="Path_1114" data-name="Path 1114" d="M451.914,191.034l.027-2.213-2.073-.025a4.957,4.957,0,0,0-.552-1.514l1.445-1.411-1.545-1.584-1.383,1.35a4.954,4.954,0,0,0-1.82-.792l.025-2.073-2.213-.027-.025,2.136a4.914,4.914,0,0,0-1.253.492l-1.411-1.446-1.584,1.545,1.35,1.383a4.948,4.948,0,0,0-.793,1.82l-1.812-.022-.027,2.213,1.876.023a4.929,4.929,0,0,0,.687,1.577l-1.384,1.35L441,195.4l1.446-1.411a4.959,4.959,0,0,0,1.761.632l-.025,2.086,2.212.027.028-2.261a4.91,4.91,0,0,0,1.315-.619l1.35,1.384,1.583-1.545-1.41-1.446a4.968,4.968,0,0,0,.522-1.241Zm-5.521.13a2.028,2.028,0,1,1,.035-2.868A2.029,2.029,0,0,1,446.393,191.164Z" transform="translate(-430.244 -182.746)" fill="#c6cbdf"/>
        </g>
        <g id="Group_5159" data-name="Group 5159" transform="translate(3.303 2.291)">
          <path id="Path_1115" data-name="Path 1115" d="M57.976,202.485l.78-3.974-3.723-.73a9.1,9.1,0,0,0-.492-2.908l3.067-2.061-2.258-3.361-2.935,1.972A9.073,9.073,0,0,0,49.4,189.4l.731-3.723-3.973-.78-.753,3.837a9.026,9.026,0,0,0-2.418.47l-2.06-3.068-3.361,2.258,1.973,2.935a9.075,9.075,0,0,0-2.028,3.014l-3.254-.639-.78,3.973,3.369.661a9.04,9.04,0,0,0,.715,3.066l-2.936,1.972,2.258,3.361,3.068-2.06a9.069,9.069,0,0,0,2.959,1.719l-.735,3.745,3.973.78.8-4.06a9.015,9.015,0,0,0,2.571-.679l1.972,2.937,3.361-2.258-2.061-3.068a9.04,9.04,0,0,0,1.35-2.06ZM48,200.893a3.711,3.711,0,1,1,1.011-5.15A3.714,3.714,0,0,1,48,200.893Z" transform="translate(-33.476 -162.901)" fill="#c6cbdf"/>
          <path id="Path_1116" data-name="Path 1116" d="M70.553,160.6l.425-2.171-2.034-.4a4.97,4.97,0,0,0-.269-1.589l1.676-1.127-1.234-1.837-1.6,1.078a4.956,4.956,0,0,0-1.647-1.108l.4-2.035-2.171-.426-.411,2.1a4.944,4.944,0,0,0-1.322.257l-1.126-1.676L59.4,152.9l1.078,1.6a4.958,4.958,0,0,0-1.108,1.647L57.59,155.8l-.426,2.171,1.841.361a4.947,4.947,0,0,0,.39,1.675l-1.6,1.078,1.234,1.837,1.676-1.126a4.942,4.942,0,0,0,1.617.94l-.4,2.047,2.171.426.436-2.219a4.926,4.926,0,0,0,1.405-.371l1.078,1.6,1.837-1.234-1.126-1.676a4.948,4.948,0,0,0,.737-1.126Zm-5.454-.87a2.028,2.028,0,1,1,.553-2.815A2.03,2.03,0,0,1,65.1,159.728Z" transform="translate(-41.801 -150.984)" fill="#c6cbdf"/>
        </g>
      </g>
      <path id="Path_1117" data-name="Path 1117" d="M319.43,432.142c0,3.162-64.414,5.726-143.872,5.726S31.685,435.3,31.685,432.142s64.414-5.726,143.872-5.726S319.43,428.98,319.43,432.142Z" transform="translate(-1.696 -133.064)" fill="#29335c"/>
      <g id="Group_5173" data-name="Group 5173" transform="translate(83.007 59.938)">
        <g id="Group_5162" data-name="Group 5162" transform="translate(128.982 143.263)">
          <path id="Path_1118" data-name="Path 1118" d="M354.063,292.439c1.056,8.719-6.76,11.828-3.874,18.026s1.013,12.665-4.9,13.868-10.334,1.756-10.1,9.065-6.284,13.845-11.54,10.275c-1.309-.887-2.724-1.851-4.11-2.8l-1.127-.77q-.13-.088-.258-.176a13.25,13.25,0,0,1-4.3-17.168,8.2,8.2,0,0,1,6.289-4.674c9.437-1.173,2.766-8.281,6.206-14.006,3.961-6.6,10.9-4.092,13.32-9.3C343.038,287.548,353.007,283.72,354.063,292.439Z" transform="translate(-312.311 -287.412)" fill="#5828a7"/>
          <g id="Group_5161" data-name="Group 5161" transform="translate(6.105 11.651)">
            <path id="Path_1119" data-name="Path 1119" d="M348.838,306.427l-25.985,40.762-1.127-.77,25.961-40.725a.682.682,0,1,1,1.151.733Z" transform="translate(-321.725 -305.377)" fill="#401382"/>
          </g>
        </g>
        <g id="Group_5164" data-name="Group 5164" transform="translate(128.032 174.539)">
          <path id="Path_1120" data-name="Path 1120" d="M368.594,343.183c-2.682,9.017-11.687,8.736-11.5,16.056s-4.408,12.876-10.73,11.535-10.9-2.684-13.787,4.6-12.08,10.922-15.72,5.173c-.907-1.431-1.887-2.981-2.845-4.5l-.779-1.237c-.06-.094-.121-.189-.179-.283a14.192,14.192,0,0,1,3.1-18.7,8.788,8.788,0,0,1,8.173-1.909c9.772,2.874,6.251-6.955,12.072-11.113,6.705-4.791,12.457.632,17.052-3.45C359.848,333.674,371.276,334.167,368.594,343.183Z" transform="translate(-310.846 -335.637)" fill="#7c36d5"/>
          <g id="Group_5163" data-name="Group 5163" transform="translate(2.392 10.108)">
            <path id="Path_1121" data-name="Path 1121" d="M358.232,352.559,315.313,381.52l-.779-1.237,42.879-28.936a.731.731,0,1,1,.818,1.211Z" transform="translate(-314.534 -351.223)" fill="#5828a7"/>
          </g>
        </g>
        <g id="Group_5166" data-name="Group 5166" transform="translate(41.969 117.513)">
          <path id="Path_1122" data-name="Path 1122" d="M178.188,251.841c-.617,6.982,5.7,9.26,3.556,14.278s-.481,10.13,4.266,10.936,8.288,1.134,8.288,6.97,5.371,10.881,9.47,7.9c1.021-.741,2.125-1.547,3.206-2.337l.879-.643c.067-.049.135-.1.2-.147a10.575,10.575,0,0,0,2.986-13.806,6.547,6.547,0,0,0-5.137-3.566c-7.558-.692-2.42-6.534-5.312-11.012-3.33-5.159-8.8-2.982-10.864-7.07C186.856,247.655,178.805,244.859,178.188,251.841Z" transform="translate(-178.145 -247.708)" fill="#5828a7"/>
          <g id="Group_5165" data-name="Group 5165" transform="translate(6.954 9.182)">
            <path id="Path_1123" data-name="Path 1123" d="M188.962,262.717l21.78,31.844.879-.643L189.861,262.1a.545.545,0,0,0-.9.615Z" transform="translate(-188.867 -261.865)" fill="#401382"/>
          </g>
        </g>
        <g id="Group_5168" data-name="Group 5168" transform="translate(25.251 135.412)">
          <path id="Path_1124" data-name="Path 1124" d="M152.734,282.21c2.454,8.25,10.693,7.993,10.517,14.69s4.033,11.78,9.817,10.553,9.974-2.455,12.613,4.206,11.053,9.992,14.383,4.732c.83-1.309,1.726-2.727,2.6-4.119l.713-1.132c.054-.086.11-.173.163-.259a12.983,12.983,0,0,0-2.837-17.109,8.037,8.037,0,0,0-7.477-1.747c-8.94,2.629-5.718-6.364-11.045-10.167-6.135-4.384-11.4.578-15.6-3.156C160.736,273.511,150.281,273.96,152.734,282.21Z" transform="translate(-152.368 -275.306)" fill="#7c36d5"/>
          <g id="Group_5167" data-name="Group 5167" transform="translate(10.739 9.248)">
            <path id="Path_1125" data-name="Path 1125" d="M169.22,290.788l39.266,26.5.713-1.132L169.969,289.68a.668.668,0,1,0-.748,1.108Z" transform="translate(-168.926 -289.565)" fill="#5828a7"/>
          </g>
        </g>
        <g id="Group_5170" data-name="Group 5170" transform="translate(0 36.479)">
          <path id="Path_1126" data-name="Path 1126" d="M113.856,129.206c2.53,7.36,9.964,6.815,10.06,12.873s4.091,10.49,9.27,9.162,8.918-2.6,11.556,3.322,10.366,8.608,13.175,3.73c.7-1.214,1.456-2.529,2.195-3.82l.6-1.05c.047-.08.093-.16.138-.24a11.743,11.743,0,0,0-3.213-15.351,7.269,7.269,0,0,0-6.822-1.294c-7.978,2.715-5.408-5.532-10.365-8.767-5.709-3.727-10.276.955-14.215-2.26C120.755,121.042,111.325,121.846,113.856,129.206Z" transform="translate(-113.433 -122.761)" fill="#5828a7"/>
          <g id="Group_5169" data-name="Group 5169" transform="translate(9.907 8.143)">
            <path id="Path_1127" data-name="Path 1127" d="M129,136.435l36.483,22.45.6-1.05-36.45-22.429a.6.6,0,1,0-.634,1.029Z" transform="translate(-128.71 -135.316)" fill="#401382"/>
          </g>
        </g>
        <g id="Group_5172" data-name="Group 5172" transform="translate(10.497)">
          <path id="Path_1128" data-name="Path 1128" d="M129.719,71.613c-1.071,8.845,6.858,12,3.93,18.284s-1.028,12.848,4.97,14.068,10.483,1.781,10.242,9.2,6.375,14.044,11.706,10.423c1.328-.9,2.763-1.878,4.169-2.837l1.144-.781.261-.178a13.44,13.44,0,0,0,4.361-17.415,8.323,8.323,0,0,0-6.38-4.742c-9.573-1.189-2.806-8.4-6.3-14.208-4.018-6.691-11.06-4.151-13.511-9.429C140.9,66.651,130.79,62.768,129.719,71.613Z" transform="translate(-129.618 -66.513)" fill="#7c36d5"/>
          <g id="Group_5171" data-name="Group 5171" transform="translate(8.649 11.819)">
            <path id="Path_1129" data-name="Path 1129" d="M143.063,85.8l26.359,41.349,1.144-.781L144.231,85.058a.692.692,0,0,0-1.167.743Z" transform="translate(-142.955 -84.738)" fill="#5828a7"/>
          </g>
        </g>
        <path id="Path_1130" data-name="Path 1130" d="M342.205,86.068c9.746-5.186,18.017-11.894,12.787-14.948s-19.251,8.753-25.035,21.652l-3.017,3.918c4.379-9.327,4.7-22.233-.042-24.23-4.711-1.985-4.144,6.626-2.313,14.4a28.542,28.542,0,0,1,.512,12.221l-14.248,18.5c6.892-14.789,7.375-35.162-.126-38.321-7.475-3.149-6.574,10.514-3.669,22.855,2.194,9.326,1.514,15.959.826,19.322l-2.841,3.689q.843.889,1.7,1.769l16.951-22.012a31.4,31.4,0,0,1,9.7-1.68c7.987-.218,16.457-1.869,13.335-5.916-2.71-3.513-12.3-1.315-19.956,3.6l5.862-7.613A45.634,45.634,0,0,1,342.205,86.068Z" transform="translate(-180.733 -67.961)" fill="#7c36d5"/>
      </g>
      <g id="Group_5177" data-name="Group 5177" transform="translate(110.478 102.463)">
        <g id="Group_5174" data-name="Group 5174" transform="translate(5.172 13.169)">
          <rect id="Rectangle_1050" data-name="Rectangle 1050" width="3.094" height="164.483" fill="#474574"/>
          <rect id="Rectangle_1051" data-name="Rectangle 1051" width="3.094" height="164.483" transform="translate(113.313)" fill="#474574"/>
        </g>
        <g id="Group_5175" data-name="Group 5175" transform="translate(0 175.871)">
          <rect id="Rectangle_1052" data-name="Rectangle 1052" width="126.751" height="17.077" rx="8.539" transform="translate(0.016)" fill="#29245d"/>
          <path id="Path_1131" data-name="Path 1131" d="M282.543,411.8H155.792a8.542,8.542,0,0,1,8.537-8.537H274A8.539,8.539,0,0,1,282.543,411.8Z" transform="translate(-155.792 -403.26)" fill="#474574"/>
        </g>
        <path id="Path_1132" data-name="Path 1132" d="M277.1,317.21H174.038s-2.051-48.955,24.254-69.382l.006-.007c.209-.231,6.168-6.84,6.168-10.135,0-3.248-7.918-11.257-8.413-11.754l-.024-.025c-23.922-21.392-21.992-67.492-21.992-67.492H277.1s1.957,46.77-22.519,67.955c-1.752,1.806-7.982,8.433-7.982,11.315,0,3.029,5.038,8.862,6.013,9.96C279.156,267.967,277.1,317.21,277.1,317.21Z" transform="translate(-162.191 -141.338)" fill="#fff"/>
        <path id="Path_1133" data-name="Path 1133" d="M227.172,248.834s1.207-9.252-14.214-17.565c-8.2-4.423-22.728-20.717-24.538-41.433,0,0,21.722-4.157,42.237,8.715,23.906,15,35.7-4.325,40.628-15.286,0,0,2.555,26.147-14.213,40.36-9.76,8.273-24.995,13.677-25.262,25.208,0,0,2.614,35.6,11.665,48.941,7.884,11.625,17.03,12.806,24.27,18.84a19.434,19.434,0,0,1,6.094,9.329h-88.7a19.433,19.433,0,0,1,6.094-9.329c7.241-6.034,16.384-7.214,24.271-18.84C224.557,284.434,227.172,248.834,227.172,248.834Z" transform="translate(-166.107 -150.071)" fill="#7a57d1"/>
        <path id="Path_1134" data-name="Path 1134" d="M270.857,189.414c-5.893,10.829-17.534,23.931-38.423,10.823-20.515-12.872-42.237-8.715-42.237-8.715s4.424-3.655,14.481-3.453c17.063.342,25.612,6.761,32.985,10.961C245.608,203.555,262.159,203.27,270.857,189.414Z" transform="translate(-167.884 -151.756)" fill="#9978eb"/>
        <g id="Group_5176" data-name="Group 5176">
          <path id="Path_1135" data-name="Path 1135" d="M282.543,140.621a8.544,8.544,0,0,1-8.54,8.54H164.329a8.539,8.539,0,0,1,0-17.078H274A8.539,8.539,0,0,1,282.543,140.621Z" transform="translate(-155.792 -132.083)" fill="#29245d"/>
          <path id="Path_1136" data-name="Path 1136" d="M282.543,140.621H155.792a8.543,8.543,0,0,1,8.537-8.538H274A8.539,8.539,0,0,1,282.543,140.621Z" transform="translate(-155.792 -132.083)" fill="#474574"/>
        </g>
      </g>
      <g id="Group_5179" data-name="Group 5179" transform="translate(26.86 179.194)">
        <g id="Group_5178" data-name="Group 5178">
          <path id="Path_1137" data-name="Path 1137" d="M58.488,419.508H43.07a5,5,0,0,1-4.6-3.973l-6.539-23.911a1.589,1.589,0,0,1,1.17-2.074,190.625,190.625,0,0,1,35.363,0,1.588,1.588,0,0,1,1.167,2.073L63.09,415.535A5,5,0,0,1,58.488,419.508Z" transform="translate(-28.618 -299.012)" fill="#fd4059"/>
          <path id="Path_1138" data-name="Path 1138" d="M69.151,392.049c0,.636-7.78,1.151-17.377,1.151S34.4,392.684,34.4,392.049s7.78-1.152,17.376-1.152S69.151,391.413,69.151,392.049Z" transform="translate(-29.509 -299.775)" fill="#29245d"/>
          <path id="Path_1139" data-name="Path 1139" d="M68.8,310.354C62.552,308.707,53,321.686,50.1,334.34V315.9a38.032,38.032,0,0,1,9.288-10.59c7.851-6.395,15.079-14.6,8.815-16.251-5.871-1.546-14.65,9.8-18.1,21.664V287.05a25.1,25.1,0,0,1,5.318-5.788c4.948-4.03,9.5-9.2,5.555-10.242-3.426-.9-8.425,5.162-10.874,12v-7.674a36.434,36.434,0,0,1,2.548-9.23c3.639-8.031,5.605-16.306.807-15.69s-7.917,14.92-5.291,25.9v3.949c-1.774-8.036-7.861-16.358-11.834-15.312-3.948,1.04.607,6.212,5.555,10.242a22.79,22.79,0,0,1,6.279,7.484v18.651c-2.846-12.717-12.467-25.844-18.753-24.188-6.264,1.65.964,9.856,8.815,16.251a36.255,36.255,0,0,1,9.938,11.824v22.365c-3.041-12.485-12.417-25.084-18.583-23.46-6.264,1.65-.892,7.647,7.932,14.9a41.653,41.653,0,0,1,10.652,12.96V342.53a3.261,3.261,0,0,0,1.936,0v-4.192a36.414,36.414,0,0,1,9.894-11.732C67.841,320.211,75.068,312,68.8,310.354Z" transform="translate(-26.86 -250.395)" fill="#7c36d5"/>
        </g>
      </g>
      <g id="Group_5220" data-name="Group 5220" transform="translate(57.182 112.17)">
        <g id="Group_5180" data-name="Group 5180" transform="translate(46.611 36.267)">
          <path id="Path_1140" data-name="Path 1140" d="M146.973,224.867a80.1,80.1,0,0,0,6.478,10.325,26.94,26.94,0,0,0,3.176,3.547c1.723,1.555,3.4,2.368,4.771,1.678,5.074-2.558,16.386-22.916,16.386-22.916L175,214.2s-5.035,5.814-8.716,9.293c-3.4,3.209-6.007,5.607-6.007,5.607-.47-.715-.971-1.5-1.491-2.33-.554-.88-1.128-1.813-1.713-2.771-4.24-6.961-9.346-14.575-9.346-14.575Z" transform="translate(-146.008 -205.238)" fill="#fda893"/>
          <path id="Path_1141" data-name="Path 1141" d="M188.609,213.929a5.573,5.573,0,0,1-.7-3.648c.444-1.723.875-5.619,2.72-5.513.673.039-.31,1.666.141,3.173a24.752,24.752,0,0,0,3.3-1.968c1.163-.877,3.572-2.3,4.692-2.953a.35.35,0,0,1,.484.471,7.89,7.89,0,0,1-2.614,2.276s4.035-2.306,4.71-1.8-4.422,3.3-4.422,3.3,4.116-1.7,4.453-1.077c.2.379-3.831,2.8-3.831,2.8s4.009-1.263,3.265-.3c-.217.279-7.833,3.8-9.42,7.882C191.381,216.565,189.163,215.324,188.609,213.929Z" transform="translate(-160.358 -202.971)" fill="#fda893"/>
          <path id="Path_1142" data-name="Path 1142" d="M156.962,243.09a26.94,26.94,0,0,0,3.176,3.547l2.156-11.971c-.554-.88-1.128-1.813-1.713-2.771Z" transform="translate(-149.518 -213.137)" fill="#fd896b"/>
          <path id="Path_1143" data-name="Path 1143" d="M147.048,208.6l10.724,15.786-3.413,14.067-8.414-13.7S144.369,215.579,147.048,208.6Z" transform="translate(-145.485 -204.948)" fill="#7c36d5"/>
        </g>
        <g id="Group_5190" data-name="Group 5190" transform="translate(31.099 101.94)">
          <path id="Path_1144" data-name="Path 1144" d="M136.778,416.677v4.984l-4.558-.073-.3-5.281Z" transform="translate(-125.206 -343.622)" fill="#fda893"/>
          <g id="Group_5181" data-name="Group 5181" transform="translate(0 0.042)">
            <path id="Path_1145" data-name="Path 1145" d="M121.566,304.493c.031.592.189,3.437.428,7.4.642,10.894,1.844,30.254,2.549,34.6.724,4.463.4,19.1.163,26.755A4.637,4.637,0,0,0,126,376.608a4.8,4.8,0,0,0,1.057.824,4.643,4.643,0,0,0,2.291.6h3.474a4.64,4.64,0,0,0,4.639-4.784c-.2-6.476-.435-18.29.019-27.416.434-8.685-.2-24.055-.68-33.634h-.006c-.2-3.826-.365-6.722-.435-7.905Z" transform="translate(-121.566 -304.298)" fill="#29335c"/>
          </g>
          <path id="Path_1146" data-name="Path 1146" d="M136.356,304.3l-14.79.2c.031.592.189,3.437.428,7.4a62.4,62.4,0,0,0,14.8.308C136.6,308.377,136.426,305.482,136.356,304.3Z" transform="translate(-121.566 -304.257)" fill="#29335c"/>
          <g id="Group_5182" data-name="Group 5182" transform="translate(1.758)">
            <path id="Path_1147" data-name="Path 1147" d="M127.006,359.571c-.129,4.9-.263,9.963-.176,14.046.025,1.146.065,2.126.118,2.967a4.541,4.541,0,0,0,1.061.826c-.084-.975-.15-2.222-.185-3.814-.086-4.059.048-9.111.178-14,.159-5.972.308-11.614-.017-14.015-.71-5.255-2.3-33.743-2.713-41.348l-.995.044c.416,7.6,2.008,36.147,2.723,41.437C127.313,348.037,127.164,353.64,127.006,359.571Z" transform="translate(-124.277 -304.234)" fill="#cb2242"/>
          </g>
          <g id="Group_5189" data-name="Group 5189" transform="translate(5.789 76.563)">
            <g id="Group_5188" data-name="Group 5188">
              <g id="Group_5187" data-name="Group 5187">
                <path id="Path_1148" data-name="Path 1148" d="M135.107,423.576s.944-1.328,1.717-1.289,6.836,4.645,8.886,4.991,1.687,1.858,1.33,2.634-16.291.069-16.291.069-.541-4.726-.053-6.186S133.518,423.954,135.107,423.576Z" transform="translate(-130.493 -422.287)" fill="#7c36d5"/>
                <g id="Group_5186" data-name="Group 5186" transform="translate(6.736 1.489)">
                  <g id="Group_5183" data-name="Group 5183" transform="translate(0.87 0.787)">
                    <path id="Path_1149" data-name="Path 1149" d="M142.6,428.043a.286.286,0,0,1-.339-.408,4.393,4.393,0,0,1,1.455-1.584,1.972,1.972,0,0,1,2.025.05.286.286,0,0,1-.331.466,1.407,1.407,0,0,0-1.426-.011,3.892,3.892,0,0,0-1.221,1.352A.287.287,0,0,1,142.6,428.043Z" transform="translate(-142.222 -425.796)" fill="#fff"/>
                  </g>
                  <g id="Group_5184" data-name="Group 5184">
                    <path id="Path_1150" data-name="Path 1150" d="M141.254,426.83a.286.286,0,0,1-.34-.408,4.4,4.4,0,0,1,1.455-1.584,1.969,1.969,0,0,1,2.025.05.286.286,0,0,1-.331.466,1.408,1.408,0,0,0-1.426-.011,3.874,3.874,0,0,0-1.22,1.351A.283.283,0,0,1,141.254,426.83Z" transform="translate(-140.88 -424.583)" fill="#fff"/>
                  </g>
                  <g id="Group_5185" data-name="Group 5185" transform="translate(2.04 1.414)">
                    <path id="Path_1151" data-name="Path 1151" d="M144.4,429.011a.286.286,0,0,1-.34-.408,4.4,4.4,0,0,1,1.455-1.584,1.969,1.969,0,0,1,2.025.05.286.286,0,1,1-.331.466,1.408,1.408,0,0,0-1.426-.011,3.869,3.869,0,0,0-1.22,1.352A.284.284,0,0,1,144.4,429.011Z" transform="translate(-144.025 -426.764)" fill="#fff"/>
                  </g>
                </g>
              </g>
            </g>
          </g>
        </g>
        <g id="Group_5199" data-name="Group 5199" transform="translate(8.141 101.933)">
          <path id="Path_1152" data-name="Path 1152" d="M102.548,416.677l-.491,4.976-4.067-.065-.3-5.281Z" transform="translate(-90.217 -343.615)" fill="#fda893"/>
          <g id="Group_5192" data-name="Group 5192" transform="translate(3.811 0.281)">
            <g id="Group_5191" data-name="Group 5191">
              <path id="Path_1153" data-name="Path 1153" d="M92.189,345.964c.453,9.126.214,20.94.019,27.416a4.644,4.644,0,0,0,4.638,4.784h3.474a4.661,4.661,0,0,0,2.134-.516,4.473,4.473,0,0,0,1.051-.756,4.6,4.6,0,0,0,1.453-3.512c-.233-7.659-.56-22.293.164-26.755.717-4.424,1.951-24.376,2.586-35.157.208-3.6.353-6.174.39-6.81l-14.816.2c-.044.768-.113,1.951-.195,3.449C92.611,316.924,91.685,335.912,92.189,345.964Z" transform="translate(-92.043 -304.657)" fill="#29335c"/>
            </g>
          </g>
          <path id="Path_1154" data-name="Path 1154" d="M93.656,308.3a143.672,143.672,0,0,0,14.62,3.166c.208-3.6.353-6.174.39-6.81l-14.816.2C93.806,305.62,93.738,306.8,93.656,308.3Z" transform="translate(-88.799 -304.376)" fill="#29335c"/>
          <g id="Group_5193" data-name="Group 5193" transform="translate(14.058)">
            <path id="Path_1155" data-name="Path 1155" d="M108.2,373.591c-.034,1.64-.1,2.914-.191,3.9a4.547,4.547,0,0,0,1.055-.75c.06-.876.1-1.909.131-3.129.086-4.083-.049-9.147-.178-14.046-.158-5.93-.3-11.534.008-13.856.715-5.292,2.307-33.853,2.721-41.443l-.994-.045c-.416,7.6-2,36.1-2.715,41.355-.325,2.4-.174,8.043-.016,14.015C108.148,364.48,108.282,369.532,108.2,373.591Z" transform="translate(-107.842 -304.223)" fill="#cb2242"/>
          </g>
          <g id="Group_5198" data-name="Group 5198" transform="translate(0 76.731)">
            <path id="Path_1156" data-name="Path 1156" d="M96.42,423.077a18.807,18.807,0,0,0-2.647-.542c-.574.011-4.416,4.307-5.709,4.561-2.346.459-2.349,4.122-.922,4.3,4.129.526,11.193-1.218,11.193-1.218s.651-4.7.368-6.175S97.574,423.51,96.42,423.077Z" transform="translate(-86.166 -422.535)" fill="#7c36d5"/>
            <g id="Group_5197" data-name="Group 5197" transform="translate(2.32 1.643)">
              <g id="Group_5194" data-name="Group 5194" transform="translate(1.104 0.866)">
                <path id="Path_1157" data-name="Path 1157" d="M94.857,428.449a.286.286,0,0,0,.3-.438,4.41,4.41,0,0,0-1.6-1.438,1.972,1.972,0,0,0-2.012.243.286.286,0,0,0,.374.433,1.405,1.405,0,0,1,1.418-.148,3.89,3.89,0,0,1,1.343,1.229A.285.285,0,0,0,94.857,428.449Z" transform="translate(-91.447 -426.403)" fill="#fff"/>
              </g>
              <g id="Group_5195" data-name="Group 5195" transform="translate(1.895)">
                <path id="Path_1158" data-name="Path 1158" d="M96.077,427.113a.286.286,0,0,0,.3-.438,4.4,4.4,0,0,0-1.6-1.438,1.97,1.97,0,0,0-2.011.243.286.286,0,1,0,.374.433,1.408,1.408,0,0,1,1.418-.147,3.876,3.876,0,0,1,1.344,1.228A.281.281,0,0,0,96.077,427.113Z" transform="translate(-92.666 -425.067)" fill="#fff"/>
              </g>
              <g id="Group_5196" data-name="Group 5196" transform="translate(0 1.603)">
                <path id="Path_1159" data-name="Path 1159" d="M93.155,429.585a.286.286,0,0,0,.3-.439,4.41,4.41,0,0,0-1.6-1.438,1.971,1.971,0,0,0-2.012.243.286.286,0,1,0,.374.433,1.409,1.409,0,0,1,1.418-.147,3.869,3.869,0,0,1,1.343,1.229A.288.288,0,0,0,93.155,429.585Z" transform="translate(-89.744 -427.539)" fill="#fff"/>
              </g>
            </g>
          </g>
        </g>
        <g id="Group_5205" data-name="Group 5205" transform="translate(9.818 30.476)">
          <g id="Group_5200" data-name="Group 5200">
            <path id="Path_1160" data-name="Path 1160" d="M88.764,267.272a80.736,80.736,0,0,0,40.1,0c.071-4.989.141-24.936-.244-41.308-.006-.322-.015-.642-.023-.961,0-.158-.008-.316-.012-.472v-.025c-.006-.2-.01-.406-.016-.607-.285-10.8-.784-19.615-1.638-20.792v0c-1.992-2.738-12.005-7.109-14.775-9.062-.232.372-1.594,2.437-3.38,2.589-1.96.173-3.7-2.133-3.7-2.133v-.436c-2.783,1.951-11.854,6-13.845,8.727C89.05,205.781,88.673,258.773,88.764,267.272Z" transform="translate(-88.752 -194.043)" fill="#7c36d5"/>
          </g>
          <g id="Group_5201" data-name="Group 5201" transform="translate(35.728 23.742)">
            <path id="Path_1161" data-name="Path 1161" d="M143.9,231.145a50.139,50.139,0,0,1,3.58,6.7c.1.223.188.411.253.553.085.186.132.294.136.3a.3.3,0,0,0,.11.131c-.007-.322-.015-.642-.023-.961,0-.158-.008-.316-.012-.472v-.025c-.154-.331-.337-.721-.541-1.148a40.414,40.414,0,0,0-3-5.447.31.31,0,0,0-.5.368Z" transform="translate(-143.841 -230.651)" fill="#5828a7"/>
          </g>
          <g id="Group_5202" data-name="Group 5202" transform="translate(9.855 3.512)">
            <path id="Path_1162" data-name="Path 1162" d="M104.257,208.132h.01a21.492,21.492,0,0,0,11.925-4.207,21.064,21.064,0,0,0,4.213-3.971.31.31,0,1,0-.5-.37c-.057.076-5.795,7.615-15.661,7.929a.31.31,0,0,0,.01.619Z" transform="translate(-103.948 -199.458)" fill="#5828a7"/>
          </g>
          <g id="Group_5203" data-name="Group 5203" transform="translate(6.624 45.566)">
            <path id="Path_1163" data-name="Path 1163" d="M120.42,281.556a.31.31,0,0,0,.02-.619,22.469,22.469,0,0,1-16.757-8.6,23.992,23.992,0,0,1-4.107-7.8.31.31,0,0,0-.6.155,24.149,24.149,0,0,0,4.2,8.01,23.073,23.073,0,0,0,17.22,8.857Z" transform="translate(-98.966 -264.301)" fill="#5828a7"/>
          </g>
          <g id="Group_5204" data-name="Group 5204" transform="translate(13.804 47.983)">
            <path id="Path_1164" data-name="Path 1164" d="M119.627,277.326a.31.31,0,0,0,.08-.609,12.355,12.355,0,0,1-9.058-8.445.31.31,0,0,0-.606.131,11.061,11.061,0,0,0,1.739,3.655,13.565,13.565,0,0,0,7.763,5.257A.293.293,0,0,0,119.627,277.326Z" transform="translate(-110.037 -268.029)" fill="#5828a7"/>
          </g>
        </g>
        <g id="Group_5206" data-name="Group 5206" transform="translate(0 39.887)">
          <path id="Path_1165" data-name="Path 1165" d="M73.624,279.94c.191,2.713,1.819,4.728,1.828,6.514s2.071.619,1.116-2.911.461-6.941,1.217-6.91-.241,3.976.554,5.286,1.394-1.441,2.091-3.142c.723-1.766.318-5.43-.337-8.01s2.56-18.941,2.14-23.552l1.161-5.982.678-3.489L84.2,234.1,78,231.648c-.233,1.169-.472,2.382-.71,3.6-.1.538-.208,1.077-.309,1.614-.829,4.361-1.573,8.655-1.877,11.41-.838,7.618.537,23.156.537,23.156S73.445,277.4,73.624,279.94Z" transform="translate(-73.614 -216.67)" fill="#fda893"/>
          <path id="Path_1166" data-name="Path 1166" d="M78.808,236.862a13.749,13.749,0,0,0,6.412,4.373l.678-3.489.127-3.642-6.2-2.456c-.233,1.169-.472,2.382-.71,3.6C79.012,235.786,78.909,236.325,78.808,236.862Z" transform="translate(-75.439 -216.67)" fill="#fd896b"/>
          <path id="Path_1167" data-name="Path 1167" d="M76.155,225.292a13.173,13.173,0,0,0,2.03,1.839,12.453,12.453,0,0,0,7.02,2.446c.342-10.094.671-18.52,1.405-21.024C85.3,210.168,78.952,218.065,76.155,225.292Z" transform="translate(-74.507 -208.554)" fill="#7c36d5"/>
        </g>
        <g id="Group_5207" data-name="Group 5207" transform="translate(10.836 52.556)">
          <path id="Path_1168" data-name="Path 1168" d="M93.84,229.581a50.135,50.135,0,0,0-3.58,6.7c-.1.223-.187.411-.252.553-.086.186-.134.294-.137.3a.308.308,0,0,1-.283.184h-.006c0-.158.007-.316.012-.473-.091,0-.183,0-.272,0,.042-.091.143-.315.287-.629.181-.4.432-.938.728-1.555a40.407,40.407,0,0,1,3-5.447.31.31,0,0,1,.5.368Z" transform="translate(-89.322 -229.088)" fill="#5828a7"/>
        </g>
        <g id="Group_5219" data-name="Group 5219" transform="translate(17.739)">
          <path id="Path_1169" data-name="Path 1169" d="M104.927,163.685c0,5.468,3.367,9.236,8.834,9.236s9.279-4.051,9.279-9.519-3.238-9.61-8.705-9.61C107.776,153.792,104.927,158.217,104.927,163.685Z" transform="translate(-102.358 -149.42)" fill="#29245d"/>
          <path id="Path_1170" data-name="Path 1170" d="M103.858,158.3s-4.075-4.03-2.552-5.931,3.51-.086,4.115-1.9.842-4.147,3.315-3.2,2.587,2.505,4.949,1.123,1.844.951,3.917,1.987,3.522.864,3.186,2.851,1.989,2.4,1.038,4.594-2.065,1.088-2.065,1.088Z" transform="translate(-100.966 -147.051)" fill="#29245d"/>
          <g id="Group_5212" data-name="Group 5212" transform="translate(0.783 15.605)">
            <path id="Path_1171" data-name="Path 1171" d="M105.187,172.127s-1.519-2.025-2.649-.35.468,6.622,3.233,5.414Z" transform="translate(-102.173 -171.113)" fill="#fd896b"/>
            <path id="Path_1172" data-name="Path 1172" d="M104.323,179.528a.517.517,0,1,0,.516-.517A.516.516,0,0,0,104.323,179.528Z" transform="translate(-102.928 -173.889)" fill="#fff"/>
            <g id="Group_5208" data-name="Group 5208" transform="translate(0.593 1.773)">
              <path id="Path_1173" data-name="Path 1173" d="M105.489,176.623a.234.234,0,0,1-.225-.171,3.612,3.612,0,0,0-2.027-2.152.234.234,0,0,1,.165-.437,4.024,4.024,0,0,1,2.311,2.463.234.234,0,0,1-.161.288A.243.243,0,0,1,105.489,176.623Z" transform="translate(-103.087 -173.847)" fill="#d65c48"/>
            </g>
            <g id="Group_5211" data-name="Group 5211" transform="translate(1.165 2.692)">
              <g id="Group_5210" data-name="Group 5210">
                <g id="Group_5209" data-name="Group 5209">
                  <path id="Path_1174" data-name="Path 1174" d="M104.2,176.351a.231.231,0,0,1-.126-.037.233.233,0,0,1-.07-.323,2.129,2.129,0,0,1,.877-.707.234.234,0,1,1,.191.426,1.688,1.688,0,0,0-.675.534A.234.234,0,0,1,104.2,176.351Z" transform="translate(-103.968 -175.263)" fill="#d65c48"/>
                </g>
              </g>
            </g>
          </g>
          <g id="Group_5217" data-name="Group 5217" transform="translate(18.868 15.605)">
            <path id="Path_1175" data-name="Path 1175" d="M130.643,172.127s1.52-2.025,2.649-.35-.467,6.622-3.233,5.414Z" transform="translate(-130.059 -171.113)" fill="#fd896b"/>
            <path id="Path_1176" data-name="Path 1176" d="M132.22,179.528a.517.517,0,1,0,.517-.517A.517.517,0,0,0,132.22,179.528Z" transform="translate(-130.818 -173.889)" fill="#fff"/>
            <g id="Group_5213" data-name="Group 5213" transform="translate(0.37 1.773)">
              <path id="Path_1177" data-name="Path 1177" d="M130.864,176.623a.233.233,0,0,0,.224-.171,3.614,3.614,0,0,1,2.027-2.152.234.234,0,0,0-.165-.437,4.026,4.026,0,0,0-2.311,2.463.234.234,0,0,0,.162.288A.239.239,0,0,0,130.864,176.623Z" transform="translate(-130.63 -173.847)" fill="#d65c48"/>
            </g>
            <g id="Group_5216" data-name="Group 5216" transform="translate(1.191 2.692)">
              <g id="Group_5215" data-name="Group 5215">
                <g id="Group_5214" data-name="Group 5214">
                  <path id="Path_1178" data-name="Path 1178" d="M132.906,176.351a.231.231,0,0,0,.126-.037.234.234,0,0,0,.07-.323,2.134,2.134,0,0,0-.877-.707.233.233,0,1,0-.191.426,1.7,1.7,0,0,1,.675.534A.233.233,0,0,0,132.906,176.351Z" transform="translate(-131.896 -175.263)" fill="#d65c48"/>
                </g>
              </g>
            </g>
          </g>
          <path id="Path_1179" data-name="Path 1179" d="M120.758,186.953v4.92s-1.468,2.505-3.452,2.676-3.743-2.157-3.743-2.157V187.3Z" transform="translate(-105.393 -161.075)" fill="#fda893"/>
          <path id="Path_1180" data-name="Path 1180" d="M120.758,186.953v2.183c-1.331,1.477-3.7,1.846-7.195,1.33V187.3Z" transform="translate(-105.393 -161.075)" fill="#fd896b"/>
          <path id="Path_1181" data-name="Path 1181" d="M105.518,167.343a29.7,29.7,0,0,0,.4,3.239c.66,3.627,2.145,7.192,5.347,8.337,7.248,2.589,9.84-3.629,10.875-7.253.114-.4.216-.85.307-1.328.165-.864.292-1.827.392-2.8.118-1.176.2-2.368.246-3.415a5.118,5.118,0,0,0-3.278-5.024c-2.972-1.142-7.487-2.046-11.766.381a5.132,5.132,0,0,0-2.607,4.369C105.413,164.838,105.428,166.043,105.518,167.343Z" transform="translate(-102.533 -150.88)" fill="#fda893"/>
          <path id="Path_1182" data-name="Path 1182" d="M105.568,172.435a29.707,29.707,0,0,0,.4,3.239c.66,3.627,2.145,7.192,5.347,8.337,7.248,2.589,9.84-3.629,10.875-7.253.113-.4.216-.85.307-1.328.165-.864.292-1.827.392-2.8h-1.059c-.221.676-1.4,4.788-1.783,5.373-.824-1.975-5.008-.664-5.008-.664l-.021.007a2.571,2.571,0,0,1-1.579-.007s-4.135-1.37-4.992.516c-.378-.588-1.736-4.778-1.98-5.224Zm8.66,5.8c4.732-.638,3.986,1.909,3.986,1.909a7.909,7.909,0,0,1-1.326,1.01,5.463,5.463,0,0,1-2.788.759c-.724-.032-.924.118-2.76-.876a4.568,4.568,0,0,1-.973-.738h0v0C110.286,179.8,109.485,177.42,114.228,178.234Z" transform="translate(-102.583 -155.972)" fill="#29245d"/>
          <path id="Path_1183" data-name="Path 1183" d="M113.443,173.151c0,.525-.271.951-.6.951s-.605-.425-.605-.951.271-.951.605-.951S113.443,172.625,113.443,173.151Z" transform="translate(-104.926 -155.89)" fill="#192c32"/>
          <path id="Path_1184" data-name="Path 1184" d="M124.429,173.121c0,.525-.27.951-.6.951s-.6-.425-.6-.951.27-.951.6-.951S124.429,172.6,124.429,173.121Z" transform="translate(-108.787 -155.879)" fill="#192c32"/>
          <path id="Path_1185" data-name="Path 1185" d="M109.41,169.28a6.228,6.228,0,0,1,4.1-.145l-.178.992a11.419,11.419,0,0,0-3.936.313A1.721,1.721,0,0,1,109.41,169.28Z" transform="translate(-103.895 -154.704)" fill="#29245d"/>
          <path id="Path_1186" data-name="Path 1186" d="M125.007,169.28a6.23,6.23,0,0,0-4.1-.145l.178.992a11.418,11.418,0,0,1,3.936.313A1.721,1.721,0,0,0,125.007,169.28Z" transform="translate(-107.974 -154.704)" fill="#29245d"/>
          <g id="Group_5218" data-name="Group 5218" transform="translate(10.837 16.369)">
            <path id="Path_1187" data-name="Path 1187" d="M118.545,176.863a2.488,2.488,0,0,0,.846-.178.234.234,0,0,0-.176-.433,1.4,1.4,0,0,1-.937.088.252.252,0,0,1-.115-.217,35.489,35.489,0,0,1,.141-3.579.234.234,0,1,0-.466-.038,34.518,34.518,0,0,0-.141,3.666.715.715,0,0,0,.34.571A.988.988,0,0,0,118.545,176.863Z" transform="translate(-117.675 -172.291)" fill="#fd896b"/>
          </g>
          <path id="Path_1188" data-name="Path 1188" d="M114.1,181.982a3.009,3.009,0,0,0,2.965,2.729,2.9,2.9,0,0,0,2.952-2.729Z" transform="translate(-105.581 -159.328)" fill="#fff"/>
          <path id="Path_1189" data-name="Path 1189" d="M122.837,167.541h-1.059c.117-1.063.285-2.937-.589-3.2-2.76-.848.817-2.8-.429-3.77s-4.347-.557-6.5-.627a46.225,46.225,0,0,0-6.5.157c-.848.194-.383,1.6-.072,2.694s-1.04,2.3-1.267,3.424a4.992,4.992,0,0,0,0,1.327h-.883c-.105-1.374-.121-2.653-.1-3.69a5.137,5.137,0,0,1,2.606-4.371c4.279-2.426,8.794-1.521,11.767-.378a5.119,5.119,0,0,1,3.279,5.022C123.035,165.172,122.957,166.363,122.837,167.541Z" transform="translate(-102.533 -150.88)" fill="#29245d"/>
        </g>
      </g>
      <g id="Group_5262" data-name="Group 5262" transform="translate(44.454 71.139)">
        <g id="Group_5241" data-name="Group 5241" transform="translate(201.535 15.428)">
          <g id="Group_5224" data-name="Group 5224" transform="translate(17.917)">
            <g id="Group_5223" data-name="Group 5223">
              <g id="Group_5222" data-name="Group 5222">
                <g id="Group_5221" data-name="Group 5221">
                  <path id="Path_1190" data-name="Path 1190" d="M392.364,111.183a3.61,3.61,0,1,1,3.61,3.61A3.615,3.615,0,0,1,392.364,111.183Zm1.133,0a2.477,2.477,0,1,0,2.477-2.477A2.48,2.48,0,0,0,393.5,111.183Z" transform="translate(-392.364 -107.573)" fill="#7c36d5"/>
                </g>
              </g>
            </g>
          </g>
          <g id="Group_5225" data-name="Group 5225" transform="translate(4.922 12.665)">
            <path id="Path_1191" data-name="Path 1191" d="M372.326,130.711a3.61,3.61,0,1,1,3.61,3.61A3.614,3.614,0,0,1,372.326,130.711Zm1.132,0a2.477,2.477,0,1,0,2.477-2.477A2.48,2.48,0,0,0,373.458,130.711Z" transform="translate(-372.326 -127.101)" fill="#fd4059"/>
          </g>
          <g id="Group_5232" data-name="Group 5232" transform="translate(0 27.986)">
            <g id="Group_5228" data-name="Group 5228" transform="translate(3.505)">
              <g id="Group_5226" data-name="Group 5226">
                <path id="Path_1192" data-name="Path 1192" d="M370.708,154.355a.566.566,0,0,0,.566-.566v-2.5a.566.566,0,1,0-1.132,0v2.5A.566.566,0,0,0,370.708,154.355Z" transform="translate(-370.142 -150.725)" fill="#7c36d5"/>
              </g>
              <g id="Group_5227" data-name="Group 5227" transform="translate(0 4.37)">
                <path id="Path_1193" data-name="Path 1193" d="M370.708,161.093a.566.566,0,0,0,.566-.566v-2.5a.566.566,0,1,0-1.132,0v2.5A.566.566,0,0,0,370.708,161.093Z" transform="translate(-370.142 -157.463)" fill="#7c36d5"/>
              </g>
            </g>
            <g id="Group_5231" data-name="Group 5231" transform="translate(0 3.433)">
              <g id="Group_5229" data-name="Group 5229">
                <path id="Path_1194" data-name="Path 1194" d="M365.3,157.152h2.243a.567.567,0,0,0,0-1.133H365.3a.567.567,0,0,0,0,1.133Z" transform="translate(-364.737 -156.019)" fill="#7c36d5"/>
              </g>
              <g id="Group_5230" data-name="Group 5230" transform="translate(4.767)">
                <path id="Path_1195" data-name="Path 1195" d="M372.654,157.152H374.9a.567.567,0,0,0,0-1.133h-2.243a.567.567,0,0,0,0,1.133Z" transform="translate(-372.088 -156.019)" fill="#7c36d5"/>
              </g>
            </g>
          </g>
          <g id="Group_5240" data-name="Group 5240" transform="translate(19.934 13.993)">
            <g id="Group_5239" data-name="Group 5239">
              <g id="Group_5235" data-name="Group 5235" transform="translate(3.505)">
                <g id="Group_5233" data-name="Group 5233">
                  <path id="Path_1196" data-name="Path 1196" d="M401.444,132.779a.566.566,0,0,0,.566-.566v-2.5a.566.566,0,1,0-1.132,0v2.5A.566.566,0,0,0,401.444,132.779Z" transform="translate(-400.878 -129.149)" fill="#fd4059"/>
                </g>
                <g id="Group_5234" data-name="Group 5234" transform="translate(0 4.37)">
                  <path id="Path_1197" data-name="Path 1197" d="M401.444,139.517a.566.566,0,0,0,.566-.566v-2.5a.566.566,0,1,0-1.132,0v2.5A.566.566,0,0,0,401.444,139.517Z" transform="translate(-400.878 -135.887)" fill="#fd4059"/>
                </g>
              </g>
              <g id="Group_5238" data-name="Group 5238" transform="translate(0 3.433)">
                <g id="Group_5236" data-name="Group 5236">
                  <path id="Path_1198" data-name="Path 1198" d="M396.039,135.576h2.243a.567.567,0,0,0,0-1.133h-2.243a.567.567,0,0,0,0,1.133Z" transform="translate(-395.473 -134.443)" fill="#fd4059"/>
                </g>
                <g id="Group_5237" data-name="Group 5237" transform="translate(4.767)">
                  <path id="Path_1199" data-name="Path 1199" d="M403.39,135.576h2.243a.567.567,0,1,0,0-1.133H403.39a.567.567,0,1,0,0,1.133Z" transform="translate(-402.823 -134.443)" fill="#fd4059"/>
                </g>
              </g>
            </g>
          </g>
        </g>
        <g id="Group_5261" data-name="Group 5261">
          <g id="Group_5260" data-name="Group 5260">
            <g id="Group_5242" data-name="Group 5242" transform="translate(24.477)">
              <path id="Path_1200" data-name="Path 1200" d="M91.73,87.395a3.61,3.61,0,1,1,3.61,3.61A3.614,3.614,0,0,1,91.73,87.395Zm6.087,0a2.477,2.477,0,1,0-2.477,2.478A2.48,2.48,0,0,0,97.817,87.395Z" transform="translate(-91.73 -83.785)" fill="#7c36d5"/>
            </g>
            <g id="Group_5244" data-name="Group 5244" transform="translate(15.875 14.818)">
              <g id="Group_5243" data-name="Group 5243">
                <path id="Path_1201" data-name="Path 1201" d="M78.467,110.243a3.61,3.61,0,1,1,3.61,3.61A3.614,3.614,0,0,1,78.467,110.243Zm6.088,0a2.477,2.477,0,1,0-2.477,2.477A2.481,2.481,0,0,0,84.555,110.243Z" transform="translate(-78.467 -106.633)" fill="#fd4059"/>
              </g>
            </g>
            <g id="Group_5251" data-name="Group 5251" transform="translate(0 20.523)">
              <g id="Group_5247" data-name="Group 5247" transform="translate(0 3.505)">
                <g id="Group_5245" data-name="Group 5245" transform="translate(4.371)">
                  <path id="Path_1202" data-name="Path 1202" d="M60.728,121.4a.566.566,0,0,1,.566-.566h2.5a.566.566,0,1,1,0,1.132h-2.5A.566.566,0,0,1,60.728,121.4Z" transform="translate(-60.728 -120.835)" fill="#7c36d5"/>
                </g>
                <g id="Group_5246" data-name="Group 5246">
                  <path id="Path_1203" data-name="Path 1203" d="M53.989,121.4a.566.566,0,0,1,.566-.566h2.5a.566.566,0,1,1,0,1.132h-2.5A.566.566,0,0,1,53.989,121.4Z" transform="translate(-53.989 -120.835)" fill="#7c36d5"/>
                </g>
              </g>
              <g id="Group_5250" data-name="Group 5250" transform="translate(3.434)">
                <g id="Group_5248" data-name="Group 5248" transform="translate(0 4.767)">
                  <path id="Path_1204" data-name="Path 1204" d="M59.284,125.59v-2.243a.566.566,0,0,1,1.132,0v2.243a.566.566,0,1,1-1.132,0Z" transform="translate(-59.284 -122.781)" fill="#7c36d5"/>
                </g>
                <g id="Group_5249" data-name="Group 5249">
                  <path id="Path_1205" data-name="Path 1205" d="M59.284,118.24V116a.566.566,0,1,1,1.132,0v2.243a.566.566,0,0,1-1.132,0Z" transform="translate(-59.284 -115.43)" fill="#7c36d5"/>
                </g>
              </g>
            </g>
            <g id="Group_5259" data-name="Group 5259" transform="translate(33.922 10.746)">
              <g id="Group_5258" data-name="Group 5258">
                <g id="Group_5254" data-name="Group 5254" transform="translate(0 3.505)">
                  <g id="Group_5252" data-name="Group 5252" transform="translate(4.37)">
                    <path id="Path_1206" data-name="Path 1206" d="M113.032,106.326a.566.566,0,0,1,.567-.566h2.5a.566.566,0,1,1,0,1.132h-2.5A.566.566,0,0,1,113.032,106.326Z" transform="translate(-113.032 -105.76)" fill="#fd4059"/>
                  </g>
                  <g id="Group_5253" data-name="Group 5253">
                    <path id="Path_1207" data-name="Path 1207" d="M106.294,106.326a.566.566,0,0,1,.566-.566h2.5a.566.566,0,0,1,0,1.132h-2.5A.566.566,0,0,1,106.294,106.326Z" transform="translate(-106.294 -105.76)" fill="#fd4059"/>
                  </g>
                </g>
                <g id="Group_5257" data-name="Group 5257" transform="translate(3.434)">
                  <g id="Group_5255" data-name="Group 5255" transform="translate(0 4.767)">
                    <path id="Path_1208" data-name="Path 1208" d="M111.589,110.516v-2.243a.566.566,0,1,1,1.132,0v2.243a.566.566,0,0,1-1.132,0Z" transform="translate(-111.589 -107.706)" fill="#fd4059"/>
                  </g>
                  <g id="Group_5256" data-name="Group 5256">
                    <path id="Path_1209" data-name="Path 1209" d="M111.589,103.165v-2.243a.566.566,0,0,1,1.132,0v2.243a.566.566,0,0,1-1.132,0Z" transform="translate(-111.589 -100.355)" fill="#fd4059"/>
                  </g>
                </g>
              </g>
            </g>
          </g>
        </g>
      </g>
      <g id="Group_5330" data-name="Group 5330" transform="translate(219.36 113.706)">
        <g id="Group_5270" data-name="Group 5270" transform="translate(22.853 89.794)">
          <path id="Path_1210" data-name="Path 1210" d="M379.038,415.506v4.95l4.527-.073.3-5.245Z" transform="translate(-365.988 -332.6)" fill="#fda893"/>
          <g id="Group_5268" data-name="Group 5268" transform="translate(0 85.977)">
            <g id="Group_5267" data-name="Group 5267">
              <path id="Path_1211" data-name="Path 1211" d="M372.755,421.86s-1.136-1.49-2.024-1.416-7.681,5.6-10.025,6.081-1.868,2.2-1.427,3.08,18.6-.233,18.6-.233.569-5.769-.047-7.429S374.6,422.233,372.755,421.86Z" transform="translate(-358.916 -420.441)" fill="#7c36d5"/>
              <g id="Group_5266" data-name="Group 5266" transform="translate(4.958 1.823)">
                <g id="Group_5263" data-name="Group 5263" transform="translate(1.321 0.938)">
                  <path id="Path_1212" data-name="Path 1212" d="M372.412,427.2a.329.329,0,0,0,.375-.482,5.061,5.061,0,0,0-1.734-1.766,2.267,2.267,0,0,0-2.326.136.329.329,0,1,0,.4.523,1.618,1.618,0,0,1,1.639-.068,4.482,4.482,0,0,1,1.455,1.507A.33.33,0,0,0,372.412,427.2Z" transform="translate(-368.596 -424.699)" fill="#fff"/>
                </g>
                <g id="Group_5264" data-name="Group 5264" transform="translate(2.291)">
                  <path id="Path_1213" data-name="Path 1213" d="M373.907,425.757a.329.329,0,0,0,.375-.482,5.073,5.073,0,0,0-1.734-1.766,2.266,2.266,0,0,0-2.326.135.329.329,0,1,0,.4.524,1.617,1.617,0,0,1,1.639-.068,4.453,4.453,0,0,1,1.455,1.507A.328.328,0,0,0,373.907,425.757Z" transform="translate(-370.092 -423.252)" fill="#fff"/>
                </g>
                <g id="Group_5265" data-name="Group 5265" transform="translate(0 1.705)">
                  <path id="Path_1214" data-name="Path 1214" d="M370.375,428.386a.329.329,0,0,0,.375-.483,5.073,5.073,0,0,0-1.734-1.765,2.267,2.267,0,0,0-2.327.135.329.329,0,1,0,.4.523,1.619,1.619,0,0,1,1.639-.067,4.448,4.448,0,0,1,1.454,1.507A.329.329,0,0,0,370.375,428.386Z" transform="translate(-366.56 -425.881)" fill="#fff"/>
                </g>
              </g>
            </g>
          </g>
          <path id="Path_1215" data-name="Path 1215" d="M387.618,287.872c-.116,1.92-.247,4.083-.388,6.408-.027.425-.053.858-.08,1.294-.016.258-.032.516-.049.777-.915,14.877-2.209,35.047-2.876,41.5-1.354,13.119-1.424,33-1.424,33h-7.216c-.682-14.118-1.861-53.7-2.455-74.326-.019-.651-.036-1.285-.056-1.9-.077-2.68-.141-4.97-.193-6.757Z" transform="translate(-363.824 -287.872)" fill="#29335c"/>
          <path id="Path_1216" data-name="Path 1216" d="M387.618,287.872c-.116,1.92-.247,4.083-.388,6.408l-.158.016a88.533,88.533,0,0,1-14,.333c-.077-2.68-.141-4.97-.193-6.757Z" transform="translate(-363.824 -287.872)" fill="#29335c"/>
          <g id="Group_5269" data-name="Group 5269" transform="translate(10.962)">
            <path id="Path_1217" data-name="Path 1217" d="M388.452,287.872c-.668,13.478-1.721,33.293-2.521,41.544-.828,8.525-1.626,32.036-1.923,41.437h.942c.3-9.414,1.1-32.856,1.917-41.347.8-8.277,1.859-28.147,2.527-41.634Z" transform="translate(-378.697 -287.872)" fill="#cb2242"/>
            <path id="Path_1218" data-name="Path 1218" d="M375.819,411.8l.326,3.3H384.8l.26-3.3Z" transform="translate(-375.819 -331.428)" fill="#cb2242"/>
          </g>
        </g>
        <g id="Group_5278" data-name="Group 5278" transform="translate(45.712 89.794)">
          <path id="Path_1219" data-name="Path 1219" d="M403.1,414.941l.185,4.946,4.521-.242.1-5.253Z" transform="translate(-397.302 -332.338)" fill="#fda893"/>
          <g id="Group_5276" data-name="Group 5276" transform="translate(5.194 85.725)">
            <g id="Group_5275" data-name="Group 5275">
              <path id="Path_1220" data-name="Path 1220" d="M404.995,420.542a21.64,21.64,0,0,1,3.07-.487c.659.042,4.854,5.176,6.327,5.533,2.673.647,2.488,4.858.839,4.994-4.772.393-12.8-1.974-12.8-1.974s-.507-5.435-.106-7.116S403.646,420.981,404.995,420.542Z" transform="translate(-402.169 -420.052)" fill="#7c36d5"/>
              <g id="Group_5274" data-name="Group 5274" transform="translate(5.299 1.995)">
                <g id="Group_5271" data-name="Group 5271" transform="translate(0.865 1.036)">
                  <path id="Path_1221" data-name="Path 1221" d="M412.058,426.971a.329.329,0,0,1-.321-.52,5.06,5.06,0,0,1,1.911-1.57,2.265,2.265,0,0,1,2.3.382.329.329,0,1,1-.452.478,1.616,1.616,0,0,0-1.622-.242,4.479,4.479,0,0,0-1.607,1.343A.33.33,0,0,1,412.058,426.971Z" transform="translate(-411.673 -424.726)" fill="#fff"/>
                </g>
                <g id="Group_5272" data-name="Group 5272">
                  <path id="Path_1222" data-name="Path 1222" d="M410.725,425.373a.329.329,0,0,1-.321-.519,5.06,5.06,0,0,1,1.911-1.571,2.267,2.267,0,0,1,2.3.383.329.329,0,0,1-.452.478,1.617,1.617,0,0,0-1.622-.243,4.459,4.459,0,0,0-1.607,1.344A.33.33,0,0,1,410.725,425.373Z" transform="translate(-410.339 -423.128)" fill="#fff"/>
                </g>
                <g id="Group_5273" data-name="Group 5273" transform="translate(2.096 1.939)">
                  <path id="Path_1223" data-name="Path 1223" d="M413.957,428.363a.329.329,0,0,1-.322-.52,5.071,5.071,0,0,1,1.912-1.571,2.265,2.265,0,0,1,2.3.383.329.329,0,0,1-.452.478,1.619,1.619,0,0,0-1.623-.243,4.455,4.455,0,0,0-1.606,1.344A.327.327,0,0,1,413.957,428.363Z" transform="translate(-413.571 -426.118)" fill="#fff"/>
                </g>
              </g>
            </g>
          </g>
          <path id="Path_1224" data-name="Path 1224" d="M408.9,287.872c-.032,1.077-.067,2.338-.106,3.758l-.01.327c-.535,18.7-1.85,63.647-2.586,78.9h-7.216s-.07-19.88-1.425-33c-.667-6.459-1.963-26.64-2.878-41.519-.016-.255-.032-.509-.048-.761q-.04-.647-.078-1.278c-.141-2.332-.274-4.5-.39-6.424Z" transform="translate(-394.161 -287.872)" fill="#29335c"/>
          <path id="Path_1225" data-name="Path 1225" d="M408.9,287.872c-.032,1.077-.067,2.338-.106,3.758a86.735,86.735,0,0,1-13.634,2.6c-.04.006-.083.009-.123.014l-.326.035-.158.016c-.141-2.332-.274-4.5-.39-6.424Z" transform="translate(-394.161 -287.872)" fill="#29335c"/>
          <g id="Group_5277" data-name="Group 5277" transform="translate(2.135)">
            <path id="Path_1226" data-name="Path 1226" d="M398.395,287.872h-.942c.669,13.487,1.725,33.357,2.527,41.634.822,8.491,1.62,31.933,1.917,41.347h.942c-.3-9.4-1.1-32.912-1.923-41.437C400.116,321.165,399.063,301.35,398.395,287.872Z" transform="translate(-397.453 -287.872)" fill="#cb2242"/>
            <path id="Path_1227" data-name="Path 1227" d="M408.938,411.8l-.325,3.3h-8.656l-.26-3.3Z" transform="translate(-398.241 -331.428)" fill="#cb2242"/>
          </g>
        </g>
        <path id="Path_1228" data-name="Path 1228" d="M367.212,218.626c-4.478,6.574-16.585,12.308-16.585,12.308a33.737,33.737,0,0,1-10.073-3.824,30.361,30.361,0,0,0,1.65-6.628c4.135,1.151,7.706,1.765,7.706,1.765,8.728-4.046,18.975-24.449,18.975-24.449C371.711,203.614,367.212,218.626,367.212,218.626Z" transform="translate(-329.609 -166.422)" fill="#5828a7"/>
        <g id="Group_5300" data-name="Group 5300" transform="translate(31.054)">
          <path id="Path_1229" data-name="Path 1229" d="M410.2,197.114c-3.629,3.223-10.08.362-13.474.249-6.076-.2-4.154-.113-9.471.809s-3.333-16.876-3.694-23.45c-.226-4.123-1.861-9.311-1.861-11.4V163.3c-.029-.346-.043-.692-.046-1.033-.042-5,3.044-14.144,13.9-12.691,0,0,9,1.027,10.029,9.826,0,0,.427,4.06.711,7,.8,8.323,3.873,3.985,2.889,14.129C408.857,183.883,414.447,193.346,410.2,197.114Z" transform="translate(-375.109 -149.419)" fill="#29245d"/>
          <g id="Group_5285" data-name="Group 5285" transform="translate(0 28.609)">
            <g id="Group_5284" data-name="Group 5284">
              <path id="Path_1230" data-name="Path 1230" d="M372.493,256.2c8.855,6.527,29.342.344,29.342.344,2.306-2.819-.9-9.261-1.835-16.8-.792-6.349.121-14.961,1.291-21.331.218-1.191.446-2.306.674-3.313,1.44-6.378,1.584-17.03,1.584-17.03-1.112-.571-2.9-1.337-4.72-2.075-1.13-.459-2.27-.907-3.264-1.294-1.765-.687-3.08-1.174-3.08-1.174l-7.305,1.12-1.44.44-2.376.725-1.581.482s-1.123,7.213-2.191,11.592a17.728,17.728,0,0,1-.846,2.757c-1.22,2.647-.918,3.928.364,7.431a11.36,11.36,0,0,1,.607,2.669c.029.239.049.482.064.73.187,2.96-.394,6.631-1.355,11.6-1.123,5.8-3.861,16.989-4.8,20.792A2.233,2.233,0,0,0,372.493,256.2Z" transform="translate(-371.56 -193.531)" fill="#7c36d5"/>
              <g id="Group_5283" data-name="Group 5283" transform="translate(6.157 11.053)">
                <g id="Group_5279" data-name="Group 5279" transform="translate(0 16.164)">
                  <path id="Path_1231" data-name="Path 1231" d="M381.053,235.5c.029.239.049.482.064.73,3.636,3.077,9.9,7.277,17.052,7.277a.256.256,0,0,0,0-.512C390.905,242.992,384.553,238.546,381.053,235.5Z" transform="translate(-381.053 -235.497)" fill="#5828a7"/>
                </g>
                <g id="Group_5280" data-name="Group 5280" transform="translate(6.767)">
                  <path id="Path_1232" data-name="Path 1232" d="M392.074,215.027c3.632,0,6.983-3.861,7.128-4.03a.256.256,0,1,0-.389-.333c-.035.041-3.544,4.084-7.051,3.84a.256.256,0,1,0-.036.511C391.842,215.023,391.958,215.027,392.074,215.027Z" transform="translate(-391.487 -210.574)" fill="#5828a7"/>
                </g>
                <g id="Group_5281" data-name="Group 5281" transform="translate(2.06 23)">
                  <path id="Path_1233" data-name="Path 1233" d="M398.012,264.231a.256.256,0,0,0,.029-.511c-9.382-1.08-13.268-17.319-13.306-17.483a.256.256,0,0,0-.5.116c.16.684,4.01,16.755,13.747,17.876Z" transform="translate(-384.229 -246.038)" fill="#5828a7"/>
                </g>
                <g id="Group_5282" data-name="Group 5282" transform="translate(5.993 27.929)">
                  <path id="Path_1234" data-name="Path 1234" d="M396.408,261.987a.257.257,0,0,0,.135-.475,12.112,12.112,0,0,1-5.739-7.657.256.256,0,0,0-.507.077,12.393,12.393,0,0,0,5.976,8.017A.253.253,0,0,0,396.408,261.987Z" transform="translate(-390.294 -253.638)" fill="#5828a7"/>
                </g>
              </g>
            </g>
          </g>
          <g id="Group_5299" data-name="Group 5299" transform="translate(7.203 4.288)">
            <g id="Group_5293" data-name="Group 5293">
              <g id="Group_5289" data-name="Group 5289" transform="translate(0 9.213)">
                <path id="Path_1235" data-name="Path 1235" d="M385.744,171.218s-1.55-1.964-2.7-.34.477,6.421,3.3,5.249Z" transform="translate(-382.667 -170.235)" fill="#fd896b"/>
                <path id="Path_1236" data-name="Path 1236" d="M385.824,178.528a.516.516,0,1,1-.516-.516A.516.516,0,0,1,385.824,178.528Z" transform="translate(-383.414 -172.969)" fill="#fff"/>
                <g id="Group_5287" data-name="Group 5287" transform="translate(0.605 1.719)">
                  <g id="Group_5286" data-name="Group 5286">
                    <path id="Path_1237" data-name="Path 1237" d="M386.052,175.578a.237.237,0,0,1-.23-.165,3.609,3.609,0,0,0-2.068-2.087.224.224,0,0,1-.138-.292.242.242,0,0,1,.307-.132,4.022,4.022,0,0,1,2.358,2.389.225.225,0,0,1-.165.28A.242.242,0,0,1,386.052,175.578Z" transform="translate(-383.6 -172.886)" fill="#d65c48"/>
                  </g>
                </g>
                <g id="Group_5288" data-name="Group 5288" transform="translate(1.189 2.61)">
                  <path id="Path_1238" data-name="Path 1238" d="M384.738,175.314a.247.247,0,0,1-.129-.036.22.22,0,0,1-.071-.313,2.155,2.155,0,0,1,.895-.686.243.243,0,0,1,.315.115.222.222,0,0,1-.12.3,1.7,1.7,0,0,0-.689.518A.244.244,0,0,1,384.738,175.314Z" transform="translate(-384.5 -174.259)" fill="#d65c48"/>
                </g>
              </g>
              <path id="Path_1239" data-name="Path 1239" d="M401.643,187.221v5.29s-2.735,2.7-4.869,2.887-2.868-2.33-2.868-2.33v-5.476Z" transform="translate(-386.617 -166.992)" fill="#fda893"/>
              <path id="Path_1240" data-name="Path 1240" d="M401.643,188.11v2.347c-1.432,1.589-3.974,2.152-7.736,1.6v-3.571Z" transform="translate(-386.617 -167.305)" fill="#fd896b"/>
              <path id="Path_1241" data-name="Path 1241" d="M385.838,168.91c.068.568.148,1.147.25,1.722.676,3.826,3.1,7.959,6.152,8.652,6.6,1.5,9.338-3.685,10.394-7.508.117-.425-.1-.911-.01-1.414a38.557,38.557,0,0,0,.809-3.88c.075-.925.129-1.837.168-2.662a5.405,5.405,0,0,0-3.345-5.3c-3.034-1.207-7.64-2.162-12,.4a5.454,5.454,0,0,0-2.66,4.611A40.974,40.974,0,0,0,385.838,168.91Z" transform="translate(-383.693 -156.477)" fill="#fda893"/>
              <g id="Group_5291" data-name="Group 5291" transform="translate(8.661 11.161)">
                <g id="Group_5290" data-name="Group 5290">
                  <path id="Path_1242" data-name="Path 1242" d="M397.557,177.471a.256.256,0,0,0,.043-.509l-.881-.148,1.213-3.229a.256.256,0,0,0-.48-.18l-1.431,3.812,1.494.251A.314.314,0,0,0,397.557,177.471Z" transform="translate(-396.021 -173.239)" fill="#fd896b"/>
                </g>
              </g>
              <path id="Path_1243" data-name="Path 1243" d="M404.145,162.673c-.042.841-.1,1.772-.176,2.714-.43.255-1.474.371-1.519,1.058-.116,1.821-.2,3.066-.586,2.957-.639-.185-1.038-2.389-.305-3.813,0,0-.589-.96-2.992-1.887a46.36,46.36,0,0,1-6.05-2.946,5.557,5.557,0,0,1-1.619-1.474,5.464,5.464,0,0,1-2.671,2.734c-1.651.753-1.91,2.28-2.111,3.683-.022.163-.044.324-.068.481a4.771,4.771,0,0,1-.452,1.614c-.056.1-.115.118-.177.067-.078-.641-.134-1.275-.175-1.886-.011-.165-.02-.328-.03-.488-.06-1.149-.069-2.213-.051-3.109a5.524,5.524,0,0,1,2.8-4.7c4.6-2.609,9.454-1.636,12.654-.406A5.5,5.5,0,0,1,404.145,162.673Z" transform="translate(-383.541 -156.03)" fill="#29245d"/>
              <path id="Path_1244" data-name="Path 1244" d="M392.7,172.622c0,.565-.291,1.022-.65,1.022s-.65-.457-.65-1.022.291-1.022.65-1.022S392.7,172.057,392.7,172.622Z" transform="translate(-385.737 -161.502)" fill="#29245d"/>
              <path id="Path_1245" data-name="Path 1245" d="M403.889,172.622c0,.565-.291,1.022-.65,1.022s-.65-.457-.65-1.022.291-1.022.65-1.022S403.889,172.057,403.889,172.622Z" transform="translate(-389.669 -161.502)" fill="#29245d"/>
              <path id="Path_1246" data-name="Path 1246" d="M389.525,168.913a12.493,12.493,0,0,1,2.705-.23c.3.01.533.234.492.47v.006a.417.417,0,0,1-.472.3,14.2,14.2,0,0,0-3.707.233.484.484,0,0,1,.2-.4A1.568,1.568,0,0,1,389.525,168.913Z" transform="translate(-384.731 -160.475)" fill="#29245d"/>
              <path id="Path_1247" data-name="Path 1247" d="M404.436,169.085a12.462,12.462,0,0,0-2.7-.267c-.3.006-.537.226-.5.462v.006a.416.416,0,0,0,.466.3,14.217,14.217,0,0,1,3.7.283.486.486,0,0,0-.191-.407A1.568,1.568,0,0,0,404.436,169.085Z" transform="translate(-389.192 -160.524)" fill="#29245d"/>
              <path id="Path_1248" data-name="Path 1248" d="M394.009,182.118a2.913,2.913,0,0,0,2.949,2.551,2.8,2.8,0,0,0,2.935-2.551Z" transform="translate(-386.653 -165.199)" fill="#fff"/>
              <g id="Group_5292" data-name="Group 5292" transform="translate(8.976 20.206)">
                <path id="Path_1249" data-name="Path 1249" d="M397.8,188a2.511,2.511,0,0,1-1.178-.344.251.251,0,0,1,.264-.428h0a2.022,2.022,0,0,0,.914.27,2.132,2.132,0,0,0,.966-.271.251.251,0,0,1,.259.431A2.631,2.631,0,0,1,397.8,188Z" transform="translate(-396.507 -187.186)" fill="#fd896b"/>
              </g>
            </g>
            <g id="Group_5298" data-name="Group 5298" transform="translate(18.793 8.999)">
              <path id="Path_1250" data-name="Path 1250" d="M411.822,171.087s1.8-2.187,2.866-.61-.44,6.234-3.044,5.1Z" transform="translate(-411.644 -169.905)" fill="#fda893"/>
              <path id="Path_1251" data-name="Path 1251" d="M413.609,178.528a.516.516,0,1,1-.516-.516A.516.516,0,0,1,413.609,178.528Z" transform="translate(-411.972 -172.754)" fill="#fff"/>
              <g id="Group_5294" data-name="Group 5294" transform="translate(0.348 1.616)">
                <path id="Path_1252" data-name="Path 1252" d="M412.4,175.011a.22.22,0,0,0,.211-.161,3.4,3.4,0,0,1,1.908-2.027.22.22,0,0,0-.156-.412,3.79,3.79,0,0,0-2.176,2.32.22.22,0,0,0,.152.271A.233.233,0,0,0,412.4,175.011Z" transform="translate(-412.181 -172.397)" fill="#fd896b"/>
              </g>
              <g id="Group_5297" data-name="Group 5297" transform="translate(1.121 2.481)">
                <g id="Group_5296" data-name="Group 5296">
                  <g id="Group_5295" data-name="Group 5295">
                    <path id="Path_1253" data-name="Path 1253" d="M414.324,174.755a.224.224,0,0,0,.119-.035.22.22,0,0,0,.065-.3,2.011,2.011,0,0,0-.826-.666.22.22,0,0,0-.18.4,1.6,1.6,0,0,1,.636.5A.22.22,0,0,0,414.324,174.755Z" transform="translate(-413.373 -173.73)" fill="#fd896b"/>
                  </g>
                </g>
              </g>
            </g>
          </g>
        </g>
        <g id="Group_5317" data-name="Group 5317" transform="translate(0.561 26.384)">
          <circle id="Ellipse_39" data-name="Ellipse 39" cx="26.371" cy="26.371" r="26.371" transform="translate(0 3.691) rotate(-4.013)" fill="#29245d"/>
          <g id="Group_5316" data-name="Group 5316" transform="translate(6.276 6.184)">
            <path id="Path_1254" data-name="Path 1254" d="M377.176,215.9a21.816,21.816,0,0,1-15.539,26.686,22.01,22.01,0,0,1-3.319.611,21.585,21.585,0,0,1-5.336-.1q-.5-.071-.987-.165a21.751,21.751,0,0,1-6.919-2.589q-.525-.306-1.03-.638a21.772,21.772,0,0,1-7.556-8.539,21.959,21.959,0,0,1-1.54-4.12,21.816,21.816,0,0,1,15.539-26.686,21.941,21.941,0,0,1,4.343-.695,21.777,21.777,0,0,1,11.156,2.356q.538.275,1.063.581a21.765,21.765,0,0,1,5.667,4.739q.323.38.63.778a21.607,21.607,0,0,1,2.721,4.592A22,22,0,0,1,377.176,215.9Z" transform="translate(-334.221 -199.635)" fill="#fceaf9"/>
            <g id="Group_5315" data-name="Group 5315" transform="translate(4.617 4.617)">
              <g id="Group_5303" data-name="Group 5303" transform="translate(12.408)">
                <g id="Group_5301" data-name="Group 5301">
                  <path id="Path_1255" data-name="Path 1255" d="M361.791,210.726h0a.367.367,0,0,1-.449-.261l-.858-3.25a.367.367,0,0,1,.261-.449h0a.368.368,0,0,1,.449.261l.858,3.25A.368.368,0,0,1,361.791,210.726Z" transform="translate(-360.471 -206.753)" fill="#0c375a"/>
                </g>
                <g id="Group_5302" data-name="Group 5302" transform="translate(8.043 30.467)">
                  <path id="Path_1256" data-name="Path 1256" d="M374.193,257.7h0a.368.368,0,0,1-.449-.261l-.858-3.25a.368.368,0,0,1,.262-.449h0a.368.368,0,0,1,.449.261l.858,3.25A.368.368,0,0,1,374.193,257.7Z" transform="translate(-372.873 -253.731)" fill="#0c375a"/>
                </g>
              </g>
              <g id="Group_5306" data-name="Group 5306" transform="translate(0 12.408)">
                <g id="Group_5304" data-name="Group 5304" transform="translate(0 8.043)">
                  <path id="Path_1257" data-name="Path 1257" d="M345.312,238.561h0a.367.367,0,0,1-.261.449l-3.25.858a.367.367,0,0,1-.449-.261h0a.368.368,0,0,1,.261-.449l3.25-.858A.368.368,0,0,1,345.312,238.561Z" transform="translate(-341.339 -238.287)" fill="#0c375a"/>
                </g>
                <g id="Group_5305" data-name="Group 5305" transform="translate(30.467)">
                  <path id="Path_1258" data-name="Path 1258" d="M392.29,226.159h0a.368.368,0,0,1-.261.449l-3.25.858a.368.368,0,0,1-.449-.262h0a.367.367,0,0,1,.261-.449l3.25-.858A.367.367,0,0,1,392.29,226.159Z" transform="translate(-388.317 -225.885)" fill="#0c375a"/>
                </g>
              </g>
              <g id="Group_5309" data-name="Group 5309" transform="translate(8.085 1.656)">
                <g id="Group_5307" data-name="Group 5307" transform="translate(15.721)">
                  <rect id="Rectangle_1053" data-name="Rectangle 1053" width="4.096" height="0.735" transform="matrix(0.503, -0.864, 0.864, 0.503, 0, 3.54)" fill="#0c375a"/>
                </g>
                <g id="Group_5308" data-name="Group 5308" transform="translate(0 27.366)">
                  <path id="Path_1259" data-name="Path 1259" d="M353.988,255.092h0a.368.368,0,0,1-.133-.5l1.691-2.9a.368.368,0,0,1,.5-.133h0a.368.368,0,0,1,.133.5l-1.691,2.9A.367.367,0,0,1,353.988,255.092Z" transform="translate(-353.805 -251.502)" fill="#0c375a"/>
                </g>
              </g>
              <g id="Group_5312" data-name="Group 5312" transform="translate(1.791 8.085)">
                <g id="Group_5310" data-name="Group 5310">
                  <path id="Path_1260" data-name="Path 1260" d="M347.69,221.463h0a.367.367,0,0,1-.5.132l-2.9-1.691a.368.368,0,0,1-.133-.5h0a.367.367,0,0,1,.5-.132l2.9,1.691A.368.368,0,0,1,347.69,221.463Z" transform="translate(-344.1 -219.219)" fill="#0c375a"/>
                </g>
                <g id="Group_5311" data-name="Group 5311" transform="translate(27.231 15.856)">
                  <path id="Path_1261" data-name="Path 1261" d="M389.678,245.912h0a.368.368,0,0,1-.5.133l-2.9-1.691a.368.368,0,0,1-.133-.5h0a.368.368,0,0,1,.5-.133l2.9,1.691A.367.367,0,0,1,389.678,245.912Z" transform="translate(-386.088 -243.668)" fill="#0c375a"/>
                </g>
              </g>
              <g id="Group_5313" data-name="Group 5313" transform="translate(16.897 16.791)">
                <path id="Path_1262" data-name="Path 1262" d="M374.492,234.1l-7.1-.834.073-.626,7.1.834a.315.315,0,0,1,.276.35h0A.315.315,0,0,1,374.492,234.1Z" transform="translate(-367.392 -232.644)" fill="#fa5f2d"/>
              </g>
              <g id="Group_5314" data-name="Group 5314" transform="translate(6.444 8.313)">
                <path id="Path_1263" data-name="Path 1263" d="M362.442,228.709l-10.772,2.844a.315.315,0,0,1-.385-.224h0a.315.315,0,0,1,.224-.385l10.163-2.683-2.19-8.294a.314.314,0,0,1,.224-.385h0a.314.314,0,0,1,.385.224Z" transform="translate(-351.275 -219.572)" fill="#0c375a"/>
              </g>
            </g>
            <path id="Path_1264" data-name="Path 1264" d="M367.218,202.027,345.277,239.71a21.772,21.772,0,0,1-7.556-8.539l18.342-31.5a21.776,21.776,0,0,1,11.156,2.356Z" transform="translate(-335.451 -199.635)" fill="#fff" opacity="0.5"/>
            <path id="Path_1265" data-name="Path 1265" d="M385.7,216.9,367.95,247.38a21.584,21.584,0,0,1-5.336-.1q-.5-.071-.987-.165l20.723-35.59q.323.38.63.778A21.605,21.605,0,0,1,385.7,216.9Z" transform="translate(-343.853 -203.814)" fill="#fff" opacity="0.5"/>
          </g>
        </g>
        <path id="Path_1266" data-name="Path 1266" d="M324.724,229.478s2.835.213,3.755,1.178-2.948,1.282-2.948,1.282,4.675-.348,4.971.753-4.235,1.568-4.235,1.568,3.2.246,3.514,1.068-2.987,1.3-2.987,1.3,2.518.453,2.823,1.049-2.428,1.328-3.9,1.193-.882-2.029-.882-2.029-.737-1.592-.253-2.258c0,0-.879-1.393-.587-2.294C324,232.286,322.919,229.955,324.724,229.478Z" transform="translate(-323.678 -177.556)" fill="#fda893"/>
        <g id="Group_5323" data-name="Group 5323" transform="translate(22.274 33.152)">
          <path id="Path_1267" data-name="Path 1267" d="M368.711,263.766l-.995.5a2.435,2.435,0,0,1-2.63-.325,14.556,14.556,0,0,0-1.2-.921,6.17,6.17,0,0,0-3.065-.576c-.492.209.043,1.049.575,1.267a8.971,8.971,0,0,1,1.872.848c.561.4-1.487,2.835-2.416,3.629s-3.077,1.166-2.814,2.136,1.724.394,1.724.394-.008,1,1.481,1.068a1.2,1.2,0,0,0,1.143.914,1.339,1.339,0,0,0,1.411.844c1-.181,4.111-.765,7.8-6.686Z" transform="translate(-358.022 -222.275)" fill="#fda893"/>
          <g id="Group_5322" data-name="Group 5322" transform="translate(10.689)">
            <g id="Group_5321" data-name="Group 5321">
              <g id="Group_5320" data-name="Group 5320">
                <g id="Group_5319" data-name="Group 5319">
                  <g id="Group_5318" data-name="Group 5318">
                    <path id="Path_1268" data-name="Path 1268" d="M396.951,219a35.116,35.116,0,0,1-4.415,12.46s-3.588,2.132-9.074,5.772a74.285,74.285,0,0,1-8.958,4.8c1,1.3,2.184,3.957,1.8,4.725,11.043-2.477,21.891-9.722,21.891-9.722,8.629-10.007,8.462-32.34,8.462-32.34s-.28-3.313-2.072-4.155a8.779,8.779,0,0,0-4.87,5.587C398.456,210.363,396.951,219,396.951,219Z" transform="translate(-374.504 -200.536)" fill="#5828a7"/>
                  </g>
                </g>
              </g>
            </g>
          </g>
        </g>
        <g id="Group_5329" data-name="Group 5329" transform="translate(39.93 13.576)">
          <g id="Group_5324" data-name="Group 5324" transform="translate(9.38 0.2)">
            <path id="Path_1269" data-name="Path 1269" d="M399.709,171.812v.438a3.274,3.274,0,0,0,3.265,3.278h.107a2.953,2.953,0,0,0,2.033-.9,3.219,3.219,0,0,0,.944-2.3v-.518a1.172,1.172,0,0,0-.337-.813,1.148,1.148,0,0,0-.813-.337H400.86a1.148,1.148,0,0,0-1.038.656,1.121,1.121,0,0,0-.112.465A.232.232,0,0,0,399.709,171.812Zm.477,0a.673.673,0,0,1,.673-.673h4.048a.673.673,0,0,1,.673.673v.518a2.733,2.733,0,0,1-.8,1.957,2.489,2.489,0,0,1-1.708.764h-.1a2.8,2.8,0,0,1-2.788-2.8Z" transform="translate(-399.709 -170.661)" fill="#fff"/>
          </g>
          <g id="Group_5325" data-name="Group 5325" transform="translate(1.276 0.2)">
            <path id="Path_1270" data-name="Path 1270" d="M387.214,171.812v.438a3.273,3.273,0,0,0,3.265,3.278h.108a2.948,2.948,0,0,0,2.031-.9,3.221,3.221,0,0,0,.946-2.3v-.518a.084.084,0,0,0,0-.022,1.106,1.106,0,0,0-.1-.441,1.149,1.149,0,0,0-1.052-.687h-4.049a1.154,1.154,0,0,0-.885.415,1.133,1.133,0,0,0-.221.427A1.063,1.063,0,0,0,387.214,171.812Zm.477,0a.673.673,0,0,1,.673-.673h4.049a.674.674,0,0,1,.673.673v.518a2.741,2.741,0,0,1-.8,1.957,2.489,2.489,0,0,1-1.708.764h-.1a2.8,2.8,0,0,1-2.788-2.8Z" transform="translate(-387.214 -170.661)" fill="#fff"/>
          </g>
          <g id="Group_5326" data-name="Group 5326" transform="translate(15.458)">
            <path id="Path_1271" data-name="Path 1271" d="M411.948,170.352a5.609,5.609,0,0,0-2.456.538c-.108.053-.4.24-.411.248l.228.405s.32-.191.444-.248a4.8,4.8,0,0,1,1.534-.435Z" transform="translate(-409.081 -170.352)" fill="#fff"/>
          </g>
          <g id="Group_5327" data-name="Group 5327" transform="translate(7.113 0.678)">
            <path id="Path_1272" data-name="Path 1272" d="M398.8,172.088l.157-.451a4.888,4.888,0,0,0-1.435-.24,3.211,3.211,0,0,0-1.309.251l.208.429a2.8,2.8,0,0,1,1.1-.2A4.438,4.438,0,0,1,398.8,172.088Z" transform="translate(-396.214 -171.397)" fill="#fff"/>
          </g>
          <g id="Group_5328" data-name="Group 5328" transform="translate(0 0.169)">
            <path id="Path_1273" data-name="Path 1273" d="M386.976,171.146l-.21.428a6.39,6.39,0,0,0-1.49-.473c-.011-.165-.02-.328-.03-.488a6.6,6.6,0,0,1,1.73.533Z" transform="translate(-385.246 -170.613)" fill="#fff"/>
          </g>
        </g>
      </g>
      <g id="Group_5359" data-name="Group 5359" transform="translate(142.188 47.804)">
        <path id="Path_1274" data-name="Path 1274" d="M236.869,148.482c-.012-.39,1.136-1.164,2.263-1.83-.021-.04-.043-.081-.064-.123-1.619.735-4.441,1.9-4.375,1.041.043-.56,2.425-1.63,3.878-2.232-.029-.078-.056-.158-.083-.237-1.741.692-5.162,1.935-5.037.97.084-.644,3.079-1.762,4.631-2.3-.02-.071-.039-.142-.058-.211-1.5.527-4.411,1.432-4.286.471.113-.87,4.673-2.021,4.673-2.021h0l1.65-.64s-.142-.6-1.462-.706-2.087-.846-.5-1.121c1.793-.31,3.454-.029,4.695-.285a3.57,3.57,0,0,1,2.554.869l1.9,2.814s-4.2,3.952-7.142,4.57h0C238.67,148.308,236.889,149.161,236.869,148.482Z" transform="translate(-214.794 -79.932)" fill="#fda893"/>
        <g id="Group_5331" data-name="Group 5331" transform="translate(0 30.228)">
          <path id="Path_1275" data-name="Path 1275" d="M231.021,94.413l-8.883,24.431,7.222.005,5.372-10.452S234.175,96.093,231.021,94.413Z" transform="translate(-210.819 -94.413)" fill="#9978eb"/>
          <path id="Path_1276" data-name="Path 1276" d="M213.969,130.092s-.622,2.682-1.682,3.421-.793-3.012-.793-3.012-.357,4.527-1.454,4.648-.876-4.286-.876-4.286-.709,3.03-1.54,3.207-.8-3.051-.8-3.051-.806,2.345-1.421,2.549-.914-2.52-.567-3.907,2.073-.545,2.073-.545,1.632-.471,2.2.091c0,0,1.464-.636,2.283-.224C211.387,128.983,213.777,128.293,213.969,130.092Z" transform="translate(-204.686 -106.514)" fill="#fda893"/>
        </g>
        <path id="Path_1277" data-name="Path 1277" d="M250.229,72.49Q243.382,74.9,236.493,77.2a4.719,4.719,0,0,1-5.835-2.664l-.015-.035c-1.528-3.635-4.664-7.775-5.334-9.651l-.009-.025c-.136-.3-.261-.608-.373-.914-1.644-4.487-1.806-13.7,8.419-15.875,0,0,8.427-1.968,12.175,5.614,0,0,1.688,3.513,2.887,6.065,1.368,2.911,2.407,3.857,3.315,4.565a4.711,4.711,0,0,1-1.33,8.155Z" transform="translate(-211.505 -47.804)" fill="#29245d"/>
        <g id="Group_5338" data-name="Group 5338" transform="translate(20.202 26.356)">
          <g id="Group_5332" data-name="Group 5332">
            <path id="Path_1278" data-name="Path 1278" d="M239.389,116.75c.069-3.463.226-1.236-.379-5.435-.019-.164-.04-.333-.06-.5-.056-.1-.108-.189-.158-.283a15.717,15.717,0,0,1-1.741-3.786c-1.006-3.774-.252-6.17.021-8.543-.221-1.1-.992-4.8-1.237-5.889l4.838-1.866,1.008-.388.06-.023v0l1.031-.4.079-.029a17.379,17.379,0,0,1,7.321-1.134c.164.01.324.021.488.037l1.85.164.071.006,1.187.106,6.872.611.508,27.351Z" transform="translate(-235.835 -88.441)" fill="#7c36d5"/>
          </g>
          <g id="Group_5335" data-name="Group 5335" transform="translate(4.837 0)">
            <g id="Group_5334" data-name="Group 5334">
              <g id="Group_5333" data-name="Group 5333">
                <path id="Path_1279" data-name="Path 1279" d="M256.387,88.787c-2.243,4.522-7.738,9.576-10.553,8.016-1.732-.957-2.439-4.1-2.541-6.355l1.009-.387.061-.023v0l1.03-.4.078-.03a17.4,17.4,0,0,1,7.322-1.134l.256.035.232.029,1.851.138.071.005Z" transform="translate(-243.293 -88.442)" fill="#fda893"/>
              </g>
            </g>
          </g>
          <g id="Group_5337" data-name="Group 5337" transform="translate(2.957 20.737)">
            <g id="Group_5336" data-name="Group 5336">
              <path id="Path_1280" data-name="Path 1280" d="M240.552,122.053c.021.167.043.333.062.5,1.191.255,4.934.78,11.294-.743.824-.2,1.694-.43,2.607-.7a.352.352,0,1,0-.2-.676c-9.176,2.725-13.86,1.357-13.907,1.344l-.013,0C240.446,121.863,240.5,121.957,240.552,122.053Z" transform="translate(-240.395 -120.416)" fill="#5828a7"/>
            </g>
          </g>
        </g>
        <g id="Group_5352" data-name="Group 5352" transform="translate(14.486 3.827)">
          <g id="Group_5346" data-name="Group 5346">
            <g id="Group_5342" data-name="Group 5342" transform="translate(0.22 12.125)">
              <path id="Path_1281" data-name="Path 1281" d="M229.959,72.828s-2.025-1.268-2.54.562,2.491,5.62,4.653,3.661Z" transform="translate(-227.361 -72.401)" fill="#fd896b"/>
              <path id="Path_1282" data-name="Path 1282" d="M232.191,79.558a.492.492,0,1,1-.629-.3A.492.492,0,0,1,232.191,79.558Z" transform="translate(-228.722 -74.801)" fill="#fff"/>
              <g id="Group_5339" data-name="Group 5339" transform="translate(0.673 1.793)">
                <path id="Path_1283" data-name="Path 1283" d="M231.406,76.888a.227.227,0,0,1-.259-.075,3.443,3.443,0,0,0-2.53-1.212.214.214,0,0,1-.218-.219.232.232,0,0,1,.234-.217,3.839,3.839,0,0,1,2.887,1.39.215.215,0,0,1-.058.3A.239.239,0,0,1,231.406,76.888Z" transform="translate(-228.399 -75.165)" fill="#d65c48"/>
              </g>
              <g id="Group_5341" data-name="Group 5341" transform="translate(1.677 2.152)">
                <g id="Group_5340" data-name="Group 5340">
                  <path id="Path_1284" data-name="Path 1284" d="M230.245,76.935a.228.228,0,0,1-.127.008.21.21,0,0,1-.165-.259,2.047,2.047,0,0,1,.584-.9.233.233,0,0,1,.32,0,.213.213,0,0,1-.012.308,1.638,1.638,0,0,0-.453.686A.231.231,0,0,1,230.245,76.935Z" transform="translate(-229.946 -75.718)" fill="#d65c48"/>
                </g>
              </g>
            </g>
            <path id="Path_1285" data-name="Path 1285" d="M249.2,81.053l1.89,5.291s-1.782,2.776-3.641,3.626S244.12,88.8,244.12,88.8l-1.759-4.924Z" transform="translate(-232.413 -63.317)" fill="#fda893"/>
            <path id="Path_1286" data-name="Path 1286" d="M249.484,81.852l.754,2.111c-.777,1.888-2.881,3.21-6.443,3.92l-1.147-3.212Z" transform="translate(-232.514 -63.597)" fill="#fd896b"/>
            <path id="Path_1287" data-name="Path 1287" d="M229.977,69.045c.244.489.5.983.778,1.468,1.837,3.223,5.34,6.162,8.311,5.8,6.414-.773,7.214-6.314,6.934-10.091-.032-.42-.385-.787-.463-1.269a36.8,36.8,0,0,0-.518-3.749c-.23-.856-.475-1.694-.7-2.448a5.161,5.161,0,0,0-4.709-3.688c-3.115-.111-7.564.51-10.665,4.212a5.207,5.207,0,0,0-.911,5A39.078,39.078,0,0,0,229.977,69.045Z" transform="translate(-227.279 -54.182)" fill="#fda893"/>
            <g id="Group_5344" data-name="Group 5344" transform="translate(9.427 11.075)">
              <g id="Group_5343" data-name="Group 5343">
                <path id="Path_1288" data-name="Path 1288" d="M243.021,74.645a.245.245,0,0,0-.126-.471l-.839.15.053-3.293a.245.245,0,1,0-.49-.008l-.062,3.887,1.424-.254A.252.252,0,0,0,243.021,74.645Z" transform="translate(-241.558 -70.781)" fill="#fd896b"/>
              </g>
            </g>
            <path id="Path_1289" data-name="Path 1289" d="M229.935,61.956c-1.942,1.887-.22,4.379-.51,6.041-.018.108-.065.143-.137.117a38.368,38.368,0,0,1-1.992-4.849,5.277,5.277,0,0,1,1.011-5.126c3.3-3.823,7.977-4.507,11.248-4.428a5.253,5.253,0,0,1,4.9,3.723c.233.769.481,1.623.713,2.5-.3.367-1.206.807-1.024,1.44.48,1.674.8,2.822.423,2.846-.636.04-1.7-1.815-1.5-3.331,0,0-.839-.674-3.3-.735a44.3,44.3,0,0,1-6.387-.706,5.291,5.291,0,0,1-1.929-.8A5.222,5.222,0,0,1,229.935,61.956Z" transform="translate(-227.022 -53.705)" fill="#29245d"/>
            <path id="Path_1290" data-name="Path 1290" d="M236.855,71.9c.182.508.067,1.013-.256,1.128s-.732-.2-.913-.711-.067-1.013.256-1.128S236.673,71.4,236.855,71.9Z" transform="translate(-230.037 -59.843)" fill="#29245d"/>
            <path id="Path_1291" data-name="Path 1291" d="M246.595,68.424c.182.508.067,1.012-.256,1.128s-.732-.2-.913-.71-.067-1.013.256-1.128S246.413,67.916,246.595,68.424Z" transform="translate(-233.46 -58.62)" fill="#29245d"/>
            <path id="Path_1292" data-name="Path 1292" d="M232.516,69.174a11.9,11.9,0,0,1,2.358-1.076.44.44,0,0,1,.593.264v.005a.4.4,0,0,1-.328.418,13.576,13.576,0,0,0-3.26,1.4.464.464,0,0,1,.047-.427A1.5,1.5,0,0,1,232.516,69.174Z" transform="translate(-228.718 -58.754)" fill="#29245d"/>
            <path id="Path_1293" data-name="Path 1293" d="M245.883,64.757a11.936,11.936,0,0,0-2.516.627.441.441,0,0,0-.3.577l0,0a.4.4,0,0,0,.518.123,13.572,13.572,0,0,1,3.422-.935c-.018-.13-.145-.232-.3-.3A1.5,1.5,0,0,0,245.883,64.757Z" transform="translate(-232.649 -57.582)" fill="#29245d"/>
            <path id="Path_1294" data-name="Path 1294" d="M240.63,79.238a2.781,2.781,0,0,0,3.471,1.348,2.678,2.678,0,0,0,1.82-3.238Z" transform="translate(-231.805 -62.014)" fill="#fff"/>
            <g id="Group_5345" data-name="Group 5345" transform="translate(11.404 18.876)">
              <path id="Path_1295" data-name="Path 1295" d="M245.968,83.9a2.389,2.389,0,0,1-1.171.068.24.24,0,1,1,.1-.469h0a1.935,1.935,0,0,0,.909-.051,2.046,2.046,0,0,0,.781-.554.24.24,0,0,1,.372.3A2.5,2.5,0,0,1,245.968,83.9Z" transform="translate(-244.607 -82.811)" fill="#fd896b"/>
            </g>
          </g>
          <g id="Group_5351" data-name="Group 5351" transform="translate(17.105 5.698)">
            <path id="Path_1296" data-name="Path 1296" d="M253.4,64.226s.918-2.546,2.381-1.47,1.607,5.747-1.1,5.562Z" transform="translate(-253.397 -62.491)" fill="#fda893"/>
            <path id="Path_1297" data-name="Path 1297" d="M257.176,70.633a.492.492,0,1,1-.63-.3A.492.492,0,0,1,257.176,70.633Z" transform="translate(-254.389 -65.237)" fill="#fff"/>
            <g id="Group_5347" data-name="Group 5347" transform="translate(1.042 1.332)">
              <path id="Path_1298" data-name="Path 1298" d="M255.292,67.563a.21.21,0,0,0,.139-.212,3.247,3.247,0,0,1,1.065-2.435.21.21,0,0,0-.272-.32,3.62,3.62,0,0,0-1.212,2.785.211.211,0,0,0,.224.2A.23.23,0,0,0,255.292,67.563Z" transform="translate(-255.004 -64.545)" fill="#fd896b"/>
            </g>
            <g id="Group_5350" data-name="Group 5350" transform="translate(1.324 2.517)">
              <g id="Group_5349" data-name="Group 5349">
                <g id="Group_5348" data-name="Group 5348">
                  <path id="Path_1299" data-name="Path 1299" d="M256.564,67.07a.21.21,0,0,0,.057-.364,1.923,1.923,0,0,0-.957-.333.21.21,0,1,0-.032.419,1.524,1.524,0,0,1,.733.248A.21.21,0,0,0,256.564,67.07Z" transform="translate(-255.438 -66.372)" fill="#fd896b"/>
                </g>
              </g>
            </g>
          </g>
        </g>
        <g id="Group_5358" data-name="Group 5358" transform="translate(29.644 27.313)">
          <g id="Group_5357" data-name="Group 5357">
            <g id="Group_5356" data-name="Group 5356">
              <g id="Group_5355" data-name="Group 5355">
                <g id="Group_5354" data-name="Group 5354">
                  <g id="Group_5353" data-name="Group 5353">
                    <path id="Path_1300" data-name="Path 1300" d="M252.019,126.647s10.213-1.3,23.573-9.375c0,0,.395-.133.394-.139h0c.274-4.107-2.323-11.012-4.137-17.054-1.2-4-2.778-8.809-6.092-10.159a12.677,12.677,0,0,0-1.736,4.973,25.649,25.649,0,0,0,1.426,8.965c.936,2.791,1.59,6.357,2.446,9.146l.082.381c-.105.027-3.638,1.987-8.461,4.208-5.284,2.434-9.119,4.629-9.119,4.629C252.1,123.756,252.019,126.647,252.019,126.647Z" transform="translate(-250.394 -89.918)" fill="#9978eb"/>
                  </g>
                </g>
              </g>
            </g>
          </g>
        </g>
      </g>
    </g>
  </g>
</svg>
