<svg xmlns="http://www.w3.org/2000/svg" width="17.891" height="13" viewBox="0 0 17.891 13">
  <g id="noun_Travel_1831704" transform="translate(-6.26 -17.533)">
    <g id="Group_5054" data-name="Group 5054" transform="translate(6.26 17.533)">
      <path id="Path_1010" data-name="Path 1010" d="M23.414,17.77a1.332,1.332,0,0,0-1.273-.131L10.206,22.9,8.148,21.444a.666.666,0,0,0-.506.045L6.26,22.1l3.122,3.4v0l.011.012h0a1.384,1.384,0,0,0,1.568.381l4.406-1.942-.936,6.585,1.3-.573a.963.963,0,0,0,.567-.578l2.882-7.115,4.185-1.844a1.452,1.452,0,0,0,.641-1.945,1.691,1.691,0,0,0-.157-.28" transform="translate(-6.26 -17.533)" fill="#fff"/>
      <path id="Path_1011" data-name="Path 1011" d="M30.072,22.4l-4.163-1.678a.667.667,0,0,0-.506.045l-1.382.609L27.139,23.7Z" transform="translate(-20.168 -20.012)" fill="#fff"/>
    </g>
  </g>
</svg>
