<svg xmlns="http://www.w3.org/2000/svg" width="13.083" height="15.7" viewBox="0 0 13.083 15.7">
  <g id="washing-machine" transform="translate(-40)">
    <g id="Group_5105" data-name="Group 5105" transform="translate(40)">
      <g id="Group_5104" data-name="Group 5104">
        <path id="Path_1070" data-name="Path 1070" d="M100.606,137.386a4.71,4.71,0,1,0-4.3-2.779A4.71,4.71,0,0,0,100.606,137.386Zm-3.819-6.427a4.187,4.187,0,1,1,2.1,5.535A4.187,4.187,0,0,1,96.787,130.959Z" transform="translate(-94.064 -123.779)" fill="#29335c"/>
        <path id="Path_1071" data-name="Path 1071" d="M52.3,0H40.785A.785.785,0,0,0,40,.785v14.13a.785.785,0,0,0,.785.785H52.3a.785.785,0,0,0,.785-.785V.785A.785.785,0,0,0,52.3,0Zm.262,14.915a.262.262,0,0,1-.262.262H40.785a.262.262,0,0,1-.262-.262v-.262H52.56Zm0-.785H40.523V3.663H52.56Zm0-10.99H40.523V.785a.262.262,0,0,1,.262-.262H52.3a.262.262,0,0,1,.262.262Z" transform="translate(-40)" fill="#29335c"/>
        <path id="Path_1072" data-name="Path 1072" d="M131.663,167.327c.118,0,.236-.008.352-.019a3.584,3.584,0,0,0,1.027-.251l.079-.03c.026-.011.058-.026.086-.041.045-.021.091-.041.136-.064a3.665,3.665,0,0,0,1.578-4.937l-.015-.029a3.659,3.659,0,0,0-1.967-1.727l-.046-.018a3.657,3.657,0,0,0-.875-.192c-.117-.011-.235-.019-.353-.019a3.663,3.663,0,0,0,0,7.327Zm2.9-4.855v0c.006.014.013.028.019.042.014.035.026.07.037.1.026.075.051.151.071.227q.016.059.03.119c.018.078.032.157.043.236.005.036.012.072.016.109a2.955,2.955,0,0,1,0,.7c0,.036-.01.072-.016.108-.012.079-.026.159-.043.237-.009.04-.019.079-.03.119-.021.079-.045.153-.072.228-.012.035-.024.07-.037.1-.006.014-.013.028-.019.042a1.568,1.568,0,0,1,0-2.381ZM129,162a3.14,3.14,0,0,1,5.323,0,2.09,2.09,0,0,0,0,3.333A3.14,3.14,0,1,1,129,162Z" transform="translate(-125.122 -154.767)" fill="#29335c"/>
        <path id="Path_1073" data-name="Path 1073" d="M160.523,194.617a2.1,2.1,0,0,1,2.093-2.093.262.262,0,1,0,0-.523A2.62,2.62,0,0,0,160,194.617a.262.262,0,0,0,.523,0Z" transform="translate(-156.075 -185.72)" fill="#29335c"/>
        <path id="Path_1074" data-name="Path 1074" d="M297.308,40h-1.047a.262.262,0,0,0,0,.523h1.047a.262.262,0,1,0,0-.523Z" transform="translate(-287.627 -38.692)" fill="#29335c"/>
        <path id="Path_1075" data-name="Path 1075" d="M297.308,64h-1.047a.262.262,0,0,0,0,.523h1.047a.262.262,0,1,0,0-.523Z" transform="translate(-287.627 -61.907)" fill="#29335c"/>
        <path id="Path_1076" data-name="Path 1076" d="M145.308,40h-1.047a.262.262,0,1,0,0,.523h1.047a.262.262,0,1,0,0-.523Z" transform="translate(-140.598 -38.692)" fill="#29335c"/>
        <path id="Path_1077" data-name="Path 1077" d="M145.308,64h-1.047a.262.262,0,1,0,0,.523h1.047a.262.262,0,1,0,0-.523Z" transform="translate(-140.598 -61.907)" fill="#29335c"/>
        <path id="Path_1078" data-name="Path 1078" d="M361.308,40h-1.047a.262.262,0,0,0,0,.523h1.047a.262.262,0,1,0,0-.523Z" transform="translate(-349.533 -38.692)" fill="#29335c"/>
        <path id="Path_1079" data-name="Path 1079" d="M361.308,64h-1.047a.262.262,0,0,0,0,.523h1.047a.262.262,0,1,0,0-.523Z" transform="translate(-349.533 -61.907)" fill="#29335c"/>
        <path id="Path_1080" data-name="Path 1080" d="M225.047,24a1.047,1.047,0,1,0,1.047,1.047A1.047,1.047,0,0,0,225.047,24Zm0,1.57a.523.523,0,1,1,.523-.523A.523.523,0,0,1,225.047,25.57Z" transform="translate(-217.982 -23.215)" fill="#29335c"/>
        <path id="Path_1081" data-name="Path 1081" d="M73.047,24a1.047,1.047,0,1,0,1.047,1.047A1.047,1.047,0,0,0,73.047,24Zm0,1.57a.523.523,0,1,1,.523-.523A.523.523,0,0,1,73.047,25.57Z" transform="translate(-70.953 -23.215)" fill="#29335c"/>
      </g>
    </g>
  </g>
</svg>
