<svg xmlns="http://www.w3.org/2000/svg" width="12.69" height="16.25" viewBox="0 0 12.69 16.25">
  <g id="water-filter-water-purification-home-appliance-computer-icons-clip-png-black-and-white-water-filter-900_980" transform="translate(-82.681 962.125)">
    <path id="Path_1082" data-name="Path 1082" d="M83.624-961.988a1.324,1.324,0,0,0-.255.088c-.005.005-.044.039-.087.073-.07.056-.081.061-.093.034a.093.093,0,0,1-.01-.041c0-.02-.046-.029-.058-.01s-.005.014.005.008.029.012.046.041l.029.049-.08.093a.431.431,0,0,1-.093.093.012.012,0,0,0-.014.012c.005.032,0,.058-.015.049s-.014.005-.015.02a1.11,1.11,0,0,1-.031.122,2.233,2.233,0,0,0-.037.526,15.618,15.618,0,0,0,.08,1.756c.112,1.393.214,2.845.229,3.292.01.288.014.348.059,1.179.081,1.463.137,2.718.17,3.792.037,1.242.051,1.648.059,1.709l.008.064H83.09v-.551l-.139-.005-.141-.005v.421c0,.355-.011.413.006.413s.107.016.689.016v.848h-.7v.852l.136-.005c.117-.007.129-.005.093.015-.053.027-.053.032,0,.027l.056-.005c.008,0,.017-.02.017-.042s0-.039-.01-.036a1.911,1.911,0,0,1-.012-.265l0-.27h.422v.57l.11.109a.438.438,0,0,1,.1.12c0,.007,0,.019.012.025s.015.005.007-.012.01,0,.039.025.049.054.046.061.005.012.022.01.027.008.024.02,0,.019.008.017c.024-.008.209.143.2.161s0,.012.008.005.054.012.1.041a4.457,4.457,0,0,0,.777.372,1.669,1.669,0,0,0,.407.087c.12.01,1.522.017,3.782.017h3.589l.17-.058a4.879,4.879,0,0,0,.679-.288.963.963,0,0,1,.241-.1c.022.007.024.005.007-.008s-.01-.024.036-.053a.285.285,0,0,0,.066-.049c.012-.027.163-.137.175-.126s.008,0,.005-.007a.58.58,0,0,1,.214-.182c.008.005.01,0,.005-.007s.08-.158.105-.158c.007,0,.019-.417.025-.928s.019-1.3.027-1.753.02-1.055.025-1.34.014-.594.017-.687.02-.426.034-.738c.063-1.4.166-2.867.3-4.225.029-.294.056-.589.059-.653s.01-.161.014-.212.014-.156.02-.232a.34.34,0,0,1,.024-.132c.005,0,.008-.014.005-.039s.017-.244.046-.487.058-.48.063-.529c.007-.068.015-.085.034-.078s.022.005,0-.024-.01-.1.034-.414a6.715,6.715,0,0,0,.087-1.161,2.163,2.163,0,0,0-.092-.814.743.743,0,0,0-.205-.271.824.824,0,0,0-.261-.2L94.6-962l-5.469,0C86.127-962,83.648-961.992,83.624-961.988Zm11.037.339c.117.078.212.161.2.177s0,.015.01.015.014.007.008.017,0,.017.008.017.014.01,0,.032c-.02.041-.022.071,0,.037a5.244,5.244,0,0,1,.029,1.478,1.385,1.385,0,0,0-.019.234c.005.008,0,.017-.008.017s-.019.024-.014.068,0,.07-.005.071a.574.574,0,0,0-.02.141c-.005.075-.019.212-.031.307-.017.139-.027.171-.048.168s-.017,0-.005,0,.025.059,0,.209c-.1.679-.322,3.085-.348,3.716,0,.126-.024.47-.042.763-.12,1.905-.185,3.767-.214,6.091a5.159,5.159,0,0,1-.037.981,1.34,1.34,0,0,1-.256.224c-.008,0-.01-.019-.005-.042s.014-.039.029-.025.027.01.042-.008.017-.027-.027-.019l-.063.008c-.008,0-.01.024-.005.053s0,.058-.042.087-.056.031-.075.015-.022-.014-.017.015-.015.051-.11.112a.774.774,0,0,1-.309.151c-.01-.007-.014-.005-.008.005a.825.825,0,0,1-.322.134c-.014-.005-.02,0-.015.005.046.073-.584.085-4.469.085l-3.232,0-.158-.053a.433.433,0,0,1-.148-.066.021.021,0,0,0-.01-.027c-.014-.007-.015-.005-.008.007.017.027.008.025-.114-.015a1.368,1.368,0,0,1-.4-.2c-.183-.122-.47-.35-.373-.3.017.01.02.007.012-.007s-.019-.015-.025-.012a.453.453,0,0,1-.124-.105l-.112-.114-.01-1.451c-.007-.8-.015-1.515-.019-1.595s-.012-.389-.015-.687c-.024-1.429-.2-4.69-.383-7.007-.039-.5-.049-.657-.058-.874,0-.088-.02-.341-.037-.56-.022-.29-.031-.6-.031-1.145,0-.741,0-.874.029-.874.008,0,.008-.009,0-.019s0-.017.01-.012a.046.046,0,0,1,.031.031c.005.012,0,.017-.012.01s-.019-.005-.019,0,.017.015.039.014c.042,0,.058-.044.017-.044-.014,0-.019-.008-.012-.02s.005-.014-.007-.007c-.046.029-.031-.025.024-.081a.446.446,0,0,1,.4-.163c.114-.007,2.6-.014,5.535-.014l5.328,0Z" fill="#29335c" stroke="#29335c" stroke-width="0.25"/>
    <path id="Path_1083" data-name="Path 1083" d="M123.694-868.444c-.58.005-1.057.014-1.062.019a1.083,1.083,0,0,0,.027.209c.031.173.032.2.01.219s-.019.015.007.007.029,0,.029,0,.022.148.051.312c.061.368.078.58.048.565-.012-.007-.01,0,.005.012a13.164,13.164,0,0,1,.227,1.439c.075.567.188,1.634.2,1.909.005.093.024.356.042.585.036.446.075,1.052.1,1.612.008.192.022.881.027,1.532l.01,1.186.071.053c.039.031.119.09.18.134l.127.1a2.712,2.712,0,0,0,.351.173,2.352,2.352,0,0,0,.585.1c.109.008.833.017,1.608.017h1.41l.012.053a2.01,2.01,0,0,1,.01.226.889.889,0,0,0,.014.192,1.674,1.674,0,0,0,.445.025l.433.005.007-.237a2.335,2.335,0,0,1,.01-.243s.653-.014,1.446-.022c1.705-.017,1.793-.024,2.114-.153a2.19,2.19,0,0,0,.512-.266l.105-.08.012-.288c.007-.159.024-.536.037-.84s.024-.59.024-.636c0-.078,0-.083.025-.053s.025.025.025.015a.043.043,0,0,0-.019-.032c-.015-.009-.017-.085-.008-.277.036-.82.205-3.063.229-3.049a.777.777,0,0,0,.01-.178.6.6,0,0,1,.014-.185.348.348,0,0,0,.012-.127c0-.314.317-2.722.356-2.7.007,0,.007-.017,0-.046s0-.049.01-.041.015-.009.008-.051,0-.059.005-.054.015-.017.017-.051a2.79,2.79,0,0,1,.059-.45c.031-.151.046-.2.064-.2s.022,0,.005-.015-.017-.048.01-.2a1.3,1.3,0,0,0,.027-.193.8.8,0,0,0-.114-.022C133.555-868.446,125.252-868.458,123.694-868.444Zm9.754.321a.405.405,0,0,1-.039.224c-.008,0-.01.01-.005.022a3.142,3.142,0,0,1-.051.343c-.032.178-.083.484-.114.682a2.976,2.976,0,0,1-.066.353.383.383,0,0,0-.008.12.336.336,0,0,1-.012.126c-.007,0-.012.036-.012.08s-.015.2-.034.336c-.173,1.269-.372,3.487-.4,4.5-.005.187-.014.389-.017.45s-.02.4-.034.747c-.031.726-.054,1.1-.076,1.189s-.044.1-.246.19a1.893,1.893,0,0,1-1.079.193l-.538.008-.01-.115c-.017-.173-.058-1.145-.07-1.6-.005-.219-.029-.838-.051-1.374s-.064-1.513-.093-2.172c-.056-1.318-.12-2.739-.126-2.744s-4.376-.005-4.384,0-.019.059-.007.059a.11.11,0,0,0,.041-.029c.037-.034.037-.134,0,.869-.09,2.216-.129,3.093-.137,3.088s-.007.024,0,.061-.005.361-.02.723-.031.818-.036,1.015c-.019.7-.087,2.128-.1,2.184-.008.029-.051.031-.573.031a2.4,2.4,0,0,1-.73-.042c-.2-.051-.434-.156-.4-.182.019-.014.017-.015-.005-.007a.381.381,0,0,1-.227-.1l-.076-.056,0-.8a43.891,43.891,0,0,0-.307-5.19c-.029-.248-.048-.463-.044-.48s0-.026-.008-.02-.015-.014-.01-.059,0-.07-.007-.07a.294.294,0,0,1-.014-.127.294.294,0,0,0-.014-.127c-.007,0-.01-.031-.007-.068s0-.068-.01-.068-.014-.014-.01-.031c.01-.037-.107-.864-.232-1.637a1.294,1.294,0,0,1-.027-.241c.005-.012,0-.025-.005-.029s-.019-.054-.02-.115l-.005-.11,1.111-.01C125.847-868.154,133.43-868.142,133.448-868.124Zm-3.339,1.941c.014.139.031.56.027.658,0,.042.029.786.068,1.654s.1,2.223.127,3.012c.071,1.71.09,2.123.1,2.218l.01.073h-.8c-.443,0-.794-.007-.782-.014a2.464,2.464,0,0,0,.015-.6,2.928,2.928,0,0,0-.034-.667.236.236,0,0,1-.019-.1c.005-.007,0-.008-.017,0s-.027,0-.027-.008a.128.128,0,0,0-.041-.054c-.027-.024-.037-.046-.031-.07s0-.032-.012-.024a.024.024,0,0,0-.01.029c.014.02.019.02-.107-.019a.735.735,0,0,0-.166-.034h-.058v-.2c0-.193,0-.2-.036-.2-.019,0-.029-.007-.024-.017s0-.012-.017-.007c-.041.015-.148-.008-.134-.031s.005-.014-.007-.007a.755.755,0,0,1-.3-.1c.005-.007,0-.008-.015,0a3.524,3.524,0,0,1-.412-.12c-.443-.146-.5-.161-.536-.143a.331.331,0,0,0-.071.231,1.323,1.323,0,0,0,.288.115,1.363,1.363,0,0,1,.253.1q-.013.008.005.005a3.382,3.382,0,0,1,.65.19.159.159,0,0,1,.054.17c-.012.034-.039.031-.041-.007s0-.027-.01,0a.071.071,0,0,1-.053.041c-.131.027-.275.11-.275.159a.017.017,0,0,1-.014.017c-.008,0-.031.032-.048.071-.031.066-.032.119-.032.687v.616h-1.588l.01-.124c.008-.11.09-1.96.229-5.255.029-.677.063-1.471.075-1.765s.02-.54.015-.546.407-.022,2.229-.027l1.546,0Zm-1.551,7v.619h-.679v-1.239h.679Zm-.19,1.015c.008.093-.017.114-.132.114-.139,0-.153-.008-.153-.092a.2.2,0,0,1,.012-.085.505.505,0,0,1,.141-.007l.127.005Z" transform="translate(-39.149 -91.962)" fill="#29335c" stroke="#29335c" stroke-width="0.25"/>
  </g>
</svg>
