<svg xmlns="http://www.w3.org/2000/svg" width="17.291" height="16.097" viewBox="0 0 17.291 16.097">
  <g id="wedding-ring" transform="translate(0 -12.732)">
    <path id="Path_1012" data-name="Path 1012" d="M128.379,17.269a2.917,2.917,0,0,0,1.258-.77,7.006,7.006,0,0,0,1.172-1.176,1.752,1.752,0,0,0,.322-1.1,1.554,1.554,0,0,0-1.534-1.489,1.717,1.717,0,0,0-1.215.675,1.693,1.693,0,0,0-1.226-.675,1.554,1.554,0,0,0-1.534,1.489,1.774,1.774,0,0,0,.322,1.1A6.67,6.67,0,0,0,128.379,17.269Z" transform="translate(-119.731 0)" fill="#fff"/>
    <path id="Path_1013" data-name="Path 1013" d="M11.81,122.271a5.451,5.451,0,0,0-3.164,1.008,5.481,5.481,0,1,0,0,8.947,5.481,5.481,0,1,0,3.164-9.955Zm-3.164,8.046a4.066,4.066,0,0,1,0-5.13,4.066,4.066,0,0,1,0,5.13Zm-7.239-2.565a4.074,4.074,0,0,1,6.179-3.489,5.471,5.471,0,0,0,0,6.978,4.074,4.074,0,0,1-6.179-3.489Zm10.4,4.075a4.051,4.051,0,0,1-2.1-.586,5.471,5.471,0,0,0,0-6.978,4.075,4.075,0,1,1,2.1,7.564Z" transform="translate(0 -104.404)" fill="#fff"/>
  </g>
</svg>
