<svg xmlns="http://www.w3.org/2000/svg" width="22.007" height="12.943" viewBox="0 0 22.007 12.943">
  <g id="plant_1_" data-name="plant (1)" transform="translate(0 -105.439)">
    <g id="Group_5045" data-name="Group 5045" transform="translate(7.968 105.439)">
      <g id="Group_5044" data-name="Group 5044">
        <path id="Path_1004" data-name="Path 1004" d="M188.413,105.439s-3.036,2.585-3.036,5.773,3.036,5.773,3.036,5.773,3.036-2.585,3.036-5.773S188.413,105.439,188.413,105.439Z" transform="translate(-185.377 -105.439)" />
      </g>
    </g>
    <g id="Group_5047" data-name="Group 5047" transform="translate(3.989 107.638)">
      <g id="Group_5046" data-name="Group 5046" transform="translate(0 0)">
        <path id="Path_1005" data-name="Path 1005" d="M97.27,165a10.238,10.238,0,0,1-1.192-2.1,6.846,6.846,0,0,1,0-5.477l.021-.049a10.831,10.831,0,0,0-3.045-.787s-.94,3.874.931,6.456a7.168,7.168,0,0,0,3.636,2.417C97.5,165.317,97.387,165.164,97.27,165Z" transform="translate(-92.817 -156.588)"/>
      </g>
    </g>
    <g id="Group_5049" data-name="Group 5049" transform="translate(0 112.3)">
      <g id="Group_5048" data-name="Group 5048">
        <path id="Path_1006" data-name="Path 1006" d="M8.382,270.493a10.243,10.243,0,0,1-2.2-1,6.846,6.846,0,0,1-3.214-4.432A10.827,10.827,0,0,0,0,266.245s1.543,3.676,4.582,4.642a7.184,7.184,0,0,0,4.385-.221C8.779,270.616,8.583,270.558,8.382,270.493Z" transform="translate(0 -265.059)"/>
      </g>
    </g>
    <g id="Group_5051" data-name="Group 5051" transform="translate(13.214 107.638)">
      <g id="Group_5050" data-name="Group 5050" transform="translate(0 0)">
        <path id="Path_1007" data-name="Path 1007" d="M312,156.59a10.831,10.831,0,0,0-3.045.787l.021.049a6.846,6.846,0,0,1,0,5.477,10.241,10.241,0,0,1-1.192,2.1c-.117.162-.235.314-.35.458a7.168,7.168,0,0,0,3.636-2.417C312.943,160.464,312,156.59,312,156.59Z" transform="translate(-307.436 -156.59)" />
      </g>
    </g>
    <g id="Group_5053" data-name="Group 5053" transform="translate(13.04 112.3)">
      <g id="Group_5052" data-name="Group 5052">
        <path id="Path_1008" data-name="Path 1008" d="M309.381,265.059a6.846,6.846,0,0,1-3.214,4.432,10.237,10.237,0,0,1-2.2,1c-.2.066-.4.123-.585.174a7.184,7.184,0,0,0,4.385.221c3.039-.966,4.582-4.642,4.582-4.642A10.826,10.826,0,0,0,309.381,265.059Z" transform="translate(-303.383 -265.059)"/>
      </g>
    </g>
  </g>
</svg>
