<svg xmlns="http://www.w3.org/2000/svg" width="12.294" height="18.2" viewBox="0 0 12.294 18.2">
  <g id="noun_Cockroach_103992" transform="translate(-12 -6)">
    <g id="Group_5055" data-name="Group 5055" transform="translate(12 6)">
      <path id="Path_1014" data-name="Path 1014" d="M21.944,12.763l-1.419-.255-.016-.014a8.9,8.9,0,0,1,.185,1.494c0,.318-.019.765-.058,1.266a8.417,8.417,0,0,1,1.278,1.11l-.153.708a4.9,4.9,0,0,1-.051,1.921c-.254.657-.61,1.668-.61,1.668l-.2.152a4.567,4.567,0,0,1,.508,1.719V24.2h-.356s.051-1.213.051-1.668a7.516,7.516,0,0,0-.559-1.719A8.013,8.013,0,0,0,21,18.841a5.372,5.372,0,0,1,.407-1.668l-.051-.657-.81-.338h0a13.5,13.5,0,0,1-.359,1.956c-.356,1.264-.864,2.882-1.423,3.033a4.316,4.316,0,0,1-1.017.152,3,3,0,0,1-.712-1.163l-.915-3.64s.508,3.185.712,3.64.508,1.062.508,1.062a2.765,2.765,0,0,1-.966-1.062,13.818,13.818,0,0,1-1.169-3.64c0-.086,0-.179,0-.278h0l-.8.223-.131.646a5.373,5.373,0,0,1,.2,1.706,8.013,8.013,0,0,0,.214,2.013,7.516,7.516,0,0,0-.765,1.638c-.055.452-.153,1.662-.153,1.662l-.353-.043.2-1.656a4.567,4.567,0,0,1,.714-1.644l-.183-.175s-.23-1.047-.4-1.73a4.9,4.9,0,0,1,.184-1.913l-.065-.721a8.6,8.6,0,0,1,1.315-.9c-.014-.577-.031-1.142-.031-1.4,0-.455.051-.1.2-.809.038-.178.08-.39.123-.611l-1.445-.2s-.368.686-.623,1.232h0c-.089.777-.14,1.3-.14,1.3a3.317,3.317,0,0,1-.082-.86,6.14,6.14,0,0,1-.478.708h-.254l.254,3.994-.2-.2-.458-3.842L12,14.494s.757-1,1.25-1.706c.054-.555.15-1.241.311-2.081a9.219,9.219,0,0,1,.95-2.779L13.525,6l.305.1.818,1.6c.6-.956,1.281-1.322,1.752-1.153.338.122.567.694.719,1.314a.53.53,0,0,1,.066-.04,1.686,1.686,0,0,1,.661-.152,1.941,1.941,0,0,1,.864.1l.035.029c.208-.638.5-1.239.86-1.335.517-.137,1.216.358,1.751,1.518L22.32,6.1l.305-.1L21.473,8.252a9.654,9.654,0,0,1,.6,2.6c.062.608.1,1.135.116,1.59a.453.453,0,0,1,.221.355c.1.511.844,2.666.844,2.666l-.078.24,1.12,2.969-.256.129-1.284-3.288-.242-.079a5.813,5.813,0,0,1-.3-1.214c-.011-.094-.024-.193-.037-.295A3.864,3.864,0,0,1,22,15.007S21.99,14.04,21.944,12.763Zm-.017-.451-.024-.26a12.587,12.587,0,0,0-1.335-.168,1.2,1.2,0,0,0-.191,0h0q-.019-.079-.038-.155h0l.354-.215-.1-.3s.2-.051.407-.708a14.656,14.656,0,0,0,.356-1.567l-.2-.051.121-.237a6.244,6.244,0,0,1,.582,2.193C21.884,11.339,21.908,11.84,21.927,12.312ZM21.148,8.39l-.2.391-.2.152a2.164,2.164,0,0,1-.1,1.062,6.333,6.333,0,0,0-.305,1.213l-.154-.026a1.041,1.041,0,0,0-.151-.328c-.2-.2-.661-.051-1.474-.051a14.578,14.578,0,0,0-2.694.253.221.221,0,0,0-.06.091,6.1,6.1,0,0,0-.3-1.153,2.164,2.164,0,0,1-.1-1.062l-.2-.152-.351-.686c.573-.829,1.213-1.329,1.517-1.119a2.179,2.179,0,0,1,.509,1.138c-.167.23-.331.549-.556.868-.356.506-.559.607-.559,1.163s.254.506.508.657,1.271-.051,1.627-.051h1.423a.694.694,0,0,0,.712-.4,2.7,2.7,0,0,0-.356-1.314,3.778,3.778,0,0,0-.661-.758,1.409,1.409,0,0,0-.062-.165A2.418,2.418,0,0,1,19.6,6.9C19.95,6.7,20.626,7.373,21.148,8.39Zm-7.59,3.944c.028-.044.051-.083.069-.115.254-.455.559-.2.559-.2l.153-.354A12.315,12.315,0,0,1,15.6,11.9h0c.02-.093.039-.183.059-.267h0l-.2-.124.1-.3s-.2-.051-.407-.708A14.656,14.656,0,0,1,14.8,8.932l.2-.051-.292-.57a6.375,6.375,0,0,0-.929,2.395c-.082.555-.156,1.111-.222,1.627Z" transform="translate(-12 -6)"  fill-rule="evenodd"/>
    </g>
  </g>
</svg>
