<svg xmlns="http://www.w3.org/2000/svg" width="6.284" height="13.484" viewBox="0 0 6.284 13.484">
  <g id="facebook-logo_1_" data-name="facebook-logo (1)" transform="translate(-125.619)">
    <path id="Path_35" data-name="Path 35" d="M129.8,4.418V3.256a2.56,2.56,0,0,1,.024-.4.786.786,0,0,1,.111-.282.451.451,0,0,1,.278-.192,1.98,1.98,0,0,1,.512-.053h1.162V0h-1.857a3.023,3.023,0,0,0-2.316.765,3.222,3.222,0,0,0-.7,2.254v1.4h-1.391V6.742h1.391v6.742h2.79V6.742h1.857l.245-2.324Z" transform="translate(0)" fill="#fff"/>
  </g>
</svg>
