<svg xmlns="http://www.w3.org/2000/svg" width="14.935" height="14.935" viewBox="0 0 14.935 14.935">
  <g id="Group_5631" data-name="Group 5631" transform="translate(-157 -575)">
    <path id="Path_1023" data-name="Path 1023" d="M0,0H.865V1.786H0Z" transform="translate(165.918 579.773) rotate(-45)"/>
    <path id="Path_1024" data-name="Path 1024" d="M0,0H.865V1.786H0Z" transform="translate(164.695 580.995) rotate(-45)" />
    <path id="Path_1025" data-name="Path 1025" d="M348.536,1.937a.144.144,0,0,0-.071.186l.006.013.147.473-.023.022-.917.917,1.263,1.263.917-.917.029-.032.474.147a.145.145,0,0,0,.173-.076,4.259,4.259,0,0,1,1.854-1.855.144.144,0,0,0,.068-.2L351.847.689a.144.144,0,0,0-.063-.063l-1.177-.6L350.6.021a.144.144,0,0,0-.206.062A4.3,4.3,0,0,1,348.536,1.937Z" transform="translate(-180.535 575)"/>
    <path id="Path_1026" data-name="Path 1026" d="M7.794,173.274a.534.534,0,0,1,.4-.557,2.441,2.441,0,0,0,1.158-.655,2.417,2.417,0,0,0,.524-.794.432.432,0,0,0-.095-.468l-.006-.006a.432.432,0,0,0-.477-.083,1.672,1.672,0,0,1-1.555-.257l.6-.6L7.083,168.59l-.381.381a1.154,1.154,0,0,1,.245-1.066.9.9,0,0,1,.256-.178.432.432,0,0,0-.088-.813,2.443,2.443,0,0,0-2.924,1.807.534.534,0,0,1-.557.4,3.493,3.493,0,0,0-2.678,1.012,3.284,3.284,0,0,0,0,4.639l1.187,1.187a3.284,3.284,0,0,0,4.639,0A3.492,3.492,0,0,0,7.794,173.274Zm-3.376.136-.911-.911a.432.432,0,1,1,.611-.611l.911.911a.432.432,0,0,1-.611.611Zm1.367-1.367-.911-.911a.432.432,0,0,1,.611-.611l.911.911a.432.432,0,0,1-.611.611Z" transform="translate(157.003 413.016)" />
  </g>
</svg>
