<svg xmlns="http://www.w3.org/2000/svg" width="17.728" height="15.707" viewBox="0 0 17.728 15.707">
  <g id="icon" transform="translate(0 -1.54)">
    <path id="Path_5969" data-name="Path 5969" d="M3.674,18.4a.368.368,0,0,0,.371.4l4.469-.005.007-3.662s-.063-.6.523-.6H10.9a.575.575,0,0,1,.65.6l-.008,3.65h4.374a.458.458,0,0,0,.469-.493V11.539L10.219,6.055,3.674,11.539S3.674,18.4,3.674,18.4Z" transform="translate(-1.263 -1.553)" fill="#fff"/>
    <path id="Path_5970" data-name="Path 5970" d="M0,9.476s.556,1.024,1.768,0L9.01,3.349,15.8,9.438c1.4,1.012,1.928,0,1.928,0L9.01,1.54Z" transform="translate(0 0)" fill="#fff"/>
    <path id="Path_5971" data-name="Path 5971" d="M22.915,4.275H21.168l.007,2.118,1.739,1.476Z" transform="translate(-7.279 -0.941)" fill="#fff"/>
  </g>
</svg>
