<svg xmlns="http://www.w3.org/2000/svg" width="14.689" height="20.641" viewBox="0 0 14.689 20.641">
  <g id="man" transform="translate(-73.821 0.001)">
    <path id="Path_10" data-name="Path 10" d="M225.509,368.028l.434-1.156-1.331-.98-1.336.983.483,1.152Z" transform="translate(-143.43 -351.143)" fill="#ef4c35"/>
    <path id="Path_11" data-name="Path 11" d="M221.67,418.858l.025.061-.6,3.694H224l-.6-3.7.021-.057Z" transform="translate(-141.342 -401.973)" fill="#dd3e2b"/>
    <path id="Path_12" data-name="Path 12" d="M186.28,347.536l.6-3.739-.583-1.392-1.87-1.778.366,2.666,1.188,4.243Z" transform="translate(-106.15 -326.896)" fill="#d2d2d7"/>
    <path id="Path_13" data-name="Path 13" d="M269.677,346.355l1.2-4.292.366-2.667-1.946,1.822-.526,1.4.6,3.735Z" transform="translate(-187.094 -325.715)" fill="#e4e4ea"/>
    <path id="Path_14" data-name="Path 14" d="M177.852,313.215a.444.444,0,0,0,.7-.1l1.226-2.52L178.2,309.55l-.374.673-1.392,1.445-1.354-1.319-.262-.912-1.756,1.159,1.2,2.461a.457.457,0,0,0,.739.16l1.424-1.048,1.357,1C177.8,313.179,177.825,313.195,177.852,313.215Z" transform="translate(-95.241 -296.962)" fill="#f5f5f7"/>
    <path id="Path_15" data-name="Path 15" d="M143.062,0h-.371a4.606,4.606,0,0,0-4.6,4.6V6.759s1.047-.1,1.176-.612h0a.576.576,0,0,0,.107-.164c.594-.018,3.369-.04,4.954-1.954a3.129,3.129,0,0,0,2.06,1.931.585.585,0,0,0,.109.179l-.01.008c.129.508,1.176.612,1.176.612V4.6A4.606,4.606,0,0,0,143.062,0Zm3.469,5.817.044-.032h.006l-.072.053Zm-.023.014,0-.016.015-.03h.006l-.018.038Zm-.122.094,0,0,.113-.082-.027.026-.083.061Zm.094-.027-.036.073h0l0,0h0l.058-.115h0Z" transform="translate(-61.678 -0.001)" fill="#694b4b"/>
    <path id="Path_16" data-name="Path 16" d="M138.9,5.787V4.6A4.606,4.606,0,0,1,143.282,0c-.073,0-.146-.006-.22-.006h-.371a4.606,4.606,0,0,0-4.6,4.6V6.758a2.633,2.633,0,0,0,.811-.226V5.787Z" transform="translate(-61.678)" fill="#563b3b"/>
    <path id="Path_17" data-name="Path 17" d="M343.933,150.481a.579.579,0,0,0-.752.553v1.651a.579.579,0,0,0,.752.553,1.437,1.437,0,0,0,.324-.148,2.88,2.88,0,0,1,.327-.275,1.442,1.442,0,0,0-.651-2.333Z" transform="translate(-258.501 -144.39)" fill="#fbcb99"/>
    <path id="Path_18" data-name="Path 18" d="M128.581,150.565a.58.58,0,0,0-.516-.086,1.444,1.444,0,0,0,0,2.757.579.579,0,0,0,.752-.553v-1.651A.579.579,0,0,0,128.581,150.565Z" transform="translate(-51.084 -144.388)" fill="#edba89"/>
    <path id="Path_19" data-name="Path 19" d="M216.674,273.2a.582.582,0,0,0-.425-.16h-.02a.591.591,0,0,0-.105.013,3.124,3.124,0,0,1-.677.075h-.708a3.127,3.127,0,0,1-.7-.08.579.579,0,0,0-.709.565v1.691a.58.58,0,0,0,.174.447l1.164,1.134a.579.579,0,0,0,.4.164h.009a.579.579,0,0,0,.408-.177l1.2-1.245a.579.579,0,0,0,.162-.4v-1.607A.579.579,0,0,0,216.674,273.2Z" transform="translate(-133.886 -262.033)" fill="#fbcb99"/>
    <path id="Path_20" data-name="Path 20" d="M215.194,276.736,214.03,275.6a.58.58,0,0,1-.174-.447v-1.691a.578.578,0,0,1,.157-.4.578.578,0,0,0-.679.57v1.691a.58.58,0,0,0,.174.447l1.164,1.134a.579.579,0,0,0,.4.164h.009a.579.579,0,0,0,.408-.177l.005-.005A.577.577,0,0,1,215.194,276.736Z" transform="translate(-133.888 -262.053)" fill="#edba89"/>
    <path id="Path_21" data-name="Path 21" d="M170.819,100.024a2.02,2.02,0,0,1-.2-.089,2.99,2.99,0,0,1-1.54-1.4.4.4,0,0,1-.029-.046.192.192,0,0,0-.3-.078h0a8.227,8.227,0,0,1-2.727,1.342,8.51,8.51,0,0,1-.907.214,7.034,7.034,0,0,1-.909.115.579.579,0,0,0-.538.578v2.363a3.413,3.413,0,0,0,3.409,3.409h.708a3.413,3.413,0,0,0,3.409-3.409v-2.458A.579.579,0,0,0,170.819,100.024Z" transform="translate(-86.226 -94.406)" fill="#fbcb99"/>
    <path id="Path_22" data-name="Path 22" d="M164.363,103.023V100.66a.579.579,0,0,1,.538-.578,7.037,7.037,0,0,0,.909-.115,8.51,8.51,0,0,0,.908-.214,8.41,8.41,0,0,0,2.411-1.113c-.019-.036-.036-.071-.051-.1a.4.4,0,0,1-.029-.046.192.192,0,0,0-.3-.078h0a8.227,8.227,0,0,1-2.727,1.342,8.511,8.511,0,0,1-.907.214,7.034,7.034,0,0,1-.909.115.579.579,0,0,0-.538.578v2.363a3.413,3.413,0,0,0,3.409,3.409h.695A3.413,3.413,0,0,1,164.363,103.023Z" transform="translate(-86.225 -94.405)" fill="#edba89"/>
    <g id="Group_11" data-name="Group 11" transform="translate(73.821 13.417)">
      <path id="Path_23" data-name="Path 23" d="M74.569,340.056h5.646l-2.023-7.223-2.087.87h0a3.641,3.641,0,0,0-2.282,3.534v2.071A.713.713,0,0,0,74.569,340.056Z" transform="translate(-73.821 -332.833)" fill="#7a57d1"/>
      <path id="Path_24" data-name="Path 24" d="M288.04,340.113v-2.1a3.657,3.657,0,0,0-2.285-3.535l-2.008-.837-2.014,7.19h5.56A.706.706,0,0,0,288.04,340.113Z" transform="translate(-273.351 -333.612)" fill="#7a57d1"/>
    </g>
    <g id="Group_12" data-name="Group 12" transform="translate(73.821 13.417)">
      <path id="Path_25" data-name="Path 25" d="M78.192,332.834l-2.087.87h0a3.641,3.641,0,0,0-2.282,3.534v2.071a.713.713,0,0,0,.748.747h.094v-2.819a3.641,3.641,0,0,1,2.282-3.534h0l1.333-.555Z" transform="translate(-73.821 -332.834)" fill="#283d4c"/>
      <path id="Path_26" data-name="Path 26" d="M364.267,435.656v-2.88a.327.327,0,0,0-.655,0v2.88Z" transform="translate(-351.929 -428.433)" fill="#283d4c"/>
      <path id="Path_27" data-name="Path 27" d="M134.836,435.656v-2.88a.327.327,0,0,0-.655,0v2.88Z" transform="translate(-131.748 -428.433)" fill="#283d4c"/>
    </g>
    <path id="Path_28" data-name="Path 28" d="M246.789,195.36a.218.218,0,0,1,0,.437h-.558a.219.219,0,0,1-.218-.218v-1.064a.218.218,0,0,1,.437,0v.846Z" transform="translate(-165.25 -186.464)" fill="#edba89"/>
  </g>
</svg>
