<svg xmlns="http://www.w3.org/2000/svg" width="16" height="16" viewBox="0 0 16 16">
  <g id="surface1" transform="translate(-0.375 -0.001)">
    <path id="Path_5972" data-name="Path 5972" d="M13.971,10.335a.286.286,0,0,1,.132.075l4.074,4.074.737-.737L14.84,9.673a.286.286,0,0,1-.075-.133l-.256-1.022-1.7-.972-.832.832.972,1.7Zm0,0" transform="translate(-11.493 -7.476)" fill="#fff"/>
    <path id="Path_5973" data-name="Path 5973" d="M6.1,12.153l6.465-6.465a.285.285,0,0,1,.271-.075,2.836,2.836,0,0,0,3.539-2.762c0-.054,0-.107-.005-.162l-1.5,1.5a.285.285,0,0,1-.292.069l-1.71-.57a.285.285,0,0,1-.18-.18l-.57-1.71a.285.285,0,0,1,.069-.292l1.5-1.5A2.836,2.836,0,0,0,10.762,3.54a.285.285,0,0,1-.075.271L4.223,10.276a.288.288,0,0,1-.271.075,2.808,2.808,0,0,0-.689-.089,2.87,2.87,0,1,0,2.762,2.161A.285.285,0,0,1,6.1,12.153Zm-2.143,2.1H2.57l-.684-1.14.684-1.14H3.957l.684,1.14Zm1.1-3.337,6.271-6.271.4.4L5.46,11.319Zm0,0" transform="translate(0 0)" fill="#fff"/>
    <path id="Path_5974" data-name="Path 5974" d="M1459.5,1457.366a1.728,1.728,0,0,0,2.226-2.226Zm0,0" transform="translate(-1445.462 -1441.514)" fill="#fff"/>
    <path id="Path_5975" data-name="Path 5975" d="M876.739,869.858l-3.2-3.2a.89.89,0,0,1-1.254-1.252l-.453-.454-2.447,2.447.456.456a.889.889,0,0,1,1.254,1.252l3.2,3.2c.035.035.072.067.109.1l2.437-2.437C876.806,869.929,876.774,869.893,876.739,869.858Zm-1.69,1.16-2.85-2.85.4-.4,2.85,2.85Zm0,0" transform="translate(-860.871 -856.849)" fill="#fff"/>
  </g>
</svg>
