<svg xmlns="http://www.w3.org/2000/svg" width="20.124" height="15.792" viewBox="0 0 20.124 15.792">
  <g id="noun_logout_2734926" transform="translate(-2.5 -12.75)">
    <g id="Group_5516" data-name="Group 5516" transform="translate(2.5 12.75)">
      <path id="Path_5885" data-name="Path 5885" d="M15.167,25.745A6.982,6.982,0,1,1,7.753,14.2a6.864,6.864,0,0,1,5.338.021,6.96,6.96,0,0,1,2.118,1.356.45.45,0,1,0,.614-.657,8.331,8.331,0,0,0-2.372-1.546,7.849,7.849,0,0,0-6.037-.042,8.024,8.024,0,0,0-4.3,4.279A7.892,7.892,0,0,0,7.329,27.927a7.924,7.924,0,0,0,8.452-1.5.461.461,0,0,0,.021-.635A.412.412,0,0,0,15.167,25.745Z" transform="translate(-2.5 -12.75)" fill="#fff"/>
      <path id="Path_5886" data-name="Path 5886" d="M50.919,33.742,45.856,29.4v2.161H38.4v4.385h7.456v2.182Z" transform="translate(-30.795 -25.873)" fill="#fff"/>
    </g>
  </g>
</svg>
