<svg xmlns="http://www.w3.org/2000/svg" xmlns:xlink="http://www.w3.org/1999/xlink" width="243.739" height="204.137" viewBox="0 0 243.739 204.137">
  <defs>
    <linearGradient id="linear-gradient" x1="0.865" y1="0.053" x2="0.168" y2="0.907" gradientUnits="objectBoundingBox">
      <stop offset="0" stop-color="gold"/>
      <stop offset="1" stop-color="#ffab00"/>
    </linearGradient>
    <linearGradient id="linear-gradient-2" x1="0.5" y1="0.11" x2="0.5" y2="0.862" gradientUnits="objectBoundingBox">
      <stop offset="0" stop-color="gold"/>
      <stop offset="1" stop-color="#ff9a00"/>
    </linearGradient>
    <linearGradient id="linear-gradient-3" x1="0.362" y1="0.205" x2="0.727" y2="0.985" gradientUnits="objectBoundingBox">
      <stop offset="0" stop-color="#fff"/>
      <stop offset="1" stop-color="#ff9a00"/>
    </linearGradient>
    <linearGradient id="linear-gradient-4" x1="0.371" y1="0.189" x2="0.614" y2="0.773" gradientUnits="objectBoundingBox">
      <stop offset="0"/>
      <stop offset="1" stop-color="#ffc857"/>
    </linearGradient>
    <linearGradient id="linear-gradient-5" x1="0.5" y1="1.117" x2="0.5" y2="0.024" gradientUnits="objectBoundingBox">
      <stop offset="0" stop-color="#c24400"/>
      <stop offset="1" stop-color="#fff"/>
    </linearGradient>
    <linearGradient id="linear-gradient-6" x1="0.49" y1="0.461" x2="0.422" y2="0.113" xlink:href="#linear-gradient-4"/>
    <linearGradient id="linear-gradient-7" x1="0.5" y1="0.908" x2="0.5" y2="0.054" xlink:href="#linear-gradient-2"/>
    <linearGradient id="linear-gradient-8" x1="0.5" y1="0.106" x2="0.5" y2="0.746" xlink:href="#linear-gradient-2"/>
    <linearGradient id="linear-gradient-9" x1="0.563" y1="0.613" x2="0.262" y2="0.076" xlink:href="#linear-gradient-4"/>
    <linearGradient id="linear-gradient-10" x1="-0.191" y1="-0.012" x2="0.883" y2="0.823" xlink:href="#linear-gradient-5"/>
    <linearGradient id="linear-gradient-11" x1="0.5" y1="0.998" x2="0.5" y2="0.051" gradientUnits="objectBoundingBox">
      <stop offset="0" stop-color="#c24400"/>
      <stop offset="1" stop-color="#e37800"/>
    </linearGradient>
    <linearGradient id="linear-gradient-12" x1="0.5" y1="0.777" x2="0.5" y2="0.04" gradientUnits="objectBoundingBox">
      <stop offset="0"/>
      <stop offset="1" stop-color="#e37800"/>
    </linearGradient>
    <linearGradient id="linear-gradient-13" x1="0.5" y1="-1.954" x2="0.5" y2="3.587" xlink:href="#linear-gradient-4"/>
    <linearGradient id="linear-gradient-14" x1="0.5" y1="-6.485" x2="0.5" y2="5.976" xlink:href="#linear-gradient-4"/>
    <linearGradient id="linear-gradient-15" x1="0.5" y1="-1.885" x2="0.5" y2="6.036" xlink:href="#linear-gradient-4"/>
    <linearGradient id="linear-gradient-16" x1="0.5" y1="-7.292" x2="0.5" y2="36.871" xlink:href="#linear-gradient-4"/>
    <linearGradient id="linear-gradient-17" x1="0.5" y1="-3.148" x2="0.5" y2="9.992" xlink:href="#linear-gradient-4"/>
    <linearGradient id="linear-gradient-18" x1="0.5" y1="0.097" x2="0.5" y2="4.363" xlink:href="#linear-gradient-2"/>
    <linearGradient id="linear-gradient-19" x1="0.5" y1="-0.247" x2="0.5" y2="1.327" xlink:href="#linear-gradient-2"/>
    <linearGradient id="linear-gradient-20" x1="0.5" y1="-2.59" x2="0.5" y2="0.299" xlink:href="#linear-gradient-2"/>
    <linearGradient id="linear-gradient-21" x1="0.5" y1="-14.326" x2="0.5" y2="-3.911" xlink:href="#linear-gradient-2"/>
    <linearGradient id="linear-gradient-22" x1="0.5" y1="-1.436" x2="0.5" y2="0.533" xlink:href="#linear-gradient-2"/>
  </defs>
  <g id="Group_5677" data-name="Group 5677" transform="translate(-66 -67)">
    <g id="Group_5555" data-name="Group 5555" transform="translate(8 10)">
      <path id="Path_5948" data-name="Path 5948" d="M1000.164,508.84a24.616,24.616,0,0,0-4.49,25.607c5.82,15.3-9.975,40.734-9.975,40.734s.17-.025.493-.079a30.015,30.015,0,0,0,19.92-45.943C1001.724,522.471,998.131,514.626,1000.164,508.84Z" transform="translate(-751.794 -334.194)" fill="#6c63ff"/>
      <path id="Path_5949" data-name="Path 5949" d="M1000.157,508.14s-5.82,12.636,0,22.946.986,39.241-14.467,43.4" transform="translate(-751.787 -333.666)" fill="none" stroke="#535461" stroke-miterlimit="10" stroke-width="1"/>
      <path id="Path_5951" data-name="Path 5951" d="M1010.463,676.966s-11.764-1.873-12.835,8.669-22.628,12-22.628,12l.4.269c17.791,11.68,34.8,7.439,32.235-8.07C1006.693,684.073,1006.772,678.282,1010.463,676.966Z" transform="translate(-743.731 -460.795)" fill="#6c63ff"/>
      <path id="Path_5950" data-name="Path 5950" d="M1010.494,677.36s-9.132,2-8.378,10.307-13.552,18.256-27.075,10.366" transform="translate(-743.761 -461.189)" fill="none" stroke="#535461" stroke-miterlimit="10" stroke-width="1"/>
      <path id="Path_5952" data-name="Path 5952" d="M965.672,734.987s-9.265-1.853-11.737-4.324-13.589-6.794-14.824-3.7-16.677,13.589-6.177,15.443,24.708,2.464,27.8,1.232S965.672,734.987,965.672,734.987Z" transform="translate(-709.289 -497.76)" fill="#a8a8a8"/>
    </g>
    <g id="Group_5554" data-name="Group 5554" transform="translate(18)">
      <path id="Path_5947" data-name="Path 5947" d="M106.811,82.918a8.089,8.089,0,0,0-4.1,2.994c-.927,1.57-.816,3.519-.643,5.335,1.5,15.751,5.463,32.5-1.375,46.769-3.319,6.922-8.871,12.468-13.286,18.754s-7.75,14.134-5.7,21.529c2.5,9.036,11.847,14.045,18.146,21,4.122,4.546,7.013,10.071,10.859,14.854s9.117,9,15.258,9.277c8.831.407,16.017-7.22,24.675-8.987,8.871-1.809,17.8,2.794,25,8.3s13.735,12.185,22.115,15.625c9.255,3.8,19.688,3.221,29.431,5.5,8.871,2.082,17.037,6.51,25.843,8.871s19.129,2.218,25.952-3.812c8.893-7.885,8.193-21.93,13.873-32.361,5.276-9.691,15.6-15.477,22.554-24.045,12.508-15.42,12.1-38.989,1.478-55.76S287.03,109.843,267.359,107.2c-8.871-1.19-18.005-1.028-26.533-3.736-22.827-7.244-36.412-33.2-59.717-38.6-14.814-3.428-29.222,2.508-41.84,9.815C128.315,81.018,118.21,78.19,106.811,82.918Z" transform="translate(-33.087 3.136)" fill="#6c63ff" opacity="0.1"/>
      <g id="Group_5553" data-name="Group 5553" transform="translate(-43.231 7.983)">
        <g id="Group_5423" data-name="Group 5423" transform="translate(166.231 74.824)">
          <g id="Group_5372" data-name="Group 5372" transform="translate(24.571 115.223)">
            <path id="Path_1344" data-name="Path 1344" d="M213.827,327.951l24.612-14.145-.583-23.248-25.62,8.6Z" transform="translate(-212.236 -290.558)" fill="#6b6966"/>
          </g>
          <g id="Group_5373" data-name="Group 5373" transform="translate(1.924 123.825)">
            <rect id="Rectangle_1054" data-name="Rectangle 1054" width="25.446" height="29.293" rx="5.239" fill="#6b6966"/>
          </g>
          <g id="Group_5374" data-name="Group 5374" transform="translate(1.924 117.471)">
            <path id="Path_1345" data-name="Path 1345" d="M169.832,306.25h25.446l24.571-11.309-24.858-.175-25.071,8.569Z" transform="translate(-169.832 -294.766)" fill="#5c5a58"/>
          </g>
          <g id="Group_5375" data-name="Group 5375" transform="translate(17.33 96.616)">
            <path id="Path_1346" data-name="Path 1346" d="M199.633,255.719l.53,9.071a6.782,6.782,0,0,0-1.449,3.008c-.263,1.662,1.006,5.969,2.23,6.056a43.708,43.708,0,0,0,7.487-.8c.437-.262-.291-2.935-.291-2.935s-.618-4.114-1.58-5.076,0-9.325,0-9.325Z" transform="translate(-198.679 -255.719)" fill="#ffb189"/>
          </g>
          <g id="Group_5376" data-name="Group 5376" transform="translate(0.559 123.236)">
            <path id="Path_1347" data-name="Path 1347" d="M190.792,305.56H170a2.713,2.713,0,0,0-2.718,2.717H193.51A2.717,2.717,0,0,0,190.792,305.56Z" transform="translate(-167.277 -305.56)" fill="#fd4059"/>
          </g>
          <g id="Group_5377" data-name="Group 5377" transform="translate(2.487 114.382)">
            <path id="Path_1348" data-name="Path 1348" d="M198.655,288.981l-27.768,8.971L195.77,301.6,220.079,290.5Z" transform="translate(-170.888 -288.981)" fill="#fd4059"/>
          </g>
          <g id="Group_5378" data-name="Group 5378" transform="translate(0 125.545)">
            <path id="Path_1349" data-name="Path 1349" d="M194.1,310.612a.729.729,0,0,1-.729.729H166.96a.729.729,0,0,1-.729-.729h0a.728.728,0,0,1,.729-.728h26.407a.729.729,0,0,1,.729.728Z" transform="translate(-166.231 -309.883)" fill="#fd4059"/>
          </g>
          <g id="Group_5379" data-name="Group 5379" transform="translate(15.344 106.487)">
            <path id="Path_1350" data-name="Path 1350" d="M197.759,289.99h-2.8v-6.824a5.322,5.322,0,0,1,3.711-4.905l14.36-4.059v10.186h-2.8V277.9l-10.8,3.053a2.5,2.5,0,0,0-1.674,2.212Z" transform="translate(-194.96 -274.201)" fill="#6b6966"/>
          </g>
          <g id="Group_5380" data-name="Group 5380" transform="translate(14.616 41.826)">
            <path id="Path_1351" data-name="Path 1351" d="M201.049,158.068c-2.934,4.152-8.369,26.29-7.319,32.762s2.826,19.062,2.826,19.062l8.546-.017s-1.6-22.143.671-24.942a43.869,43.869,0,0,0,3.263-4.44l8.511,28.174,18.188,2.624s4.139-28.972,14.865-38.533c0,0,1.049-18.13-7.345-18.829S205.828,151.306,201.049,158.068Z" transform="translate(-193.597 -153.134)" fill="#7a57d1"/>
          </g>
          <g id="Group_5381" data-name="Group 5381" transform="translate(26.791 57.835)">
            <path id="Path_1352" data-name="Path 1352" d="M251.426,310.308s-2.331-67.855-2.8-84.411,9.094-34.219,9.094-34.219-2.1-2.973-11.542-8.57l-29.135.388-.652,15.4s3.554,15.573,2.855,38.89-2.565,71.352-2.565,71.352l6.063-.7s6.752-76.016,11.416-71.819S246.3,310.308,246.3,310.308h5.129Z" transform="translate(-216.393 -183.109)" fill="#29335c"/>
          </g>
          <g id="Group_5382" data-name="Group 5382" transform="translate(27.389 41.039)">
            <path id="Path_1353" data-name="Path 1353" d="M226.557,152.448c.591-1.357-6.7-.82-7.753.562-2.132,2.8-.983,22.327-.983,22.327l6.728-3.965S223.292,159.947,226.557,152.448Z" transform="translate(-217.512 -151.661)" fill="#3f4b7d"/>
          </g>
          <g id="Group_5383" data-name="Group 5383" transform="translate(38.041 31.869)">
            <path id="Path_1354" data-name="Path 1354" d="M250.928,144.775s-7.477,4.638-13.473.266l.567-6.387.077-.917.287-3.246H250l.5,5.47Z" transform="translate(-237.455 -134.492)" fill="#ffb189"/>
          </g>
          <g id="Group_5384" data-name="Group 5384" transform="translate(36.722 40.263)">
            <path id="Path_1355" data-name="Path 1355" d="M240.586,154.238l-4.133-4.03-1.467,1.9S235.223,153.713,240.586,154.238Z" transform="translate(-234.986 -150.208)" fill="#b51b1c"/>
          </g>
          <g id="Group_5385" data-name="Group 5385" transform="translate(42.321 40.263)">
            <path id="Path_1356" data-name="Path 1356" d="M254.491,150.208l-9.021,4.03a14.541,14.541,0,0,0,10.551-2.347Z" transform="translate(-245.47 -150.208)" fill="#b51b1c"/>
          </g>
          <g id="Group_5386" data-name="Group 5386" transform="translate(38.041 31.869)">
            <path id="Path_1357" data-name="Path 1357" d="M250.493,139.962l-3.161.21c-5.736.21-8.3-.874-9.31-1.518a2.458,2.458,0,0,1-.567-.462l.644-.455c.944-.679,2.833-1.986,4.834-3.246H250Z" transform="translate(-237.455 -134.492)" fill="#e09c79"/>
          </g>
          <g id="Group_5387" data-name="Group 5387" transform="translate(34.149 6.204)">
            <path id="Path_1358" data-name="Path 1358" d="M230.168,92.322s.965,10.075.965,12.968-2.143,6.967,0,9.218,17.211,3.353,19.293-1.153c1.509-3.266,2.251-12.46,0-22.749S230.168,92.322,230.168,92.322Z" transform="translate(-230.168 -86.439)" fill="#ffb189"/>
          </g>
          <g id="Group_5388" data-name="Group 5388" transform="translate(53.007 18.331)">
            <path id="Path_1359" data-name="Path 1359" d="M271.31,113.586c-.487,2.043-2.157,3.4-3.731,3.022s-2.455-2.335-1.968-4.379,2.157-3.4,3.731-3.022S271.8,111.542,271.31,113.586Z" transform="translate(-265.477 -109.145)" fill="#ffb189"/>
          </g>
          <g id="Group_5389" data-name="Group 5389" transform="translate(48.443 10.489)">
            <path id="Path_1360" data-name="Path 1360" d="M256.932,94.677s3.205,2.565,4.167,5.072c.67,1.746.771,6.87.771,6.87h.964s.077-4.155,1.485-4.258a38.525,38.525,0,0,0,.527-6.5C264.67,93.716,256.932,94.677,256.932,94.677Z" transform="translate(-256.932 -94.462)" fill="#5d4837"/>
          </g>
          <g id="Group_5390" data-name="Group 5390" transform="translate(33.811 1.47)">
            <path id="Path_1361" data-name="Path 1361" d="M252.08,90.464s2.114-9.253-2.492-10.943-17.518-3.495-18.626.294-1.428,10.649-1.428,10.649S236.46,78.288,252.08,90.464Z" transform="translate(-229.535 -77.576)" fill="#bf1c1d"/>
          </g>
          <g id="Group_5391" data-name="Group 5391" transform="translate(22.647)">
            <path id="Path_1362" data-name="Path 1362" d="M241.05,88.668v-.005c-4.488-1.707-19.171-6.641-20.635,1.334l-.085-.034c-.028-.011-.057-.022-.1-.039a.029.029,0,0,1-.022-.011c-.028-.012-.057-.023-.09-.034-.017-.006-.034-.017-.057-.022-.045-.023-.1-.045-.158-.068a.212.212,0,0,1-.057-.022c-2.114-.9-9.558-4.216-10.982-7.025v-.006a1.579,1.579,0,0,1,.028-1.706c2.329-3.4,15.627-7.144,19.5-5.991,6.262,1.865,13.739,13.807,13.943,14.141C242.282,89.155,241.813,88.957,241.05,88.668Z" transform="translate(-208.633 -74.824)" fill="#d21f20"/>
          </g>
          <g id="Group_5392" data-name="Group 5392" transform="translate(44.113 15.206)">
            <path id="Path_1363" data-name="Path 1363" d="M249.488,105.738a7.89,7.89,0,0,1,4.92.583s.893-.442.99-.708c.175-.475-2.219-2.78-5.479-2.236C248.039,103.691,249.062,105.826,249.488,105.738Z" transform="translate(-248.825 -103.295)" fill="#5d4837"/>
          </g>
          <g id="Group_5393" data-name="Group 5393" transform="translate(33.896 15.603)">
            <path id="Path_1364" data-name="Path 1364" d="M234.953,106.33a7.062,7.062,0,0,0-4.413.715s-.754-.442-.837-.708c-.147-.474,1.853-2.707,4.63-2.236C236,104.385,235.16,106.233,234.953,106.33Z" transform="translate(-229.695 -104.036)" fill="#5d4837"/>
          </g>
          <g id="Group_5394" data-name="Group 5394" transform="translate(40.02 18.192)">
            <path id="Path_1365" data-name="Path 1365" d="M242.936,109.61a31.277,31.277,0,0,1-.379,4.78s-1.866.7-1.282,2.419,2.966.671,3.031.612c.525-.474.688-4.788-.175-7.812C243.665,107.978,242.936,109.61,242.936,109.61Z" transform="translate(-241.162 -108.885)" fill="#ff9d6b"/>
          </g>
          <g id="Group_5395" data-name="Group 5395" transform="translate(40.021 27.014)">
            <path id="Path_1366" data-name="Path 1366" d="M248.962,126.626v.007a4.169,4.169,0,0,1-.239,1.217c-.006.021-.014.042-.02.063a.825.825,0,0,1-.056.14,2.924,2.924,0,0,1-2.19,1.9,5.018,5.018,0,0,1-3.952-.979,6.125,6.125,0,0,1-1.343-1.357s.349.007.909-.028c.112-.007.231-.014.357-.028A12.423,12.423,0,0,0,248.8,125.4S249.018,125.479,248.962,126.626Z" transform="translate(-241.162 -125.402)" fill="#5d4837"/>
          </g>
          <g id="Group_5396" data-name="Group 5396" transform="translate(47.056 19.627)">
            <path id="Path_1367" data-name="Path 1367" d="M256.156,112.694a.931.931,0,1,1-.911-1.122A1.033,1.033,0,0,1,256.156,112.694Z" transform="translate(-254.334 -111.572)" fill="#ad795e"/>
          </g>
          <g id="Group_5397" data-name="Group 5397" transform="translate(37.679 19.627)">
            <path id="Path_1368" data-name="Path 1368" d="M238.6,112.694a.931.931,0,1,1-.911-1.122A1.033,1.033,0,0,1,238.6,112.694Z" transform="translate(-236.777 -111.572)" fill="#ad795e"/>
          </g>
          <g id="Group_5398" data-name="Group 5398" transform="translate(55.766 19.715)">
            <path id="Path_1369" data-name="Path 1369" d="M270.706,115.43a.984.984,0,0,0,.406-1.3,6.863,6.863,0,0,1-.469-1.235s.776-1.836,1.606-.885a3.174,3.174,0,0,1-.328,3.662C271.233,116.141,270.617,116.283,270.706,115.43Z" transform="translate(-270.643 -111.736)" fill="#ff9d6b"/>
          </g>
          <g id="Group_5399" data-name="Group 5399" transform="translate(34.149 62.033)">
            <path id="Path_1370" data-name="Path 1370" d="M230.168,190.968h16.043S236.852,193.941,230.168,190.968Z" transform="translate(-230.168 -190.968)" fill="#7a57d1"/>
          </g>
          <g id="Group_5400" data-name="Group 5400" transform="translate(20.722 108.695)">
            <path id="Path_1371" data-name="Path 1371" d="M205.029,284.4s1.78-.786.905-4.458c-.365-1.531,4.826-1.891,5.6-1.4,1.44.917.769,4.693-.431,5.262S205.029,284.4,205.029,284.4Z" transform="translate(-205.029 -278.334)" fill="#ffb189"/>
          </g>
          <g id="Group_5401" data-name="Group 5401" transform="translate(51.517 40.748)">
            <path id="Path_1372" data-name="Path 1372" d="M265.335,151.766c1.635-1.607,9.614.155,7.761,1.105-3.766,1.932-3.331,20.417-3.331,20.417l-7,.933S261.974,155.069,265.335,151.766Z" transform="translate(-262.687 -151.116)" fill="#3f4b7d"/>
          </g>
          <g id="Group_5402" data-name="Group 5402" transform="translate(14.616 181.653)">
            <path id="Path_1373" data-name="Path 1373" d="M206.14,415.115s-13.256,3.027-12.513,4.367,3.366,2.8,7.273,1.8c1.685-.429,6.611-2.052,7.369-1.993l.267.279,3.672-.35s.6-4.292.219-4.285S206.14,415.115,206.14,415.115Z" transform="translate(-193.597 -414.935)" fill="#7a57d1"/>
          </g>
          <g id="Group_5403" data-name="Group 5403" transform="translate(56.053 181.653)">
            <path id="Path_1374" data-name="Path 1374" d="M277.594,415.115s13.257,3.027,12.514,4.367-3.366,2.8-7.272,1.8c-1.685-.429-6.612-2.052-7.368-1.993l-.268.279-3.673-.35s-.6-4.292-.219-4.285S277.594,415.115,277.594,415.115Z" transform="translate(-271.18 -414.935)" fill="#7a57d1"/>
          </g>
          <g id="Group_5404" data-name="Group 5404" transform="translate(8.854 152.19)">
            <path id="Path_1375" data-name="Path 1375" d="M184.6,360.667a.9.9,0,0,1-.9.9h0a.9.9,0,0,1-.9-.9h0a.9.9,0,0,1,.9-.9h0a.9.9,0,0,1,.9.9Z" transform="translate(-182.808 -359.771)" fill="#6b6966"/>
          </g>
          <g id="Group_5405" data-name="Group 5405" transform="translate(13.75 152.19)">
            <path id="Path_1376" data-name="Path 1376" d="M193.768,360.667a.9.9,0,0,1-.9.9h0a.9.9,0,0,1-.9-.9h0a.9.9,0,0,1,.9-.9h0a.9.9,0,0,1,.9.9Z" transform="translate(-191.976 -359.771)" fill="#6b6966"/>
          </g>
          <g id="Group_5406" data-name="Group 5406" transform="translate(18.647 152.19)">
            <path id="Path_1377" data-name="Path 1377" d="M202.936,360.667a.9.9,0,0,1-.9.9h0a.9.9,0,0,1-.9-.9h0a.9.9,0,0,1,.9-.9h0a.9.9,0,0,1,.9.9Z" transform="translate(-201.144 -359.771)" fill="#6b6966"/>
          </g>
          <g id="Group_5407" data-name="Group 5407" transform="translate(5.436 132.512)">
            <rect id="Rectangle_1055" data-name="Rectangle 1055" width="18.421" height="15.447" transform="translate(0 0)" fill="#5c5a58"/>
          </g>
          <g id="Group_5408" data-name="Group 5408" transform="translate(40.93 27.014)">
            <path id="Path_1378" data-name="Path 1378" d="M249.755,126.626v.007a4.17,4.17,0,0,1-.239,1.217c-.006.021-.014.042-.02.063a12.082,12.082,0,0,1-2.75.3,11.381,11.381,0,0,1-3.882-.629c.112-.007.231-.014.357-.028a12.423,12.423,0,0,0,6.373-2.155S249.811,125.479,249.755,126.626Z" transform="translate(-242.864 -125.402)" fill="#fff"/>
          </g>
          <g id="Group_5409" data-name="Group 5409" transform="translate(34.106 62.693)">
            <path id="Path_1379" data-name="Path 1379" d="M230.13,192.866s-.455,12.086,1.586,13.194,12.883,1.69,13.7.292.757-14.146.757-14.146-.633,13.68-2.328,13.971S231.342,206.546,230.13,192.866Z" transform="translate(-230.087 -192.205)" fill="#7a57d1"/>
          </g>
          <g id="Group_5410" data-name="Group 5410" transform="translate(15.565 91.569)">
            <path id="Path_1380" data-name="Path 1380" d="M197.383,253.954s9.368-.087,9.217-.729.559-6.762,0-6.762-11.227-.641-11.227.408S196.594,253.965,197.383,253.954Z" transform="translate(-195.373 -246.269)" fill="#b51b1c"/>
          </g>
          <path id="Path_1381" data-name="Path 1381" d="M203.951,275.315s2.4,4.244,1,5.252c-.7.5,3.637,1.192,3.284-1.493a29.035,29.035,0,0,0-1.129-5.039,5.975,5.975,0,0,0-2.155-2.787C204.139,270.8,203.139,273.554,203.951,275.315Z" transform="translate(-183.665 -166.315)" fill="#ffb189"/>
          <path id="Path_1382" data-name="Path 1382" d="M239.1,281.2s-3.956-3.286-4.05-2.9-8.525,72.958-8.525,72.958h1.244s8.861-65.825,11.015-69.926Z" transform="translate(-194.321 -169.611)" fill="#3f4b7d"/>
          <path id="Path_1383" data-name="Path 1383" d="M277.482,307.955s-5.577-74.923-4.849-78.125,1.662-44.514,1.662-44.514,5.683,9.685,6.5,14.1c.453,2.457-4.564,13.269-4.868,21.75s2.315,86.974,2.315,86.974Z" transform="translate(-215.774 -126.302)" fill="#3f4b7d"/>
          <g id="Group_5411" data-name="Group 5411" transform="translate(57.576 106.564)">
            <rect id="Rectangle_1056" data-name="Rectangle 1056" width="28.105" height="2.798" transform="translate(0 4.804) rotate(-9.841)" fill="#6b6966"/>
          </g>
          <g id="Group_5412" data-name="Group 5412" transform="translate(67.512 96.003)">
            <path id="Path_1384" data-name="Path 1384" d="M295.426,254.572l-.059,7.89s-2.448,3.935-2.711,5.6,1.923,5.684,3.147,5.771a32.363,32.363,0,0,0,6.8-1.31c.437-.262,1.37-3.675,1.37-3.675s-.3-3.5-1.258-4.46.059-9.71.059-9.71Z" transform="translate(-292.635 -254.572)" fill="#ffb189"/>
          </g>
          <g id="Group_5413" data-name="Group 5413" transform="translate(58.386 42.847)">
            <path id="Path_1385" data-name="Path 1385" d="M275.684,171.214s7.435,11.421,8.989,23.422c1.477,11.4,1.548,13.671,1.548,13.671H295.6s1.225-8.008-.946-22.56c-2.015-13.514-5.275-27.218-10.349-29.806C273.766,150.565,275.684,171.214,275.684,171.214Z" transform="translate(-275.547 -155.047)" fill="#7a57d1"/>
          </g>
          <g id="Group_5414" data-name="Group 5414" transform="translate(49.735 107.924)">
            <path id="Path_1386" data-name="Path 1386" d="M269.455,279.94a5.289,5.289,0,0,0-4.8-3.05,4.972,4.972,0,0,0-.941.085,5.3,5.3,0,0,0-3.962,7.237.851.851,0,0,0,.064.144,3.03,3.03,0,0,0,.208.417,4.119,4.119,0,0,0,.331.523,5.288,5.288,0,0,0,4.3,2.2,5.309,5.309,0,0,0,5.277-4.8c.016-.166.027-.336.027-.507A5.29,5.29,0,0,0,269.455,279.94Zm-2.671,3.562a2.5,2.5,0,0,1-4.635-1.309,2.452,2.452,0,0,1,.251-1.084,2.5,2.5,0,0,1,2.254-1.421,2.409,2.409,0,0,1,.657.091,2.453,2.453,0,0,1,1.33.892,2.483,2.483,0,0,1,.518,1.522A2.427,2.427,0,0,1,266.784,283.5Z" transform="translate(-259.35 -276.89)" fill="#6b6966"/>
          </g>
          <g id="Group_5415" data-name="Group 5415" transform="translate(83.143 102.636)">
            <path id="Path_1387" data-name="Path 1387" d="M327.209,266.99A5.312,5.312,0,0,0,322,271.268a4.982,4.982,0,0,0-.1,1.025,5.167,5.167,0,0,0,.31,1.779,5.308,5.308,0,0,0,5,3.525,5.246,5.246,0,0,0,1.2-.139l-1.528-2.681a2.5,2.5,0,1,1,2.831-2.484,2.475,2.475,0,0,1-.123.774l1.57,2.756a5.3,5.3,0,0,0-3.952-8.834Z" transform="translate(-321.9 -266.99)" fill="#6b6966"/>
          </g>
          <g id="Group_5416" data-name="Group 5416" transform="translate(49.576 104.933)">
            <rect id="Rectangle_1057" data-name="Rectangle 1057" width="3.192" height="7.543" transform="translate(0 1.579) rotate(-29.656)" fill="#ffbd00"/>
          </g>
          <g id="Group_5417" data-name="Group 5417" transform="translate(68.037 90.055)">
            <path id="Path_1388" data-name="Path 1388" d="M294.64,250.825s-1.369-6.214-.94-6.3,11.569-1.96,11.8-.589-.35,7.316-1.574,7.513S294.64,250.825,294.64,250.825Z" transform="translate(-293.617 -243.435)" fill="#b51b1c"/>
          </g>
          <g id="Group_5422" data-name="Group 5422" transform="translate(28.663 90.18)">
            <g id="Group_5418" data-name="Group 5418">
              <path id="Path_1389" data-name="Path 1389" d="M220.346,243.755s12.736,5.33,32.126,0c0,0,.181,6.8-.812,7s-13.027,4.714-31.314-.606C220.346,250.148,219.334,242.8,220.346,243.755Z" transform="translate(-219.896 -243.669)" fill="#723400"/>
            </g>
            <g id="Group_5420" data-name="Group 5420" transform="translate(9.712 2.062)">
              <g id="Group_5419" data-name="Group 5419">
                <path id="Path_1390" data-name="Path 1390" d="M247.117,247.84a2.118,2.118,0,0,0-1.111-.31h-5.763a2.125,2.125,0,0,0-.9.2,2.161,2.161,0,0,0-1.26,1.965v2.975a2.164,2.164,0,0,0,2.163,2.163h5.763a2.145,2.145,0,0,0,1.106-.3,2.046,2.046,0,0,0,.593-.518,2.137,2.137,0,0,0,.465-1.341v-2.975A2.149,2.149,0,0,0,247.117,247.84Zm-6.874,5.549a.706.706,0,0,1-.7-.561.528.528,0,0,1-.021-.16v-2.975a.718.718,0,0,1,.721-.721h5.763a.718.718,0,0,1,.72.721v2.975a.718.718,0,0,1-.72.721Z" transform="translate(-238.08 -247.53)" fill="#aba8a3"/>
              </g>
            </g>
            <g id="Group_5421" data-name="Group 5421" transform="translate(16.688 5.292)">
              <path id="Path_1391" data-name="Path 1391" d="M253.681,254.1a.525.525,0,0,1-.525.524h-1.489a.525.525,0,0,1-.526-.524h0a.526.526,0,0,1,.526-.527h1.489a.525.525,0,0,1,.525.527Z" transform="translate(-251.141 -253.577)" fill="#aba8a3"/>
            </g>
          </g>
          <path id="Path_1392" data-name="Path 1392" d="M241.21,89.447c-4.488-1.707-19.171-6.641-20.635,1.334l-.085-.034c-.022-.011-.057-.022-.1-.039a.029.029,0,0,1-.022-.011c-.028-.012-.057-.023-.09-.034-.017-.006-.034-.017-.057-.022-.045-.023-.1-.045-.158-.068a.212.212,0,0,1-.057-.022c-2.2-.91-10.077-4.329-10.982-7.025v-.006c-1.04-3.136,13.864-7.522,18.436-6.963C231.969,77.109,240.961,89.114,241.21,89.447Z" transform="translate(-186.146 -75.608)" fill="#bf1c1d"/>
        </g>
      </g>
    </g>
    <g id="Group_5564" data-name="Group 5564" transform="translate(-0.129 129.808)" style="mix-blend-mode: luminosity;isolation: isolate">
      <circle id="Ellipse_73" data-name="Ellipse 73" cx="5.32" cy="5.32" r="5.32" transform="translate(150.489 88.552)" fill="url(#linear-gradient)"/>
      <circle id="Ellipse_74" data-name="Ellipse 74" cx="5.093" cy="5.093" r="5.093" transform="translate(150.716 88.779)" fill="url(#linear-gradient-2)"/>
      <circle id="Ellipse_75" data-name="Ellipse 75" cx="5.093" cy="5.093" r="5.093" transform="translate(150.716 88.779)" fill="url(#linear-gradient-3)" style="mix-blend-mode: multiply;isolation: isolate"/>
      <path id="Path_5953" data-name="Path 5953" d="M158.281,103.171a4.966,4.966,0,0,1,7.76-6.09c-.161.3-.334.587-.515.869a4,4,0,0,0-6.273,4.934C158.934,102.992,158.608,103.088,158.281,103.171Z" transform="translate(-6.714 -6.714)" fill="url(#linear-gradient-4)" style="mix-blend-mode: screen;isolation: isolate"/>
      <path id="Path_5954" data-name="Path 5954" d="M268.728,218h-.045a.432.432,0,0,0-.412.277,3.943,3.943,0,0,1-2.927,2.451.434.434,0,0,0-.34.338l0,.011a.535.535,0,0,0,.637.633,4.967,4.967,0,0,0,3.617-3.149.423.423,0,0,0-.424-.562Z" transform="translate(-108.792 -122.988)" opacity="0.35" fill="url(#linear-gradient-5)" style="mix-blend-mode: multiply;isolation: isolate"/>
      <path id="Path_5955" data-name="Path 5955" d="M159.163,100.425q.094,0,.187.006a.4.4,0,0,0,.417-.332,3.937,3.937,0,0,1,4.526-3.264.628.628,0,0,0,.652-.3l.005-.009a.445.445,0,0,0-.291-.659,4.964,4.964,0,0,0-5.9,4.09.408.408,0,0,0,.4.471Z" transform="translate(-7.85 -6.851)" fill="url(#linear-gradient-6)" style="mix-blend-mode: screen;isolation: isolate"/>
      <circle id="Ellipse_76" data-name="Ellipse 76" cx="3.872" cy="3.872" r="3.872" transform="translate(151.937 90)" fill="url(#linear-gradient-7)"/>
      <circle id="Ellipse_77" data-name="Ellipse 77" cx="3.572" cy="3.572" r="3.572" transform="translate(152.237 90.3)" fill="url(#linear-gradient-8)"/>
      <circle id="Ellipse_78" data-name="Ellipse 78" cx="3.572" cy="3.572" r="3.572" transform="translate(152.237 90.3)" fill="url(#linear-gradient-9)" style="mix-blend-mode: screen;isolation: isolate"/>
      <path id="Path_5956" data-name="Path 5956" d="M224.068,138.1a1.431,1.431,0,0,0-.6-.52,6.088,6.088,0,0,0-1.361-.414,1.188,1.188,0,0,1-.486-.173.261.261,0,0,1-.106-.2.329.329,0,0,1,.128-.261.581.581,0,0,1,.381-.107.735.735,0,0,1,.482.144.539.539,0,0,1,.117.137.618.618,0,0,0,.564.3l.027,0a.617.617,0,0,0,.336-1.109l-.009-.007a1.853,1.853,0,0,0-.792-.293v-.7a.126.126,0,0,0-.126-.126h-.812a.126.126,0,0,0-.126.126v.683a2.284,2.284,0,0,0-.667.16,1.39,1.39,0,0,0-.63.506,1.229,1.229,0,0,0-.21.683,1.145,1.145,0,0,0,.41.905,3.155,3.155,0,0,0,1.36.57,1.852,1.852,0,0,1,.742.272.431.431,0,0,1,.16.326.436.436,0,0,1-.168.338.708.708,0,0,1-.478.146.766.766,0,0,1-.64-.285.694.694,0,0,1-.081-.135.62.62,0,0,0-.6-.345l-.095.006a.618.618,0,0,0-.47.967,1.759,1.759,0,0,0,.21.253,1.869,1.869,0,0,0,1.162.437V141a.126.126,0,0,0,.126.126h.812a.126.126,0,0,0,.126-.126v-.641a2.249,2.249,0,0,0,.56-.156,1.561,1.561,0,0,0,.7-.577,1.487,1.487,0,0,0,.25-.832A1.319,1.319,0,0,0,224.068,138.1Z" transform="translate(-66.212 -43.906)" opacity="0.35" fill="url(#linear-gradient-10)" style="mix-blend-mode: multiply;isolation: isolate"/>
      <path id="Path_5957" data-name="Path 5957" d="M220.163,134.191a1.432,1.432,0,0,0-.6-.52,6.09,6.09,0,0,0-1.361-.414,1.188,1.188,0,0,1-.486-.173.261.261,0,0,1-.106-.2.328.328,0,0,1,.128-.261.581.581,0,0,1,.381-.107.735.735,0,0,1,.482.144.537.537,0,0,1,.117.137.618.618,0,0,0,.564.3l.027,0a.617.617,0,0,0,.336-1.109l-.009-.007a1.852,1.852,0,0,0-.792-.293v-.7a.126.126,0,0,0-.126-.126H217.9a.126.126,0,0,0-.126.126v.683a2.282,2.282,0,0,0-.667.16,1.39,1.39,0,0,0-.63.506,1.229,1.229,0,0,0-.21.683,1.145,1.145,0,0,0,.41.905,3.155,3.155,0,0,0,1.36.569,1.851,1.851,0,0,1,.742.272.431.431,0,0,1,.16.326.436.436,0,0,1-.168.338.708.708,0,0,1-.478.146.766.766,0,0,1-.64-.285.69.69,0,0,1-.081-.135.62.62,0,0,0-.6-.345l-.095.006a.618.618,0,0,0-.47.967,1.76,1.76,0,0,0,.21.253,1.87,1.87,0,0,0,1.162.437v.623a.126.126,0,0,0,.126.126h.812a.126.126,0,0,0,.126-.126v-.641a2.25,2.25,0,0,0,.56-.156,1.561,1.561,0,0,0,.7-.577,1.487,1.487,0,0,0,.25-.832A1.318,1.318,0,0,0,220.163,134.191Z" transform="translate(-62.502 -40.195)" fill="url(#linear-gradient-11)"/>
      <path id="Path_5958" data-name="Path 5958" d="M220.163,134.191a1.432,1.432,0,0,0-.6-.52,6.09,6.09,0,0,0-1.361-.414,1.188,1.188,0,0,1-.486-.173.261.261,0,0,1-.106-.2.328.328,0,0,1,.128-.261.581.581,0,0,1,.381-.107.735.735,0,0,1,.482.144.537.537,0,0,1,.117.137.618.618,0,0,0,.564.3l.027,0a.617.617,0,0,0,.336-1.109l-.009-.007a1.852,1.852,0,0,0-.792-.293v-.7a.126.126,0,0,0-.126-.126H217.9a.126.126,0,0,0-.126.126v.683a2.282,2.282,0,0,0-.667.16,1.39,1.39,0,0,0-.63.506,1.229,1.229,0,0,0-.21.683,1.145,1.145,0,0,0,.41.905,3.155,3.155,0,0,0,1.36.569,1.851,1.851,0,0,1,.742.272.431.431,0,0,1,.16.326.436.436,0,0,1-.168.338.708.708,0,0,1-.478.146.766.766,0,0,1-.64-.285.69.69,0,0,1-.081-.135.62.62,0,0,0-.6-.345l-.095.006a.618.618,0,0,0-.47.967,1.76,1.76,0,0,0,.21.253,1.87,1.87,0,0,0,1.162.437v.623a.126.126,0,0,0,.126.126h.812a.126.126,0,0,0,.126-.126v-.641a2.25,2.25,0,0,0,.56-.156,1.561,1.561,0,0,0,.7-.577,1.487,1.487,0,0,0,.25-.832A1.318,1.318,0,0,0,220.163,134.191Z" transform="translate(-62.502 -40.195)" fill="url(#linear-gradient-12)" style="mix-blend-mode: screen;isolation: isolate"/>
      <g id="Group_5560" data-name="Group 5560" transform="translate(153.769 90.661)" style="mix-blend-mode: screen;isolation: isolate">
        <path id="Path_5959" data-name="Path 5959" d="M243.744,172.94a1.188,1.188,0,0,1-.486-.173.285.285,0,0,1-.1-.145.337.337,0,0,0-.007.069.261.261,0,0,0,.106.2,1.188,1.188,0,0,0,.486.173,6.088,6.088,0,0,1,1.361.414,1.432,1.432,0,0,1,.6.52,1.3,1.3,0,0,1,.185.628c0-.02,0-.039,0-.059a1.318,1.318,0,0,0-.187-.694,1.432,1.432,0,0,0-.6-.52A6.09,6.09,0,0,0,243.744,172.94Z" transform="translate(-241.811 -170.539)" fill="url(#linear-gradient-13)"/>
        <path id="Path_5960" data-name="Path 5960" d="M219.458,210.363a.452.452,0,0,1-.163.274.708.708,0,0,1-.478.146.766.766,0,0,1-.64-.285.69.69,0,0,1-.081-.135.62.62,0,0,0-.6-.345l-.095.006a.617.617,0,0,0-.575.679.615.615,0,0,1,.575-.554l.095-.006a.62.62,0,0,1,.6.345.691.691,0,0,0,.081.135.766.766,0,0,0,.64.285.708.708,0,0,0,.478-.146.436.436,0,0,0,.168-.338A.4.4,0,0,0,219.458,210.363Z" transform="translate(-216.792 -206.069)" fill="url(#linear-gradient-14)"/>
        <path id="Path_5961" data-name="Path 5961" d="M216.481,147.878a1.389,1.389,0,0,1,.63-.506,2.281,2.281,0,0,1,.667-.16v-.125a2.281,2.281,0,0,0-.667.16,1.389,1.389,0,0,0-.63.506,1.229,1.229,0,0,0-.21.683c0,.019,0,.036,0,.054A1.237,1.237,0,0,1,216.481,147.878Z" transform="translate(-216.271 -146.278)" fill="url(#linear-gradient-15)"/>
        <path id="Path_5962" data-name="Path 5962" d="M246.618,130.981h.812a.126.126,0,0,1,.126.126v-.125a.126.126,0,0,0-.126-.126h-.812a.126.126,0,0,0-.126.126v.125A.126.126,0,0,1,246.618,130.981Z" transform="translate(-244.985 -130.856)" fill="url(#linear-gradient-16)"/>
        <path id="Path_5963" data-name="Path 5963" d="M267.845,147.563a1.852,1.852,0,0,1,.792.293l.009.007a.585.585,0,0,1,.246.421.587.587,0,0,0-.246-.546l-.009-.007a1.852,1.852,0,0,0-.792-.293Z" transform="translate(-265.273 -146.611)" fill="url(#linear-gradient-17)"/>
      </g>
      <g id="Group_5561" data-name="Group 5561" transform="translate(153.769 92.132)" opacity="0.8" style="mix-blend-mode: multiply;isolation: isolate">
        <path id="Path_5964" data-name="Path 5964" d="M243.152,160.715a.224.224,0,0,0,.017.082.349.349,0,0,1,.111-.155.581.581,0,0,1,.381-.107.735.735,0,0,1,.482.144.538.538,0,0,1,.117.137.618.618,0,0,0,.564.3l.027,0a.623.623,0,0,0,.578-.719.617.617,0,0,1-.578.531l-.027,0a.618.618,0,0,1-.564-.3.538.538,0,0,0-.117-.137.735.735,0,0,0-.482-.144.581.581,0,0,0-.381.107A.329.329,0,0,0,243.152,160.715Z" transform="translate(-241.811 -160.347)" fill="url(#linear-gradient-18)"/>
        <path id="Path_5965" data-name="Path 5965" d="M216.681,173.153a3.155,3.155,0,0,0,1.36.569,1.851,1.851,0,0,1,.742.272.461.461,0,0,1,.149.234.407.407,0,0,0,.011-.1.43.43,0,0,0-.16-.326,1.851,1.851,0,0,0-.742-.272,3.155,3.155,0,0,1-1.36-.57,1.136,1.136,0,0,1-.405-.816c0,.033,0,.065,0,.1A1.145,1.145,0,0,0,216.681,173.153Z" transform="translate(-216.271 -171.56)" fill="url(#linear-gradient-19)"/>
        <path id="Path_5966" data-name="Path 5966" d="M218.3,221.622a1.869,1.869,0,0,1-1.162-.437,1.759,1.759,0,0,1-.21-.253.617.617,0,0,1-.1-.254.611.611,0,0,0,.1.442,1.763,1.763,0,0,0,.21.253,1.87,1.87,0,0,0,1.162.437Z" transform="translate(-216.789 -217.668)" fill="url(#linear-gradient-20)"/>
        <path id="Path_5967" data-name="Path 5967" d="M247.431,252.247h-.812a.126.126,0,0,1-.126-.126v.188a.126.126,0,0,0,.126.126h.812a.126.126,0,0,0,.126-.126v-.188A.126.126,0,0,1,247.431,252.247Z" transform="translate(-244.985 -247.544)" fill="url(#linear-gradient-21)"/>
        <path id="Path_5968" data-name="Path 5968" d="M269.1,210.443a1.561,1.561,0,0,1-.7.577,2.249,2.249,0,0,1-.56.156v.188a2.251,2.251,0,0,0,.56-.156,1.561,1.561,0,0,0,.7-.577,1.487,1.487,0,0,0,.25-.832q0-.049,0-.1A1.484,1.484,0,0,1,269.1,210.443Z" transform="translate(-265.273 -207.241)" fill="url(#linear-gradient-22)"/>
      </g>
    </g>
    <g id="Group_5566" data-name="Group 5566" transform="translate(-17.129 31.808)" style="mix-blend-mode: luminosity;isolation: isolate">
      <circle id="Ellipse_73-2" data-name="Ellipse 73" cx="5.32" cy="5.32" r="5.32" transform="translate(150.489 88.552)" fill="url(#linear-gradient)"/>
      <circle id="Ellipse_74-2" data-name="Ellipse 74" cx="5.093" cy="5.093" r="5.093" transform="translate(150.716 88.779)" fill="url(#linear-gradient-2)"/>
      <circle id="Ellipse_75-2" data-name="Ellipse 75" cx="5.093" cy="5.093" r="5.093" transform="translate(150.716 88.779)" fill="url(#linear-gradient-3)" style="mix-blend-mode: multiply;isolation: isolate"/>
      <path id="Path_5953-2" data-name="Path 5953" d="M158.281,103.171a4.966,4.966,0,0,1,7.76-6.09c-.161.3-.334.587-.515.869a4,4,0,0,0-6.273,4.934C158.934,102.992,158.608,103.088,158.281,103.171Z" transform="translate(-6.714 -6.714)" fill="url(#linear-gradient-4)" style="mix-blend-mode: screen;isolation: isolate"/>
      <path id="Path_5954-2" data-name="Path 5954" d="M268.728,218h-.045a.432.432,0,0,0-.412.277,3.943,3.943,0,0,1-2.927,2.451.434.434,0,0,0-.34.338l0,.011a.535.535,0,0,0,.637.633,4.967,4.967,0,0,0,3.617-3.149.423.423,0,0,0-.424-.562Z" transform="translate(-108.792 -122.988)" opacity="0.35" fill="url(#linear-gradient-5)" style="mix-blend-mode: multiply;isolation: isolate"/>
      <path id="Path_5955-2" data-name="Path 5955" d="M159.163,100.425q.094,0,.187.006a.4.4,0,0,0,.417-.332,3.937,3.937,0,0,1,4.526-3.264.628.628,0,0,0,.652-.3l.005-.009a.445.445,0,0,0-.291-.659,4.964,4.964,0,0,0-5.9,4.09.408.408,0,0,0,.4.471Z" transform="translate(-7.85 -6.851)" fill="url(#linear-gradient-6)" style="mix-blend-mode: screen;isolation: isolate"/>
      <circle id="Ellipse_76-2" data-name="Ellipse 76" cx="3.872" cy="3.872" r="3.872" transform="translate(151.937 90)" fill="url(#linear-gradient-7)"/>
      <circle id="Ellipse_77-2" data-name="Ellipse 77" cx="3.572" cy="3.572" r="3.572" transform="translate(152.237 90.3)" fill="url(#linear-gradient-8)"/>
      <circle id="Ellipse_78-2" data-name="Ellipse 78" cx="3.572" cy="3.572" r="3.572" transform="translate(152.237 90.3)" fill="url(#linear-gradient-9)" style="mix-blend-mode: screen;isolation: isolate"/>
      <path id="Path_5956-2" data-name="Path 5956" d="M224.068,138.1a1.431,1.431,0,0,0-.6-.52,6.088,6.088,0,0,0-1.361-.414,1.188,1.188,0,0,1-.486-.173.261.261,0,0,1-.106-.2.329.329,0,0,1,.128-.261.581.581,0,0,1,.381-.107.735.735,0,0,1,.482.144.539.539,0,0,1,.117.137.618.618,0,0,0,.564.3l.027,0a.617.617,0,0,0,.336-1.109l-.009-.007a1.853,1.853,0,0,0-.792-.293v-.7a.126.126,0,0,0-.126-.126h-.812a.126.126,0,0,0-.126.126v.683a2.284,2.284,0,0,0-.667.16,1.39,1.39,0,0,0-.63.506,1.229,1.229,0,0,0-.21.683,1.145,1.145,0,0,0,.41.905,3.155,3.155,0,0,0,1.36.57,1.852,1.852,0,0,1,.742.272.431.431,0,0,1,.16.326.436.436,0,0,1-.168.338.708.708,0,0,1-.478.146.766.766,0,0,1-.64-.285.694.694,0,0,1-.081-.135.62.62,0,0,0-.6-.345l-.095.006a.618.618,0,0,0-.47.967,1.759,1.759,0,0,0,.21.253,1.869,1.869,0,0,0,1.162.437V141a.126.126,0,0,0,.126.126h.812a.126.126,0,0,0,.126-.126v-.641a2.249,2.249,0,0,0,.56-.156,1.561,1.561,0,0,0,.7-.577,1.487,1.487,0,0,0,.25-.832A1.319,1.319,0,0,0,224.068,138.1Z" transform="translate(-66.212 -43.906)" opacity="0.35" fill="url(#linear-gradient-10)" style="mix-blend-mode: multiply;isolation: isolate"/>
      <path id="Path_5957-2" data-name="Path 5957" d="M220.163,134.191a1.432,1.432,0,0,0-.6-.52,6.09,6.09,0,0,0-1.361-.414,1.188,1.188,0,0,1-.486-.173.261.261,0,0,1-.106-.2.328.328,0,0,1,.128-.261.581.581,0,0,1,.381-.107.735.735,0,0,1,.482.144.537.537,0,0,1,.117.137.618.618,0,0,0,.564.3l.027,0a.617.617,0,0,0,.336-1.109l-.009-.007a1.852,1.852,0,0,0-.792-.293v-.7a.126.126,0,0,0-.126-.126H217.9a.126.126,0,0,0-.126.126v.683a2.282,2.282,0,0,0-.667.16,1.39,1.39,0,0,0-.63.506,1.229,1.229,0,0,0-.21.683,1.145,1.145,0,0,0,.41.905,3.155,3.155,0,0,0,1.36.569,1.851,1.851,0,0,1,.742.272.431.431,0,0,1,.16.326.436.436,0,0,1-.168.338.708.708,0,0,1-.478.146.766.766,0,0,1-.64-.285.69.69,0,0,1-.081-.135.62.62,0,0,0-.6-.345l-.095.006a.618.618,0,0,0-.47.967,1.76,1.76,0,0,0,.21.253,1.87,1.87,0,0,0,1.162.437v.623a.126.126,0,0,0,.126.126h.812a.126.126,0,0,0,.126-.126v-.641a2.25,2.25,0,0,0,.56-.156,1.561,1.561,0,0,0,.7-.577,1.487,1.487,0,0,0,.25-.832A1.318,1.318,0,0,0,220.163,134.191Z" transform="translate(-62.502 -40.195)" fill="url(#linear-gradient-11)"/>
      <path id="Path_5958-2" data-name="Path 5958" d="M220.163,134.191a1.432,1.432,0,0,0-.6-.52,6.09,6.09,0,0,0-1.361-.414,1.188,1.188,0,0,1-.486-.173.261.261,0,0,1-.106-.2.328.328,0,0,1,.128-.261.581.581,0,0,1,.381-.107.735.735,0,0,1,.482.144.537.537,0,0,1,.117.137.618.618,0,0,0,.564.3l.027,0a.617.617,0,0,0,.336-1.109l-.009-.007a1.852,1.852,0,0,0-.792-.293v-.7a.126.126,0,0,0-.126-.126H217.9a.126.126,0,0,0-.126.126v.683a2.282,2.282,0,0,0-.667.16,1.39,1.39,0,0,0-.63.506,1.229,1.229,0,0,0-.21.683,1.145,1.145,0,0,0,.41.905,3.155,3.155,0,0,0,1.36.569,1.851,1.851,0,0,1,.742.272.431.431,0,0,1,.16.326.436.436,0,0,1-.168.338.708.708,0,0,1-.478.146.766.766,0,0,1-.64-.285.69.69,0,0,1-.081-.135.62.62,0,0,0-.6-.345l-.095.006a.618.618,0,0,0-.47.967,1.76,1.76,0,0,0,.21.253,1.87,1.87,0,0,0,1.162.437v.623a.126.126,0,0,0,.126.126h.812a.126.126,0,0,0,.126-.126v-.641a2.25,2.25,0,0,0,.56-.156,1.561,1.561,0,0,0,.7-.577,1.487,1.487,0,0,0,.25-.832A1.318,1.318,0,0,0,220.163,134.191Z" transform="translate(-62.502 -40.195)" fill="url(#linear-gradient-12)" style="mix-blend-mode: screen;isolation: isolate"/>
      <g id="Group_5560-2" data-name="Group 5560" transform="translate(153.769 90.661)" style="mix-blend-mode: screen;isolation: isolate">
        <path id="Path_5959-2" data-name="Path 5959" d="M243.744,172.94a1.188,1.188,0,0,1-.486-.173.285.285,0,0,1-.1-.145.337.337,0,0,0-.007.069.261.261,0,0,0,.106.2,1.188,1.188,0,0,0,.486.173,6.088,6.088,0,0,1,1.361.414,1.432,1.432,0,0,1,.6.52,1.3,1.3,0,0,1,.185.628c0-.02,0-.039,0-.059a1.318,1.318,0,0,0-.187-.694,1.432,1.432,0,0,0-.6-.52A6.09,6.09,0,0,0,243.744,172.94Z" transform="translate(-241.811 -170.539)" fill="url(#linear-gradient-13)"/>
        <path id="Path_5960-2" data-name="Path 5960" d="M219.458,210.363a.452.452,0,0,1-.163.274.708.708,0,0,1-.478.146.766.766,0,0,1-.64-.285.69.69,0,0,1-.081-.135.62.62,0,0,0-.6-.345l-.095.006a.617.617,0,0,0-.575.679.615.615,0,0,1,.575-.554l.095-.006a.62.62,0,0,1,.6.345.691.691,0,0,0,.081.135.766.766,0,0,0,.64.285.708.708,0,0,0,.478-.146.436.436,0,0,0,.168-.338A.4.4,0,0,0,219.458,210.363Z" transform="translate(-216.792 -206.069)" fill="url(#linear-gradient-14)"/>
        <path id="Path_5961-2" data-name="Path 5961" d="M216.481,147.878a1.389,1.389,0,0,1,.63-.506,2.281,2.281,0,0,1,.667-.16v-.125a2.281,2.281,0,0,0-.667.16,1.389,1.389,0,0,0-.63.506,1.229,1.229,0,0,0-.21.683c0,.019,0,.036,0,.054A1.237,1.237,0,0,1,216.481,147.878Z" transform="translate(-216.271 -146.278)" fill="url(#linear-gradient-15)"/>
        <path id="Path_5962-2" data-name="Path 5962" d="M246.618,130.981h.812a.126.126,0,0,1,.126.126v-.125a.126.126,0,0,0-.126-.126h-.812a.126.126,0,0,0-.126.126v.125A.126.126,0,0,1,246.618,130.981Z" transform="translate(-244.985 -130.856)" fill="url(#linear-gradient-16)"/>
        <path id="Path_5963-2" data-name="Path 5963" d="M267.845,147.563a1.852,1.852,0,0,1,.792.293l.009.007a.585.585,0,0,1,.246.421.587.587,0,0,0-.246-.546l-.009-.007a1.852,1.852,0,0,0-.792-.293Z" transform="translate(-265.273 -146.611)" fill="url(#linear-gradient-17)"/>
      </g>
      <g id="Group_5561-2" data-name="Group 5561" transform="translate(153.769 92.132)" opacity="0.8" style="mix-blend-mode: multiply;isolation: isolate">
        <path id="Path_5964-2" data-name="Path 5964" d="M243.152,160.715a.224.224,0,0,0,.017.082.349.349,0,0,1,.111-.155.581.581,0,0,1,.381-.107.735.735,0,0,1,.482.144.538.538,0,0,1,.117.137.618.618,0,0,0,.564.3l.027,0a.623.623,0,0,0,.578-.719.617.617,0,0,1-.578.531l-.027,0a.618.618,0,0,1-.564-.3.538.538,0,0,0-.117-.137.735.735,0,0,0-.482-.144.581.581,0,0,0-.381.107A.329.329,0,0,0,243.152,160.715Z" transform="translate(-241.811 -160.347)" fill="url(#linear-gradient-18)"/>
        <path id="Path_5965-2" data-name="Path 5965" d="M216.681,173.153a3.155,3.155,0,0,0,1.36.569,1.851,1.851,0,0,1,.742.272.461.461,0,0,1,.149.234.407.407,0,0,0,.011-.1.43.43,0,0,0-.16-.326,1.851,1.851,0,0,0-.742-.272,3.155,3.155,0,0,1-1.36-.57,1.136,1.136,0,0,1-.405-.816c0,.033,0,.065,0,.1A1.145,1.145,0,0,0,216.681,173.153Z" transform="translate(-216.271 -171.56)" fill="url(#linear-gradient-19)"/>
        <path id="Path_5966-2" data-name="Path 5966" d="M218.3,221.622a1.869,1.869,0,0,1-1.162-.437,1.759,1.759,0,0,1-.21-.253.617.617,0,0,1-.1-.254.611.611,0,0,0,.1.442,1.763,1.763,0,0,0,.21.253,1.87,1.87,0,0,0,1.162.437Z" transform="translate(-216.789 -217.668)" fill="url(#linear-gradient-20)"/>
        <path id="Path_5967-2" data-name="Path 5967" d="M247.431,252.247h-.812a.126.126,0,0,1-.126-.126v.188a.126.126,0,0,0,.126.126h.812a.126.126,0,0,0,.126-.126v-.188A.126.126,0,0,1,247.431,252.247Z" transform="translate(-244.985 -247.544)" fill="url(#linear-gradient-21)"/>
        <path id="Path_5968-2" data-name="Path 5968" d="M269.1,210.443a1.561,1.561,0,0,1-.7.577,2.249,2.249,0,0,1-.56.156v.188a2.251,2.251,0,0,0,.56-.156,1.561,1.561,0,0,0,.7-.577,1.487,1.487,0,0,0,.25-.832q0-.049,0-.1A1.484,1.484,0,0,1,269.1,210.443Z" transform="translate(-265.273 -207.241)" fill="url(#linear-gradient-22)"/>
      </g>
    </g>
    <g id="Group_5567" data-name="Group 5567" transform="translate(-26.129 57.808)" style="mix-blend-mode: luminosity;isolation: isolate">
      <circle id="Ellipse_73-3" data-name="Ellipse 73" cx="5.32" cy="5.32" r="5.32" transform="translate(150.489 88.552)" fill="url(#linear-gradient)"/>
      <circle id="Ellipse_74-3" data-name="Ellipse 74" cx="5.093" cy="5.093" r="5.093" transform="translate(150.716 88.779)" fill="url(#linear-gradient-2)"/>
      <circle id="Ellipse_75-3" data-name="Ellipse 75" cx="5.093" cy="5.093" r="5.093" transform="translate(150.716 88.779)" fill="url(#linear-gradient-3)" style="mix-blend-mode: multiply;isolation: isolate"/>
      <path id="Path_5953-3" data-name="Path 5953" d="M158.281,103.171a4.966,4.966,0,0,1,7.76-6.09c-.161.3-.334.587-.515.869a4,4,0,0,0-6.273,4.934C158.934,102.992,158.608,103.088,158.281,103.171Z" transform="translate(-6.714 -6.714)" fill="url(#linear-gradient-4)" style="mix-blend-mode: screen;isolation: isolate"/>
      <path id="Path_5954-3" data-name="Path 5954" d="M268.728,218h-.045a.432.432,0,0,0-.412.277,3.943,3.943,0,0,1-2.927,2.451.434.434,0,0,0-.34.338l0,.011a.535.535,0,0,0,.637.633,4.967,4.967,0,0,0,3.617-3.149.423.423,0,0,0-.424-.562Z" transform="translate(-108.792 -122.988)" opacity="0.35" fill="url(#linear-gradient-5)" style="mix-blend-mode: multiply;isolation: isolate"/>
      <path id="Path_5955-3" data-name="Path 5955" d="M159.163,100.425q.094,0,.187.006a.4.4,0,0,0,.417-.332,3.937,3.937,0,0,1,4.526-3.264.628.628,0,0,0,.652-.3l.005-.009a.445.445,0,0,0-.291-.659,4.964,4.964,0,0,0-5.9,4.09.408.408,0,0,0,.4.471Z" transform="translate(-7.85 -6.851)" fill="url(#linear-gradient-6)" style="mix-blend-mode: screen;isolation: isolate"/>
      <circle id="Ellipse_76-3" data-name="Ellipse 76" cx="3.872" cy="3.872" r="3.872" transform="translate(151.937 90)" fill="url(#linear-gradient-7)"/>
      <circle id="Ellipse_77-3" data-name="Ellipse 77" cx="3.572" cy="3.572" r="3.572" transform="translate(152.237 90.3)" fill="url(#linear-gradient-8)"/>
      <circle id="Ellipse_78-3" data-name="Ellipse 78" cx="3.572" cy="3.572" r="3.572" transform="translate(152.237 90.3)" fill="url(#linear-gradient-9)" style="mix-blend-mode: screen;isolation: isolate"/>
      <path id="Path_5956-3" data-name="Path 5956" d="M224.068,138.1a1.431,1.431,0,0,0-.6-.52,6.088,6.088,0,0,0-1.361-.414,1.188,1.188,0,0,1-.486-.173.261.261,0,0,1-.106-.2.329.329,0,0,1,.128-.261.581.581,0,0,1,.381-.107.735.735,0,0,1,.482.144.539.539,0,0,1,.117.137.618.618,0,0,0,.564.3l.027,0a.617.617,0,0,0,.336-1.109l-.009-.007a1.853,1.853,0,0,0-.792-.293v-.7a.126.126,0,0,0-.126-.126h-.812a.126.126,0,0,0-.126.126v.683a2.284,2.284,0,0,0-.667.16,1.39,1.39,0,0,0-.63.506,1.229,1.229,0,0,0-.21.683,1.145,1.145,0,0,0,.41.905,3.155,3.155,0,0,0,1.36.57,1.852,1.852,0,0,1,.742.272.431.431,0,0,1,.16.326.436.436,0,0,1-.168.338.708.708,0,0,1-.478.146.766.766,0,0,1-.64-.285.694.694,0,0,1-.081-.135.62.62,0,0,0-.6-.345l-.095.006a.618.618,0,0,0-.47.967,1.759,1.759,0,0,0,.21.253,1.869,1.869,0,0,0,1.162.437V141a.126.126,0,0,0,.126.126h.812a.126.126,0,0,0,.126-.126v-.641a2.249,2.249,0,0,0,.56-.156,1.561,1.561,0,0,0,.7-.577,1.487,1.487,0,0,0,.25-.832A1.319,1.319,0,0,0,224.068,138.1Z" transform="translate(-66.212 -43.906)" opacity="0.35" fill="url(#linear-gradient-10)" style="mix-blend-mode: multiply;isolation: isolate"/>
      <path id="Path_5957-3" data-name="Path 5957" d="M220.163,134.191a1.432,1.432,0,0,0-.6-.52,6.09,6.09,0,0,0-1.361-.414,1.188,1.188,0,0,1-.486-.173.261.261,0,0,1-.106-.2.328.328,0,0,1,.128-.261.581.581,0,0,1,.381-.107.735.735,0,0,1,.482.144.537.537,0,0,1,.117.137.618.618,0,0,0,.564.3l.027,0a.617.617,0,0,0,.336-1.109l-.009-.007a1.852,1.852,0,0,0-.792-.293v-.7a.126.126,0,0,0-.126-.126H217.9a.126.126,0,0,0-.126.126v.683a2.282,2.282,0,0,0-.667.16,1.39,1.39,0,0,0-.63.506,1.229,1.229,0,0,0-.21.683,1.145,1.145,0,0,0,.41.905,3.155,3.155,0,0,0,1.36.569,1.851,1.851,0,0,1,.742.272.431.431,0,0,1,.16.326.436.436,0,0,1-.168.338.708.708,0,0,1-.478.146.766.766,0,0,1-.64-.285.69.69,0,0,1-.081-.135.62.62,0,0,0-.6-.345l-.095.006a.618.618,0,0,0-.47.967,1.76,1.76,0,0,0,.21.253,1.87,1.87,0,0,0,1.162.437v.623a.126.126,0,0,0,.126.126h.812a.126.126,0,0,0,.126-.126v-.641a2.25,2.25,0,0,0,.56-.156,1.561,1.561,0,0,0,.7-.577,1.487,1.487,0,0,0,.25-.832A1.318,1.318,0,0,0,220.163,134.191Z" transform="translate(-62.502 -40.195)" fill="url(#linear-gradient-11)"/>
      <path id="Path_5958-3" data-name="Path 5958" d="M220.163,134.191a1.432,1.432,0,0,0-.6-.52,6.09,6.09,0,0,0-1.361-.414,1.188,1.188,0,0,1-.486-.173.261.261,0,0,1-.106-.2.328.328,0,0,1,.128-.261.581.581,0,0,1,.381-.107.735.735,0,0,1,.482.144.537.537,0,0,1,.117.137.618.618,0,0,0,.564.3l.027,0a.617.617,0,0,0,.336-1.109l-.009-.007a1.852,1.852,0,0,0-.792-.293v-.7a.126.126,0,0,0-.126-.126H217.9a.126.126,0,0,0-.126.126v.683a2.282,2.282,0,0,0-.667.16,1.39,1.39,0,0,0-.63.506,1.229,1.229,0,0,0-.21.683,1.145,1.145,0,0,0,.41.905,3.155,3.155,0,0,0,1.36.569,1.851,1.851,0,0,1,.742.272.431.431,0,0,1,.16.326.436.436,0,0,1-.168.338.708.708,0,0,1-.478.146.766.766,0,0,1-.64-.285.69.69,0,0,1-.081-.135.62.62,0,0,0-.6-.345l-.095.006a.618.618,0,0,0-.47.967,1.76,1.76,0,0,0,.21.253,1.87,1.87,0,0,0,1.162.437v.623a.126.126,0,0,0,.126.126h.812a.126.126,0,0,0,.126-.126v-.641a2.25,2.25,0,0,0,.56-.156,1.561,1.561,0,0,0,.7-.577,1.487,1.487,0,0,0,.25-.832A1.318,1.318,0,0,0,220.163,134.191Z" transform="translate(-62.502 -40.195)" fill="url(#linear-gradient-12)" style="mix-blend-mode: screen;isolation: isolate"/>
      <g id="Group_5560-3" data-name="Group 5560" transform="translate(153.769 90.661)" style="mix-blend-mode: screen;isolation: isolate">
        <path id="Path_5959-3" data-name="Path 5959" d="M243.744,172.94a1.188,1.188,0,0,1-.486-.173.285.285,0,0,1-.1-.145.337.337,0,0,0-.007.069.261.261,0,0,0,.106.2,1.188,1.188,0,0,0,.486.173,6.088,6.088,0,0,1,1.361.414,1.432,1.432,0,0,1,.6.52,1.3,1.3,0,0,1,.185.628c0-.02,0-.039,0-.059a1.318,1.318,0,0,0-.187-.694,1.432,1.432,0,0,0-.6-.52A6.09,6.09,0,0,0,243.744,172.94Z" transform="translate(-241.811 -170.539)" fill="url(#linear-gradient-13)"/>
        <path id="Path_5960-3" data-name="Path 5960" d="M219.458,210.363a.452.452,0,0,1-.163.274.708.708,0,0,1-.478.146.766.766,0,0,1-.64-.285.69.69,0,0,1-.081-.135.62.62,0,0,0-.6-.345l-.095.006a.617.617,0,0,0-.575.679.615.615,0,0,1,.575-.554l.095-.006a.62.62,0,0,1,.6.345.691.691,0,0,0,.081.135.766.766,0,0,0,.64.285.708.708,0,0,0,.478-.146.436.436,0,0,0,.168-.338A.4.4,0,0,0,219.458,210.363Z" transform="translate(-216.792 -206.069)" fill="url(#linear-gradient-14)"/>
        <path id="Path_5961-3" data-name="Path 5961" d="M216.481,147.878a1.389,1.389,0,0,1,.63-.506,2.281,2.281,0,0,1,.667-.16v-.125a2.281,2.281,0,0,0-.667.16,1.389,1.389,0,0,0-.63.506,1.229,1.229,0,0,0-.21.683c0,.019,0,.036,0,.054A1.237,1.237,0,0,1,216.481,147.878Z" transform="translate(-216.271 -146.278)" fill="url(#linear-gradient-15)"/>
        <path id="Path_5962-3" data-name="Path 5962" d="M246.618,130.981h.812a.126.126,0,0,1,.126.126v-.125a.126.126,0,0,0-.126-.126h-.812a.126.126,0,0,0-.126.126v.125A.126.126,0,0,1,246.618,130.981Z" transform="translate(-244.985 -130.856)" fill="url(#linear-gradient-16)"/>
        <path id="Path_5963-3" data-name="Path 5963" d="M267.845,147.563a1.852,1.852,0,0,1,.792.293l.009.007a.585.585,0,0,1,.246.421.587.587,0,0,0-.246-.546l-.009-.007a1.852,1.852,0,0,0-.792-.293Z" transform="translate(-265.273 -146.611)" fill="url(#linear-gradient-17)"/>
      </g>
      <g id="Group_5561-3" data-name="Group 5561" transform="translate(153.769 92.132)" opacity="0.8" style="mix-blend-mode: multiply;isolation: isolate">
        <path id="Path_5964-3" data-name="Path 5964" d="M243.152,160.715a.224.224,0,0,0,.017.082.349.349,0,0,1,.111-.155.581.581,0,0,1,.381-.107.735.735,0,0,1,.482.144.538.538,0,0,1,.117.137.618.618,0,0,0,.564.3l.027,0a.623.623,0,0,0,.578-.719.617.617,0,0,1-.578.531l-.027,0a.618.618,0,0,1-.564-.3.538.538,0,0,0-.117-.137.735.735,0,0,0-.482-.144.581.581,0,0,0-.381.107A.329.329,0,0,0,243.152,160.715Z" transform="translate(-241.811 -160.347)" fill="url(#linear-gradient-18)"/>
        <path id="Path_5965-3" data-name="Path 5965" d="M216.681,173.153a3.155,3.155,0,0,0,1.36.569,1.851,1.851,0,0,1,.742.272.461.461,0,0,1,.149.234.407.407,0,0,0,.011-.1.43.43,0,0,0-.16-.326,1.851,1.851,0,0,0-.742-.272,3.155,3.155,0,0,1-1.36-.57,1.136,1.136,0,0,1-.405-.816c0,.033,0,.065,0,.1A1.145,1.145,0,0,0,216.681,173.153Z" transform="translate(-216.271 -171.56)" fill="url(#linear-gradient-19)"/>
        <path id="Path_5966-3" data-name="Path 5966" d="M218.3,221.622a1.869,1.869,0,0,1-1.162-.437,1.759,1.759,0,0,1-.21-.253.617.617,0,0,1-.1-.254.611.611,0,0,0,.1.442,1.763,1.763,0,0,0,.21.253,1.87,1.87,0,0,0,1.162.437Z" transform="translate(-216.789 -217.668)" fill="url(#linear-gradient-20)"/>
        <path id="Path_5967-3" data-name="Path 5967" d="M247.431,252.247h-.812a.126.126,0,0,1-.126-.126v.188a.126.126,0,0,0,.126.126h.812a.126.126,0,0,0,.126-.126v-.188A.126.126,0,0,1,247.431,252.247Z" transform="translate(-244.985 -247.544)" fill="url(#linear-gradient-21)"/>
        <path id="Path_5968-3" data-name="Path 5968" d="M269.1,210.443a1.561,1.561,0,0,1-.7.577,2.249,2.249,0,0,1-.56.156v.188a2.251,2.251,0,0,0,.56-.156,1.561,1.561,0,0,0,.7-.577,1.487,1.487,0,0,0,.25-.832q0-.049,0-.1A1.484,1.484,0,0,1,269.1,210.443Z" transform="translate(-265.273 -207.241)" fill="url(#linear-gradient-22)"/>
      </g>
    </g>
    <g id="Group_5568" data-name="Group 5568" transform="translate(-41.129 39.808)" style="mix-blend-mode: luminosity;isolation: isolate">
      <circle id="Ellipse_73-4" data-name="Ellipse 73" cx="5.32" cy="5.32" r="5.32" transform="translate(150.489 88.552)" fill="url(#linear-gradient)"/>
      <circle id="Ellipse_74-4" data-name="Ellipse 74" cx="5.093" cy="5.093" r="5.093" transform="translate(150.716 88.779)" fill="url(#linear-gradient-2)"/>
      <circle id="Ellipse_75-4" data-name="Ellipse 75" cx="5.093" cy="5.093" r="5.093" transform="translate(150.716 88.779)" fill="url(#linear-gradient-3)" style="mix-blend-mode: multiply;isolation: isolate"/>
      <path id="Path_5953-4" data-name="Path 5953" d="M158.281,103.171a4.966,4.966,0,0,1,7.76-6.09c-.161.3-.334.587-.515.869a4,4,0,0,0-6.273,4.934C158.934,102.992,158.608,103.088,158.281,103.171Z" transform="translate(-6.714 -6.714)" fill="url(#linear-gradient-4)" style="mix-blend-mode: screen;isolation: isolate"/>
      <path id="Path_5954-4" data-name="Path 5954" d="M268.728,218h-.045a.432.432,0,0,0-.412.277,3.943,3.943,0,0,1-2.927,2.451.434.434,0,0,0-.34.338l0,.011a.535.535,0,0,0,.637.633,4.967,4.967,0,0,0,3.617-3.149.423.423,0,0,0-.424-.562Z" transform="translate(-108.792 -122.988)" opacity="0.35" fill="url(#linear-gradient-5)" style="mix-blend-mode: multiply;isolation: isolate"/>
      <path id="Path_5955-4" data-name="Path 5955" d="M159.163,100.425q.094,0,.187.006a.4.4,0,0,0,.417-.332,3.937,3.937,0,0,1,4.526-3.264.628.628,0,0,0,.652-.3l.005-.009a.445.445,0,0,0-.291-.659,4.964,4.964,0,0,0-5.9,4.09.408.408,0,0,0,.4.471Z" transform="translate(-7.85 -6.851)" fill="url(#linear-gradient-6)" style="mix-blend-mode: screen;isolation: isolate"/>
      <circle id="Ellipse_76-4" data-name="Ellipse 76" cx="3.872" cy="3.872" r="3.872" transform="translate(151.937 90)" fill="url(#linear-gradient-7)"/>
      <circle id="Ellipse_77-4" data-name="Ellipse 77" cx="3.572" cy="3.572" r="3.572" transform="translate(152.237 90.3)" fill="url(#linear-gradient-8)"/>
      <circle id="Ellipse_78-4" data-name="Ellipse 78" cx="3.572" cy="3.572" r="3.572" transform="translate(152.237 90.3)" fill="url(#linear-gradient-9)" style="mix-blend-mode: screen;isolation: isolate"/>
      <path id="Path_5956-4" data-name="Path 5956" d="M224.068,138.1a1.431,1.431,0,0,0-.6-.52,6.088,6.088,0,0,0-1.361-.414,1.188,1.188,0,0,1-.486-.173.261.261,0,0,1-.106-.2.329.329,0,0,1,.128-.261.581.581,0,0,1,.381-.107.735.735,0,0,1,.482.144.539.539,0,0,1,.117.137.618.618,0,0,0,.564.3l.027,0a.617.617,0,0,0,.336-1.109l-.009-.007a1.853,1.853,0,0,0-.792-.293v-.7a.126.126,0,0,0-.126-.126h-.812a.126.126,0,0,0-.126.126v.683a2.284,2.284,0,0,0-.667.16,1.39,1.39,0,0,0-.63.506,1.229,1.229,0,0,0-.21.683,1.145,1.145,0,0,0,.41.905,3.155,3.155,0,0,0,1.36.57,1.852,1.852,0,0,1,.742.272.431.431,0,0,1,.16.326.436.436,0,0,1-.168.338.708.708,0,0,1-.478.146.766.766,0,0,1-.64-.285.694.694,0,0,1-.081-.135.62.62,0,0,0-.6-.345l-.095.006a.618.618,0,0,0-.47.967,1.759,1.759,0,0,0,.21.253,1.869,1.869,0,0,0,1.162.437V141a.126.126,0,0,0,.126.126h.812a.126.126,0,0,0,.126-.126v-.641a2.249,2.249,0,0,0,.56-.156,1.561,1.561,0,0,0,.7-.577,1.487,1.487,0,0,0,.25-.832A1.319,1.319,0,0,0,224.068,138.1Z" transform="translate(-66.212 -43.906)" opacity="0.35" fill="url(#linear-gradient-10)" style="mix-blend-mode: multiply;isolation: isolate"/>
      <path id="Path_5957-4" data-name="Path 5957" d="M220.163,134.191a1.432,1.432,0,0,0-.6-.52,6.09,6.09,0,0,0-1.361-.414,1.188,1.188,0,0,1-.486-.173.261.261,0,0,1-.106-.2.328.328,0,0,1,.128-.261.581.581,0,0,1,.381-.107.735.735,0,0,1,.482.144.537.537,0,0,1,.117.137.618.618,0,0,0,.564.3l.027,0a.617.617,0,0,0,.336-1.109l-.009-.007a1.852,1.852,0,0,0-.792-.293v-.7a.126.126,0,0,0-.126-.126H217.9a.126.126,0,0,0-.126.126v.683a2.282,2.282,0,0,0-.667.16,1.39,1.39,0,0,0-.63.506,1.229,1.229,0,0,0-.21.683,1.145,1.145,0,0,0,.41.905,3.155,3.155,0,0,0,1.36.569,1.851,1.851,0,0,1,.742.272.431.431,0,0,1,.16.326.436.436,0,0,1-.168.338.708.708,0,0,1-.478.146.766.766,0,0,1-.64-.285.69.69,0,0,1-.081-.135.62.62,0,0,0-.6-.345l-.095.006a.618.618,0,0,0-.47.967,1.76,1.76,0,0,0,.21.253,1.87,1.87,0,0,0,1.162.437v.623a.126.126,0,0,0,.126.126h.812a.126.126,0,0,0,.126-.126v-.641a2.25,2.25,0,0,0,.56-.156,1.561,1.561,0,0,0,.7-.577,1.487,1.487,0,0,0,.25-.832A1.318,1.318,0,0,0,220.163,134.191Z" transform="translate(-62.502 -40.195)" fill="url(#linear-gradient-11)"/>
      <path id="Path_5958-4" data-name="Path 5958" d="M220.163,134.191a1.432,1.432,0,0,0-.6-.52,6.09,6.09,0,0,0-1.361-.414,1.188,1.188,0,0,1-.486-.173.261.261,0,0,1-.106-.2.328.328,0,0,1,.128-.261.581.581,0,0,1,.381-.107.735.735,0,0,1,.482.144.537.537,0,0,1,.117.137.618.618,0,0,0,.564.3l.027,0a.617.617,0,0,0,.336-1.109l-.009-.007a1.852,1.852,0,0,0-.792-.293v-.7a.126.126,0,0,0-.126-.126H217.9a.126.126,0,0,0-.126.126v.683a2.282,2.282,0,0,0-.667.16,1.39,1.39,0,0,0-.63.506,1.229,1.229,0,0,0-.21.683,1.145,1.145,0,0,0,.41.905,3.155,3.155,0,0,0,1.36.569,1.851,1.851,0,0,1,.742.272.431.431,0,0,1,.16.326.436.436,0,0,1-.168.338.708.708,0,0,1-.478.146.766.766,0,0,1-.64-.285.69.69,0,0,1-.081-.135.62.62,0,0,0-.6-.345l-.095.006a.618.618,0,0,0-.47.967,1.76,1.76,0,0,0,.21.253,1.87,1.87,0,0,0,1.162.437v.623a.126.126,0,0,0,.126.126h.812a.126.126,0,0,0,.126-.126v-.641a2.25,2.25,0,0,0,.56-.156,1.561,1.561,0,0,0,.7-.577,1.487,1.487,0,0,0,.25-.832A1.318,1.318,0,0,0,220.163,134.191Z" transform="translate(-62.502 -40.195)" fill="url(#linear-gradient-12)" style="mix-blend-mode: screen;isolation: isolate"/>
      <g id="Group_5560-4" data-name="Group 5560" transform="translate(153.769 90.661)" style="mix-blend-mode: screen;isolation: isolate">
        <path id="Path_5959-4" data-name="Path 5959" d="M243.744,172.94a1.188,1.188,0,0,1-.486-.173.285.285,0,0,1-.1-.145.337.337,0,0,0-.007.069.261.261,0,0,0,.106.2,1.188,1.188,0,0,0,.486.173,6.088,6.088,0,0,1,1.361.414,1.432,1.432,0,0,1,.6.52,1.3,1.3,0,0,1,.185.628c0-.02,0-.039,0-.059a1.318,1.318,0,0,0-.187-.694,1.432,1.432,0,0,0-.6-.52A6.09,6.09,0,0,0,243.744,172.94Z" transform="translate(-241.811 -170.539)" fill="url(#linear-gradient-13)"/>
        <path id="Path_5960-4" data-name="Path 5960" d="M219.458,210.363a.452.452,0,0,1-.163.274.708.708,0,0,1-.478.146.766.766,0,0,1-.64-.285.69.69,0,0,1-.081-.135.62.62,0,0,0-.6-.345l-.095.006a.617.617,0,0,0-.575.679.615.615,0,0,1,.575-.554l.095-.006a.62.62,0,0,1,.6.345.691.691,0,0,0,.081.135.766.766,0,0,0,.64.285.708.708,0,0,0,.478-.146.436.436,0,0,0,.168-.338A.4.4,0,0,0,219.458,210.363Z" transform="translate(-216.792 -206.069)" fill="url(#linear-gradient-14)"/>
        <path id="Path_5961-4" data-name="Path 5961" d="M216.481,147.878a1.389,1.389,0,0,1,.63-.506,2.281,2.281,0,0,1,.667-.16v-.125a2.281,2.281,0,0,0-.667.16,1.389,1.389,0,0,0-.63.506,1.229,1.229,0,0,0-.21.683c0,.019,0,.036,0,.054A1.237,1.237,0,0,1,216.481,147.878Z" transform="translate(-216.271 -146.278)" fill="url(#linear-gradient-15)"/>
        <path id="Path_5962-4" data-name="Path 5962" d="M246.618,130.981h.812a.126.126,0,0,1,.126.126v-.125a.126.126,0,0,0-.126-.126h-.812a.126.126,0,0,0-.126.126v.125A.126.126,0,0,1,246.618,130.981Z" transform="translate(-244.985 -130.856)" fill="url(#linear-gradient-16)"/>
        <path id="Path_5963-4" data-name="Path 5963" d="M267.845,147.563a1.852,1.852,0,0,1,.792.293l.009.007a.585.585,0,0,1,.246.421.587.587,0,0,0-.246-.546l-.009-.007a1.852,1.852,0,0,0-.792-.293Z" transform="translate(-265.273 -146.611)" fill="url(#linear-gradient-17)"/>
      </g>
      <g id="Group_5561-4" data-name="Group 5561" transform="translate(153.769 92.132)" opacity="0.8" style="mix-blend-mode: multiply;isolation: isolate">
        <path id="Path_5964-4" data-name="Path 5964" d="M243.152,160.715a.224.224,0,0,0,.017.082.349.349,0,0,1,.111-.155.581.581,0,0,1,.381-.107.735.735,0,0,1,.482.144.538.538,0,0,1,.117.137.618.618,0,0,0,.564.3l.027,0a.623.623,0,0,0,.578-.719.617.617,0,0,1-.578.531l-.027,0a.618.618,0,0,1-.564-.3.538.538,0,0,0-.117-.137.735.735,0,0,0-.482-.144.581.581,0,0,0-.381.107A.329.329,0,0,0,243.152,160.715Z" transform="translate(-241.811 -160.347)" fill="url(#linear-gradient-18)"/>
        <path id="Path_5965-4" data-name="Path 5965" d="M216.681,173.153a3.155,3.155,0,0,0,1.36.569,1.851,1.851,0,0,1,.742.272.461.461,0,0,1,.149.234.407.407,0,0,0,.011-.1.43.43,0,0,0-.16-.326,1.851,1.851,0,0,0-.742-.272,3.155,3.155,0,0,1-1.36-.57,1.136,1.136,0,0,1-.405-.816c0,.033,0,.065,0,.1A1.145,1.145,0,0,0,216.681,173.153Z" transform="translate(-216.271 -171.56)" fill="url(#linear-gradient-19)"/>
        <path id="Path_5966-4" data-name="Path 5966" d="M218.3,221.622a1.869,1.869,0,0,1-1.162-.437,1.759,1.759,0,0,1-.21-.253.617.617,0,0,1-.1-.254.611.611,0,0,0,.1.442,1.763,1.763,0,0,0,.21.253,1.87,1.87,0,0,0,1.162.437Z" transform="translate(-216.789 -217.668)" fill="url(#linear-gradient-20)"/>
        <path id="Path_5967-4" data-name="Path 5967" d="M247.431,252.247h-.812a.126.126,0,0,1-.126-.126v.188a.126.126,0,0,0,.126.126h.812a.126.126,0,0,0,.126-.126v-.188A.126.126,0,0,1,247.431,252.247Z" transform="translate(-244.985 -247.544)" fill="url(#linear-gradient-21)"/>
        <path id="Path_5968-4" data-name="Path 5968" d="M269.1,210.443a1.561,1.561,0,0,1-.7.577,2.249,2.249,0,0,1-.56.156v.188a2.251,2.251,0,0,0,.56-.156,1.561,1.561,0,0,0,.7-.577,1.487,1.487,0,0,0,.25-.832q0-.049,0-.1A1.484,1.484,0,0,1,269.1,210.443Z" transform="translate(-265.273 -207.241)" fill="url(#linear-gradient-22)"/>
      </g>
    </g>
  </g>
</svg>
