<svg xmlns="http://www.w3.org/2000/svg" xmlns:xlink="http://www.w3.org/1999/xlink" width="255.839" height="190.303" viewBox="0 0 255.839 190.303">
  <defs>
    <linearGradient id="linear-gradient" x1="0.5" y1="1" x2="0.5" gradientUnits="objectBoundingBox">
      <stop offset="0" stop-color="gray" stop-opacity="0.251"/>
      <stop offset="0.54" stop-color="gray" stop-opacity="0.122"/>
      <stop offset="1" stop-color="gray" stop-opacity="0.102"/>
    </linearGradient>
    <linearGradient id="linear-gradient-2" y2="0" xlink:href="#linear-gradient"/>
  </defs>
  <g id="Group_5678" data-name="Group 5678" transform="translate(-1490 -4332)">
    <path id="Path_5984" data-name="Path 5984" d="M106.811,82.918a8.089,8.089,0,0,0-4.1,2.994c-.927,1.57-.816,3.519-.643,5.335,1.5,15.751,5.463,32.5-1.375,46.769-3.319,6.922-8.871,12.468-13.286,18.754s-7.75,14.134-5.7,21.529c2.5,9.036,11.847,14.045,18.146,21,4.122,4.546,7.013,10.071,10.859,14.854s9.117,9,15.258,9.277c8.831.407,16.017-7.22,24.675-8.987,8.871-1.809,17.8,2.794,25,8.3s13.735,12.185,22.115,15.625c9.255,3.8,19.688,3.221,29.431,5.5,8.871,2.082,17.037,6.51,25.843,8.871s19.129,2.218,25.952-3.812c8.893-7.885,8.193-21.93,13.873-32.361,5.276-9.691,15.6-15.477,22.554-24.045,12.508-15.42,12.1-38.989,1.478-55.76S287.03,109.843,267.359,107.2c-8.871-1.19-18.005-1.028-26.533-3.736-22.827-7.244-36.412-33.2-59.717-38.6-14.814-3.428-29.222,2.508-41.84,9.815C128.315,81.018,118.21,78.19,106.811,82.918Z" transform="translate(1408.913 4268.136)" fill="#6c63ff" opacity="0.1"/>
    <path id="Path_5993" data-name="Path 5993" d="M178.57,347.69s-8.41,7.937-17.436,8.173a17.517,17.517,0,0,0-10.44,3.713,29.464,29.464,0,0,0-3.9,3.713" transform="translate(1359.4 4054.247)" fill="none" stroke="#535461" stroke-miterlimit="10" stroke-width="2"/>
    <path id="Path_5997" data-name="Path 5997" d="M119.124,410.75c1.212-.616,5.84-.207,5.84-.207s-2.4,3.98-3.612,4.6a2.464,2.464,0,1,1-2.218-4.389Z" transform="translate(1381.374 4006.982)" fill="#6c63ff"/>
    <path id="Path_5998" data-name="Path 5998" d="M135.474,383.226c1.353.143,5.014,3,5.014,3s-4.189,2.035-5.529,1.895a2.464,2.464,0,0,1,.515-4.9Z" transform="translate(1369.895 4027.471)" fill="#6c63ff"/>
    <path id="Path_5994" data-name="Path 5994" d="M178.625,358.965c1.094.806,2.814,5.123,2.814,5.123s-4.635-.352-5.729-1.156a2.464,2.464,0,0,1,2.915-3.967Z" transform="translate(1338.296 4046.063)" fill="#6c63ff"/>
    <path id="Path_5995" data-name="Path 5995" d="M218.473,349.837c1.215.609,3.639,4.573,3.639,4.573s-4.628.436-5.842-.172a2.464,2.464,0,1,1,2.2-4.4Z" transform="translate(1308.155 4052.872)" fill="#6c63ff"/>
    <path id="Path_5999" data-name="Path 5999" d="M159.428,395.913c.4-1.3-.779-5.793-.779-5.793s-3.519,3.036-3.923,4.334a2.464,2.464,0,1,0,4.7,1.459Z" transform="translate(1353.53 4022.272)" fill="#6c63ff"/>
    <path id="Path_6000" data-name="Path 6000" d="M205.133,385.813c0-1.36-2.476-5.293-2.476-5.293s-2.449,3.943-2.447,5.308a2.464,2.464,0,1,0,4.928-.015Z" transform="translate(1319.143 4029.507)" fill="#6c63ff"/>
    <path id="Path_5996" data-name="Path 5996" d="M248.38,367.405c.227-1.34-1.547-5.635-1.547-5.635s-3.083,3.479-3.307,4.82a2.464,2.464,0,0,0,4.854.818Z" transform="translate(1286.515 4043.637)" fill="#6c63ff"/>
    <path id="Path_5987" data-name="Path 5987" d="M244.8,184.574s-10.13-5.564-13.141-14.087a17.517,17.517,0,0,0-6.744-8.794,29.462,29.462,0,0,0-4.741-2.563" transform="translate(1304.101 4196.344)" fill="none" stroke="#535461" stroke-miterlimit="10" stroke-width="2"/>
    <path id="Path_5985" data-name="Path 5985" d="M199.756,135.412c.959.963,1.991,5.495,1.991,5.495s-4.524-1.06-5.483-2.025a2.464,2.464,0,0,1,3.492-3.469Z" transform="translate(1322.594 4214.703)" fill="#6c63ff"/>
    <path id="Path_5986" data-name="Path 5986" d="M230.655,141.084c.281,1.331-1.313,5.695-1.313,5.695s-3.221-3.349-3.5-4.682a2.464,2.464,0,1,1,4.817-1.015Z" transform="translate(1299.888 4211.502)" fill="#6c63ff"/>
    <path id="Path_5988" data-name="Path 5988" d="M267.334,175.077c-.429,1.289-4.009,4.253-4.009,4.253s-1.089-4.517-.66-5.808a2.467,2.467,0,1,1,4.682,1.555Z" transform="translate(1272.154 4186.772)" fill="#6c63ff"/>
    <path id="Path_5990" data-name="Path 5990" d="M288.068,210.515c-.2,1.343-3.233,4.869-3.233,4.869s-1.838-4.268-1.634-5.611a2.464,2.464,0,1,1,4.867.739Z" transform="translate(1256.614 4159.847)" fill="#6c63ff"/>
    <path id="Path_5989" data-name="Path 5989" d="M218.537,171.013c1.36-.015,5.273-2.523,5.273-2.523s-3.97-2.415-5.33-2.4a2.464,2.464,0,1,0,.057,4.928Z" transform="translate(1307.211 4191.1)" fill="#6c63ff"/>
    <path id="Path_5991" data-name="Path 5991" d="M241.18,211.609c1.291-.421,4.275-3.984,4.275-3.984s-4.512-1.116-5.8-.695a2.464,2.464,0,1,0,1.528,4.682Z" transform="translate(1290.767 4160.395)" fill="#6c63ff"/>
    <path id="Path_5992" data-name="Path 5992" d="M272.179,246.934c1.345-.2,4.889-3.2,4.889-3.2s-4.258-1.863-5.6-1.666a2.464,2.464,0,1,0,.715,4.872Z" transform="translate(1267.111 4133.856)" fill="#6c63ff"/>
    <circle id="Ellipse_83" data-name="Ellipse 83" cx="89.2" cy="89.2" r="89.2" transform="translate(1529.409 4337.521)" fill="url(#linear-gradient)"/>
    <circle id="Ellipse_84" data-name="Ellipse 84" cx="87.722" cy="87.722" r="87.722" transform="translate(1530.888 4339)" fill="#6c63ff"/>
    <circle id="Ellipse_85" data-name="Ellipse 85" cx="69.734" cy="69.734" r="69.734" transform="translate(1548.875 4356.987)" fill="#dde1ec"/>
    <rect id="Rectangle_1113" data-name="Rectangle 1113" width="3.943" height="61.602" transform="translate(1616.638 4369.308)" fill="#535461" opacity="0.3"/>
    <g id="Group_5664" data-name="Group 5664" transform="translate(1581.195 4406.805)" opacity="0.1">
      <rect id="Rectangle_1092" data-name="Rectangle 1092" width="55.689" height="4.928" transform="translate(41.604 18.438)"/>
      <rect id="Rectangle_1093" data-name="Rectangle 1093" width="4.928" height="39.554" transform="translate(0 4.366) rotate(-62.36)"/>
      <circle id="Ellipse_70" data-name="Ellipse 70" cx="7.392" cy="7.392" r="7.392" transform="translate(30.022 13.51)"/>
    </g>
    <rect id="Rectangle_1114" data-name="Rectangle 1114" width="55.689" height="4.928" transform="translate(1622.798 4424.257)" fill="#535461"/>
    <rect id="Rectangle_1112" data-name="Rectangle 1112" width="39.554" height="4.928" transform="translate(1583.498 4405.825) rotate(27.64)" fill="#535461"/>
    <circle id="Ellipse_86" data-name="Ellipse 86" cx="7.392" cy="7.392" r="7.392" transform="translate(1611.217 4419.329)" fill="#535461"/>
    <g id="Group_5663" data-name="Group 5663" transform="translate(1548.87 4356.987)" opacity="0.1">
      <path id="Path_5907" data-name="Path 5907" d="M325.421,243.382a69.739,69.739,0,0,1,125.462-41.929,69.741,69.741,0,1,0-116.87,75.48A69.416,69.416,0,0,1,325.421,243.382Z" transform="translate(-320 -165.27)"/>
    </g>
    <path id="Path_6001" data-name="Path 6001" d="M689.24,194.249c-.828-.8-7.8,4.435-7.8,4.435s-2.481.453-1.89,2.156-2.6,11.239-2.6,11.239l-1.3-1.816a7.8,7.8,0,0,0-1.032-4.583c-.047-.076-.094-.15-.14-.219l.227-.079c-.086-1.163-1.947-2.935-2.935-3.8v-.375c.062-1.39.618-2.856,0-4.115-.7-1.437-2.747-2.159-2.92-3.736-.1-.941.532-1.791.813-2.7.67-2.168-.722-4.381-2.053-6.249a8.736,8.736,0,0,0-1.629-1.878,7.9,7.9,0,0,0-1.956-1.045,50.037,50.037,0,0,0-5.953-1.725,9.482,9.482,0,0,0-5.667-.113,2.787,2.787,0,0,0-1.232.707,7.623,7.623,0,0,0-.833,1.89,6.736,6.736,0,0,1-2.494,2.245,3.583,3.583,0,0,0-1.885,2.634c0,1.575,1.8,2.565,2.4,4.031.562,1.365,0,2.885-.313,4.324a2.9,2.9,0,0,0-.037,1.427,3.066,3.066,0,0,0,.552.961c.372.493.771.951,1.168,1.419l-.182.071c-3.307-.34-5.433,3.859-5.433,3.859.153.032.3.069.441.111l-.14.182a17.929,17.929,0,0,0-2.427,4.246l-2.711,3.632s-.591-9.083.828-11.125-1.3-3.292-1.3-3.292-5.914-6.584-6.734-6.017,2.008,7.72,4.49,8.856a10.905,10.905,0,0,1-.247,3.745c-.3.934-1.89,10.785-1.89,10.785s-1.417,8.287,5.081,4.189c4.221-2.656,6.949-7.23,8.339-10.1q.145-.3.273-.579a6.924,6.924,0,0,1,.131.924l.246,9.494a14.41,14.41,0,0,1-1.493,6.781l-2.9,5.872.323.1-.195.281c-1.907,2.807-5.15,9.117,1.525,12.333l8.871,1.136-.473,2.269s-3.662,6.924-4.726,11.692a35.036,35.036,0,0,1-3.073,8.4l.274.145c-.057.064-.116.131-.173.2a4.283,4.283,0,0,0-1.025,2.149l-1.2,1.705s-.473,7.037.473,8.743c.517.931,2.235,1.523,3.7,1.868a2.434,2.434,0,0,0,2.767-3.57l-.015-.025h-.022c-.246-1.146-1-4.7-.754-6.052.069-.384.133-.766.165-1.156a4.086,4.086,0,0,1,.458-1.461c.039-.076.081-.15.123-.224l.128.054c.4.17.789.33,1.161.471-.577.525-.986,1.611-.493,3.846,0,0,.047,5.591.473,6.471s5.2,2.043,6.025,1.136-.532-4.031-.532-4.031l-.042.03c-.273-1.811-.611-5.054.219-6.33.335-.515.66-1.047.951-1.545l.18-.308h0c1.543.769,3.174,1.348,4.066.946,0,0,3.9-9.083,3.662-10.216s6.025-13.964,6.025-13.964,5.315-5.914-1.18-9.989c-2.062-1.3-3.566-2.171-4.657-2.76l-.914-4.78a17.475,17.475,0,0,1,.246-7.555l.986-3.76h0l.081-.32s2.481-5.108,2.363-7.493a1.727,1.727,0,0,1,.062-.55q.041.17.089.355a45.8,45.8,0,0,0,2.568,7.235c1.885,4.253,4.682,3.915,6.214,3.312a2.122,2.122,0,0,0,1.308-1.533c.552-2.646,2.067-10.061,2.164-12.109a34.451,34.451,0,0,1,.591-4.768C686.761,199.017,690.068,195.045,689.24,194.249Z" transform="translate(993.801 4181.174)" fill="url(#linear-gradient-2)"/>
    <path id="Path_6010" data-name="Path 6010" d="M724.118,531.519s-.52,1.042-1.232,2.294c-.278.493-.589,1.023-.907,1.533-1.126,1.8,0,7.54,0,7.54l-2.464.338-2.464-1.232-.451-4.164v-3.046l2.809-3.142,1.232-1.36Z" transform="translate(929.997 3916.649)" fill="#f8bdc5"/>
    <g id="Group_5669" data-name="Group 5669" transform="translate(1649.401 4446.929)" opacity="0.1">
      <path id="Path_5910" data-name="Path 5910" d="M732.694,531.519s-.52,1.042-1.232,2.294a30.54,30.54,0,0,1-3.149-1.937l-.217-.153-.116-.084,1.232-1.36Z" transform="translate(-727.98 -530.28)"/>
    </g>
    <path id="Path_6004" data-name="Path 6004" d="M734.718,400.99s-5.966,12.717-5.739,13.843-3.489,10.13-3.489,10.13c-.848.4-2.4-.175-3.874-.936a30.354,30.354,0,0,1-3.2-1.971l-.217-.153-.131-.094,9.792-27.125-8.664-6.355-.641-.471L714.68,385l11.828,2.139s.411-.052,2.587,1.165c1.045.584,2.5,1.459,4.5,2.775C739.779,395.137,734.718,400.99,734.718,400.99Z" transform="translate(931.444 4026.131)" fill="#5e52ad"/>
    <g id="Group_5665" data-name="Group 5665" transform="translate(1646.124 4411.131)" opacity="0.03">
      <path id="Path_5912" data-name="Path 5912" d="M734.718,400.99s-5.966,12.717-5.739,13.843-3.489,10.13-3.489,10.13c-.848.4-2.4-.175-3.874-.936a30.354,30.354,0,0,1-3.2-1.971l-.217-.153-.131-.094,9.792-27.125-8.664-6.355-.641-.471L714.68,385l11.828,2.139s.411-.052,2.587,1.165c1.045.584,2.5,1.459,4.5,2.775C739.779,395.137,734.718,400.99,734.718,400.99Z" transform="translate(-714.68 -385)"/>
    </g>
    <path id="Path_6011" data-name="Path 6011" d="M715.948,544.4s-2.927-.451-1.912,4.278c0,0,.044,5.544.451,6.407s4.953,2.026,5.739,1.126-.508-3.994-.508-3.994-3.319,2.42-4.221-.17S715.948,544.4,715.948,544.4Z" transform="translate(932.09 3906.014)" fill="#5d3e53"/>
    <path id="Path_6012" data-name="Path 6012" d="M693.572,533.917a3.551,3.551,0,0,0-.766,1.064,4.169,4.169,0,0,0-.436,1.449c-.03.384-.091.766-.155,1.146-.281,1.6.8,6.357.8,6.357l-4.278.675-1.575-1.688-.338-3.713a13.456,13.456,0,0,0,.675-3.943,4.131,4.131,0,0,1,.986-2.464,6.771,6.771,0,0,1,1.141-1.131S694.473,533.129,693.572,533.917Z" transform="translate(952.439 3915.602)" fill="#f8bdc5"/>
    <g id="Group_5670" data-name="Group 5670" transform="translate(1640.929 4447.267)" opacity="0.1">
      <path id="Path_5915" data-name="Path 5915" d="M698.681,533.9a3.549,3.549,0,0,0-.766,1.064c-1.752-.791-3.593-1.789-4.263-2.159l-.052-.027a6.777,6.777,0,0,1,1.141-1.131S699.583,533.114,698.681,533.9Z" transform="translate(-693.6 -531.65)"/>
    </g>
    <path id="Path_6005" data-name="Path 6005" d="M698.825,397.614s-2.812,5.29-4.615,9.679c-1.183,2.883-3.627,9.748-5.175,14.119l-.227.646c-.68,1.934-1.133,3.243-1.133,3.243a2.93,2.93,0,0,1-.885-.131c-.266-.071-.564-.168-.882-.286l-.357-.136c-.355-.138-.739-.3-1.106-.466-1.789-.8-3.7-1.838-4.388-2.218l-.261-.145a35.6,35.6,0,0,0,2.935-8.336c1.013-4.726,4.5-11.581,4.5-11.581l.451-2.252-8.442-1.126c-6.36-3.179-3.27-9.445-1.454-12.227a16.432,16.432,0,0,1,1-1.4l6.754,1.478s1.065.34,3.43,1.387l1.087.493c1.326.609,2.957,1.392,4.928,2.4C701.636,394.117,698.825,397.614,698.825,397.614Z" transform="translate(961.031 4026.131)" fill="#5e52ad"/>
    <path id="Path_6013" data-name="Path 6013" d="M691.239,553.385a2.39,2.39,0,0,1-2.637,3.538c-1.382-.343-3.021-.929-3.514-1.853-.9-1.688-.451-8.666-.451-8.666l1.183-1.745s-.619,7.71.845,8.378,4.559.313,4.559.313Z" transform="translate(954.167 3905.813)" fill="#5d3e53"/>
    <path id="Path_6006" data-name="Path 6006" d="M697.828,181.686a2.631,2.631,0,0,0-1.183.7,8.112,8.112,0,0,0-.794,1.875,6.459,6.459,0,0,1-2.375,2.218,3.529,3.529,0,0,0-1.8,2.612c0,1.562,1.725,2.543,2.287,3.994.535,1.355,0,2.861-.3,4.288a3,3,0,0,0-.035,1.414,3.073,3.073,0,0,0,.527.954c1.087,1.478,2.437,2.789,3.164,4.472a13.845,13.845,0,0,1,.85,4.078,20.491,20.491,0,0,1,.039,6,.607.607,0,0,0,0,.362.562.562,0,0,0,.288.246,5.914,5.914,0,0,0,8.006-2.957c.493-1.116.682-2.464,1.658-3.189a.831.831,0,0,1,.4-.18,1.16,1.16,0,0,1,.641.214,6.31,6.31,0,0,0,4.214.424,3.917,3.917,0,0,0,2.289-1.138c1.111-1.321.493-3.295.567-5.017.059-1.377.589-2.831,0-4.078-.665-1.424-2.619-2.139-2.782-3.7-.1-.931.508-1.777.776-2.674.638-2.151-.687-4.344-1.954-6.195a8.575,8.575,0,0,0-1.55-1.86,7.442,7.442,0,0,0-1.863-1.035,45.528,45.528,0,0,0-5.667-1.708A8.578,8.578,0,0,0,697.828,181.686Z" transform="translate(948.776 4179.636)" fill="#85555c"/>
    <path id="Path_6014" data-name="Path 6014" d="M732.028,253.013H725.5V242.433a19.7,19.7,0,0,0,.34-3.08v-1.06a5.448,5.448,0,0,0-1.008-3.29c-1.8-2.026,5.852-1.688,5.852-1.688a19.085,19.085,0,0,0,.912,2.725,16.572,16.572,0,0,0,2.193,3.861,8.934,8.934,0,0,0,2.974,2.531C741.256,244.685,732.028,253.013,732.028,253.013Z" transform="translate(924.001 4140.455)" fill="#f8bdc5"/>
    <g id="Group_5671" data-name="Group 5671" transform="translate(1648.55 4373.749)" opacity="0.1">
      <path id="Path_5920" data-name="Path 5920" d="M731.565,236.041a5.975,5.975,0,0,1-5.756,2.252A5.448,5.448,0,0,0,724.8,235c-1.8-2.026,5.852-1.688,5.852-1.688A19.047,19.047,0,0,0,731.565,236.041Z" transform="translate(-724.526 -233.294)"/>
    </g>
    <circle id="Ellipse_87" data-name="Ellipse 87" cx="5.966" cy="5.966" r="5.966" transform="translate(1644.884 4366.57)" fill="#f8bdc5"/>
    <path id="Path_6015" data-name="Path 6015" d="M795.435,248.34a35.442,35.442,0,0,0-.562,4.726c-.091,2.028-1.535,9.381-2.063,12.005a2.082,2.082,0,0,1-1.247,1.52c-1.464.6-4.125.934-5.914-3.282a46.669,46.669,0,0,1-2.447-7.171,19.389,19.389,0,0,1-.493-2.508l3.943-2.139a4.855,4.855,0,0,1,.931,1.2,7.993,7.993,0,0,1,.986,4.544l1.232,1.8s3.038-9.455,2.464-11.143,1.8-2.139,1.8-2.139,6.641-5.175,7.429-4.389S799.148,246.088,795.435,248.34Z" transform="translate(880.177 4134.437)" fill="#f8bdc5"/>
    <path id="Path_6002" data-name="Path 6002" d="M653.61,243.007a26.589,26.589,0,0,1-1.06,2.587c-1.326,2.851-3.923,7.392-7.944,10.019-6.19,4.051-4.84-4.164-4.84-4.164s1.515-9.768,1.8-10.692a11.683,11.683,0,0,0,.224-3.713c-2.363-1.126-5.064-8.215-4.278-8.78s6.407,5.966,6.407,5.966,2.59,1.232,1.232,3.265-.789,11.029-.789,11.029l2.6-3.6a17.968,17.968,0,0,1,2.314-4.209c.493-.673.838-1.079.838-1.079Z" transform="translate(989.699 4144.271)" fill="#f8bdc5"/>
    <g id="Group_5672" data-name="Group 5672" transform="translate(1662.882 4385.926)" opacity="0.1">
      <path id="Path_5923" data-name="Path 5923" d="M787.571,283.908c-.828.306-4.034,1.6-4.389,3.45a19.392,19.392,0,0,1-.493-2.508l3.943-2.139a4.858,4.858,0,0,1,.939,1.2Z" transform="translate(-782.69 -282.71)"/>
    </g>
    <g id="Group_5666" data-name="Group 5666" transform="translate(1638.983 4383.905)" opacity="0.1">
      <path id="Path_5924" data-name="Path 5924" d="M690.027,277.883a26.6,26.6,0,0,1-1.06,2.587c-.153-1.114-.781-3.962-3.267-4.881.493-.673.838-1.079.838-1.079Z" transform="translate(-685.7 -274.51)"/>
    </g>
    <g id="Group_5673" data-name="Group 5673" transform="translate(1649.5 4379.807)" opacity="0.1">
      <path id="Path_5925" data-name="Path 5925" d="M734.91,271.541h-6.53V260.96a19.709,19.709,0,0,0,.34-3.08,4.061,4.061,0,0,1,1.01,3.3l3.489,7.885,1.69-6.971-.562-.9,2.316-2.755a8.935,8.935,0,0,0,2.974,2.531C744.138,263.212,734.91,271.541,734.91,271.541Z" transform="translate(-728.38 -257.88)"/>
    </g>
    <g id="Group_5667" data-name="Group 5667" transform="translate(1638.815 4411.131)" opacity="0.1">
      <path id="Path_5926" data-name="Path 5926" d="M706.847,388.943s-5.115-.407-9.553-.6l-.446-.02c-.631-.025-1.232-.044-1.821-.059a40.789,40.789,0,0,1-10.007-1.873A16.437,16.437,0,0,1,686.025,385l6.754,1.478s1.064.34,3.43,1.387L692.328,385l11.828,2.139s.411-.052,2.587,1.165Z" transform="translate(-685.02 -385)"/>
    </g>
    <path id="Path_6007" data-name="Path 6007" d="M701.865,262.506l-.562-.9,2.5-2.989s5.152,2.526,6.5,1.971c0,0,3.265,2.711,3.376,4.278,0,0-4.726,1.575-4.615,3.943s-2.242,7.427-2.242,7.427l-.986,4.046a18.009,18.009,0,0,0-.246,7.491l.9,5.01s-7.092-.562-11.828-.675a41.019,41.019,0,0,1-10.13-1.912l2.762-5.813a14.785,14.785,0,0,0,1.424-6.722l-.246-9.41s-.224-4.726-3.943-5.515c0,0,2.026-4.164,5.175-3.827,0,0,4.588-1.915,5.951-.621a4.055,4.055,0,0,1,1.028,3.322l3.489,7.885Z" transform="translate(954.164 4121.958)" fill="#ed677b"/>
    <g id="Group_5668" data-name="Group 5668" transform="translate(1644.875 4363.943)" opacity="0.1">
      <path id="Path_5928" data-name="Path 5928" d="M711.283,200.863c.9,0,1.614-.959,2.518-.909a2.565,2.565,0,0,1,1.257.591,15.339,15.339,0,0,0,4.807,2.218,4.194,4.194,0,0,0,2.045.148,1.744,1.744,0,0,0,1.375-1.377,2.348,2.348,0,0,0-.118-.894,11.057,11.057,0,0,0-4.815-6.355,3.791,3.791,0,0,0-3.117-.653,6.181,6.181,0,0,0-2.218,1.922,8.427,8.427,0,0,1-1.725,1.4c-.493.3-1.232.493-1.515,1.04C709.243,199.013,710.083,200.853,711.283,200.863Z" transform="translate(-709.613 -193.5)"/>
    </g>
    <path id="Path_6008" data-name="Path 6008" d="M711.283,199.953c.9,0,1.614-.959,2.518-.909a2.565,2.565,0,0,1,1.257.591,15.339,15.339,0,0,0,4.807,2.218,4.194,4.194,0,0,0,2.045.148,1.744,1.744,0,0,0,1.375-1.377,2.348,2.348,0,0,0-.118-.894,11.057,11.057,0,0,0-4.815-6.355,3.791,3.791,0,0,0-3.117-.653,6.181,6.181,0,0,0-2.218,1.922,8.428,8.428,0,0,1-1.725,1.4c-.493.3-1.232.493-1.515,1.04C709.243,198.112,710.083,199.941,711.283,199.953Z" transform="translate(935.262 4171.129)" fill="#85555c"/>
    <path id="Path_6009" data-name="Path 6009" d="M705.32,326.79s5.515,2.025,9.117.451l1.8.113s2.994,2.1,6.16,1.161" transform="translate(938.497 4069.998)" opacity="0.05"/>
    <path id="Path_6016" data-name="Path 6016" d="M809.528,313.09s-.9,2.139-.451,2.814" transform="translate(860.401 4080.322)" opacity="0.05"/>
    <path id="Path_6003" data-name="Path 6003" d="M665.58,310.35s.451,2.139,0,2.814" transform="translate(968.445 4082.386)" opacity="0.05"/>
    <path id="Path_6018" data-name="Path 6018" d="M1000.164,508.14a24.616,24.616,0,0,0-4.49,25.607c5.82,15.3-9.975,40.737-9.975,40.737s.17-.025.493-.079a30.015,30.015,0,0,0,19.92-45.943C1001.724,521.771,998.131,513.926,1000.164,508.14Z" transform="translate(727.206 3933.334)" fill="#6c63ff"/>
    <path id="Path_6019" data-name="Path 6019" d="M1000.164,508.84a24.616,24.616,0,0,0-4.49,25.607c5.82,15.3-9.975,40.734-9.975,40.734s.17-.025.493-.079a30.015,30.015,0,0,0,19.92-45.943C1001.724,522.471,998.131,514.626,1000.164,508.84Z" transform="translate(727.206 3932.806)" opacity="0.1"/>
    <path id="Path_6020" data-name="Path 6020" d="M1000.157,508.14s-5.82,12.636,0,22.946.986,39.241-14.467,43.4" transform="translate(727.213 3933.334)" fill="none" stroke="#535461" stroke-miterlimit="10" stroke-width="1"/>
    <path id="Path_6021" data-name="Path 6021" d="M1010.463,676.966s-11.764-1.873-12.835,8.669-22.628,12-22.628,12l.4.269c17.791,11.68,34.8,7.439,32.235-8.07C1006.693,684.073,1006.772,678.282,1010.463,676.966Z" transform="translate(735.269 3806.205)" fill="#6c63ff"/>
    <path id="Path_6022" data-name="Path 6022" d="M1010.494,677.36s-9.132,2-8.378,10.307-13.552,18.256-27.075,10.366" transform="translate(735.239 3805.812)" fill="none" stroke="#535461" stroke-miterlimit="10" stroke-width="1"/>
    <path id="Path_6017" data-name="Path 6017" d="M965.672,734.987s-9.265-1.853-11.737-4.324-13.589-6.794-14.824-3.7-16.677,13.589-6.177,15.443,24.708,2.464,27.8,1.232S965.672,734.987,965.672,734.987Z" transform="translate(769.711 3769.24)" fill="#a8a8a8"/>
    <path id="Path_6023" data-name="Path 6023" d="M932.941,768.873c10.5,1.853,24.708,2.464,27.8,1.232,2.353-.941,3.987-5.461,4.633-7.565l.308.064s-1.853,7.412-4.941,8.646-17.3.618-27.8-1.232c-3.031-.535-3.9-1.791-3.57-3.381C929.627,767.675,930.684,768.474,932.941,768.873Z" transform="translate(769.704 3741.621)" opacity="0.2"/>
  </g>
</svg>
