<?xml version="1.0" encoding="utf-8"?>
<!-- Generator: Adobe Illustrator 23.0.5, SVG Export Plug-In . SVG Version: 6.00 Build 0)  -->
<svg version="1.1" id="Capa_1" xmlns="http://www.w3.org/2000/svg" xmlns:xlink="http://www.w3.org/1999/xlink" x="0px" y="0px"
	 viewBox="0 0 30 30.6" style="enable-background:new 0 0 30 30.6;" xml:space="preserve">
<style type="text/css">
	.st0{fill:#89C8FD;}
	.st1{fill:#60B6FF;}
	.st2{fill:#BAEB6C;}
	.st3{fill:#96D629;}
	.st4{fill:#09A66D;}
	.st5{fill:#49CB5C;}
	.st6{fill:#07B128;}
	.st7{fill:#009E4A;}
	.st8{font-family:'Calibri';}
	.st9{font-size:22.0185px;}
</style>
<title>Sin título-1 [Recuperado]</title>
<path class="st0" d="M28.9,15.4c0-7.4-6-13.4-13.3-13.4S2.3,8.1,2.3,15.4s6,13.4,13.3,13.4S28.9,22.8,28.9,15.4z"/>
<path class="st1" d="M15.6,2.1c-0.7,0-1.3,0.1-2,0.2c6.4,1,11.3,6.5,11.3,13.2S20,27.7,13.6,28.6c0.7,0.1,1.3,0.2,2,0.2
	c7.4,0,13.3-6,13.3-13.4S23,2.1,15.6,2.1z"/>
<g>
	<path class="st2" d="M13.9,7.3c-2.1,1.3-3.6,3.3-2.4,5.7s3.7,1.4,6.1,1.1c2.4-0.3,0.6,7,2,8.8c1.4,1.8,5.4-1.8,5-4.1
		c-0.6-3.4-0.8-4.6,3.8-7.1l0,0c-1.6-5.3-6.3-9.2-11.9-9.5v0C16.4,2.1,15.9,6,13.9,7.3z"/>
	<path class="st2" d="M24,5L24,5L24,5z"/>
	<path class="st2" d="M25.6,6.6L25.6,6.6z"/>
	<path class="st2" d="M6.8,21.5c-0.6-0.9,1.1-3.1,1.5-4.8c0.4-1.7-1.9-1.5-2.6-2.1c-0.7-0.6-1.7-3.1-2.4-3.7l-0.1-0.1
		c-2.1,5.6-0.2,11.9,4.6,15.4l0-0.3C7.7,25.9,8.2,23.7,6.8,21.5z"/>
	<path class="st2" d="M24.5,18.7C24.5,18.7,24.5,18.7,24.5,18.7c-0.3,1-0.6,2-1.1,2.9C24.2,20.7,24.7,19.6,24.5,18.7z"/>
</g>
<path class="st3" d="M16.4,2.1L16.4,2.1c0,0,0,0.3-0.2,0.8C21,4.7,24.4,9,24.8,14.2c0.6-0.8,1.7-1.6,3.5-2.6l0,0
	C26.8,6.4,22.1,2.5,16.4,2.1z"/>
<g>
	<path class="st4" d="M25,15.3c0.1,0,0.2,0,0.3,0c0.1-0.1,0.2-0.1,0.3-0.1c0.1,0,0.1,0,0.2,0c0-1.3-0.3-2.6-0.8-3.8
		c-2.2-4.8-7.9-7-12.7-4.8c-1.8,0.8-3.3,2.2-4.3,3.9c-0.2,0.4-0.4,0.8-0.6,1.3c0.1,0,0.1,0,0.2,0c0.2,0,0.4,0.1,0.4,0.3
		c0.2-0.4,0.4-0.9,0.6-1.3c1.2-2,3.1-3.5,5.4-4.1c4.7-1.3,9.6,1.6,10.9,6.3C24.9,13.8,25,14.6,25,15.3z"/>
	<path class="st4" d="M23.5,20.8c0,0,0-0.1-0.1-0.1c-1.2,1.7-3,3-5,3.5c-4.2,1.1-8.6-1-10.4-4.9c-0.1,0-0.3,0.1-0.4,0.1
		c0,0-0.1,0-0.1,0c0,0-0.1,0-0.1,0l0,0c2.2,4.8,7.9,7,12.7,4.8c1.6-0.7,2.9-1.8,3.9-3.2C23.8,21,23.6,20.9,23.5,20.8z"/>
	<g>
		<path class="st5" d="M8.4,10.5c0,0,0.9,1.6,0.3,2.8c-0.6,1.2-2.3,1.5-2.3,1.5S5.5,13.1,6.1,12S8.4,10.5,8.4,10.5z"/>
		<path class="st6" d="M8.7,13.2c0.6-1.2-0.3-2.8-0.3-2.8s-0.1,0-0.3,0.1c0.2,0.6,0.3,1.3,0,1.9c-0.4,0.8-1.4,1.3-2,1.4
			c0.1,0.3,0.2,0.6,0.3,0.9C6.4,14.7,8.2,14.4,8.7,13.2z"/>
		<path class="st4" d="M8.4,13.7l-0.5-1.6l0.7-1.5c-0.1-0.1-0.1-0.2-0.1-0.2s-0.1,0-0.2,0l-0.7,1.4l-1.6,0.6c0,0.1,0,0.3,0,0.4
			l1.4-0.5l-1,2.1c0.1,0.1,0.1,0.2,0.1,0.2s0.1,0,0.2-0.1l1-2.1L8.1,14C8.2,13.9,8.3,13.8,8.4,13.7z"/>
	</g>
	<g>
		<path class="st5" d="M25.2,17.3c0,0,0.9,1.6,0.3,2.8c-0.6,1.2-2.3,1.5-2.3,1.5s-0.9-1.6-0.3-2.8S25.2,17.3,25.2,17.3z"/>
		<path class="st6" d="M25.5,20.1c0.6-1.2-0.3-2.8-0.3-2.8s-0.1,0-0.3,0.1c0.2,0.6,0.3,1.3,0,1.9c-0.4,0.8-1.4,1.3-2,1.4
			c0.1,0.3,0.2,0.6,0.3,0.9C23.2,21.6,25,21.3,25.5,20.1z"/>
		<path class="st4" d="M25.2,20.6L24.6,19l0.7-1.5c-0.1-0.1-0.1-0.2-0.1-0.2s-0.1,0-0.2,0l-0.7,1.4l-1.6,0.6c0,0.1,0,0.3,0,0.4
			l1.4-0.5l-1,2.1c0.1,0.1,0.1,0.2,0.1,0.2s0.1,0,0.2-0.1l1-2.1l0.5,1.4C25,20.8,25.1,20.7,25.2,20.6z"/>
	</g>
</g>
<text transform="matrix(1 0 0 1 10.2392 22.4064)" class="st7 st8 st9">E</text>
</svg>
